<?xml version="1.0" encoding="utf-8"?>
<!-- Generator: Adobe Illustrator 16.0.0, SVG Export Plug-In . SVG Version: 6.00 Build 0)  -->
<!DOCTYPE svg PUBLIC "-//W3C//DTD SVG 1.1//EN" "http://www.w3.org/Graphics/SVG/1.1/DTD/svg11.dtd">
<svg version="1.1" id="layer_1" xmlns="http://www.w3.org/2000/svg" xmlns:xlink="http://www.w3.org/1999/xlink" x="0px" y="0px"
	 width="628.766px" height="526.5px" viewBox="0 0 628.766 526.5" enable-background="new 0 0 628.766 526.5" xml:space="preserve">
<g>
	<g>
		<g>
			<path fill="#D6EAFA" d="M454.507,299.018h117.216c-8.658,0-16.531,3.428-22.204,9.144c-5.695,5.738-9.214,12.495-9.214,21.245
				c0,17.47,14.076,30.478,31.418,30.478H454.507c8.657,0,16.506-2.467,22.201-8.155c5.671-5.712,9.191-12.978,9.191-21.728
				C485.9,312.505,471.848,299.018,454.507,299.018z"/>
		</g>
		<g>
			<circle fill="#D6EAFA" cx="314.063" cy="269.07" r="228.214"/>
		</g>
		<g>
			<path fill="#EAF5FE" d="M314.062,460.347c-105.47,0-191.276-85.807-191.276-191.277c0-105.471,85.806-191.277,191.276-191.277
				c105.471,0,191.278,85.806,191.278,191.277C505.34,374.541,419.532,460.347,314.062,460.347z M314.062,84.563
				c-101.737,0-184.506,82.77-184.506,184.507s82.769,184.507,184.506,184.507c101.736,0,184.508-82.77,184.508-184.507
				S415.798,84.563,314.062,84.563z"/>
		</g>
		<g>
			<path fill="#D6EAFA" d="M134.587,401.141h93.665c9.656,0,17.482,7.827,17.482,17.482l0,0c0,9.656-7.827,17.483-17.482,17.483
				h-93.666c-9.655,0-17.482-7.827-17.482-17.483l0,0C117.104,408.968,124.931,401.141,134.587,401.141z"/>
		</g>
		<g>
			<path fill="#D6EAFA" d="M112.029,469.9H250.81c6.258,0,11.332,5.074,11.332,11.332l0,0c0,6.261-5.073,11.331-11.332,11.331
				H112.029c-6.258,0-11.332-5.07-11.332-11.331l0,0C100.698,474.974,105.771,469.9,112.029,469.9z"/>
		</g>
		<g>
			<path fill="#D6EAFA" d="M415.154,492.735h21.176c6.259,0,11.331,5.074,11.331,11.332l0,0c0,6.257-5.072,11.331-11.331,11.331
				h-21.176c-6.257,0-11.331-5.074-11.331-11.331l0,0C403.823,497.809,408.897,492.735,415.154,492.735z"/>
		</g>
		<g>
			<path fill="#D6EAFA" d="M404.635,425.705h103.128c10.264,0,18.587,8.32,18.587,18.587l0,0c0,10.264-8.323,18.588-18.587,18.588
				H404.635c-10.265,0-18.587-8.324-18.587-18.588l0,0C386.048,434.025,394.37,425.705,404.635,425.705z"/>
		</g>
		<g>
			<path fill="#D6EAFA" d="M409.948,236.212h168.239c17.343,0,31.401,14.059,31.401,31.403l0,0
				c0,17.341-14.059,31.402-31.401,31.402H409.948c-17.343,0-31.403-14.062-31.403-31.402l0,0
				C378.544,250.271,392.605,236.212,409.948,236.212z"/>
		</g>
		<g>
			<path fill="#D6EAFA" d="M150.732,436.051h65.259c-4.82,0-9.204,2.085-12.361,5.242c-3.171,3.174-5.13,6.919-5.13,11.755
				c0,9.652,7.837,16.852,17.492,16.852h-65.259c4.82,0,9.19-1.279,12.361-4.423c3.157-3.157,5.116-7.318,5.116-12.154
				C168.209,443.654,160.386,436.051,150.732,436.051z"/>
		</g>
		<g>
			<path fill="#D6EAFA" d="M346.656,360.026h249.273c11.242,0,20.354,9.113,20.354,20.353l0,0c0,11.242-9.112,20.353-20.354,20.353
				H346.656c-11.24,0-20.353-9.11-20.353-20.353l0,0C326.303,369.139,335.415,360.026,346.656,360.026z"/>
		</g>
		<g>
			<path fill="#D6EAFA" d="M265.946,208.905H68.807c-18.414,0-33.341-14.928-33.341-33.34l0,0c0-18.416,14.927-33.343,33.341-33.343
				h197.139c18.414,0,33.341,14.928,33.341,33.343l0,0C299.287,193.977,284.36,208.905,265.946,208.905z"/>
		</g>
		<g>
			<path fill="#D6EAFA" d="M348.057,401.937H63.174c-26.609,0-48.181-21.572-48.181-48.179v-0.003
				c0-26.606,21.572-48.179,48.182-48.179h284.882c26.61,0,48.183,21.572,48.183,48.179v0.003
				C396.24,380.365,374.667,401.937,348.057,401.937z"/>
		</g>
		<g>
			<path fill="#D6EAFA" d="M509.257,132.305H351.974c-14.689,0-26.6-11.91-26.6-26.6l0,0c0-14.69,11.91-26.6,26.6-26.6h157.283
				c14.689,0,26.6,11.91,26.6,26.6l0,0C535.857,120.395,523.947,132.305,509.257,132.305z"/>
		</g>
		<g>
			<path fill="#D6EAFA" d="M313.38,85.485H126.109c-12.324,0-22.314-9.99-22.314-22.313l0,0c0-12.323,9.99-22.313,22.314-22.313
				H313.38c12.325,0,22.314,9.989,22.314,22.313l0,0C335.695,75.495,325.705,85.485,313.38,85.485z"/>
		</g>
		<g>
			<path fill="#D6EAFA" d="M460.876,40.859h-37.351c-7.995,0-14.478-6.482-14.478-14.479l0,0c0-7.993,6.482-14.475,14.478-14.475
				h37.351c7.993,0,14.476,6.482,14.476,14.475l0,0C475.352,34.377,468.869,40.859,460.876,40.859z"/>
		</g>
	</g>
	<g>
		<g id="XMLID_384_">
			<g id="XMLID_390_">
				<g id="XMLID_391_">
					<g>
						<g>
							<path fill="#92D0EF" d="M418.316,216.207c-0.336-2.654-2.755-5.173-5.383-5.646l-10.361-1.795
								c-2.66-0.473-5.482-2.906-6.349-5.48l-4.175-10.261c-1.147-2.396-0.863-6.145,0.747-8.31l6.159-8.571
								c1.549-2.162,1.516-5.706-0.107-7.798l-5.573-6.611c-1.844-1.94-5.275-2.595-7.698-1.408l-9.474,4.651
								c-2.423,1.15-6.11,0.807-8.213-0.803c0,0-1.611-1.25-4.64-3.134c-2.998-1.848-4.839-2.737-4.839-2.737
								c-2.36-1.217-4.327-4.34-4.351-7.011l-0.033-10.594c-0.056-2.641-2.153-5.494-4.713-6.244l-8.363-2.05
								c-2.599-0.506-5.775,0.992-7.051,3.352l-1.601,3.035l-1.93,3.679l-1.375,2.605c-1.273,2.357-4.494,4.324-7.167,4.35
								l-4.076,0.261l-1.834,0.139l-5.138,0.394c-2.684,0.367-6.123-1.094-7.712-3.279l-6.21-8.459
								c-1.589-2.182-4.949-3.236-7.457-2.337l-8.008,3.239c-2.455,1.147-4.121,4.238-3.753,6.859l1.497,10.445
								c0.365,2.684-1.092,6.122-3.277,7.682l-8.486,7.203c-1.912,1.844-5.538,2.684-8.094,1.871l-10.042-3.22
								c-2.558-0.81-5.91,0.284-7.495,2.443c0,0-0.769,1.041-2.359,3.639c-1.625,2.661-2.215,3.735-2.215,3.735
								c-1.235,2.36-0.744,5.881,1.105,7.762l7.349,7.589c1.848,1.914,2.711,5.603,1.931,8.125l-2.71,10.836
								c-0.473,2.602-2.905,5.424-5.445,6.287l-10,3.312c-2.538,0.836-4.54,3.706-4.485,6.347l0.613,8.681
								c0.334,2.648,2.752,5.167,5.379,5.639l10.366,1.795c2.655,0.476,5.483,2.913,6.348,5.481l4.173,10.267
								c1.179,2.396,0.861,6.145-0.684,8.31l-6.191,8.602c-1.577,2.132-1.519,5.679,0.138,7.771l5.511,6.607
								c1.843,1.943,5.275,2.592,7.699,1.408l9.473-4.657c2.394-1.181,6.081-0.804,8.213,0.803c0,0,1.675,1.26,4.64,3.141
								c2.995,1.845,4.866,2.796,4.866,2.796c2.364,1.15,4.331,4.278,4.352,6.981l0.035,10.565c0.023,2.641,2.125,5.49,4.681,6.244
								l8.368,2.049c2.596,0.51,5.774-0.998,7.046-3.352l4.936-9.315c1.243-2.36,4.462-4.297,7.137-4.354l11.05-0.793
								c2.682-0.367,6.124,1.094,7.712,3.272l6.21,8.462c1.588,2.186,4.946,3.24,7.457,2.341l8.039-3.299
								c2.42-1.091,4.086-4.179,3.723-6.833l-1.499-10.416c-0.364-2.681,1.094-6.125,3.277-7.679l8.485-7.206
								c1.942-1.845,5.602-2.707,8.127-1.864l10.045,3.184c2.526,0.839,5.881-0.284,7.458-2.417c0,0,0.771-1.038,2.394-3.633
								c1.655-2.657,2.182-3.765,2.182-3.765c1.241-2.327,0.743-5.854-1.102-7.791l-7.321-7.53
								c-1.874-1.947-2.742-5.603-1.931-8.125l2.678-10.809c0.473-2.628,2.908-5.451,5.447-6.317l10.029-3.306
								c2.507-0.866,4.571-3.706,4.456-6.41L418.316,216.207z M368.538,256.562c-15.992,25.741-49.814,33.615-75.584,17.622
								c-25.71-15.995-33.646-49.788-17.622-75.559c9.117-14.703,24.044-23.542,39.974-25.516c1.805-0.235,3.672-0.334,5.505-0.321
								c1.711-0.079,3.389-0.033,5.06,0.136c1.864,0.079,3.661,0.277,5.517,0.608c6.711,1.144,13.326,3.613,19.503,7.444
								C376.627,196.965,384.534,230.791,368.538,256.562z"/>
						</g>
					</g>
				</g>
			</g>
			<g id="XMLID_385_">
				<g id="XMLID_386_">
					<g>
						<g>
							<path fill="#92D0EF" d="M342.552,194.423c-3.668-2.331-7.604-3.897-11.585-4.869c-5.373-1.292-10.839-1.405-16.084-0.42
								c-10.458,1.897-20.126,8.039-26.193,17.827c-11.418,18.369-5.774,42.443,12.63,53.861
								c18.341,11.417,42.443,5.804,53.895-12.598C366.6,229.882,360.924,205.781,342.552,194.423z M333.905,234.989
								c-4.119,6.604-12.811,8.707-19.382,4.585c-6.664-4.152-8.643-12.836-4.553-19.44c1.101-1.771,2.541-3.292,4.214-4.33
								c4.428-2.932,10.334-3.15,15.198-0.162c0.337,0.166,0.611,0.387,0.884,0.645C336.117,220.541,337.8,228.695,333.905,234.989z
								"/>
						</g>
					</g>
				</g>
			</g>
		</g>
		<g id="XMLID_403_">
			<g id="XMLID_405_">
				<path fill="#0072CD" d="M303.939,324.574c-0.468,0-0.93-0.045-1.372-0.131l-8.444-2.065c-3.352-0.987-5.941-4.437-5.971-7.874
					l-0.035-10.575c-0.016-2.032-1.604-4.589-3.4-5.464c-0.106-0.055-1.994-1.018-5.013-2.877c-3.006-1.907-4.699-3.176-4.77-3.229
					c-0.959-0.723-2.426-1.152-3.926-1.152c-0.952,0-1.848,0.182-2.522,0.514l-9.474,4.659c-1.029,0.503-2.227,0.768-3.467,0.768
					c-2.385,0-4.706-0.945-6.207-2.529l-5.583-6.688c-2.149-2.714-2.226-7.122-0.198-9.862l6.177-8.583
					c1.188-1.666,1.442-4.74,0.539-6.575l-4.222-10.376c-0.707-2.089-3.016-4.082-5.079-4.453l-10.356-1.793
					c-3.375-0.607-6.343-3.722-6.77-7.096l-0.623-8.773c-0.075-3.497,2.406-7.006,5.644-8.074l9.997-3.311
					c1.928-0.654,3.948-2.987,4.312-4.983l2.733-10.943c0.632-2.053-0.084-5.066-1.506-6.54l-7.348-7.588
					c-2.367-2.407-2.981-6.682-1.388-9.724c0.015-0.028,0.615-1.124,2.269-3.833c1.612-2.631,2.409-3.717,2.442-3.762
					c1.515-2.063,4.283-3.398,7.05-3.398c0.813,0,1.593,0.118,2.318,0.347l10.048,3.221c0.479,0.152,1.03,0.23,1.638,0.23
					c1.792,0,3.707-0.686,4.765-1.708l8.565-7.275c1.768-1.27,2.975-4.109,2.696-6.164l-1.495-10.434
					c-0.474-3.387,1.596-7.177,4.712-8.633l8.089-3.274c3.401-1.231,7.486,0.202,9.459,2.909l6.207,8.454
					c1.195,1.645,3.995,2.893,6.119,2.603l11.169-0.805c2.141-0.023,4.802-1.641,5.786-3.466l4.896-9.303
					c1.389-2.568,4.47-4.352,7.501-4.352c0.469,0,0.929,0.043,1.37,0.129l8.444,2.066c3.325,0.973,5.93,4.415,6.003,7.852
					l0.032,10.626c0.017,1.998,1.622,4.578,3.435,5.512c0.038,0.018,1.914,0.929,4.95,2.8c3.072,1.912,4.719,3.183,4.788,3.238
					c0.919,0.702,2.369,1.125,3.871,1.125c0.965,0,1.881-0.182,2.578-0.514l9.456-4.641c1.022-0.502,2.22-0.767,3.461-0.767
					c2.383,0,4.705,0.945,6.209,2.527l5.643,6.687c2.1,2.706,2.165,7.112,0.188,9.874l-6.161,8.575
					c-1.224,1.645-1.494,4.714-0.595,6.589l4.214,10.355c0.708,2.092,3.015,4.085,5.078,4.453l10.354,1.793
					c3.376,0.608,6.348,3.725,6.772,7.102l0.622,8.711c0.146,3.446-2.31,6.997-5.592,8.13l-10.052,3.313
					c-1.928,0.658-3.95,3-4.311,5.008l-2.701,10.917c-0.652,2.043,0.066,5.048,1.508,6.545l7.315,7.523
					c2.375,2.494,2.975,6.778,1.382,9.769l0,0c0,0-0.567,1.178-2.238,3.862c-1.642,2.626-2.439,3.704-2.473,3.748
					c-1.518,2.052-4.268,3.379-7.005,3.379c-0.826,0-1.616-0.122-2.347-0.365l-10.022-3.177c-1.943-0.649-4.998,0.101-6.449,1.478
					l-8.555,7.271c-1.769,1.266-2.975,4.104-2.697,6.16l1.497,10.402c0.473,3.437-1.593,7.216-4.7,8.618l-8.092,3.32
					c-3.448,1.246-7.501-0.2-9.471-2.911l-6.203-8.455c-1.195-1.64-4.005-2.891-6.12-2.597l-11.158,0.803
					c-2.163,0.048-4.814,1.661-5.76,3.455l-4.938,9.318C310.047,322.789,306.968,324.574,303.939,324.574z M271.009,287.821
					c2.242,0,4.415,0.668,5.961,1.833c0.015,0.012,1.667,1.248,4.529,3.063c2.87,1.769,4.708,2.709,4.727,2.719
					c2.921,1.421,5.251,5.15,5.277,8.476l0.035,10.572c0.017,1.921,1.637,4.086,3.467,4.627l8.292,2.027
					c0.158,0.03,0.399,0.052,0.644,0.052c1.782,0,3.721-1.103,4.512-2.563l4.928-9.302c1.515-2.876,5.291-5.186,8.597-5.255
					l10.965-0.788c0.245-0.038,0.608-0.062,0.977-0.062c3.116,0,6.497,1.655,8.227,4.023l6.204,8.459
					c0.859,1.182,2.525,1.97,4.155,1.97c0.496,0,0.957-0.074,1.368-0.222l7.967-3.271c1.669-0.754,2.952-3.119,2.688-5.038
					l-1.497-10.404c-0.45-3.315,1.295-7.395,3.972-9.298l8.371-7.119c1.652-1.573,4.387-2.59,7.059-2.59
					c0.974,0,1.883,0.139,2.699,0.412l10.021,3.175c1.859,0.618,4.465-0.294,5.587-1.81c0.008-0.012,0.769-1.042,2.318-3.524
					c1.559-2.504,2.085-3.586,2.09-3.598c0.936-1.757,0.547-4.48-0.799-5.894l-7.31-7.518c-2.312-2.399-3.329-6.712-2.327-9.824
					l2.645-10.697c0.555-3.107,3.438-6.452,6.543-7.512l10.046-3.312c1.826-0.63,3.375-2.843,3.294-4.729l-0.608-8.573
					c-0.234-1.834-2.067-3.753-3.996-4.101l-10.351-1.793c-3.302-0.586-6.594-3.428-7.664-6.609l-4.137-10.161
					c-1.399-2.914-0.998-7.331,0.955-9.958l6.146-8.55c1.126-1.572,1.094-4.271-0.069-5.771l-5.53-6.558
					c-1.198-1.253-3.974-1.805-5.662-0.979l-9.474,4.649c-1.179,0.56-2.572,0.851-4.05,0.851c-2.255,0-4.416-0.666-5.937-1.83
					c-0.023-0.018-1.604-1.235-4.506-3.041c-2.866-1.767-4.661-2.641-4.681-2.649c-2.965-1.527-5.279-5.263-5.306-8.52
					l-0.033-10.604c-0.039-1.916-1.676-4.091-3.497-4.625l-8.29-2.03c-0.155-0.03-0.398-0.049-0.645-0.049
					c-1.783,0-3.726,1.101-4.514,2.562l-4.897,9.304c-1.577,2.919-5.372,5.219-8.647,5.252l-10.936,0.789
					c-0.252,0.038-0.615,0.061-0.984,0.061c-3.116,0-6.499-1.658-8.225-4.033l-6.206-8.453c-0.859-1.178-2.526-1.967-4.154-1.967
					c-0.497,0-0.957,0.075-1.367,0.222l-7.944,3.215c-1.672,0.783-2.977,3.163-2.712,5.056l1.496,10.441
					c0.451,3.31-1.293,7.389-3.969,9.298l-8.374,7.117c-1.618,1.565-4.344,2.583-7.034,2.583c-0.956,0-1.854-0.132-2.668-0.39
					l-10.046-3.221c-1.782-0.562-4.499,0.314-5.614,1.833c-0.009,0.012-0.762,1.041-2.28,3.522
					c-1.574,2.577-2.159,3.638-2.175,3.666c-0.887,1.696-0.507,4.401,0.829,5.76l7.357,7.6c2.279,2.36,3.303,6.666,2.333,9.803
					l-2.685,10.745c-0.559,3.094-3.443,6.428-6.542,7.48l-10.012,3.316c-1.813,0.597-3.365,2.794-3.325,4.705l0.609,8.596
					c0.229,1.797,2.098,3.752,3.991,4.092l10.354,1.793c3.304,0.592,6.594,3.433,7.664,6.608l4.137,10.169
					c1.401,2.84,1.04,7.251-0.875,9.932l-6.195,8.606c-1.13,1.528-1.081,4.252,0.092,5.731l5.484,6.575
					c1.186,1.242,3.965,1.796,5.656,0.972l9.469-4.656C268.136,288.118,269.527,287.821,271.009,287.821z"/>
			</g>
			<g id="XMLID_404_">
				<path fill="#0072CD" d="M321.904,284.155c-10.527,0-20.847-2.95-29.842-8.533c-26.48-16.475-34.629-51.417-18.167-77.891
					c9.047-14.591,24.065-24.179,41.202-26.301c1.704-0.222,3.522-0.335,5.392-0.335l0.334,0.001
					c1.497-0.078,3.461-0.035,5.218,0.144c1.836,0.076,3.714,0.282,5.645,0.626c7.067,1.205,13.834,3.787,20.098,7.672
					c26.486,16.454,34.647,51.407,18.194,77.916C359.589,274.173,341.618,284.155,321.904,284.155z M322.429,174.443
					c-0.511,0-1.024,0.011-1.54,0.036h-0.4c-1.724,0-3.395,0.104-4.965,0.308c-16.126,1.998-30.247,11.011-38.753,24.73
					c-15.479,24.891-7.817,57.742,17.078,73.23c8.457,5.247,18.159,8.022,28.055,8.022c18.536,0,35.433-9.385,45.197-25.101
					c15.47-24.924,7.798-57.787-17.104-73.255c-5.89-3.654-12.246-6.081-18.894-7.214c-1.792-0.319-3.522-0.509-5.304-0.585
					C324.617,174.499,323.517,174.443,322.429,174.443z"/>
			</g>
		</g>
		<g id="XMLID_398_">
			<g id="XMLID_400_">
				<path fill="#0072CD" d="M321.94,268.427c-0.003,0-0.003,0-0.003,0c-7.593-0.002-15.032-2.134-21.511-6.168
					c-9.283-5.758-15.766-14.77-18.252-25.374c-2.486-10.604-0.683-21.549,5.079-30.818c6.053-9.766,16.015-16.546,27.329-18.599
					c5.5-1.03,11.272-0.884,16.783,0.439c4.409,1.078,8.479,2.789,12.095,5.087c9.259,5.724,15.741,14.727,18.233,25.337
					c2.492,10.603,0.701,21.534-5.041,30.785C349.128,261.208,336.151,268.427,321.94,268.427z M321.932,190.17
					c-2.256,0-4.522,0.212-6.735,0.626c-10.385,1.884-19.517,8.101-25.068,17.055c-5.285,8.502-6.939,18.538-4.66,28.259
					c2.28,9.725,8.226,17.989,16.744,23.273c5.945,3.701,12.765,5.656,19.725,5.657c0,0,0.001,0,0.003,0
					c13.034,0,24.936-6.621,31.836-17.711c5.265-8.479,6.905-18.503,4.621-28.223c-2.284-9.731-8.229-17.985-16.735-23.245
					c-3.322-2.111-7.048-3.676-11.096-4.664C327.735,190.518,324.825,190.17,321.932,190.17z"/>
			</g>
			<g id="XMLID_399_">
				<path fill="#0072CD" d="M321.868,243.38c-2.919,0-5.77-0.82-8.245-2.374c-7.388-4.601-9.674-14.366-5.093-21.764
					c1.273-2.049,2.919-3.735,4.761-4.877c4.905-3.251,11.758-3.372,16.975-0.165c0.398,0.187,0.785,0.507,1.081,0.78
					c6.524,4.813,8.283,13.971,3.996,20.899C332.413,240.579,327.377,243.38,321.868,243.38z M321.873,215.192
					c-2.423,0-4.758,0.699-6.756,2.023c-1.443,0.896-2.712,2.205-3.71,3.811c-3.6,5.814-1.802,13.49,4.011,17.111
					c1.94,1.216,4.168,1.858,6.45,1.858c4.332,0,8.296-2.207,10.6-5.902c3.378-5.456,1.974-12.678-3.198-16.438l-0.167-0.139
					c-0.198-0.186-0.334-0.29-0.466-0.355C326.482,215.847,324.191,215.192,321.873,215.192z"/>
			</g>
		</g>
	</g>
	<g>
		<g>
			<g>
				<circle fill="#54AAE3" cx="184.667" cy="329.687" r="61.068"/>
			</g>
		</g>
		<g>
			<g>
				<circle fill="#EAF5FE" cx="184.667" cy="329.687" r="47.877"/>
			</g>
		</g>
		<g>
			<g>
				<circle fill="#54AAE3" cx="184.667" cy="329.687" r="32.388"/>
			</g>
		</g>
		<g>
			<g>
				<circle fill="#EAF5FE" cx="184.667" cy="329.687" r="15.097"/>
			</g>
		</g>
		<g>
			<g>
				<path fill="#0072CD" d="M184.668,392.447c-34.606,0-62.761-28.153-62.761-62.76c0-34.605,28.154-62.76,62.761-62.76
					c34.606,0,62.759,28.154,62.759,62.76C247.427,364.293,219.274,392.447,184.668,392.447z M184.668,270.313
					c-32.74,0-59.376,26.635-59.376,59.374c0,32.74,26.636,59.375,59.376,59.375c32.739,0,59.375-26.635,59.375-59.375
					C244.042,296.948,217.407,270.313,184.668,270.313z"/>
			</g>
		</g>
		<g>
			<g>
				<path fill="#0072CD" d="M184.668,379.257c-27.333,0-49.57-22.236-49.57-49.57c0-27.333,22.237-49.57,49.57-49.57
					c27.332,0,49.568,22.237,49.568,49.57C234.236,357.021,212,379.257,184.668,379.257z M184.668,283.501
					c-25.466,0-46.185,20.72-46.185,46.186c0,25.467,20.719,46.186,46.185,46.186c25.466,0,46.184-20.719,46.184-46.186
					C230.851,304.221,210.134,283.501,184.668,283.501z"/>
			</g>
		</g>
		<g>
			<g>
				<path fill="#0072CD" d="M184.668,363.768c-18.792,0-34.081-15.288-34.081-34.081c0-18.792,15.288-34.08,34.081-34.08
					c18.792,0,34.08,15.288,34.08,34.08C218.748,348.48,203.46,363.768,184.668,363.768z M184.668,298.992
					c-16.926,0-30.696,13.77-30.696,30.695c0,16.927,13.77,30.696,30.696,30.696c16.925,0,30.695-13.77,30.695-30.696
					C215.363,312.761,201.593,298.992,184.668,298.992z"/>
			</g>
		</g>
		<g>
			<g>
				<path fill="#0072CD" d="M184.668,346.476c-9.258,0-16.79-7.531-16.79-16.789c0-9.257,7.532-16.789,16.79-16.789
					c9.258,0,16.79,7.532,16.79,16.789C201.457,338.945,193.926,346.476,184.668,346.476z M184.668,316.284
					c-7.392,0-13.405,6.013-13.405,13.403c0,7.392,6.014,13.404,13.405,13.404c7.391,0,13.405-6.013,13.405-13.404
					C198.073,322.296,192.059,316.284,184.668,316.284z"/>
			</g>
		</g>
		<g>
			<path fill="#FFFFFF" d="M185.021,325.932h-57.632l-6.929-5.223h-14.132l7.816,9.576l-7.816,7.831h14.132l6.929-5.22h57.631
				c2.008,0,3.637-1.475,3.637-3.484C188.658,327.407,187.03,325.932,185.021,325.932z"/>
		</g>
		<g>
			<path fill="#0072CD" d="M120.461,339.809h-14.132c-0.685,0-1.302-0.411-1.564-1.045c-0.262-0.631-0.117-1.358,0.366-1.843
				l6.736-6.75l-6.85-8.393c-0.414-0.506-0.498-1.205-0.217-1.795c0.28-0.59,0.875-0.967,1.529-0.967h14.132
				c0.368,0,0.726,0.119,1.019,0.341l6.476,4.882h57.066c2.988,0,5.33,2.272,5.33,5.173c0,2.902-2.341,5.177-5.33,5.177h-57.065
				l-6.478,4.879C121.186,339.69,120.828,339.809,120.461,339.809z M110.409,336.424h9.485l6.477-4.879
				c0.293-0.222,0.65-0.341,1.018-0.341h57.631c1.126,0,1.944-0.754,1.944-1.792c0-1.02-0.836-1.788-1.944-1.788h-57.632
				c-0.368,0-0.726-0.119-1.019-0.34l-6.476-4.883h-10l5.562,6.814c0.549,0.671,0.5,1.651-0.113,2.265L110.409,336.424z"/>
		</g>
	</g>
	<g>
		<g>
			<rect x="87.817" y="390.157" fill="#0072CD" width="22.848" height="6.77"/>
		</g>
		<g>
			<rect x="50.583" y="390.157" fill="#0072CD" width="25.387" height="6.77"/>
		</g>
		<g>
			<rect x="553.24" y="390.157" fill="#0072CD" width="25.388" height="6.77"/>
		</g>
		<g>
			<rect x="119.127" y="390.157" fill="#0072CD" width="412.111" height="6.77"/>
		</g>
	</g>
	<g>
		<path fill="#0072CD" d="M494.068,283.83c-3.917,0-7.104-3.188-7.104-7.104c0-3.915,3.187-7.1,7.104-7.1
			c3.916,0,7.101,3.185,7.101,7.1C501.168,280.642,497.984,283.83,494.068,283.83z M494.068,273.01
			c-2.049,0-3.719,1.666-3.719,3.715c0,2.052,1.67,3.719,3.719,3.719c2.05,0,3.716-1.667,3.716-3.719
			C497.783,274.676,496.117,273.01,494.068,273.01z"/>
	</g>
	<g>
		<path fill="#0072CD" d="M416.549,165.394c-3.916,0-7.101-3.187-7.101-7.104c0-3.916,3.185-7.101,7.101-7.101
			c3.917,0,7.104,3.185,7.104,7.101C423.653,162.207,420.466,165.394,416.549,165.394z M416.549,154.575
			c-2.05,0-3.716,1.666-3.716,3.715c0,2.051,1.666,3.719,3.716,3.719c2.049,0,3.719-1.668,3.719-3.719
			C420.268,156.241,418.598,154.575,416.549,154.575z"/>
	</g>
	<g>
		<path fill="#0072CD" d="M106.329,377.4c-3.917,0-7.102-3.185-7.102-7.101c0-3.917,3.186-7.104,7.102-7.104
			c3.916,0,7.102,3.187,7.102,7.104C113.431,374.215,110.245,377.4,106.329,377.4z M106.329,366.581
			c-2.05,0-3.717,1.668-3.717,3.719c0,2.05,1.667,3.716,3.717,3.716c2.049,0,3.717-1.666,3.717-3.716
			C110.046,368.249,108.378,366.581,106.329,366.581z"/>
	</g>
	<g>
		<path fill="#0072CD" d="M252.317,149.325c-3.917,0-7.102-3.187-7.102-7.104c0-3.916,3.186-7.101,7.102-7.101
			c3.916,0,7.102,3.185,7.102,7.101C259.419,146.139,256.233,149.325,252.317,149.325z M252.317,138.506
			c-2.05,0-3.717,1.666-3.717,3.716c0,2.051,1.667,3.719,3.717,3.719c2.049,0,3.717-1.668,3.717-3.719
			C256.034,140.172,254.366,138.506,252.317,138.506z"/>
	</g>
	<g>
		<path fill="#0072CD" d="M158.434,231.323c-3.916,0-7.102-3.185-7.102-7.1c0-3.917,3.186-7.104,7.102-7.104
			c3.917,0,7.102,3.187,7.102,7.104C165.536,228.138,162.351,231.323,158.434,231.323z M158.434,220.504
			c-2.049,0-3.717,1.667-3.717,3.719c0,2.049,1.667,3.715,3.717,3.715c2.05,0,3.717-1.666,3.717-3.715
			C162.152,222.172,160.484,220.504,158.434,220.504z"/>
	</g>
	<g>
		<path fill="#0072CD" d="M210.901,251.851h-3.385c-0.935,0-1.693-0.757-1.693-1.692s0.758-1.693,1.693-1.693h3.385
			c0.935,0,1.692,0.757,1.692,1.693S211.835,251.851,210.901,251.851z M200.746,251.851h-3.385c-0.935,0-1.692-0.757-1.692-1.692
			s0.757-1.693,1.692-1.693h3.385c0.935,0,1.692,0.757,1.692,1.693S201.68,251.851,200.746,251.851z M190.591,251.851h-3.385
			c-0.935,0-1.692-0.757-1.692-1.692s0.758-1.693,1.692-1.693h3.385c0.935,0,1.692,0.757,1.692,1.693
			S191.526,251.851,190.591,251.851z M180.436,251.851h-3.385c-0.935,0-1.692-0.757-1.692-1.692s0.758-1.693,1.692-1.693h3.385
			c0.935,0,1.692,0.757,1.692,1.693S181.371,251.851,180.436,251.851z M170.281,251.851h-3.385c-0.935,0-1.692-0.757-1.692-1.692
			s0.758-1.693,1.692-1.693h3.385c0.935,0,1.692,0.757,1.692,1.693S171.216,251.851,170.281,251.851z M160.127,251.851h-1.692
			c-0.935,0-1.692-0.757-1.692-1.692s0.758-1.693,1.692-1.693h1.692c0.935,0,1.693,0.757,1.693,1.693
			S161.062,251.851,160.127,251.851z"/>
	</g>
	<g>
		<path fill="#0072CD" d="M210.901,190.172h-3.385c-0.935,0-1.693-0.757-1.693-1.692c0-0.936,0.758-1.693,1.693-1.693h3.385
			c0.935,0,1.692,0.757,1.692,1.693C212.593,189.415,211.835,190.172,210.901,190.172z M200.746,190.172h-3.385
			c-0.935,0-1.692-0.757-1.692-1.692c0-0.936,0.757-1.693,1.692-1.693h3.385c0.935,0,1.692,0.757,1.692,1.693
			C202.438,189.415,201.68,190.172,200.746,190.172z M190.591,190.172h-3.385c-0.935,0-1.692-0.757-1.692-1.692
			c0-0.936,0.758-1.693,1.692-1.693h3.385c0.935,0,1.692,0.757,1.692,1.693C192.283,189.415,191.526,190.172,190.591,190.172z
			 M180.436,190.172h-3.385c-0.935,0-1.692-0.757-1.692-1.692c0-0.936,0.758-1.693,1.692-1.693h3.385
			c0.935,0,1.692,0.757,1.692,1.693C182.129,189.415,181.371,190.172,180.436,190.172z"/>
	</g>
	<g>
		<path fill="#0072CD" d="M407.336,129.518h-3.385c-0.934,0-1.692-0.757-1.692-1.692s0.759-1.692,1.692-1.692h3.385
			c0.936,0,1.692,0.757,1.692,1.692S408.272,129.518,407.336,129.518z M397.181,129.518h-3.385c-0.934,0-1.692-0.757-1.692-1.692
			s0.759-1.692,1.692-1.692h3.385c0.936,0,1.693,0.757,1.693,1.692S398.116,129.518,397.181,129.518z M387.027,129.518h-3.385
			c-0.934,0-1.692-0.757-1.692-1.692s0.759-1.692,1.692-1.692h3.385c0.936,0,1.692,0.757,1.692,1.692
			S387.962,129.518,387.027,129.518z M376.872,129.518h-3.386c-0.934,0-1.692-0.757-1.692-1.692s0.759-1.692,1.692-1.692h3.386
			c0.936,0,1.692,0.757,1.692,1.692S377.808,129.518,376.872,129.518z"/>
	</g>
	<g>
		<path fill="#0072CD" d="M304.983,125.571h-3.385c-0.935,0-1.692-0.757-1.692-1.692s0.758-1.692,1.692-1.692h3.385
			c0.935,0,1.692,0.757,1.692,1.692S305.918,125.571,304.983,125.571z M294.828,125.571h-3.385c-0.935,0-1.692-0.757-1.692-1.692
			s0.757-1.692,1.692-1.692h3.385c0.935,0,1.692,0.757,1.692,1.692S295.763,125.571,294.828,125.571z M284.674,125.571h-3.385
			c-0.935,0-1.692-0.757-1.692-1.692s0.758-1.692,1.692-1.692h3.385c0.935,0,1.692,0.757,1.692,1.692
			S285.608,125.571,284.674,125.571z M274.519,125.571h-3.385c-0.935,0-1.692-0.757-1.692-1.692s0.758-1.692,1.692-1.692h3.385
			c0.935,0,1.692,0.757,1.692,1.692S275.453,125.571,274.519,125.571z"/>
	</g>
	<g>
		<path fill="#0072CD" d="M511.36,316.284h-3.385c-0.936,0-1.693-0.758-1.693-1.693c0-0.935,0.758-1.692,1.693-1.692h3.385
			c0.934,0,1.692,0.758,1.692,1.692C513.052,315.526,512.293,316.284,511.36,316.284z M501.204,316.284h-3.385
			c-0.936,0-1.692-0.758-1.692-1.693c0-0.935,0.757-1.692,1.692-1.692h3.385c0.934,0,1.692,0.758,1.692,1.692
			C502.897,315.526,502.138,316.284,501.204,316.284z M491.05,316.284h-3.385c-0.936,0-1.692-0.758-1.692-1.693
			c0-0.935,0.757-1.692,1.692-1.692h3.385c0.934,0,1.692,0.758,1.692,1.692C492.742,315.526,491.984,316.284,491.05,316.284z
			 M480.895,316.284h-3.385c-0.936,0-1.692-0.758-1.692-1.693c0-0.935,0.757-1.692,1.692-1.692h3.385
			c0.935,0,1.692,0.758,1.692,1.692C482.587,315.526,481.829,316.284,480.895,316.284z"/>
	</g>
	<g>
		<path fill="#0072CD" d="M451.207,192.704h-3.385c-0.934,0-1.692-0.757-1.692-1.692s0.759-1.692,1.692-1.692h3.385
			c0.936,0,1.693,0.757,1.693,1.692S452.143,192.704,451.207,192.704z M441.053,192.704h-3.385c-0.934,0-1.692-0.757-1.692-1.692
			s0.759-1.692,1.692-1.692h3.385c0.936,0,1.692,0.757,1.692,1.692S441.989,192.704,441.053,192.704z M430.899,192.704h-3.386
			c-0.934,0-1.692-0.757-1.692-1.692s0.759-1.692,1.692-1.692h3.386c0.936,0,1.692,0.757,1.692,1.692
			S431.834,192.704,430.899,192.704z M420.743,192.704h-3.385c-0.934,0-1.692-0.757-1.692-1.692s0.759-1.692,1.692-1.692h3.385
			c0.936,0,1.692,0.757,1.692,1.692S421.679,192.704,420.743,192.704z"/>
	</g>
	<g>
		<path fill="#0072CD" d="M511.36,376.375h-3.385c-0.936,0-1.693-0.757-1.693-1.692s0.758-1.692,1.693-1.692h3.385
			c0.934,0,1.692,0.757,1.692,1.692S512.293,376.375,511.36,376.375z M501.204,376.375h-3.385c-0.936,0-1.692-0.757-1.692-1.692
			s0.757-1.692,1.692-1.692h3.385c0.934,0,1.692,0.757,1.692,1.692S502.138,376.375,501.204,376.375z M491.05,376.375h-3.385
			c-0.936,0-1.692-0.757-1.692-1.692s0.757-1.692,1.692-1.692h3.385c0.934,0,1.692,0.757,1.692,1.692
			S491.984,376.375,491.05,376.375z M480.895,376.375h-3.385c-0.936,0-1.692-0.757-1.692-1.692s0.757-1.692,1.692-1.692h3.385
			c0.935,0,1.692,0.757,1.692,1.692S481.829,376.375,480.895,376.375z"/>
	</g>
	<g>
		<path fill="#0072CD" d="M483.794,251.851h-3.385c-0.936,0-1.692-0.757-1.692-1.692s0.757-1.693,1.692-1.693h3.385
			c0.934,0,1.692,0.757,1.692,1.693S484.728,251.851,483.794,251.851z M473.639,251.851h-3.385c-0.936,0-1.692-0.757-1.692-1.692
			s0.757-1.693,1.692-1.693h3.385c0.935,0,1.693,0.757,1.693,1.693S474.573,251.851,473.639,251.851z M463.485,251.851H460.1
			c-0.936,0-1.692-0.757-1.692-1.692s0.757-1.693,1.692-1.693h3.385c0.934,0,1.692,0.757,1.692,1.693
			S464.418,251.851,463.485,251.851z M453.33,251.851h-3.386c-0.935,0-1.692-0.757-1.692-1.692s0.758-1.693,1.692-1.693h3.386
			c0.934,0,1.692,0.757,1.692,1.693S454.264,251.851,453.33,251.851z M443.175,251.851h-3.385c-0.936,0-1.692-0.757-1.692-1.692
			s0.757-1.693,1.692-1.693h3.385c0.934,0,1.692,0.757,1.692,1.693S444.109,251.851,443.175,251.851z M433.021,251.851h-1.692
			c-0.936,0-1.692-0.757-1.692-1.692s0.757-1.693,1.692-1.693h1.692c0.934,0,1.692,0.757,1.692,1.693
			S433.954,251.851,433.021,251.851z"/>
	</g>
	<g>
		<g>
			<path fill="#0072CD" d="M480.147,354.268c-0.434,0-0.866-0.166-1.197-0.496l-6.74-6.74c-0.66-0.661-0.66-1.732,0-2.394
				c0.661-0.661,1.732-0.661,2.394,0l6.74,6.74c0.661,0.661,0.661,1.732,0,2.394C481.012,354.102,480.579,354.268,480.147,354.268z"
				/>
		</g>
		<g>
			<path fill="#0072CD" d="M473.406,354.268c-0.434,0-0.866-0.166-1.197-0.496c-0.66-0.661-0.66-1.732,0-2.394l6.74-6.74
				c0.661-0.661,1.732-0.661,2.394,0s0.661,1.732,0,2.394l-6.74,6.74C474.273,354.102,473.839,354.268,473.406,354.268z"/>
		</g>
	</g>
	<g>
		<g>
			<path fill="#0072CD" d="M454.13,225.916c-0.434,0-0.866-0.166-1.197-0.496l-6.739-6.74c-0.661-0.661-0.661-1.732,0-2.394
				s1.731-0.661,2.393,0l6.74,6.74c0.661,0.661,0.661,1.732,0,2.393C454.996,225.75,454.563,225.916,454.13,225.916z"/>
		</g>
		<g>
			<path fill="#0072CD" d="M447.39,225.916c-0.434,0-0.866-0.166-1.196-0.496c-0.661-0.661-0.661-1.732,0-2.393l6.739-6.74
				c0.661-0.661,1.732-0.661,2.394,0s0.661,1.732,0,2.394l-6.74,6.74C448.256,225.75,447.823,225.916,447.39,225.916z"/>
		</g>
	</g>
	<g>
		<g>
			<path fill="#0072CD" d="M79.34,336.206c-0.433,0-0.866-0.165-1.197-0.495l-6.74-6.74c-0.661-0.661-0.661-1.732,0-2.394
				s1.732-0.661,2.394,0l6.74,6.74c0.661,0.661,0.661,1.732,0,2.394C80.205,336.041,79.773,336.206,79.34,336.206z"/>
		</g>
		<g>
			<path fill="#0072CD" d="M72.599,336.206c-0.433,0-0.866-0.165-1.197-0.495c-0.661-0.661-0.661-1.732,0-2.394l6.74-6.74
				c0.661-0.661,1.732-0.661,2.393,0s0.661,1.732,0,2.394l-6.74,6.74C73.466,336.041,73.032,336.206,72.599,336.206z"/>
		</g>
	</g>
	<g>
		<g>
			<path fill="#0072CD" d="M209.834,213.966c-0.433,0-0.866-0.166-1.197-0.496l-6.74-6.74c-0.661-0.661-0.661-1.732,0-2.394
				s1.732-0.661,2.393,0l6.74,6.74c0.661,0.661,0.661,1.732,0,2.393C210.7,213.8,210.267,213.966,209.834,213.966z"/>
		</g>
		<g>
			<path fill="#0072CD" d="M203.094,213.966c-0.433,0-0.866-0.166-1.196-0.496c-0.661-0.661-0.661-1.732,0-2.393l6.74-6.74
				c0.661-0.661,1.732-0.661,2.394,0s0.661,1.732,0,2.394l-6.74,6.74C203.96,213.8,203.527,213.966,203.094,213.966z"/>
		</g>
	</g>
	<g>
		<g>
			<path fill="#0072CD" d="M339.065,121.026c-0.434,0-0.866-0.166-1.197-0.496l-6.74-6.74c-0.66-0.661-0.66-1.732,0-2.393
				c0.662-0.661,1.732-0.661,2.394,0l6.74,6.74c0.661,0.661,0.661,1.732,0,2.393C339.931,120.861,339.497,121.026,339.065,121.026z"
				/>
		</g>
		<g>
			<path fill="#0072CD" d="M332.324,121.026c-0.434,0-0.866-0.166-1.197-0.496c-0.66-0.661-0.66-1.732,0-2.393l6.74-6.74
				c0.661-0.661,1.732-0.661,2.394,0s0.661,1.732,0,2.393l-6.74,6.74C333.191,120.861,332.757,121.026,332.324,121.026z"/>
		</g>
	</g>
	<g>
		<g>
			<g>
				<path fill="#FFFFFF" d="M422.342,265.232h-0.666c-23.07,0.231-41.707,19.854-41.707,44.047c0,8.23,2.038,16.009,5.95,22.494
					c9.824,16.29,15.321,38.526,15.321,38.526h20.436h0.666h20.437c0,0,5.495-22.236,15.321-38.526
					c3.91-6.485,5.948-14.264,5.948-22.494C464.048,285.085,445.413,265.463,422.342,265.232z"/>
			</g>
			<g>
				<path fill="#0072CD" d="M442.779,371.992h-42.863l-0.317-1.285c-0.057-0.22-5.554-22.184-15.128-38.059
					c-4.051-6.718-6.193-14.798-6.193-23.369c0-24.98,19.462-45.5,43.383-45.739h0.683c23.938,0.239,43.398,20.759,43.398,45.739
					c0,8.571-2.141,16.651-6.192,23.369c-9.573,15.875-15.072,37.839-15.127,38.059l-0.317,1.285H442.779z M402.55,368.607h38.918
					c1.335-5.025,6.578-23.443,15.181-37.708c3.733-6.188,5.707-13.664,5.707-21.62c0-23.133-17.957-42.133-40.032-42.354h-0.647
					c-22.055,0.222-40.015,19.222-40.015,42.354c0,7.956,1.974,15.432,5.707,21.62C395.972,345.164,401.214,363.582,402.55,368.607z
					"/>
			</g>
			<g id="XMLID_382_">
				<g id="XMLID_383_">
					<g>
						<g>
							<polygon fill="#EAF5FE" points="400.123,367.143 400.123,382.117 404.741,390.16 421.932,390.16 439.122,390.16 
								443.74,382.117 443.74,367.143 							"/>
						</g>
					</g>
				</g>
			</g>
			<g id="XMLID_380_">
				<g id="XMLID_381_">
					<g>
						<g>
							<path fill="#0072CD" d="M440.105,391.852h-36.346l-5.328-9.284v-17.117h47.002v17.117L440.105,391.852z M405.72,388.467
								h32.424l3.904-6.802v-12.83h-40.232v12.83L405.72,388.467z"/>
						</g>
					</g>
				</g>
			</g>
			<g>
				<rect x="397.366" y="370.299" fill="#0072CD" width="49.131" height="3.386"/>
			</g>
			<g>
				<rect x="397.366" y="375.652" fill="#0072CD" width="49.131" height="3.385"/>
			</g>
			<g>
				<rect x="397.366" y="381.003" fill="#0072CD" width="49.131" height="3.385"/>
			</g>
			<g>
				<g>
					<rect x="425.777" y="351.832" fill="#0072CD" width="3.385" height="15.312"/>
				</g>
				<g>
					<rect x="414.857" y="351.832" fill="#0072CD" width="3.385" height="15.312"/>
				</g>
			</g>
		</g>
		<g>
			<path fill-rule="evenodd" clip-rule="evenodd" fill="#D6EAFA" d="M422.01,278.355c-3.623-3.533-14.569-1.296-14.569,6.535
				c-7.355,0-13.844,9.781-8.745,17.813c-6.967,3.924-7.732,16.657,0.602,21.037c0,10.059,11.442,16.703,22.713,10.782
				c11.269,5.921,22.712-0.724,22.712-10.782c8.334-4.38,7.566-17.113,0.602-21.037c5.098-8.032-1.392-17.813-8.746-17.813
				C436.577,277.059,425.631,274.822,422.01,278.355z"/>
		</g>
		<g>
			<path fill="#0072CD" d="M430.639,338.447L430.639,338.447c-2.914,0-5.813-0.683-8.629-2.031
				c-2.818,1.349-5.716,2.031-8.631,2.031c-8.486,0-15.209-5.946-15.741-13.711c-3.749-2.367-6-6.552-6.069-11.39
				c-0.066-4.517,1.816-8.724,4.898-11.176c-1.834-3.852-1.699-8.297,0.437-12.182c1.98-3.604,5.389-6.094,8.975-6.665
				c0.883-5.222,6.142-8.289,11.242-8.289c1.891,0,3.577,0.422,4.89,1.206c1.312-0.784,2.998-1.206,4.889-1.206
				c5.099,0,10.357,3.067,11.242,8.289c3.585,0.571,6.991,3.061,8.973,6.665c2.138,3.885,2.271,8.33,0.435,12.182
				c3.084,2.454,4.969,6.659,4.902,11.178c-0.069,4.838-2.32,9.021-6.07,11.388c-0.248,3.671-1.869,7.032-4.626,9.551
				C438.819,336.969,434.871,338.447,430.639,338.447z M422.01,332.611l0.786,0.413c2.572,1.353,5.21,2.038,7.843,2.038
				c3.385,0,6.521-1.163,8.832-3.274c2.294-2.096,3.559-4.953,3.559-8.047v-1.023l0.904-0.474c3.155-1.66,5.076-5.004,5.132-8.945
				c0.058-3.943-1.737-7.521-4.571-9.12l-1.556-0.876l0.957-1.506c1.99-3.137,2.083-6.848,0.251-10.178
				c-1.681-3.06-4.652-5.036-7.569-5.036h-1.692v-1.692c0-4.714-4.899-6.471-7.986-6.471c-1.587,0-2.972,0.43-3.709,1.147
				l-1.18,1.153l-1.184-1.153c-0.735-0.72-2.122-1.147-3.706-1.147c-3.089,0-7.987,1.757-7.987,6.471v1.692h-1.692
				c-2.918,0-5.89,1.977-7.572,5.038c-1.829,3.328-1.736,7.039,0.255,10.176l0.955,1.508l-1.554,0.874
				c-2.836,1.597-4.631,5.177-4.571,9.118c0.057,3.943,1.976,7.287,5.13,8.947l0.906,0.474v1.023c0,6.349,5.442,11.321,12.39,11.321
				c2.631,0,5.271-0.686,7.844-2.038L422.01,332.611z"/>
		</g>
		<g id="XMLID_369_">
			<g id="XMLID_375_">
				<g id="XMLID_376_">
					<g>
						<g>
							<path fill="#FFFFFF" d="M434.339,305.286c-0.043-0.341-0.352-0.664-0.688-0.724l-1.325-0.229
								c-0.341-0.063-0.701-0.373-0.813-0.701l-0.532-1.315c-0.148-0.304-0.112-0.783,0.095-1.061l0.788-1.098
								c0.198-0.274,0.195-0.73-0.014-0.998l-0.714-0.843c-0.234-0.252-0.674-0.334-0.984-0.183l-1.212,0.596
								c-0.309,0.148-0.782,0.103-1.05-0.103l-1.213-0.751c-0.301-0.155-0.554-0.555-0.556-0.898l-0.006-1.353
								c-0.007-0.34-0.274-0.704-0.602-0.8l-1.071-0.261c-0.331-0.066-0.737,0.125-0.902,0.426l-0.203,0.391l-0.247,0.469
								l-0.177,0.334c-0.163,0.301-0.573,0.553-0.917,0.556l-1.411,0.103c-0.344,0.046-0.784-0.139-0.988-0.42l-0.794-1.081
								c-0.203-0.281-0.635-0.416-0.955-0.301l-1.023,0.417c-0.313,0.146-0.527,0.542-0.48,0.876l0.191,1.335
								c0.047,0.344-0.139,0.783-0.42,0.985l-1.084,0.919c-0.244,0.238-0.709,0.344-1.036,0.241l-1.284-0.413
								c-0.327-0.103-0.757,0.036-0.959,0.313c0,0-0.099,0.133-0.301,0.467c-0.208,0.337-0.284,0.476-0.284,0.476
								c-0.158,0.301-0.096,0.754,0.143,0.992l0.938,0.972c0.236,0.244,0.347,0.717,0.248,1.041l-0.348,1.385
								c-0.06,0.334-0.371,0.694-0.697,0.804l-1.279,0.423c-0.324,0.109-0.58,0.476-0.571,0.813l0.077,1.11
								c0.043,0.337,0.353,0.661,0.688,0.721l1.327,0.231c0.339,0.06,0.701,0.37,0.812,0.701l0.534,1.312
								c0.15,0.308,0.109,0.787-0.088,1.064l-0.792,1.101c-0.201,0.271-0.194,0.725,0.017,0.992l0.706,0.846
								c0.236,0.248,0.675,0.331,0.983,0.183l1.213-0.599c0.308-0.148,0.777-0.103,1.052,0.103l1.216,0.76
								c0.301,0.149,0.553,0.549,0.556,0.893l0.005,1.353c0.004,0.337,0.272,0.704,0.601,0.8l1.069,0.261
								c0.332,0.066,0.738-0.129,0.9-0.43l0.631-1.189c0.159-0.305,0.572-0.553,0.913-0.559l1.414-0.1
								c0.344-0.05,0.784,0.139,0.987,0.417l0.795,1.084c0.201,0.277,0.631,0.413,0.952,0.298l1.029-0.42
								c0.31-0.14,0.522-0.536,0.477-0.876l-0.192-1.333c-0.046-0.344,0.141-0.783,0.418-0.981l1.088-0.922
								c0.248-0.235,0.716-0.348,1.038-0.238l1.286,0.406c0.323,0.109,0.752-0.036,0.953-0.307c0,0,0.1-0.133,0.306-0.467
								c0.212-0.34,0.281-0.482,0.281-0.482c0.159-0.297,0.095-0.747-0.143-0.995l-0.935-0.962
								c-0.242-0.251-0.353-0.717-0.248-1.041l0.342-1.382c0.062-0.337,0.372-0.697,0.696-0.81l1.284-0.423
								c0.32-0.109,0.585-0.473,0.569-0.82L434.339,305.286z M427.973,310.446c-2.046,3.292-6.373,4.301-9.669,2.254
								c-3.289-2.046-4.304-6.369-2.254-9.665c1.166-1.881,3.073-3.012,5.113-3.263c0.231-0.03,0.47-0.043,0.704-0.043
								c0.218-0.01,0.433-0.003,0.647,0.02c0.238,0.01,0.467,0.033,0.704,0.076c0.859,0.146,1.706,0.463,2.496,0.952
								C429.007,302.823,430.019,307.15,427.973,310.446z"/>
						</g>
					</g>
				</g>
			</g>
			<g id="XMLID_370_">
				<g id="XMLID_371_">
					<g>
						<g>
							<path fill="#FFFFFF" d="M424.648,302.499c-0.47-0.301-0.972-0.499-1.481-0.624c-0.688-0.166-1.387-0.179-2.058-0.053
								c-1.337,0.241-2.575,1.027-3.35,2.28c-1.462,2.351-0.741,5.428,1.614,6.889c2.346,1.461,5.43,0.744,6.894-1.609
								C427.725,307.035,426.997,303.95,424.648,302.499z M423.541,307.689c-0.526,0.843-1.638,1.11-2.479,0.585
								c-0.854-0.532-1.105-1.643-0.584-2.486c0.143-0.228,0.327-0.423,0.541-0.555c0.566-0.377,1.32-0.403,1.943-0.021
								c0.043,0.021,0.078,0.05,0.114,0.083C423.824,305.837,424.039,306.882,423.541,307.689z"/>
						</g>
					</g>
				</g>
			</g>
		</g>
		<g>
			<g>
				<path fill="#0072CD" d="M410.057,293.819c-2.4,0-4.31-1.807-4.31-4.026v-4.69h3.386v4.69c0,0.347,0.399,0.642,0.872,0.642
					c0.524,0,0.924-0.295,0.924-0.642v-2.017h3.385v2.017C414.314,292.012,412.404,293.819,410.057,293.819z"/>
			</g>
			<g>
				<path fill="#0072CD" d="M403.485,307.875c-1.063,0-2.118-0.377-2.941-1.127l-3.646-3.314l2.278-2.505l3.647,3.315
					c0.354,0.323,0.996,0.322,1.349,0.001c0.167-0.15,0.234-0.289,0.234-0.431c0-0.143-0.067-0.281-0.198-0.398l-1.568-1.429
					l2.277-2.502l1.57,1.428c0.841,0.768,1.304,1.797,1.304,2.901c0,1.104-0.463,2.134-1.302,2.9
					C405.637,307.491,404.556,307.875,403.485,307.875z"/>
			</g>
			<g>
				<path fill="#0072CD" d="M400.761,325.075l-2.277-2.503l3.646-3.318c0.13-0.119,0.198-0.255,0.198-0.396
					c0-0.145-0.069-0.281-0.198-0.4c-0.391-0.355-1.031-0.356-1.386-0.033l-1.568,1.429l-2.279-2.503l1.569-1.428
					c1.654-1.511,4.249-1.511,5.905,0c0.867,0.788,1.342,1.848,1.342,2.938c0,1.105-0.466,2.134-1.306,2.897L400.761,325.075z"/>
			</g>
		</g>
		<g>
			<g>
				<path fill="#0072CD" d="M433.943,293.819c-2.398,0-4.307-1.807-4.307-4.026v-2.017h3.385v2.017c0,0.347,0.399,0.642,0.872,0.642
					c0.522,0,0.923-0.295,0.923-0.642v-4.69h3.385v4.69C438.2,292.012,436.291,293.819,433.943,293.819z"/>
			</g>
			<g>
				<path fill="#0072CD" d="M440.453,307.88c-1.063,0-2.128-0.377-2.954-1.132c-0.879-0.799-1.342-1.83-1.342-2.934
					c0-1.104,0.463-2.136,1.306-2.901l1.566-1.428l2.281,2.502l-1.57,1.429c-0.129,0.119-0.198,0.256-0.198,0.398
					c0,0.142,0.069,0.279,0.198,0.398c0.389,0.354,1.033,0.354,1.385,0.032l3.649-3.316l2.278,2.505l-3.648,3.315
					C442.576,307.503,441.516,307.88,440.453,307.88z"/>
			</g>
			<g>
				<path fill="#0072CD" d="M443.189,325.075l-3.648-3.319c-0.839-0.762-1.304-1.79-1.304-2.896
					c-0.002-1.091,0.473-2.15,1.303-2.905c1.695-1.541,4.29-1.542,5.943-0.033l1.57,1.428l-2.278,2.503l-1.569-1.429
					c-0.354-0.32-0.997-0.32-1.349,0c-0.167,0.152-0.235,0.289-0.235,0.434c0,0.142,0.066,0.277,0.195,0.395l3.649,3.32
					L443.189,325.075z"/>
			</g>
		</g>
		<g>
			<rect x="420.317" y="278.355" fill="#0072CD" width="3.386" height="8.998"/>
		</g>
		<g>
			<rect x="420.317" y="325.516" fill="#0072CD" width="3.386" height="8.997"/>
		</g>
	</g>
	<g>
		<g>
			<rect x="331.265" y="294.483" fill="#54AAE3" width="30.525" height="27.75"/>
		</g>
		<g>
			<path fill="#54AAE3" d="M378.049,366.912c0-6.297-4.308-11.378-9.616-11.378h-6.643v-24.052h-30.525v24.052h-6.297
				c-5.311,0-9.619,5.091-9.619,11.395L378.049,366.912z"/>
		</g>
		<g>
			<path fill="#0072CD" d="M363.483,323.925h-33.91v-31.135h33.91V323.925z M332.957,320.541h27.141v-24.365h-27.141V320.541z"/>
		</g>
		<g>
			<path fill="#0072CD" d="M313.657,368.621v-1.692c0-7.216,5.073-13.087,11.311-13.087h4.604V329.79h33.91v24.052h4.95
				c6.234,0,11.309,5.864,11.309,13.07v1.692L313.657,368.621z M324.968,357.226c-3.899,0-7.15,3.464-7.805,8.01l59.072-0.017
				c-0.656-4.537-3.905-7.993-7.803-7.993h-8.335v-24.052h-27.141v24.052H324.968z"/>
		</g>
		<g>
			<g>
				<path fill="#D6EAFA" d="M320.026,326.858L320.026,326.858c0,2.555,2.071,4.624,4.625,4.624h44.265
					c2.556,0,4.625-2.069,4.625-4.624l0,0c0-2.552-2.069-4.625-4.625-4.625h-44.265
					C322.097,322.233,320.026,324.306,320.026,326.858z"/>
			</g>
		</g>
		<g>
			<g>
				<path fill="#D6EAFA" d="M308.522,373.11L308.522,373.11c0,3.576,2.898,6.476,6.473,6.476h63.182
					c3.575,0,6.474-2.899,6.474-6.476l0,0c0-3.577-2.898-6.476-6.474-6.476h-63.182C311.42,366.634,308.522,369.533,308.522,373.11z
					"/>
			</g>
		</g>
		<g>
			<g>
				<path fill="#D6EAFA" d="M303.126,384.871L303.126,384.871c0,2.922,2.368,5.289,5.287,5.289h76.346
					c2.919,0,5.287-2.367,5.287-5.289l0,0c0-2.919-2.368-5.285-5.287-5.285h-76.346
					C305.494,379.585,303.126,381.952,303.126,384.871z"/>
			</g>
		</g>
		<g>
			<g>
				<path fill="#D6EAFA" d="M371.317,261.183h-16.473c1.244-2.146,1.9-4.284,1.657-6.72c-0.392-3.907-3.165-7.338-6.946-8.386
					c-6.439-1.782-12.234,3.289-12.234,9.451c0,2.029,0.638,3.808,1.709,5.656h-17.106c0,11.1,6.707,20.352,16.115,23.125h-6.701
					c-2.81,0-5.087,2.278-5.087,5.088l0,0c0,2.81,2.277,5.087,5.087,5.087h30.585c2.811,0,5.088-2.277,5.088-5.087l0,0
					c0-2.81-2.277-5.088-5.088-5.088h-6.719C364.612,281.535,371.317,272.283,371.317,261.183z"/>
			</g>
		</g>
		<g>
			<g>
				<path fill="#0072CD" d="M368.915,333.174h-44.265c-3.482,0-6.317-2.834-6.317-6.316s2.835-6.317,6.317-6.317h44.265
					c3.484,0,6.317,2.835,6.317,6.317S372.4,333.174,368.915,333.174z M324.651,323.925c-1.616,0-2.933,1.316-2.933,2.933
					s1.316,2.932,2.933,2.932h44.265c1.616,0,2.933-1.315,2.933-2.932s-1.316-2.933-2.933-2.933H324.651z"/>
			</g>
		</g>
		<g>
			<g>
				<path fill="#0072CD" d="M378.176,381.278h-63.182c-4.502,0-8.165-3.665-8.165-8.168c0-4.504,3.663-8.169,8.165-8.169h63.182
					c4.504,0,8.166,3.665,8.166,8.169C386.342,377.613,382.68,381.278,378.176,381.278z M314.994,368.327
					c-2.635,0-4.78,2.145-4.78,4.783c0,2.638,2.146,4.782,4.78,4.782h63.182c2.636,0,4.781-2.145,4.781-4.782
					c0-2.639-2.146-4.783-4.781-4.783H314.994z"/>
			</g>
		</g>
		<g>
			<g>
				<path fill="#0072CD" d="M384.759,391.852h-76.346c-3.849,0-6.979-3.132-6.979-6.981c0-3.848,3.131-6.979,6.979-6.979h76.346
					c3.848,0,6.979,3.131,6.979,6.979C391.739,388.72,388.607,391.852,384.759,391.852z M308.413,381.278
					c-1.982,0-3.595,1.611-3.595,3.593c0,1.983,1.612,3.597,3.595,3.597h76.346c1.981,0,3.595-1.613,3.595-3.597
					c0-1.981-1.613-3.593-3.595-3.593H308.413z"/>
			</g>
		</g>
		<g>
			<g>
				<path fill="#0072CD" d="M361.922,296.175h-30.585c-3.738,0-6.779-3.041-6.779-6.779c0-3.549,2.738-6.47,6.215-6.757
					c-6.504-4.609-10.542-12.51-10.542-21.457c0-0.936,0.757-1.692,1.692-1.692h14.429c-0.489-1.334-0.724-2.631-0.724-3.963
					c0-6.344,5.074-11.505,11.311-11.505c1.022,0,2.054,0.143,3.065,0.423c4.426,1.227,7.715,5.185,8.182,9.849
					c0.177,1.768-0.037,3.462-0.671,5.196h13.802c0.934,0,1.692,0.757,1.692,1.692c0,8.945-4.037,16.845-10.539,21.455
					c3.483,0.281,6.232,3.205,6.232,6.759C368.702,293.134,365.661,296.175,361.922,296.175z M331.337,286
					c-1.872,0-3.395,1.522-3.395,3.396c0,1.872,1.522,3.395,3.395,3.395h30.585c1.873,0,3.396-1.522,3.396-3.395
					c0-1.873-1.522-3.396-3.396-3.396h-6.719c-0.841,0-1.555-0.618-1.676-1.451c-0.119-0.833,0.391-1.626,1.197-1.864
					c8.416-2.48,14.224-10.324,14.845-19.81h-14.726c-0.605,0-1.164-0.324-1.467-0.848c-0.302-0.524-0.301-1.17,0.002-1.694
					c1.186-2.041,1.628-3.801,1.438-5.702c-0.323-3.234-2.674-6.081-5.715-6.923c-0.718-0.2-1.446-0.301-2.163-0.301
					c-4.296,0-7.926,3.719-7.926,8.12c0,1.56,0.456,3.042,1.481,4.806c0.304,0.524,0.304,1.17,0.003,1.694
					c-0.304,0.524-0.862,0.848-1.468,0.848H323.67c0.62,9.484,6.43,17.328,14.846,19.81c0.808,0.238,1.317,1.031,1.196,1.864
					c-0.12,0.833-0.835,1.451-1.674,1.451H331.337z"/>
			</g>
		</g>
	</g>
	<g>
		<g>
			<rect x="243.026" y="250.159" fill="#54AAE3" width="44.667" height="40.605"/>
		</g>
		<g>
			<path fill="#54AAE3" d="M311.483,356.142c0-9.216-6.301-16.65-14.073-16.65h-9.717V304.3h-44.667v35.191h-9.216
				c-7.771,0-14.074,7.451-14.074,16.67L311.483,356.142z"/>
		</g>
		<g>
			<path fill="#0072CD" d="M289.385,292.457h-48.052v-43.991h48.052V292.457z M244.719,289.072H286v-37.221h-41.281V289.072z"/>
		</g>
		<g>
			<path fill="#0072CD" d="M218.043,357.854v-1.692c0-10.125,7.073-18.362,15.767-18.362h7.523v-35.191h48.052v35.191h8.025
				c8.693,0,15.765,8.229,15.765,18.343v1.692L218.043,357.854z M233.81,341.184c-6.354,0-11.606,5.819-12.303,13.285l88.205-0.02
				c-0.697-7.454-5.948-13.266-12.302-13.266H286v-35.191h-41.281v35.191H233.81z"/>
		</g>
		<g>
			<g>
				<path fill="#D6EAFA" d="M226.579,297.534L226.579,297.534c0,3.735,3.03,6.767,6.768,6.767h64.771
					c3.738,0,6.767-3.031,6.767-6.767l0,0c0-3.738-3.029-6.77-6.767-6.77h-64.771C229.609,290.764,226.579,293.795,226.579,297.534z
					"/>
			</g>
		</g>
		<g>
			<g>
				<path fill="#FFFFFF" d="M209.744,365.209L209.744,365.209c0,5.232,4.242,9.474,9.474,9.474h92.451
					c5.234,0,9.474-4.241,9.474-9.474l0,0c0-5.233-4.24-9.475-9.474-9.475h-92.451C213.987,355.735,209.744,359.976,209.744,365.209
					z"/>
			</g>
		</g>
		<g>
			<g>
				<path fill="#FFFFFF" d="M201.849,382.421L201.849,382.421c0,4.274,3.464,7.738,7.738,7.738h111.715
					c4.271,0,7.736-3.464,7.736-7.738l0,0c0-4.274-3.466-7.738-7.736-7.738H209.587
					C205.313,374.683,201.849,378.147,201.849,382.421z"/>
			</g>
		</g>
		<g>
			<g>
				<path fill="#FFFFFF" d="M301.632,201.431h-24.104c1.821-3.144,2.782-6.271,2.425-9.837c-0.573-5.715-4.63-10.733-10.167-12.267
					c-9.419-2.611-17.898,4.81-17.898,13.827c0,2.968,0.93,5.57,2.5,8.277h-25.034c0,16.244,9.816,29.776,23.58,33.839h-9.803
					c-4.111,0-7.444,3.332-7.444,7.444l0,0c0,4.112,3.333,7.444,7.444,7.444h44.755c4.111,0,7.445-3.332,7.445-7.444l0,0
					c0-4.112-3.333-7.444-7.445-7.444h-9.832C291.82,231.208,301.632,217.675,301.632,201.431z"/>
			</g>
		</g>
		<g>
			<g>
				<path fill="#0072CD" d="M298.118,305.993h-64.771c-4.665,0-8.46-3.795-8.46-8.459c0-4.665,3.795-8.462,8.46-8.462h64.771
					c4.665,0,8.459,3.797,8.459,8.462C306.578,302.198,302.783,305.993,298.118,305.993z M233.347,292.457
					c-2.799,0-5.076,2.277-5.076,5.077c0,2.799,2.277,5.074,5.076,5.074h64.771c2.798,0,5.075-2.275,5.075-5.074
					c0-2.8-2.277-5.077-5.075-5.077H233.347z"/>
			</g>
		</g>
		<g>
			<g>
				<path fill="#0072CD" d="M311.669,376.375h-92.451c-6.157,0-11.166-5.01-11.166-11.166c0-6.157,5.009-11.167,11.166-11.167
					h92.451c6.158,0,11.167,5.01,11.167,11.167C322.835,371.366,317.826,376.375,311.669,376.375z M219.218,357.428
					c-4.291,0-7.781,3.49-7.781,7.781c0,4.29,3.491,7.781,7.781,7.781h92.451c4.292,0,7.782-3.491,7.782-7.781
					c0-4.291-3.49-7.781-7.782-7.781H219.218z"/>
			</g>
		</g>
		<g>
			<g>
				<path fill="#0072CD" d="M321.302,391.852H209.587c-5.2,0-9.43-4.231-9.43-9.431c0-5.2,4.23-9.431,9.43-9.431h111.715
					c5.199,0,9.429,4.23,9.429,9.431C330.731,387.621,326.501,391.852,321.302,391.852z M209.587,376.375
					c-3.333,0-6.045,2.712-6.045,6.046s2.711,6.046,6.045,6.046h111.715c3.332,0,6.044-2.712,6.044-6.046s-2.712-6.046-6.044-6.046
					H209.587z"/>
			</g>
		</g>
		<g>
			<g>
				<path fill="#0072CD" d="M287.885,251.851H243.13c-5.038,0-9.137-4.099-9.137-9.137s4.099-9.137,9.137-9.137h1.761
					c-10.555-6.32-17.23-18.369-17.23-32.146c0-0.936,0.758-1.692,1.692-1.692h22.271c-0.979-2.243-1.43-4.351-1.43-6.585
					c0-8.851,7.07-16.05,15.76-16.05c1.426,0,2.868,0.2,4.283,0.592c6.166,1.709,10.747,7.226,11.398,13.729
					c0.282,2.818-0.152,5.512-1.357,8.314h21.353c0.935,0,1.692,0.757,1.692,1.692c0,13.779-6.674,25.828-17.228,32.146h1.789
					c5.039,0,9.137,4.099,9.137,9.137S292.924,251.851,287.885,251.851z M243.13,236.962c-3.172,0-5.752,2.58-5.752,5.752
					s2.58,5.751,5.752,5.751h44.755c3.172,0,5.752-2.58,5.752-5.751s-2.581-5.752-5.752-5.752h-9.832
					c-0.841,0-1.555-0.618-1.675-1.451c-0.121-0.832,0.389-1.626,1.196-1.865c12.882-3.801,21.694-15.948,22.329-30.523h-22.375
					c-0.604,0-1.164-0.322-1.466-0.848c-0.303-0.524-0.302-1.168,0.001-1.692c1.821-3.145,2.501-5.866,2.205-8.821
					c-0.513-5.124-4.104-9.465-8.934-10.804c-1.122-0.311-2.259-0.469-3.379-0.469c-6.708,0-12.375,5.799-12.375,12.665
					c0,2.428,0.701,4.719,2.271,7.428c0.303,0.524,0.304,1.17,0.002,1.694c-0.302,0.524-0.862,0.848-1.467,0.848h-23.305
					c0.636,14.574,9.448,26.721,22.331,30.523c0.807,0.238,1.316,1.033,1.196,1.865c-0.121,0.833-0.834,1.451-1.675,1.451H243.13z"
					/>
			</g>
		</g>
	</g>
</g>
</svg>
