<?xml version="1.0" encoding="utf-8"?>
<!-- Generator: Adobe Illustrator 16.0.0, SVG Export Plug-In . SVG Version: 6.00 Build 0)  -->
<!DOCTYPE svg PUBLIC "-//W3C//DTD SVG 1.1//EN" "http://www.w3.org/Graphics/SVG/1.1/DTD/svg11.dtd">
<svg version="1.1" id="Layer_1" xmlns="http://www.w3.org/2000/svg" xmlns:xlink="http://www.w3.org/1999/xlink" x="0px" y="0px"
	 width="841.889px" height="1190.551px" viewBox="0 0 841.889 1190.551" enable-background="new 0 0 841.889 1190.551"
	 xml:space="preserve">
<g>
	<g>
		<g>
			<path fill="#FFFFFF" d="M191.258,615.643c-13.851,0-26.858,7.373-33.947,19.214l-20.436,34.069l-1.087-2.172v-41.918
				l44.146-17.666c14.421-5.758,23.749-19.514,23.749-35.048c0-12.139-5.894-23.586-15.725-30.674
				c-9.857-7.075-22.595-8.977-34.083-5.106l-4.807,1.616l5.486-10.972c5.485-10.985,8.392-23.274,8.392-35.536
				c0-21.373-17.381-38.754-38.754-38.754c-14.774,0-28.041,8.201-34.667,21.428l-33.771,67.555L27.429,680.877l-0.271,179.187
				l10.659,54.315H0v95.052h203.683v-95.052h-40.736v-90.938l24.876-37.315l36.989-97.604c4.006-10.687,6.029-21.889,6.029-33.295
				C230.841,633.405,213.079,615.643,191.258,615.643z M162.553,562.075c3.259-1.087,6.748-0.57,9.56,1.439
				c2.811,2.01,4.413,5.146,4.413,8.608c0,4.359-2.607,8.202-6.654,9.831l-34.083,13.634v-24.51L162.553,562.075z M176.526,941.536
				v40.737H27.157v-40.737H176.526z M199.378,678.975l-35.006,93.382l-28.584,42.854v99.167H65.45l-11.135-55.66V684.882
				l26.533-132.679l32.969-65.912c1.97-3.979,5.948-6.436,10.375-6.436c6.382,0,11.596,5.214,11.596,11.596
				c0,8.066-1.914,16.159-5.526,23.41l-21.631,43.263v115.054l26.071,52.143l45.896-76.49c2.227-3.721,6.314-6.028,10.659-6.028
				c6.857,0,12.425,5.567,12.425,12.425C203.683,663.373,202.243,671.371,199.378,678.975z"/>
			<path fill="#FFFFFF" d="M804.14,914.379l10.334-51.654l0.258-179.187l-27.43-138.45l-34.938-70.963
				c-6.612-13.227-19.893-21.428-34.666-21.428c-21.374,0-38.755,17.381-38.755,38.754c0,12.248,2.906,24.551,8.393,35.55
				l5.472,10.944l-4.793-1.616c-11.475-3.883-24.225-1.969-34.083,5.106c-9.831,7.102-15.725,18.549-15.725,30.688
				c0,15.548,9.329,29.29,23.736,35.048l44.158,17.666v41.918l-1.087,2.172l-20.436-34.056
				c-7.088-11.854-20.097-19.228-33.947-19.228c-21.821,0-39.582,17.762-39.582,39.583c0,11.406,2.022,22.608,6.028,33.295
				l35.563,94.835l26.302,40.085v90.938h-40.736v95.052h203.683v-95.052H804.14z M672.004,581.954
				c-4.033-1.629-6.64-5.472-6.64-9.831c0-3.462,1.602-6.585,4.413-8.608c2.811-2.023,6.273-2.539,9.56-1.439l26.764,9.003v24.51
				L672.004,581.954z M677.531,772.357l-35.006-93.382c-2.879-7.604-4.318-15.603-4.318-23.749c0-6.857,5.567-12.425,12.425-12.425
				c4.346,0,8.433,2.308,10.659,6.028l45.896,76.477l26.071-52.143V558.11l-21.631-43.249c-3.611-7.237-5.526-15.344-5.526-23.41
				c0-6.382,5.214-11.596,11.597-11.596c4.413,0,8.392,2.457,10.374,6.422l32.97,65.912l26.532,132.692v173.851l-11.134,55.646
				h-70.339v-99.167L677.531,772.357z M814.732,982.273H665.365v-40.737h149.367V982.273z"/>
			<path fill="#FFFFFF" d="M592.568,425.539h32.06v-81.473h-32.06c-4.331-18.413-11.515-35.78-21.44-51.817l22.649-22.663
				l-57.602-57.602l-22.677,22.636c-16.051-9.926-33.404-17.109-51.817-21.44v-32.06h-81.473v32.06
				c-18.413,4.331-35.78,11.515-51.817,21.44l-22.663-22.649l-57.602,57.602l22.649,22.663
				c-9.926,16.051-17.109,33.404-21.44,51.817h-32.073v81.474h32.06c4.332,18.412,11.515,35.78,21.441,51.816l-22.65,22.663
				l57.602,57.602l20.803-20.803c-0.163,1.371-0.421,2.716-0.421,4.128c0,12.085,6.383,22.623,15.901,28.651
				c-1.439,3.775-2.322,7.821-2.322,12.085c0,18.726,15.222,33.947,33.947,33.947h95.052c18.726,0,33.947-15.222,33.947-33.947
				c0-4.277-0.883-8.323-2.322-12.085c9.52-6.016,15.901-16.566,15.901-28.651c0-1.249-0.231-2.444-0.367-3.652l20.328,20.327
				l57.602-57.602l-22.649-22.663C581.053,461.32,588.223,443.952,592.568,425.539z M468.688,588.486h-95.052
				c-3.734,0-6.79-3.056-6.79-6.79s3.056-6.789,6.79-6.789h95.052c3.734,0,6.789,3.055,6.789,6.789S472.422,588.486,468.688,588.486
				z M482.267,547.749h-13.579h-95.052h-13.579c-3.734,0-6.789-3.055-6.789-6.789s3.055-6.789,6.789-6.789h122.21
				c3.734,0,6.789,3.055,6.789,6.789S486.001,547.749,482.267,547.749z M434.74,423.041c15.766-5.621,27.158-20.559,27.158-38.238
				c0-22.459-18.277-40.736-40.737-40.736c-22.459,0-40.736,18.277-40.736,40.736c0,17.68,11.393,32.617,27.158,38.238v83.972
				h-27.158v-36.052l-6.775-3.925c-29.317-16.986-47.54-48.489-47.54-82.233c0-52.4,42.651-95.052,95.053-95.052
				c52.4,0,95.052,42.651,95.052,95.052c0,33.73-18.223,65.247-47.54,82.233l-6.775,3.925v36.052H434.74V423.041z M421.162,398.382
				c-7.496,0-13.579-6.084-13.579-13.579s6.083-13.579,13.579-13.579c7.495,0,13.578,6.084,13.578,13.579
				S428.657,398.382,421.162,398.382z M568.058,409.707c-3.761,22.404-12.329,43.112-25.446,61.525l-6.654,9.342l19.418,19.445
				l-19.2,19.2l-19.445-19.444l-9.355,6.667c-2.485,1.766-5.201,3.53-8.106,5.282c-3.137-1.833-6.532-3.3-10.212-4.047v-21.387
				c33.689-22.581,54.315-60.778,54.315-101.516c0-67.392-54.817-122.21-122.21-122.21c-67.392,0-122.209,54.818-122.209,122.21
				c0,40.724,20.626,78.921,54.315,101.502v21.4c-3.762,0.761-7.225,2.268-10.429,4.169c-2.96-1.792-5.758-3.585-8.311-5.404
				l-9.355-6.667l-19.445,19.444l-19.2-19.2l19.418-19.445l-6.653-9.342c-13.117-18.413-21.686-39.121-25.447-61.525l-1.928-11.325
				h-27.498v-27.158h27.498l1.914-11.324c3.762-22.405,12.33-43.113,25.447-61.526l6.653-9.342l-19.418-19.445l19.2-19.2
				l19.445,19.418l9.342-6.654c18.413-13.117,39.121-21.686,61.526-25.446l11.338-1.929v-27.497h27.158v27.497l11.324,1.915
				c22.405,3.761,43.113,12.329,61.526,25.446l9.342,6.654l19.445-19.418l19.2,19.2l-19.418,19.445l6.654,9.342
				c13.117,18.413,21.686,39.121,25.446,61.526l1.929,11.338h27.497v27.158h-27.497L568.058,409.707z"/>
			<rect x="407.365" y="642.802" fill="#FFFFFF" width="27.158" height="27.157"/>
			<rect x="407.365" y="697.117" fill="#FFFFFF" width="27.158" height="27.157"/>
			<rect x="407.365" y="751.432" fill="#FFFFFF" width="27.158" height="27.157"/>
			<rect x="407.365" y="805.748" fill="#FFFFFF" width="27.158" height="27.157"/>
		</g>
	</g>
</g>
</svg>
