<?xml version="1.0" encoding="utf-8"?>
<!-- Generator: Adobe Illustrator 16.0.0, SVG Export Plug-In . SVG Version: 6.00 Build 0)  -->
<!DOCTYPE svg PUBLIC "-//W3C//DTD SVG 1.1//EN" "http://www.w3.org/Graphics/SVG/1.1/DTD/svg11.dtd">
<svg version="1.1" id="Capa_1" xmlns="http://www.w3.org/2000/svg" xmlns:xlink="http://www.w3.org/1999/xlink" x="0px" y="0px"
	 width="330.701px" height="94.915px" viewBox="0 0 330.701 94.915" enable-background="new 0 0 330.701 94.915"
	 xml:space="preserve">
<g>
	
		<radialGradient id="SVGID_1_" cx="109.1172" cy="1349.3496" r="19.6689" gradientTransform="matrix(2.0381 0 0 0.2282 -164.8111 -217.495)" gradientUnits="userSpaceOnUse">
		<stop  offset="0" style="stop-color:#929497"/>
		<stop  offset="0.2731" style="stop-color:#BBBDBF"/>
		<stop  offset="0.5592" style="stop-color:#E0E1E2"/>
		<stop  offset="0.7914" style="stop-color:#F7F7F7"/>
		<stop  offset="0.9387" style="stop-color:#FFFFFF"/>
	</radialGradient>
	<ellipse fill="url(#SVGID_1_)" cx="57.58" cy="90.427" rx="40.089" ry="4.488"/>
	<g>
		
			<linearGradient id="SVGID_2_" gradientUnits="userSpaceOnUse" x1="248.3721" y1="214.29" x2="293.7866" y2="168.8755" gradientTransform="matrix(0 1 -1 0 222.1182 -220.1826)">
			<stop  offset="0" style="stop-color:#BE1E2D"/>
			<stop  offset="0.3988" style="stop-color:#F05A28"/>
			<stop  offset="1" style="stop-color:#F6921E"/>
		</linearGradient>
		<path fill="url(#SVGID_2_)" d="M37.285,81.772c-5.68,0-10.779-2.518-14.227-6.5l-0.029-0.037L6.465,58.343
			C2.502,54.896,0,49.813,0,44.145c0-5.158,2.074-9.824,5.435-13.223l0.076-0.076l16.487-16.476
			c0.539-0.759,1.144-1.476,1.792-2.143c-1.122,1.409-1.792,3.193-1.792,5.133c0,2.123,0.792,4.047,2.104,5.508
			c0.009,0.017,0.025,0.028,0.034,0.041c0.151,0.164,0.307,0.318,0.467,0.467l6.041,6.152l0.006,0.004l2.99,3.044l10.207,10.388
			l5.54,5.244l0.012,0.008c4.207,3.447,6.693,9.246,6.693,14.75C56.093,73.351,47.671,81.772,37.285,81.772z"/>
		
			<radialGradient id="SVGID_3_" cx="315.9473" cy="73.7334" r="15.5815" gradientTransform="matrix(0 -1.028 1.028 0 -40.1715 355.0166)" gradientUnits="userSpaceOnUse">
			<stop  offset="0" style="stop-color:#F48B8F"/>
			<stop  offset="1" style="stop-color:#D22D7C"/>
		</radialGradient>
		<path fill="url(#SVGID_3_)" d="M23.781,12.228c-1.162,1.54-1.771,3.47-1.666,5.375c0.073,1.897,0.836,3.753,2.121,5.134
			l0.07,0.076l-0.051-0.05l1.561,1.548l1.573,1.592l3.149,3.181c2.107,2.111,4.186,4.255,6.27,6.391l3.125,3.208l3.098,3.229
			c2.07,2.148,4.31,4.116,6.348,6.297l0,0l0.009,0.008l-0.009-0.008l0,0l0,0c-2.147-2.075-4.47-3.96-6.582-6.067l-3.176-3.156
			l-3.149-3.18c-2.099-2.12-4.206-4.234-6.282-6.377l-3.125-3.207l-1.562-1.604l-0.776-0.805c-0.26-0.283-0.508-0.498-0.801-0.84
			l0.021,0.024c-1.307-1.481-2.061-3.429-2.078-5.39C21.843,15.653,22.528,13.7,23.781,12.228z"/>
		<g>
			
				<linearGradient id="SVGID_4_" gradientUnits="userSpaceOnUse" x1="480.3486" y1="-970.0674" x2="499.183" y2="-951.2331" gradientTransform="matrix(0 -1 1 0 1030.9541 556.6104)">
				<stop  offset="0" style="stop-color:#26A9E0"/>
				<stop  offset="1" style="stop-color:#01568B"/>
			</linearGradient>
			<path fill="url(#SVGID_4_)" d="M67.621,45.329l10.206,10.385l2.996,3.047l0.003,0.004l6.042,6.15
				c0.16,0.148,0.315,0.305,0.463,0.471c0.013,0.01,0.028,0.023,0.038,0.041c1.312,1.459,2.103,3.385,2.103,5.504
				c0,1.939-0.667,3.725-1.795,5.135c0,0.006-0.003,0.006-0.003,0.006c-0.664,0.684-1.378,1.314-2.143,1.891
				c-0.008,0.006-0.021,0.01-0.028,0.023c-3.147,2.377-7.064,3.787-11.316,3.787c-10.389,0-18.808-8.422-18.808-18.811
				C55.379,54.886,60.471,47.993,67.621,45.329z"/>
			
				<linearGradient id="SVGID_5_" gradientUnits="userSpaceOnUse" x1="496.5068" y1="-927.3149" x2="541.9194" y2="-972.7275" gradientTransform="matrix(0 -1 1 0 1030.9541 556.6104)">
				<stop  offset="0" style="stop-color:#37B34A"/>
				<stop  offset="1" style="stop-color:#AFD136"/>
			</linearGradient>
			<path fill="url(#SVGID_5_)" d="M74.187,6.521c5.681,0,10.775,2.518,14.223,6.5l0.032,0.038l16.565,16.891
				c3.961,3.448,6.465,8.532,6.465,14.196c0,5.16-2.074,9.824-5.435,13.224l-0.077,0.078L89.472,73.925
				c-0.54,0.758-1.145,1.475-1.795,2.141c1.128-1.41,1.795-3.195,1.795-5.135c0-2.119-0.791-4.045-2.103-5.504
				c-0.01-0.018-0.025-0.031-0.038-0.041c-0.147-0.166-0.303-0.322-0.463-0.471l-6.042-6.15l-0.003-0.004l-2.996-3.047
				L67.621,45.329l-5.54-5.245l-0.01-0.006c-4.206-3.445-6.692-9.244-6.692-14.75C55.379,14.943,63.798,6.521,74.187,6.521z"/>
			<path opacity="0.4" fill="#FFFFFF" d="M87.687,76.065c1.166-1.541,1.774-3.469,1.67-5.373c-0.073-1.898-0.841-3.754-2.12-5.137
				l-0.071-0.076l0.051,0.053l-1.561-1.551l-1.576-1.59l-3.148-3.18c-2.107-2.115-4.183-4.256-6.269-6.393l-3.124-3.205
				l-3.099-3.232c-2.071-2.15-4.309-4.114-6.348-6.299l0,0l-0.011-0.006l0.011,0.006l0,0l0,0c2.147,2.078,4.467,3.959,6.583,6.067
				l3.173,3.157l3.151,3.18c2.099,2.123,4.205,4.234,6.279,6.379l3.127,3.205l1.563,1.604l0.775,0.807
				c0.261,0.281,0.508,0.498,0.797,0.838l-0.018-0.021c1.308,1.479,2.062,3.428,2.077,5.385
				C89.626,72.642,88.944,74.593,87.687,76.065z"/>
		</g>
		
			<linearGradient id="SVGID_6_" gradientUnits="userSpaceOnUse" x1="232.2129" y1="171.5342" x2="251.0486" y2="190.3699" gradientTransform="matrix(0 1 -1 0 222.1182 -220.1826)">
			<stop  offset="0" style="stop-color:#26A9E0"/>
			<stop  offset="1" style="stop-color:#01568B"/>
		</linearGradient>
		<path fill="url(#SVGID_6_)" d="M43.848,42.964L33.641,32.577l-2.99-3.044l-0.006-0.004l-6.041-6.152
			c-0.16-0.148-0.315-0.303-0.467-0.467c-0.009-0.013-0.025-0.024-0.034-0.041c-1.313-1.461-2.104-3.385-2.104-5.508
			c0-1.939,0.67-3.724,1.792-5.133c0-0.006,0.007-0.006,0.007-0.006c0.666-0.685,1.379-1.313,2.143-1.892
			c0.01-0.006,0.02-0.01,0.031-0.022c3.146-2.38,7.063-3.787,11.314-3.787c10.386,0,18.808,8.422,18.808,18.81
			C56.093,33.41,50.999,40.298,43.848,42.964z"/>
	</g>
	<g>
		<path fill="#212121" d="M153.653,42.6c-0.929,3.671-2.797,6.551-5.603,8.64c-2.807,2.089-6.193,3.134-10.159,3.134
			c-4.854,0-8.873-1.646-12.06-4.938c-3.187-3.292-4.778-7.321-4.778-12.09c0-4.769,1.592-8.82,4.778-12.154
			c3.187-3.333,7.206-5,12.06-5c3.924,0,7.289,1.044,10.096,3.133s4.674,4.969,5.603,8.641h-8.926
			c-0.591-1.181-1.498-2.162-2.722-2.944c-1.225-0.78-2.574-1.171-4.051-1.171c-2.321,0-4.295,0.939-5.919,2.817
			c-1.625,1.878-2.438,4.125-2.438,6.741c0,2.575,0.813,4.779,2.438,6.615c1.624,1.835,3.598,2.753,5.919,2.753
			c1.519,0,2.9-0.4,4.146-1.203c1.244-0.801,2.142-1.793,2.69-2.975H153.653z"/>
		<path fill="#212121" d="M178.909,43.233h8.926c-0.972,3.377-2.849,6.077-5.634,8.102s-6.162,3.039-10.128,3.039
			c-4.643,0-8.588-1.656-11.837-4.97c-3.251-3.312-4.875-7.332-4.875-12.058c0-4.726,1.636-8.767,4.906-12.122
			c3.27-3.355,7.205-5.032,11.806-5.032c4.009,0,7.469,1.182,10.381,3.544c2.996,2.491,4.874,5.866,5.634,10.128l-23.041,9.685
			c1.729,2.322,4.051,3.482,6.963,3.482C175.259,47.031,177.559,45.765,178.909,43.233z M163.147,36.903l15.319-6.457
			c-1.604-1.94-3.757-2.912-6.457-2.912c-2.448,0-4.517,0.876-6.203,2.627C164.118,31.913,163.231,34.16,163.147,36.903z"/>
		<path fill="#212121" d="M223.6,6.519v30.827c0,4.769-1.572,8.799-4.716,12.09c-3.145,3.291-7.144,4.938-11.995,4.938
			c-4.854,0-8.862-1.646-12.027-4.938c-3.165-3.292-4.748-7.321-4.748-12.09c0-4.684,1.529-8.693,4.59-12.027
			c3.059-3.333,6.72-5,10.982-5c3.882,0,7.067,1.266,9.559,3.798V6.519H223.6z M215.244,37.409c0-2.573-0.813-4.779-2.438-6.615
			c-1.625-1.835-3.598-2.753-5.918-2.753c-2.321,0-4.295,0.897-5.919,2.69c-1.625,1.794-2.438,4.02-2.438,6.678
			c0,2.575,0.813,4.748,2.438,6.52c1.624,1.772,3.598,2.659,5.919,2.659c2.32,0,4.293-0.896,5.918-2.69
			C214.431,42.104,215.244,39.941,215.244,37.409z"/>
		<path fill="#212121" d="M250.059,43.233h8.926c-0.972,3.377-2.849,6.077-5.634,8.102s-6.162,3.039-10.128,3.039
			c-4.643,0-8.588-1.656-11.838-4.97c-3.25-3.312-4.874-7.332-4.874-12.058c0-4.726,1.636-8.767,4.906-12.122
			c3.27-3.355,7.205-5.032,11.806-5.032c4.009,0,7.469,1.182,10.381,3.544c2.996,2.491,4.874,5.866,5.634,10.128l-23.041,9.685
			c1.729,2.322,4.051,3.482,6.963,3.482C246.408,47.031,248.708,45.765,250.059,43.233z M234.297,36.903l15.318-6.457
			c-1.604-1.94-3.756-2.912-6.456-2.912c-2.448,0-4.517,0.876-6.203,2.627C235.268,31.913,234.381,34.16,234.297,36.903z"/>
		<path fill="#212121" d="M271.707,17.47h-8.419v-4.684c0-1.181,0.411-2.173,1.234-2.975c0.822-0.801,1.824-1.203,3.007-1.203
			c1.139,0,2.12,0.401,2.943,1.203c0.822,0.802,1.234,1.794,1.234,2.975V17.47z M271.707,21.015v32.6h-8.356v-32.6H271.707z"/>
		<path fill="#212121" d="M294.558,20.382v7.849c-0.676-0.126-1.329-0.19-1.963-0.19c-2.11,0-3.788,0.612-5.032,1.835
			c-1.245,1.225-1.867,2.849-1.867,4.875v18.863h-8.355V34.751c0-4.305,1.287-7.807,3.861-10.508
			c2.573-2.7,6.118-4.051,10.635-4.051C292.722,20.192,293.629,20.255,294.558,20.382z"/>
		<path fill="#212121" d="M329.119,37.346v16.268h-7.913v-3.418c-2.49,2.743-5.803,4.114-9.938,4.114
			c-4.305,0-7.987-1.656-11.046-4.97c-3.061-3.312-4.59-7.311-4.59-11.995c0-4.811,1.583-8.872,4.748-12.186
			c3.165-3.312,7.174-4.969,12.027-4.969c4.852,0,8.851,1.657,11.995,4.969C327.547,28.474,329.119,32.535,329.119,37.346z
			 M320.764,37.409c0-2.573-0.813-4.779-2.438-6.615c-1.625-1.835-3.598-2.753-5.918-2.753c-2.321,0-4.295,0.897-5.919,2.69
			c-1.625,1.794-2.438,4.02-2.438,6.678c0,2.575,0.813,4.748,2.438,6.52c1.624,1.772,3.598,2.659,5.919,2.659
			c2.32,0,4.293-0.896,5.918-2.69C319.95,42.104,320.764,39.941,320.764,37.409z"/>
	</g>
	<g>
		<path fill="#212121" d="M131.044,66.55c-0.407-0.462-0.954-0.836-1.64-1.121c-0.687-0.285-1.457-0.428-2.313-0.428
			c-1.291,0-2.228,0.241-2.812,0.724c-0.585,0.482-0.877,1.138-0.877,1.966c0,0.436,0.078,0.792,0.234,1.07s0.4,0.52,0.734,0.723
			c0.332,0.204,0.754,0.381,1.263,0.53c0.51,0.149,1.11,0.299,1.804,0.448c0.774,0.163,1.467,0.344,2.078,0.54
			c0.611,0.197,1.135,0.448,1.569,0.754s0.768,0.68,0.998,1.121c0.231,0.441,0.347,0.988,0.347,1.641
			c0,0.665-0.129,1.242-0.387,1.731c-0.259,0.489-0.618,0.896-1.08,1.223s-1.013,0.567-1.65,0.724
			c-0.639,0.156-1.332,0.234-2.079,0.234c-2.269,0-4.204-0.699-5.808-2.099l0.693-1.162c0.529,0.558,1.243,1.029,2.14,1.417
			c0.896,0.387,1.895,0.58,2.995,0.58c1.154,0,2.059-0.207,2.71-0.621c0.652-0.414,0.979-1.043,0.979-1.885
			c0-0.448-0.092-0.825-0.275-1.131s-0.458-0.571-0.825-0.795c-0.366-0.225-0.825-0.418-1.375-0.581
			c-0.551-0.163-1.186-0.326-1.905-0.489c-0.762-0.176-1.427-0.359-1.997-0.55s-1.05-0.428-1.437-0.714
			c-0.388-0.285-0.68-0.628-0.877-1.028c-0.196-0.4-0.295-0.894-0.295-1.478c0-0.666,0.125-1.26,0.377-1.783
			c0.251-0.522,0.604-0.958,1.06-1.304c0.455-0.347,0.998-0.611,1.63-0.795s1.328-0.275,2.089-0.275
			c0.951,0,1.804,0.146,2.558,0.438s1.437,0.703,2.048,1.232L131.044,66.55z"/>
		<path fill="#212121" d="M140.887,78.409c-1.006,0-1.926-0.207-2.762-0.621c-0.835-0.415-1.552-0.965-2.149-1.651
			c-0.599-0.686-1.06-1.47-1.386-2.354c-0.326-0.883-0.489-1.786-0.489-2.71c0-0.965,0.173-1.888,0.52-2.771
			c0.347-0.883,0.825-1.664,1.437-2.343c0.611-0.68,1.331-1.22,2.16-1.62c0.828-0.401,1.725-0.602,2.689-0.602
			c1.006,0,1.926,0.214,2.762,0.642c0.835,0.429,1.549,0.988,2.14,1.682c0.591,0.692,1.049,1.478,1.375,2.354s0.489,1.77,0.489,2.68
			c0,0.965-0.173,1.889-0.52,2.771s-0.822,1.66-1.427,2.333s-1.321,1.209-2.149,1.61C142.747,78.209,141.851,78.409,140.887,78.409z
			 M135.527,71.073c0,0.788,0.129,1.546,0.387,2.272s0.625,1.372,1.101,1.936s1.039,1.013,1.691,1.345
			c0.652,0.333,1.379,0.499,2.181,0.499c0.814,0,1.555-0.176,2.221-0.529c0.665-0.354,1.229-0.815,1.691-1.386
			s0.818-1.216,1.069-1.936c0.252-0.72,0.377-1.454,0.377-2.201c0-0.788-0.132-1.545-0.396-2.272
			c-0.266-0.727-0.636-1.368-1.111-1.925c-0.476-0.558-1.039-1.002-1.691-1.335c-0.651-0.333-1.372-0.499-2.159-0.499
			c-0.815,0-1.557,0.173-2.222,0.52c-0.666,0.346-1.229,0.805-1.691,1.375s-0.818,1.216-1.069,1.936
			C135.652,69.593,135.527,70.326,135.527,71.073z"/>
		<path fill="#212121" d="M150.423,78.308V63.839h9.476v1.264h-8.069v5.318h6.826v1.183h-6.826v6.704H150.423z"/>
		<path fill="#212121" d="M172.635,65.103h-5.156v13.205h-1.426V65.103h-5.156v-1.264h11.738V65.103z"/>
		<path fill="#212121" d="M180.256,63.941h1.365l2.037,5.135l2.059-5.135h1.345l-2.526,6.174l2.771,6.542l5.237-12.818h1.549
			l-6.113,14.469h-1.264l-3.036-7.152l-3.057,7.152h-1.264l-6.093-14.469h1.509l5.257,12.818l2.751-6.542L180.256,63.941z"/>
		<path fill="#212121" d="M193.5,78.308l6.052-14.469h1.162l6.052,14.469h-1.528l-1.875-4.524h-6.5l-1.854,4.524H193.5z
			 M200.143,65.51l-2.975,7.153h5.869L200.143,65.51z"/>
		<path fill="#212121" d="M208.865,78.308V63.839h6.093c0.625,0,1.202,0.133,1.732,0.397c0.529,0.266,0.984,0.611,1.365,1.04
			c0.38,0.428,0.676,0.913,0.886,1.456c0.211,0.544,0.316,1.094,0.316,1.651c0,0.529-0.078,1.036-0.234,1.518
			c-0.156,0.482-0.377,0.917-0.662,1.305c-0.285,0.387-0.625,0.713-1.02,0.978c-0.394,0.266-0.835,0.445-1.324,0.54l3.566,5.584
			h-1.61l-3.423-5.339h-4.279v5.339H208.865z M210.271,71.705h4.748c0.421,0,0.805-0.092,1.151-0.275
			c0.346-0.184,0.642-0.431,0.886-0.743c0.245-0.313,0.435-0.666,0.571-1.06c0.135-0.395,0.203-0.809,0.203-1.243
			s-0.078-0.853-0.234-1.254c-0.156-0.4-0.366-0.75-0.632-1.049c-0.265-0.299-0.577-0.537-0.937-0.714
			c-0.36-0.176-0.737-0.265-1.132-0.265h-4.625V71.705z"/>
		<path fill="#212121" d="M232.033,77.044v1.264h-9.72V63.839h9.536v1.264h-8.13v5.217h7.091v1.202h-7.091v5.522H232.033z"/>
		<path fill="#212121" d="M240.021,78.308V63.839h9.476v1.264h-8.069v5.318h6.826v1.183h-6.826v6.704H240.021z"/>
		<path fill="#212121" d="M249.049,78.308l6.052-14.469h1.162l6.052,14.469h-1.528l-1.875-4.524h-6.5l-1.854,4.524H249.049z
			 M255.691,65.51l-2.975,7.153h5.869L255.691,65.51z"/>
		<path fill="#212121" d="M263.476,70.972c0-0.869,0.153-1.735,0.459-2.599c0.306-0.862,0.75-1.633,1.334-2.313
			s1.305-1.233,2.16-1.661c0.856-0.428,1.827-0.642,2.914-0.642c1.291,0,2.391,0.292,3.301,0.876s1.59,1.345,2.038,2.282
			l-1.141,0.693c-0.231-0.476-0.51-0.877-0.836-1.202c-0.326-0.326-0.68-0.592-1.06-0.795c-0.381-0.204-0.774-0.35-1.182-0.438
			c-0.408-0.088-0.809-0.132-1.202-0.132c-0.87,0-1.638,0.176-2.303,0.529c-0.666,0.354-1.227,0.815-1.682,1.386
			s-0.798,1.213-1.028,1.926c-0.231,0.713-0.347,1.437-0.347,2.17c0,0.802,0.139,1.569,0.418,2.303
			c0.277,0.733,0.658,1.383,1.141,1.946s1.053,1.012,1.712,1.345c0.658,0.333,1.375,0.499,2.149,0.499
			c0.408,0,0.825-0.051,1.254-0.152c0.428-0.102,0.842-0.265,1.242-0.489c0.401-0.224,0.771-0.502,1.111-0.835
			c0.339-0.333,0.624-0.737,0.855-1.213l1.182,0.611c-0.23,0.544-0.557,1.022-0.978,1.437c-0.422,0.415-0.891,0.765-1.406,1.05
			c-0.517,0.285-1.063,0.503-1.641,0.651c-0.577,0.149-1.145,0.225-1.701,0.225c-0.992,0-1.902-0.217-2.73-0.652
			c-0.829-0.435-1.542-1.002-2.14-1.701c-0.599-0.699-1.063-1.494-1.396-2.385C263.642,72.802,263.476,71.896,263.476,70.972z"/>
		<path fill="#212121" d="M288.581,65.103h-5.156v13.205h-1.426V65.103h-5.156v-1.264h11.738V65.103z"/>
		<path fill="#212121" d="M295.998,78.409c-1.006,0-1.926-0.207-2.762-0.621c-0.835-0.415-1.552-0.965-2.149-1.651
			c-0.599-0.686-1.06-1.47-1.386-2.354c-0.326-0.883-0.489-1.786-0.489-2.71c0-0.965,0.173-1.888,0.52-2.771
			c0.347-0.883,0.825-1.664,1.437-2.343c0.611-0.68,1.331-1.22,2.16-1.62c0.828-0.401,1.725-0.602,2.689-0.602
			c1.006,0,1.926,0.214,2.762,0.642c0.835,0.429,1.549,0.988,2.14,1.682c0.591,0.692,1.049,1.478,1.375,2.354s0.489,1.77,0.489,2.68
			c0,0.965-0.173,1.889-0.52,2.771s-0.822,1.66-1.427,2.333s-1.321,1.209-2.149,1.61C297.858,78.209,296.962,78.409,295.998,78.409z
			 M290.639,71.073c0,0.788,0.129,1.546,0.387,2.272s0.625,1.372,1.101,1.936s1.039,1.013,1.691,1.345
			c0.652,0.333,1.379,0.499,2.181,0.499c0.814,0,1.555-0.176,2.221-0.529c0.665-0.354,1.229-0.815,1.691-1.386
			s0.818-1.216,1.069-1.936c0.252-0.72,0.377-1.454,0.377-2.201c0-0.788-0.132-1.545-0.396-2.272
			c-0.266-0.727-0.636-1.368-1.111-1.925c-0.476-0.558-1.039-1.002-1.691-1.335c-0.651-0.333-1.372-0.499-2.159-0.499
			c-0.815,0-1.557,0.173-2.222,0.52c-0.666,0.346-1.229,0.805-1.691,1.375s-0.818,1.216-1.069,1.936
			C290.764,69.593,290.639,70.326,290.639,71.073z"/>
		<path fill="#212121" d="M305.534,78.308V63.839h6.093c0.625,0,1.202,0.133,1.732,0.397c0.529,0.266,0.984,0.611,1.365,1.04
			c0.38,0.428,0.676,0.913,0.886,1.456c0.211,0.544,0.316,1.094,0.316,1.651c0,0.529-0.078,1.036-0.234,1.518
			c-0.156,0.482-0.377,0.917-0.662,1.305c-0.285,0.387-0.625,0.713-1.02,0.978c-0.394,0.266-0.835,0.445-1.324,0.54l3.566,5.584
			h-1.61l-3.423-5.339h-4.279v5.339H305.534z M306.94,71.705h4.748c0.421,0,0.805-0.092,1.151-0.275
			c0.346-0.184,0.642-0.431,0.886-0.743c0.245-0.313,0.435-0.666,0.571-1.06c0.135-0.395,0.203-0.809,0.203-1.243
			s-0.078-0.853-0.234-1.254c-0.156-0.4-0.366-0.75-0.632-1.049c-0.265-0.299-0.577-0.537-0.937-0.714
			c-0.36-0.176-0.737-0.265-1.132-0.265h-4.625V71.705z"/>
		<path fill="#212121" d="M318.312,63.839l4.748,7.784l4.768-7.784h1.549l-5.624,9.089v5.38h-1.406v-5.421l-5.583-9.048H318.312z"/>
	</g>
</g>
</svg>
