<?xml version="1.0" encoding="utf-8"?>
<!-- Generator: Adobe Illustrator 16.0.0, SVG Export Plug-In . SVG Version: 6.00 Build 0)  -->
<!DOCTYPE svg PUBLIC "-//W3C//DTD SVG 1.1//EN" "http://www.w3.org/Graphics/SVG/1.1/DTD/svg11.dtd">
<svg version="1.1" id="layer_1" xmlns="http://www.w3.org/2000/svg" xmlns:xlink="http://www.w3.org/1999/xlink" x="0px" y="0px"
	 width="638.139px" height="523.692px" viewBox="3.822 84.661 638.139 523.692"
	 enable-background="new 3.822 84.661 638.139 523.692" xml:space="preserve">
<g>
	<g>
		<g>
			<ellipse fill="#D6EAFA" cx="321.218" cy="352.142" rx="242.198" ry="237.369"/>
		</g>
		<g>
			<path fill="#EAF5FE" d="M321.22,553.995c-113.566,0-205.961-90.55-205.961-201.854c0-111.301,92.395-201.851,205.961-201.851
				c113.565,0,205.958,90.55,205.958,201.851C527.178,463.445,434.785,553.995,321.22,553.995z M321.22,157.332
				c-109.605,0-198.776,87.391-198.776,194.81c0,107.42,89.17,194.812,198.776,194.812c109.604,0,198.772-87.392,198.772-194.812
				C519.992,244.723,430.823,157.332,321.22,157.332z"/>
		</g>
		<g>
			<path fill="#D6EAFA" d="M130.744,489.512h99.405c10.248,0,18.555,8.142,18.555,18.185l0,0c0,10.042-8.307,18.185-18.555,18.185
				h-99.405c-10.248,0-18.555-8.143-18.555-18.185l0,0C112.189,497.653,120.497,489.512,130.744,489.512z"/>
		</g>
		<g>
			<path fill="#D6EAFA" d="M106.804,565.939h211.048c6.642,0,12.025,5.276,12.025,11.785l0,0c0,6.509-5.384,11.786-12.025,11.786
				H106.804c-6.643,0-12.026-5.277-12.026-11.786l0,0C94.778,571.216,100.162,565.939,106.804,565.939z"/>
		</g>
		<g>
			<path fill="#D6EAFA" d="M428.508,584.78h22.473c6.641,0,12.025,5.278,12.025,11.787l0,0c0,6.507-5.385,11.785-12.025,11.785
				h-22.473c-6.643,0-12.027-5.278-12.027-11.785l0,0C416.48,590.059,421.865,584.78,428.508,584.78z"/>
		</g>
		<g>
			<path fill="#D6EAFA" d="M417.343,515.059h109.445c10.896,0,19.727,8.656,19.727,19.334l0,0c0,10.677-8.83,19.332-19.727,19.332
				H417.343c-10.896,0-19.727-8.655-19.727-19.332l0,0C397.616,523.715,406.447,515.059,417.343,515.059z"/>
		</g>
		<g>
			<path fill="#D6EAFA" d="M147.879,525.615h79.561c-5.876,0-11.22,2.491-15.071,6.265c-3.866,3.789-6.255,8.266-6.255,14.042
				c0,11.537,9.555,20.14,21.326,20.14h-79.561c5.876,0,11.203-1.531,15.069-5.286c3.85-3.772,6.237-8.746,6.237-14.523
				C169.186,534.7,159.649,525.615,147.879,525.615z"/>
		</g>
		<g>
			<path fill="#D6EAFA" d="M419.388,317.965h178.55c18.405,0,33.327,14.624,33.327,32.663l0,0c0,18.038-14.922,32.662-33.327,32.662
				h-178.55c-18.406,0-33.326-14.624-33.326-32.662l0,0C386.062,332.589,400.981,317.965,419.388,317.965z"/>
		</g>
		<g>
			<path fill="#D6EAFA" d="M355.81,446.747h264.552c11.928,0,21.6,9.477,21.6,21.169l0,0c0,11.691-9.672,21.169-21.603,21.169
				H355.81c-11.929,0-21.602-9.478-21.602-21.169l0,0C334.208,456.224,343.881,446.747,355.81,446.747z"/>
		</g>
		<g>
			<path fill="#D6EAFA" d="M464.881,383.29h124.4c-9.19,0-17.546,3.576-23.564,9.532c-6.045,5.983-9.779,13.027-9.779,22.149
				c0,18.215,14.938,31.775,33.344,31.775h-124.4c9.189,0,17.518-2.572,23.563-8.501c6.018-5.957,9.752-13.531,9.752-22.652
				C498.196,397.353,483.285,383.29,464.881,383.29z"/>
		</g>
		<g>
			<path fill="#D6EAFA" d="M270.155,289.562H60.933c-19.542,0-35.385-15.525-35.385-34.678l0,0c0-19.153,15.843-34.68,35.385-34.68
				h209.222c19.542,0,35.383,15.527,35.383,34.68l0,0C305.538,274.036,289.697,289.562,270.155,289.562z"/>
		</g>
		<g>
			<path fill="#D6EAFA" d="M357.298,490.34H54.955c-28.24,0-51.133-22.438-51.133-50.115l0,0c0-27.675,22.893-50.112,51.133-50.112
				h302.342c28.24,0,51.133,22.438,51.133,50.112v0.003C408.43,467.902,385.537,490.34,357.298,490.34z"/>
		</g>
		<g>
			<path fill="#D6EAFA" d="M528.376,209.89h-166.92c-15.592,0-28.23-12.388-28.23-27.667l0,0c0-15.281,12.639-27.667,28.23-27.667
				h166.92c15.591,0,28.229,12.386,28.229,27.667l0,0C556.605,197.501,543.967,209.89,528.376,209.89z"/>
		</g>
		<g>
			<path fill="#D6EAFA" d="M319.944,161.191H158.32c-13.079,0-23.682-10.39-23.682-23.208l0,0c0-12.819,10.604-23.209,23.682-23.209
				h161.625c13.078,0,23.681,10.39,23.681,23.209l0,0C343.625,150.801,333.022,161.191,319.944,161.191z"/>
		</g>
		<g>
			<path fill="#D6EAFA" d="M477.028,114.774H437.39c-8.484,0-15.362-6.742-15.362-15.058l0,0c0-8.315,6.878-15.056,15.362-15.056
				h39.639c8.485,0,15.364,6.74,15.364,15.056l0,0C492.393,108.032,485.514,114.774,477.028,114.774z"/>
		</g>
	</g>
	<g>
		<g>
			<g>
				<path fill="#92D0EF" d="M142.619,457.215v9.973c0,7.547,6.243,13.664,13.944,13.664l0,0c7.7,0,13.942-6.117,13.942-13.664
					v-9.973H142.619z"/>
			</g>
		</g>
		<g>
			<g>
				<path fill="#92D0EF" d="M142.619,457.215v9.973c0,7.547,6.243,13.664,13.944,13.664l0,0c7.7,0,13.942-6.117,13.942-13.664
					v-9.973H142.619z"/>
			</g>
		</g>
		<g>
			<g>
				<path fill="#0072CD" d="M156.563,482.61c-8.68,0-15.74-6.919-15.74-15.423v-9.973c0-0.974,0.803-1.761,1.796-1.761h27.886
					c0.993,0,1.796,0.787,1.796,1.761v9.973C172.301,475.691,165.241,482.61,156.563,482.61z M144.415,458.975v8.213
					c0,6.563,5.45,11.903,12.147,11.903c6.697,0,12.147-5.34,12.147-11.903v-8.213H144.415z"/>
			</g>
		</g>
		<g>
			<g>
				<path fill="#54AAE3" d="M166.029,347.339L166.029,347.339v-18.183h-18.933v18.183l0,0c-2.471,0-4.477,1.963-4.477,4.385v105.491
					h27.886V351.724C170.505,349.302,168.502,347.339,166.029,347.339z"/>
			</g>
		</g>
		<g>
			<g>
				<path fill="#0072CD" d="M170.505,458.975h-27.886c-0.993,0-1.796-0.787-1.796-1.76V351.724c0-2.778,1.891-5.129,4.477-5.889
					v-16.679c0-0.974,0.803-1.761,1.796-1.761h18.933c0.993,0,1.796,0.787,1.796,1.761v16.679c2.586,0.76,4.477,3.11,4.477,5.889
					v105.491C172.301,458.188,171.498,458.975,170.505,458.975z M144.415,455.454h24.294v-103.73c0-1.447-1.202-2.624-2.681-2.624
					c-0.993,0-1.796-0.79-1.796-1.761v-16.423h-15.341v16.423c0,0.971-0.803,1.761-1.796,1.761c-1.479,0-2.681,1.177-2.681,2.624
					V455.454z"/>
			</g>
		</g>
		<g>
			<path fill="#FFFFFF" d="M156.59,216.981L156.59,216.981c-7.439,0-13.525,5.966-13.525,13.257v20.884
				c0,3.765,3.143,6.845,6.986,6.845l0,0v58.813h13.024v-58.813h0.179c3.743,0,6.806-3.001,6.806-6.668v-21.118
				C170.06,222.923,164,216.981,156.59,216.981z"/>
		</g>
		<g>
			<path fill="#0072CD" d="M163.075,318.542h-13.024c-0.993,0-1.796-0.787-1.796-1.761v-57.234
				c-3.983-0.814-6.987-4.283-6.987-8.425v-20.884c0-8.281,6.875-15.018,15.322-15.018c8.418,0,15.266,6.711,15.266,14.961v21.118
				c0,4.106-3.012,7.536-6.985,8.279v57.203C164.871,317.755,164.067,318.542,163.075,318.542z M151.847,315.021h9.432v-57.054
				c0-0.973,0.803-1.761,1.796-1.761c2.942,0,5.189-2.202,5.189-4.908v-21.118c0-6.308-5.236-11.44-11.674-11.44
				c-6.467,0-11.729,5.158-11.729,11.497v20.884c0,2.804,2.328,5.084,5.19,5.084c0.993,0,1.796,0.788,1.796,1.761V315.021z"/>
		</g>
		<g>
			<path fill="#FFFFFF" d="M164.698,329.156h-16.27c-3.858,0-6.986-3.065-6.986-6.847l0,0c0-3.781,3.128-6.847,6.986-6.847h16.27
				c3.857,0,6.985,3.065,6.985,6.847l0,0C171.683,326.091,168.555,329.156,164.698,329.156z"/>
		</g>
		<g>
			<path fill="#0072CD" d="M164.698,330.916h-16.27c-4.843,0-8.782-3.86-8.782-8.606c0-4.748,3.939-8.607,8.782-8.607h16.27
				c4.841,0,8.781,3.859,8.781,8.607C173.479,327.056,169.539,330.916,164.698,330.916z M148.428,317.224
				c-2.862,0-5.189,2.281-5.189,5.086c0,2.803,2.327,5.086,5.189,5.086h16.27c2.86,0,5.188-2.283,5.188-5.086
				c0-2.805-2.328-5.086-5.188-5.086H148.428z"/>
		</g>
		<g>
			<rect x="156.673" y="345.487" fill="#0072CD" width="8.98" height="3.521"/>
		</g>
	</g>
	<g>
		<g>
			<g>
				<path fill="#92D0EF" d="M490.538,226.287c0.037,0.247,0.334,0.499,0.334,0.755v37.561c0,2.79-2.58,5.006-5.429,5.006
					l-23.509,0.046c-2.85,0.002-5.19-2.212-5.19-5.002v-37.61c0-0.258-0.077-0.508-0.038-0.754
					c-13.836,5.921-23.115,18.912-23.115,33.991c0.002,14.855,10.58,29.821,23.153,37.057V460.29c0,9.44,6.823,16.708,16.456,16.708
					h0.043c9.639,0,17.629-7.268,17.629-16.708V297.335c14.369-7.238,22.968-22.2,22.968-37.057
					C513.838,245.202,504.374,232.207,490.538,226.287z M473.433,467.268c-3.729-0.001-6.755-2.963-6.755-6.62
					c0-3.654,3.025-6.62,6.753-6.62c3.733,0,6.757,2.963,6.755,6.62C480.188,464.305,477.162,467.268,473.433,467.268z"/>
			</g>
		</g>
		<g>
			<g>
				<path fill="#0072CD" d="M473.243,478.759H473.2c-10.404,0-18.252-7.939-18.252-18.469V298.33
					c-13.678-8.288-23.151-23.791-23.154-38.052c0-15.339,9.497-29.315,24.192-35.604c0.601-0.258,1.292-0.174,1.815,0.219
					c0.519,0.391,0.779,1.029,0.68,1.663c0.041,0.137,0.06,0.309,0.06,0.485v37.61c0,0.867,0.349,1.679,0.985,2.289
					c0.64,0.615,1.494,0.954,2.404,0.954l23.509-0.047c1.938,0,3.636-1.516,3.636-3.245v-37.206
					c-0.128-0.224-0.263-0.506-0.314-0.856c-0.094-0.632,0.169-1.265,0.688-1.653c0.518-0.386,1.209-0.468,1.809-0.214
					c14.807,6.337,24.376,20.312,24.377,35.605c0,15.773-8.978,30.613-22.967,38.116V460.29
					C492.668,470.473,483.954,478.759,473.243,478.759z M454.948,229.062c-12.135,6.207-19.562,17.943-19.562,31.216
					c0.002,13.168,9.367,28.115,22.268,35.539c0.55,0.316,0.887,0.894,0.887,1.518V460.29c0,8.662,6.165,14.947,14.659,14.947h0.043
					c8.878,0,15.832-6.566,15.832-14.947V297.335c0-0.661,0.377-1.265,0.976-1.566c13.36-6.729,21.992-20.66,21.992-35.491
					c-0.002-12.89-7.51-24.761-19.375-31.021v35.345c0,3.667-3.309,6.767-7.225,6.767l-23.505,0.046
					c-1.859,0-3.608-0.695-4.924-1.958c-1.333-1.277-2.066-2.983-2.066-4.805V229.062z M473.433,469.028
					c-4.716-0.004-8.552-3.761-8.552-8.381s3.835-8.38,8.55-8.38c2.286,0,4.434,0.872,6.049,2.455
					c1.614,1.581,2.504,3.687,2.503,5.927c0.001,2.237-0.889,4.341-2.503,5.923C477.864,468.157,475.717,469.028,473.433,469.028z
					 M473.431,455.788c-2.732,0-4.957,2.18-4.957,4.859c0,2.679,2.225,4.86,4.959,4.86c1.324,0,2.57-0.506,3.506-1.423
					c0.937-0.919,1.451-2.14,1.451-3.436c0-1.3-0.515-2.52-1.451-3.438C476.003,456.293,474.757,455.788,473.431,455.788z"/>
			</g>
		</g>
		<g>
			<rect x="471.496" y="302.051" fill="#0072CD" width="3.593" height="137.308"/>
		</g>
	</g>
	<g>
		<g>
			<path fill-rule="evenodd" clip-rule="evenodd" fill="#FFFFFF" d="M549.493,478.526H394.604V344.577
				c0-6.307,5.218-11.419,11.654-11.419h131.582c6.436,0,11.652,5.112,11.652,11.419V478.526z"/>
		</g>
		<g>
			<path fill-rule="evenodd" clip-rule="evenodd" fill="#92D0EF" d="M549.493,356.924H394.604v-12.347
				c0-6.307,5.218-11.419,11.654-11.419h131.582c6.436,0,11.652,5.112,11.652,11.419V356.924z"/>
		</g>
		<g>
			<g>
				<rect x="525.88" y="364.426" fill="#EAF5FE" width="16.497" height="34.136"/>
			</g>
			<g>
				<rect x="401.721" y="364.426" fill="#EAF5FE" width="118.948" height="34.136"/>
			</g>
			<g>
				<rect x="401.721" y="409.228" fill="#EAF5FE" width="32.994" height="34.136"/>
			</g>
			<g>
				<rect x="440.793" y="429.023" fill="#EAF5FE" width="101.584" height="14.34"/>
			</g>
			<g>
				<rect x="440.793" y="409.228" fill="#EAF5FE" width="101.584" height="14.342"/>
			</g>
			<g>
				<rect x="401.721" y="450.034" fill="#EAF5FE" width="140.656" height="21.065"/>
			</g>
		</g>
		<g>
			<rect x="503.827" y="349.58" fill="#0072CD" width="7.184" height="3.521"/>
		</g>
		<g>
			<path fill="#0072CD" d="M521.555,353.139c-2.96,0-5.366-2.36-5.366-5.261c0-2.899,2.406-5.259,5.366-5.259
				c2.959,0,5.367,2.359,5.367,5.259C526.922,350.778,524.514,353.139,521.555,353.139z M521.555,346.141
				c-0.978,0-1.772,0.78-1.772,1.737c0,0.959,0.795,1.74,1.772,1.74c0.979,0,1.774-0.781,1.774-1.74
				C523.329,346.921,522.533,346.141,521.555,346.141z"/>
		</g>
		<g>
			<path fill="#0072CD" d="M536.104,353.139c-2.958,0-5.365-2.36-5.365-5.261c0-2.899,2.407-5.259,5.365-5.259
				c2.96,0,5.369,2.359,5.369,5.259C541.473,350.778,539.063,353.139,536.104,353.139z M536.104,346.141
				c-0.977,0-1.773,0.78-1.773,1.737c0,0.959,0.797,1.74,1.773,1.74c0.979,0,1.776-0.781,1.776-1.74
				C537.88,346.921,537.083,346.141,536.104,346.141z"/>
		</g>
		<g>
			<path fill="#0072CD" d="M551.289,480.286H392.808V344.577c0-7.267,6.034-13.18,13.451-13.18h131.582
				c7.416,0,13.448,5.913,13.448,13.18V480.286z M396.4,476.767h151.296V344.577c0-5.327-4.422-9.659-9.855-9.659H406.259
				c-5.436,0-9.858,4.332-9.858,9.659V476.767z"/>
		</g>
	</g>
	<g>
		<g>
			<rect x="42.21" y="478.086" fill="#0072CD" width="26.942" height="7.042"/>
		</g>
		<g>
			<rect x="575.675" y="478.086" fill="#0072CD" width="26.942" height="7.042"/>
		</g>
		<g>
			<rect x="87.114" y="478.086" fill="#0072CD" width="480.177" height="7.042"/>
		</g>
	</g>
	<g>
		<g>
			<g>
				<g>
					<g>
						<path fill="#FFFFFF" d="M340.331,448.83c0-23.627,0-23.848,0-23.848h-26.898h-26.897c0,0,0,2.085,0,23.788
							c0,21.702-36.58,29.315-36.58,29.315h63.477h63.477C376.909,478.086,340.331,472.455,340.331,448.83z"/>
					</g>
				</g>
			</g>
		</g>
		<g>
			<g>
				<g>
					<g>
						<path fill="#EBF3FE" d="M340.331,447.375c0-23.552,0-22.393,0-22.393h-53.796c0,0,0,0.817,0,22.452L340.331,447.375z"/>
					</g>
				</g>
			</g>
		</g>
		<g>
			<g>
				<g>
					<g>
						<path fill="#0072CD" d="M376.909,479.847H249.956c-0.918,0-1.688-0.68-1.785-1.576c-0.097-0.896,0.512-1.72,1.412-1.904
							c0.351-0.076,35.157-7.575,35.157-27.596v-23.788c0-0.974,0.803-1.761,1.796-1.761h53.796c0.993,0,1.797,0.787,1.797,1.761
							v23.848c0,21.837,34.709,27.463,35.061,27.519c0.926,0.143,1.584,0.959,1.512,1.875
							C378.626,479.141,377.846,479.847,376.909,479.847z M261.873,476.325h101.64c-11.027-4.021-24.978-12.145-24.978-27.495
							v-22.088h-50.203v22.028C288.332,463.569,273.066,472.077,261.873,476.325z"/>
					</g>
				</g>
			</g>
		</g>
		<g>
			<g>
				<g>
					<g>
						<path fill="#54AAE3" d="M433.628,258.595h-240.39c-4.168,0-7.548,3.39-7.548,7.571V415.67h255.484V266.166
							C441.174,261.985,437.795,258.595,433.628,258.595z"/>
					</g>
				</g>
			</g>
		</g>
		<g>
			<g>
				<g>
					<g>
						<path fill="#0072CD" d="M442.97,417.43H183.895V266.166c0-5.145,4.192-9.331,9.344-9.331h240.39
							c5.151,0,9.342,4.187,9.342,9.331V417.43z M187.486,413.909h251.892V266.166c0-3.203-2.58-5.81-5.75-5.81h-240.39
							c-3.172,0-5.752,2.607-5.752,5.81V413.909z"/>
					</g>
				</g>
			</g>
		</g>
		<g>
			<g>
				<g>
					<g>
						<rect x="197.956" y="269.725" fill="#FFFFFF" width="231.26" height="134.726"/>
					</g>
				</g>
			</g>
		</g>
		<g>
			<g>
				<g>
					<g>
						<path fill="#FFFFFF" d="M185.69,414.193v9.702c0,4.18,3.38,7.568,7.548,7.568h240.39c4.167,0,7.546-3.389,7.546-7.568v-9.702
							H185.69z"/>
					</g>
				</g>
			</g>
		</g>
		<g>
			<g>
				<g>
					<g>
						<path fill="#0072CD" d="M433.628,433.225h-240.39c-5.152,0-9.344-4.186-9.344-9.329v-11.463H442.97v11.463
							C442.97,429.039,438.779,433.225,433.628,433.225z M187.486,415.954v7.941c0,3.202,2.58,5.808,5.752,5.808h240.39
							c3.17,0,5.75-2.605,5.75-5.808v-7.941H187.486z"/>
					</g>
				</g>
			</g>
		</g>
		<g>
			<g>
				<g>
					<g>
						<rect x="197.956" y="269.725" fill="#EBF3FE" width="231.31" height="12.297"/>
					</g>
				</g>
			</g>
		</g>
		<g>
			<g>
				<g>
					<g>
						<rect x="197.956" y="395.704" fill="#EBF3FE" width="231.31" height="8.746"/>
					</g>
				</g>
			</g>
		</g>
		<g>
			<g>
				<g>
					<g>
						<path fill="#0072CD" d="M431.013,406.211H196.16V267.964h234.853V406.211z M199.752,402.689H427.42V271.485H199.752V402.689z"
							/>
					</g>
				</g>
			</g>
		</g>
	</g>
	<g>
		<g>
			<path fill="#0072CD" d="M445.906,204.057h-1.797c-0.992,0-1.795-0.788-1.795-1.76c0-0.972,0.803-1.76,1.795-1.76h1.797
				c0.993,0,1.796,0.789,1.796,1.76C447.702,203.269,446.899,204.057,445.906,204.057z"/>
		</g>
		<g>
			<path fill="#0072CD" d="M436.781,204.057h-3.664c-0.993,0-1.797-0.788-1.797-1.76c0-0.972,0.804-1.76,1.797-1.76h3.664
				c0.993,0,1.796,0.789,1.796,1.76C438.577,203.269,437.774,204.057,436.781,204.057z M425.79,204.057h-3.664
				c-0.992,0-1.796-0.788-1.796-1.76c0-0.972,0.804-1.76,1.796-1.76h3.664c0.993,0,1.796,0.789,1.796,1.76
				C427.586,203.269,426.783,204.057,425.79,204.057z M414.8,204.057h-3.664c-0.994,0-1.797-0.788-1.797-1.76
				c0-0.972,0.803-1.76,1.797-1.76h3.664c0.991,0,1.796,0.789,1.796,1.76C416.596,203.269,415.791,204.057,414.8,204.057z"/>
		</g>
		<g>
			<path fill="#0072CD" d="M403.809,204.057h-1.797c-0.993,0-1.797-0.788-1.797-1.76c0-0.972,0.804-1.76,1.797-1.76h1.797
				c0.992,0,1.796,0.789,1.796,1.76C405.604,203.269,404.801,204.057,403.809,204.057z"/>
		</g>
	</g>
	<g>
		<g>
			<path fill="#0072CD" d="M335.38,178.826h-1.797c-0.992,0-1.796-0.788-1.796-1.761c0-0.972,0.804-1.76,1.796-1.76h1.797
				c0.993,0,1.796,0.788,1.796,1.76C337.176,178.038,336.373,178.826,335.38,178.826z"/>
		</g>
		<g>
			<path fill="#0072CD" d="M326.255,178.826h-3.664c-0.992,0-1.796-0.788-1.796-1.761c0-0.972,0.804-1.76,1.796-1.76h3.664
				c0.993,0,1.797,0.788,1.797,1.76C328.052,178.038,327.248,178.826,326.255,178.826z M315.264,178.826H311.6
				c-0.992,0-1.796-0.788-1.796-1.761c0-0.972,0.804-1.76,1.796-1.76h3.664c0.993,0,1.796,0.788,1.796,1.76
				C317.06,178.038,316.257,178.826,315.264,178.826z M304.273,178.826h-3.665c-0.993,0-1.796-0.788-1.796-1.761
				c0-0.972,0.804-1.76,1.796-1.76h3.665c0.992,0,1.795,0.788,1.795,1.76C306.069,178.038,305.266,178.826,304.273,178.826z"/>
		</g>
		<g>
			<path fill="#0072CD" d="M293.281,178.826h-1.795c-0.993,0-1.796-0.788-1.796-1.761c0-0.972,0.804-1.76,1.796-1.76h1.795
				c0.993,0,1.796,0.788,1.796,1.76C295.078,178.038,294.274,178.826,293.281,178.826z"/>
		</g>
	</g>
	<g>
		<g>
			<path fill="#0072CD" d="M228.074,206.405h-1.795c-0.993,0-1.796-0.788-1.796-1.76c0-0.972,0.804-1.76,1.796-1.76h1.795
				c0.993,0,1.796,0.788,1.796,1.76C229.87,205.617,229.066,206.405,228.074,206.405z"/>
		</g>
		<g>
			<path fill="#0072CD" d="M218.949,206.405h-3.664c-0.993,0-1.796-0.788-1.796-1.76c0-0.972,0.803-1.76,1.796-1.76h3.664
				c0.993,0,1.796,0.788,1.796,1.76C220.746,205.617,219.942,206.405,218.949,206.405z M207.958,206.405h-3.664
				c-0.993,0-1.796-0.788-1.796-1.76c0-0.972,0.803-1.76,1.796-1.76h3.664c0.993,0,1.797,0.788,1.797,1.76
				C209.755,205.617,208.951,206.405,207.958,206.405z M196.967,206.405h-3.664c-0.993,0-1.796-0.788-1.796-1.76
				c0-0.972,0.804-1.76,1.796-1.76h3.664c0.993,0,1.796,0.788,1.796,1.76C198.763,205.617,197.96,206.405,196.967,206.405z"/>
		</g>
		<g>
			<path fill="#0072CD" d="M185.976,206.405h-1.796c-0.993,0-1.796-0.788-1.796-1.76c0-0.972,0.803-1.76,1.796-1.76h1.796
				c0.993,0,1.796,0.788,1.796,1.76C187.772,205.617,186.969,206.405,185.976,206.405z"/>
		</g>
	</g>
	<g>
		<path fill="#0072CD" d="M418.219,238.844c-4.157,0-7.537-3.313-7.537-7.387c0-4.073,3.38-7.387,7.537-7.387
			c4.154,0,7.536,3.314,7.536,7.387C425.755,235.531,422.373,238.844,418.219,238.844z M418.219,227.592
			c-2.177,0-3.946,1.734-3.946,3.866c0,2.132,1.77,3.866,3.946,3.866c2.174,0,3.943-1.734,3.943-3.866
			C422.162,229.326,420.393,227.592,418.219,227.592z"/>
	</g>
	<g>
		<path fill="#0072CD" d="M265.506,193.115c-4.155,0-7.537-3.314-7.537-7.388c0-4.073,3.382-7.387,7.537-7.387
			s7.538,3.313,7.538,7.387C273.044,189.801,269.661,193.115,265.506,193.115z M265.506,181.862c-2.175,0-3.944,1.734-3.944,3.866
			c0,2.132,1.77,3.867,3.944,3.867c2.176,0,3.945-1.735,3.945-3.867C269.451,183.596,267.682,181.862,265.506,181.862z"/>
	</g>
	<g>
		<path fill="#0072CD" d="M61.423,454.821c-4.157,0-7.538-3.314-7.538-7.387s3.38-7.387,7.538-7.387
			c4.155,0,7.537,3.314,7.537,7.387S65.578,454.821,61.423,454.821z M61.423,443.568c-2.176,0-3.946,1.735-3.946,3.866
			c0,2.132,1.77,3.867,3.946,3.867c2.174,0,3.944-1.735,3.944-3.867C65.367,445.304,63.597,443.568,61.423,443.568z"/>
	</g>
	<g>
		<g>
			<path fill="#0072CD" d="M517.416,315.389c-0.46,0-0.919-0.172-1.27-0.516l-7.153-7.01c-0.701-0.688-0.701-1.802,0-2.49
				c0.702-0.688,1.838-0.688,2.539,0l7.154,7.011c0.701,0.688,0.701,1.802,0,2.489C518.335,315.217,517.875,315.389,517.416,315.389
				z"/>
		</g>
		<g>
			<path fill="#0072CD" d="M510.263,315.389c-0.46,0-0.919-0.172-1.27-0.516c-0.701-0.687-0.701-1.801,0-2.489l7.153-7.011
				c0.701-0.688,1.839-0.688,2.54,0c0.701,0.688,0.701,1.801,0,2.49l-7.154,7.01C511.182,315.217,510.723,315.389,510.263,315.389z"
				/>
		</g>
	</g>
	<g>
		<g>
			<path fill="#0072CD" d="M194.874,241.58c-0.459,0-0.918-0.172-1.269-0.516l-7.154-7.01c-0.701-0.688-0.701-1.802,0-2.49
				c0.702-0.687,1.838-0.687,2.541,0l7.153,7.011c0.702,0.688,0.702,1.801,0,2.489C195.794,241.408,195.334,241.58,194.874,241.58z"
				/>
		</g>
		<g>
			<path fill="#0072CD" d="M187.722,241.58c-0.459,0-0.92-0.172-1.271-0.516c-0.701-0.688-0.701-1.802,0-2.489l7.154-7.011
				c0.701-0.687,1.838-0.687,2.54,0c0.702,0.688,0.702,1.802,0,2.49l-7.153,7.01C188.64,241.408,188.181,241.58,187.722,241.58z"/>
		</g>
	</g>
	<g>
		<g>
			<path fill="#0072CD" d="M274.824,452.7c-0.46,0-0.919-0.172-1.27-0.516l-7.153-7.01c-0.702-0.689-0.702-1.803,0-2.489
				c0.701-0.688,1.838-0.688,2.54,0l7.154,7.009c0.701,0.688,0.701,1.803,0,2.49C275.743,452.528,275.283,452.7,274.824,452.7z"/>
		</g>
		<g>
			<path fill="#0072CD" d="M267.671,452.7c-0.46,0-0.919-0.172-1.27-0.516c-0.702-0.688-0.702-1.802,0-2.49l7.153-7.009
				c0.701-0.688,1.838-0.688,2.541,0c0.701,0.687,0.701,1.8,0,2.489l-7.154,7.01C268.59,452.528,268.13,452.7,267.671,452.7z"/>
		</g>
	</g>
	<g>
		<g>
			<path fill="#0072CD" d="M377.114,190.993c-0.459,0-0.918-0.172-1.27-0.516l-7.153-7.01c-0.702-0.688-0.702-1.801,0-2.49
				c0.701-0.687,1.839-0.687,2.54,0l7.152,7.011c0.702,0.687,0.702,1.801,0,2.489C378.034,190.821,377.574,190.993,377.114,190.993z
				"/>
		</g>
		<g>
			<path fill="#0072CD" d="M369.962,190.993c-0.46,0-0.92-0.172-1.271-0.516c-0.702-0.688-0.702-1.802,0-2.489l7.153-7.011
				c0.701-0.687,1.838-0.687,2.539,0c0.702,0.688,0.702,1.802,0,2.49l-7.152,7.01C370.881,190.821,370.421,190.993,369.962,190.993z
				"/>
		</g>
	</g>
	<g>
		<path fill="#FFFFFF" d="M395.157,263.796h-9.858c-1.997,0-3.712-1.424-4.027-3.358c-0.521-3.185-1.602-5.568-2.527-7.163
			c-0.877-1.511-0.632-3.398,0.577-4.674l11.26-11.883c1.485-1.569,1.454-4.003-0.074-5.534l-22.395-22.437
			c-1.545-1.548-4.064-1.615-5.691-0.15l-12.024,10.819c-1.302,1.172-3.218,1.394-4.76,0.546c-1.658-0.909-3.931-2.02-6.218-2.659
			c-1.787-0.499-3.046-2.054-3.046-3.875V201.32c0-2.216-1.831-4.01-4.091-4.01h-31.528c-2.259,0-4.092,1.794-4.092,4.01v9.357
			c0,2.59-1.675,4.896-4.173,5.738c-3.496,1.177-8.176,2.791-9.853,3.536c-1.578,0.701-3.433,0.349-4.634-0.875l-10.552-10.751
			c-1.594-1.625-4.241-1.642-5.858-0.039l-21.963,21.765c-1.508,1.494-1.583,3.877-0.17,5.458l11.719,13.132
			c1.122,1.258,1.352,3.072,0.524,4.533c-0.902,1.592-1.97,4-2.487,7.241c-0.309,1.944-2.024,3.38-4.031,3.38h-17.8
			c-2.26,0-4.093,1.796-4.093,4.011v30.898c0,2.214,1.833,4.009,4.093,4.009h21.529c0.116,0,1.705,2.888,2.95,5.183
			c0.875,1.613,0.526,3.598-0.846,4.833l-10.58,9.533c-1.728,1.555-1.768,4.213-0.089,5.82l24.806,23.742l99.429-0.333
			l25.116-24.423c1.7-1.653,1.595-4.377-0.228-5.898l-9.985-8.343c-1.477-1.234-1.867-3.316-0.929-4.983
			c1.29-2.299,2.906-5.13,3.02-5.13h13.579c2.259,0,4.092-1.795,4.092-4.009v-30.898
			C399.249,265.592,397.416,263.796,395.157,263.796z"/>
		<g>
			<path fill="#D6EAFA" d="M369.962,281.052c0-29.914-24.521-54.164-55.043-54.164c-30.523,0-55.154,24.25-55.154,54.164
				c0,23.247,14.759,43.012,36.066,50.696v17.169h39.063V331.27C356.2,323.25,369.962,303.808,369.962,281.052z"/>
		</g>
		<g>
			<path fill="#EAF5FE" d="M315.164,315.989c-2.765-3.259-6.401-5.838-10.649-7.37c-11.909-4.294-19.604-15.116-19.604-27.567
				c0-16.277,13.461-29.519,30.007-29.519c16.484,0,29.896,13.242,29.896,29.519c0,12.388-7.256,22.816-18.937,27.212
				C321.566,309.887,317.903,312.592,315.164,315.989z"/>
		</g>
		<g>
			<path fill="#0072CD" d="M336.689,350.677h-42.655v-17.715c-21.952-8.438-36.066-28.682-36.066-51.91
				c0-30.836,25.548-55.924,56.95-55.924c31.341,0,56.838,25.088,56.838,55.924c0,22.815-13.722,42.864-35.067,51.415V350.677z
				 M297.626,347.156h35.471V330.06l1.152-0.433c20.604-7.755,33.915-26.821,33.915-48.575c0-28.896-23.887-52.403-53.246-52.403
				c-29.421,0-53.357,23.507-53.357,52.403c0,22.148,13.695,41.399,34.89,49.044l1.175,0.425V347.156z"/>
		</g>
		<g>
			<path fill="#0072CD" d="M362.754,281.052h-3.592c0-8.224-2.35-16.239-6.793-23.178l3.042-1.872
				C360.216,263.503,362.754,272.166,362.754,281.052z"/>
		</g>
		<g>
			<path fill="#0072CD" d="M343.644,247.934c-6.12-5.161-13.529-8.579-21.424-9.884l0.596-3.472
				c8.542,1.412,16.553,5.106,23.171,10.688L343.644,247.934z"/>
		</g>
		<g>
			<rect x="313.565" y="281.05" fill="#0072CD" width="3.593" height="71.347"/>
		</g>
		<g>
			<path fill="#0072CD" d="M316.36,282.813c-6.192,0-11.229-4.937-11.229-11.004c0-6.068,5.037-11.006,11.229-11.006
				c6.191,0,11.229,4.938,11.229,11.006C327.59,277.875,322.552,282.813,316.36,282.813z M316.36,264.324
				c-4.212,0-7.637,3.357-7.637,7.484c0,4.126,3.425,7.484,7.637,7.484s7.637-3.358,7.637-7.484
				C323.997,267.681,320.572,264.324,316.36,264.324z"/>
		</g>
		<g>
			<g>
				<g>
					<path fill="#0072CD" d="M263.901,353.085l-24.806-23.744c-1.153-1.102-1.8-2.639-1.775-4.215
						c0.025-1.578,0.719-3.094,1.903-4.16l10.581-9.533c0.77-0.692,0.965-1.806,0.475-2.708c-1.29-2.378-1.982-3.611-2.352-4.25
						h-20.542c-3.248,0-5.889-2.587-5.889-5.769v-30.898c0-3.182,2.641-5.771,5.889-5.771h17.8c1.116,0,2.085-0.813,2.255-1.89
						c0.455-2.839,1.36-5.472,2.693-7.825c0.45-0.796,0.328-1.81-0.307-2.52l-11.719-13.133c-2.022-2.263-1.916-5.714,0.246-7.855
						l21.962-21.765c1.116-1.106,2.602-1.713,4.186-1.713c0.014,0,0.028,0,0.043,0c1.601,0.011,3.093,0.64,4.201,1.77l10.55,10.751
						c0.674,0.687,1.72,0.882,2.599,0.493c1.386-0.617,4.753-1.828,10.01-3.599c1.772-0.596,2.961-2.234,2.961-4.073v-9.357
						c0-3.182,2.642-5.771,5.889-5.771h31.528c3.246,0,5.886,2.589,5.886,5.771v12.108c0,1.014,0.701,1.891,1.742,2.181
						c1.985,0.556,4.206,1.503,6.604,2.816c0.863,0.476,1.933,0.352,2.666-0.306l12.026-10.819c2.35-2.12,5.947-2.027,8.189,0.215
						l22.395,22.439c2.199,2.203,2.246,5.7,0.106,7.962l-11.261,11.883c-0.684,0.722-0.817,1.769-0.332,2.605
						c1.358,2.338,2.279,4.948,2.74,7.754c0.176,1.071,1.144,1.877,2.254,1.877h9.858c3.246,0,5.888,2.589,5.888,5.771v30.898
						c0,3.182-2.642,5.769-5.888,5.769h-12.606c-0.377,0.628-1.09,1.852-2.419,4.219c-0.523,0.93-0.305,2.105,0.521,2.795
						l9.983,8.343c1.251,1.042,2.003,2.564,2.064,4.173c0.063,1.608-0.57,3.182-1.736,4.314l-25.117,24.423l-2.529-2.499
						l25.117-24.424c0.461-0.448,0.701-1.044,0.677-1.681c-0.024-0.638-0.31-1.215-0.806-1.628l-9.983-8.343
						c-2.119-1.769-2.68-4.788-1.339-7.174c3.393-6.039,3.393-6.039,4.594-6.039h13.579c1.266,0,2.296-1.009,2.296-2.249v-30.898
						c0-1.242-1.03-2.25-2.296-2.25h-9.858c-2.902,0-5.343-2.036-5.8-4.839c-0.395-2.389-1.173-4.6-2.315-6.571
						c-1.266-2.179-0.936-4.89,0.822-6.744l11.259-11.882c0.834-0.881,0.816-2.245-0.042-3.105l-22.394-22.438
						c-0.872-0.875-2.277-0.91-3.193-0.083l-12.026,10.818c-1.877,1.689-4.632,2.003-6.851,0.785
						c-2.151-1.18-4.115-2.021-5.832-2.502c-2.602-0.725-4.351-2.962-4.351-5.567V201.32c0-1.241-1.029-2.25-2.294-2.25h-31.528
						c-1.267,0-2.296,1.009-2.296,2.25v9.357c0,3.342-2.165,6.317-5.385,7.403c-5.004,1.686-8.448,2.92-9.695,3.475
						c-2.264,1.005-4.944,0.5-6.67-1.257l-10.551-10.751c-0.434-0.441-1.014-0.686-1.639-0.69c-0.698,0.043-1.208,0.234-1.649,0.668
						l-21.963,21.766c-0.842,0.835-0.884,2.178-0.097,3.06l11.721,13.134c1.628,1.826,1.926,4.456,0.743,6.546
						c-1.127,1.991-1.895,4.231-2.282,6.659c-0.449,2.82-2.891,4.868-5.806,4.868h-17.8c-1.267,0-2.296,1.008-2.296,2.25v30.898
						c0,1.24,1.03,2.249,2.296,2.249h21.529c1.218,0,1.218,0,4.536,6.117c1.259,2.319,0.758,5.18-1.215,6.958l-10.581,9.53
						c-0.468,0.424-0.73,0.998-0.742,1.62c-0.008,0.626,0.237,1.21,0.693,1.646l24.804,23.741L263.901,353.085z"/>
				</g>
			</g>
		</g>
		<g>
			<g>
				<path fill="#FFFFFF" d="M297.829,346.06h34.069c4.161,0,7.534,3.307,7.534,7.384v12.451c0,4.078-3.373,7.385-7.534,7.385
					h-34.069c-4.161,0-7.534-3.307-7.534-7.385v-12.451C290.294,349.366,293.667,346.06,297.829,346.06z"/>
			</g>
			<g>
				<path fill="#0072CD" d="M331.897,375.04h-34.069c-5.145,0-9.33-4.104-9.33-9.146v-12.451c0-5.042,4.186-9.144,9.33-9.144h34.069
					c5.146,0,9.33,4.102,9.33,9.144v12.451C341.228,370.936,337.043,375.04,331.897,375.04z M297.829,347.819
					c-3.165,0-5.738,2.523-5.738,5.624v12.451c0,3.102,2.574,5.625,5.738,5.625h34.069c3.165,0,5.738-2.523,5.738-5.625v-12.451
					c0-3.101-2.573-5.624-5.738-5.624H297.829z"/>
			</g>
		</g>
	</g>
	<g>
		<g>
			<g>
				<g>
					<g>
						<path fill-rule="evenodd" clip-rule="evenodd" fill="#54AAE3" d="M374.931,386.814h34.063c4.538,0,8.251,3.637,8.251,8.085
							v75.1c0,4.45-3.713,8.087-8.251,8.087h-34.063c-4.538,0-8.251-3.637-8.251-8.087v-75.1
							C366.68,390.451,370.393,386.814,374.931,386.814z"/>
					</g>
				</g>
			</g>
		</g>
		<g>
			<g>
				<g>
					<g>
						<path fill="#0072CD" d="M408.993,479.847h-34.063c-5.539,0-10.048-4.416-10.048-9.848v-75.1c0-5.43,4.509-9.846,10.048-9.846
							h34.063c5.54,0,10.048,4.416,10.048,9.846v75.1C419.041,475.431,414.533,479.847,408.993,479.847z M374.931,388.575
							c-3.56,0-6.455,2.836-6.455,6.324v75.1c0,3.488,2.896,6.326,6.455,6.326h34.063c3.559,0,6.455-2.838,6.455-6.326v-75.1
							c0-3.488-2.896-6.324-6.455-6.324H374.931z"/>
					</g>
				</g>
			</g>
		</g>
		<g>
			<g>
				<g>
					<g>
						<rect x="370.915" y="396.234" fill-rule="evenodd" clip-rule="evenodd" fill="#FFFFFF" width="42.095" height="72.241"/>
					</g>
				</g>
			</g>
		</g>
		<g>
			<g>
				<g>
					<g>
						<rect x="370.915" y="462.961" fill-rule="evenodd" clip-rule="evenodd" fill="#D6EAFA" width="42.095" height="5.515"/>
					</g>
				</g>
			</g>
		</g>
		<g>
			<g>
				<g>
					<g>
						<ellipse fill-rule="evenodd" clip-rule="evenodd" fill="#D6EAFA" cx="391.963" cy="392.519" rx="1.231" ry="1.208"/>
					</g>
				</g>
			</g>
		</g>
		<g>
			<path fill-rule="evenodd" clip-rule="evenodd" fill="#D6EAFA" d="M394.606,474.439h-5.289c-1.115,0-2.022-0.888-2.022-1.984l0,0
				c0-1.094,0.907-1.982,2.022-1.982h5.289c1.115,0,2.022,0.889,2.022,1.982l0,0C396.629,473.552,395.722,474.439,394.606,474.439z"
				/>
		</g>
	</g>
	<g>
		<g>
			<g>
				<g>
					<g>
						<path fill="#FFFFFF" d="M89.386,391.748v75.149c0,6.179,5.111,11.188,11.416,11.188h134.201
							c6.303,0,11.413-5.01,11.413-11.188v-75.149c0-6.179-5.11-11.187-11.413-11.187H100.802
							C94.498,380.562,89.386,385.569,89.386,391.748z"/>
					</g>
				</g>
			</g>
		</g>
		<g>
			<g>
				<g>
					<g>
						<path fill="#0072CD" d="M235.003,479.847H100.802c-7.285,0-13.212-5.809-13.212-12.949v-75.149
							c0-7.137,5.927-12.946,13.212-12.946h134.201c7.284,0,13.209,5.81,13.209,12.946v75.149
							C248.212,474.038,242.287,479.847,235.003,479.847z M100.802,382.322c-5.304,0-9.62,4.227-9.62,9.426v75.149
							c0,5.199,4.315,9.428,9.62,9.428h134.201c5.302,0,9.617-4.229,9.617-9.428v-75.149c0-5.199-4.315-9.426-9.617-9.426H100.802z"
							/>
					</g>
				</g>
			</g>
		</g>
		<g>
			<g>
				<g>
					<g>
						<rect x="100.309" y="388.588" fill="#54AAE3" width="131.613" height="82.613"/>
					</g>
				</g>
			</g>
		</g>
		<g>
			<g>
				<g>
					<g>
						<path fill="#0072CD" d="M231.922,472.962H100.309c-0.993,0-1.796-0.788-1.796-1.761v-82.613c0-0.973,0.804-1.76,1.796-1.76
							h131.613c0.993,0,1.797,0.787,1.797,1.76v82.613C233.719,472.174,232.915,472.962,231.922,472.962z M102.105,469.44h128.021
							v-79.093H102.105V469.44z"/>
					</g>
				</g>
			</g>
		</g>
		<g>
			<ellipse fill="#9ECFED" cx="239.485" cy="429.895" rx="2.918" ry="2.861"/>
		</g>
	</g>
</g>
</svg>
