<?xml version="1.0" encoding="utf-8"?>
<!-- Generator: Adobe Illustrator 16.0.0, SVG Export Plug-In . SVG Version: 6.00 Build 0)  -->
<!DOCTYPE svg PUBLIC "-//W3C//DTD SVG 1.1//EN" "http://www.w3.org/Graphics/SVG/1.1/DTD/svg11.dtd">
<svg version="1.1" id="Modo_de_aislamiento" xmlns="http://www.w3.org/2000/svg" xmlns:xlink="http://www.w3.org/1999/xlink"
	 x="0px" y="0px" width="355.277px" height="297.493px" viewBox="0 0 355.277 297.493" enable-background="new 0 0 355.277 297.493"
	 xml:space="preserve">
<g>
	<g>
		<g>
			<circle fill="#EAF5FE" cx="176.707" cy="151.948" r="134.842"/>
		</g>
		<g>
			<path fill="#EAF5FE" d="M176.106,44.311H89.982c-7.282,0-13.185-5.903-13.185-13.184l0,0c0-7.282,5.903-13.185,13.185-13.185
				h86.124c7.282,0,13.185,5.903,13.185,13.185l0,0C189.291,38.408,183.388,44.311,176.106,44.311z"/>
		</g>
		<g>
			<path fill="#D6EAFA" d="M176.707,272.559c-66.505,0-120.611-54.106-120.611-120.611c0-66.505,54.106-120.611,120.611-120.611
				s120.612,54.106,120.612,120.611C297.319,218.453,243.212,272.559,176.707,272.559z M176.707,35.337
				c-64.3,0-116.611,52.312-116.611,116.611c0,64.299,52.312,116.611,116.611,116.611s116.612-52.312,116.612-116.611
				C293.319,87.648,241.007,35.337,176.707,35.337z"/>
		</g>
		<g>
			<path fill="#EAF5FE" d="M70.052,229.983h56.565c5.367,0,9.718,4.352,9.718,9.719v1.223c0,5.367-4.351,9.719-9.718,9.719H70.052
				c-5.368,0-9.719-4.352-9.719-9.719v-1.223C60.333,234.334,64.684,229.983,70.052,229.983z"/>
		</g>
		<g>
			<path fill="#EAF5FE" d="M56.938,270.711h82.792c3.479,0,6.299,2.82,6.299,6.299v0.793c0,3.479-2.82,6.299-6.299,6.299H56.938
				c-3.479,0-6.299-2.82-6.299-6.299v-0.793C50.639,273.532,53.459,270.711,56.938,270.711z"/>
		</g>
		<g>
			<path fill="#EAF5FE" d="M236.042,284.102h13.305c3.479,0,6.299,2.82,6.299,6.299v0.793c0,3.479-2.82,6.299-6.299,6.299h-13.305
				c-3.479,0-6.299-2.82-6.299-6.299v-0.793C229.743,286.922,232.563,284.102,236.042,284.102z"/>
		</g>
		<g>
			<path fill="#EAF5FE" d="M167.027,244.496h124.779c5.707,0,10.333,4.626,10.333,10.332v1.3c0,5.707-4.626,10.332-10.333,10.332
				H167.027c-5.707,0-10.333-4.625-10.333-10.332v-1.3C156.695,249.122,161.321,244.496,167.027,244.496z"/>
		</g>
		<g>
			<path fill="#EAF5FE" d="M80.202,250.493h38.559c-2.848,0-5.438,1.232-7.304,3.098c-1.874,1.873-3.031,4.088-3.031,6.943
				c0,5.705,4.63,9.959,10.335,9.959H80.202c2.848,0,5.43-0.756,7.304-2.613c1.865-1.865,3.023-4.325,3.023-7.182
				C90.529,254.985,85.907,250.493,80.202,250.493z"/>
		</g>
		<g>
			<path fill="#EAF5FE" d="M231.362,132.533h99.405c10.247,0,18.554,8.307,18.554,18.554l0,0c0,10.248-8.307,18.555-18.554,18.555
				h-99.405c-10.247,0-18.554-8.307-18.554-18.555l0,0C212.808,140.84,221.115,132.533,231.362,132.533z"/>
		</g>
		<g>
			<path fill="#EAF5FE" d="M194.264,205.689h150.689c5.702,0,10.324,4.623,10.324,10.324v3.403c0,5.702-4.623,10.324-10.324,10.324
				H194.264c-5.702,0-10.324-4.623-10.324-10.324v-3.403C183.939,210.312,188.562,205.689,194.264,205.689z"/>
		</g>
		<g>
			<path fill="#EAF5FE" d="M260.69,169.776h69.258c-5.116,0-9.768,2.012-13.119,5.362c-3.366,3.366-5.445,7.328-5.445,12.459
				c0,10.247,8.317,17.874,18.563,17.874H260.69c5.116,0,9.753-1.446,13.118-4.782c3.351-3.351,5.43-7.611,5.43-12.742
				C279.238,177.686,270.937,169.776,260.69,169.776z"/>
		</g>
		<g>
			<path fill="#EAF5FE" d="M148.277,116.398H31.796c-10.88,0-19.7-8.82-19.7-19.7v0c0-10.879,8.82-19.7,19.7-19.7h116.481
				c10.88,0,19.7,8.82,19.7,19.7v0C167.977,107.579,159.157,116.398,148.277,116.398z"/>
		</g>
		<g>
			<path fill="#EAF5FE" d="M196.794,227.453H28.468C12.746,227.453,0,214.708,0,198.985l0,0c0-15.722,12.746-28.468,28.468-28.468
				h168.326c15.722,0,28.468,12.746,28.468,28.468l0,0C225.262,214.708,212.516,227.453,196.794,227.453z"/>
		</g>
		<g>
			<path fill="#EAF5FE" d="M292.04,71.493h-92.931c-8.68,0-15.717-7.037-15.717-15.717l0,0c0-8.68,7.037-15.717,15.717-15.717
				h92.931c8.68,0,15.717,7.037,15.717,15.717l0,0C307.756,64.456,300.72,71.493,292.04,71.493z"/>
		</g>
		<g>
			<path fill="#EAF5FE" d="M263.453,17.107h-22.069c-4.724,0-8.553-3.83-8.553-8.553v0c0-4.724,3.83-8.553,8.553-8.553h22.069
				c4.724,0,8.553,3.83,8.553,8.553v0C272.006,13.277,268.177,17.107,263.453,17.107z"/>
		</g>
	</g>
	<g>
		<g>
			<path fill="#FFFFFF" d="M85.332,195.895v-8.554c0-1.434,0.345-2.861,1.042-4.115c2.434-4.379,7.097-4.099,7.097-4.099
				s4.663-0.28,7.097,4.099c0.697,1.253,1.042,2.681,1.042,4.115v8.554h4.522v-7.702c0-0.701-0.007-1.399-0.1-2.091
				c-0.069-0.518-0.146-1.032-0.267-1.539c-0.082-0.338-0.165-0.673-0.27-1.004c-0.209-0.662-0.461-1.309-0.766-1.936
				c-0.228-0.469-0.49-0.927-0.772-1.37c-1.807-2.837-5.061-5.656-10.487-5.583c-5.426-0.073-8.664,2.746-10.471,5.583
				c-0.282,0.443-0.533,0.9-0.761,1.37c-0.304,0.626-0.559,1.273-0.768,1.936c-0.104,0.331-0.197,0.666-0.278,1.004
				c-0.122,0.507-0.196,1.021-0.266,1.539c-0.092,0.691-0.118,1.39-0.118,2.091v7.702H85.332z"/>
		</g>
		<g>
			<path fill="#0072CD" d="M106.132,196.895h-4.522c-0.552,0-1-0.448-1-1v-8.554c0-1.296-0.317-2.551-0.916-3.629
				c-1.899-3.415-5.375-3.588-6.053-3.588l-0.114,0.002c-0.037,0.002-0.078,0.002-0.116,0l-0.11-0.001
				c-0.678,0-4.154,0.173-6.053,3.588c-0.6,1.078-0.917,2.333-0.917,3.629v8.554c0,0.552-0.448,1-1,1H80.81c-0.552,0-1-0.448-1-1
				v-7.702c0-0.87,0.04-1.577,0.126-2.223c0.07-0.522,0.149-1.079,0.285-1.641c0.086-0.359,0.185-0.717,0.296-1.07
				c0.228-0.721,0.504-1.417,0.822-2.072c0.26-0.535,0.528-1.016,0.817-1.47c1.757-2.758,5.111-6.047,11.109-6.047l0.218,0.001
				l0.192-0.001c6.011,0,9.368,3.289,11.125,6.047c0.319,0.5,0.598,0.995,0.829,1.47c0.313,0.645,0.589,1.341,0.82,2.071
				c0.112,0.353,0.201,0.71,0.288,1.071c0.125,0.521,0.205,1.033,0.286,1.64c0.1,0.75,0.108,1.48,0.108,2.224v7.702
				C107.132,196.447,106.684,196.895,106.132,196.895z M102.61,194.895h2.522v-6.702c0-0.673-0.007-1.33-0.091-1.958
				c-0.073-0.546-0.144-1-0.249-1.438c-0.076-0.314-0.152-0.626-0.25-0.935c-0.202-0.638-0.441-1.244-0.712-1.801
				c-0.197-0.406-0.438-0.833-0.716-1.269c-1.488-2.337-4.334-5.122-9.438-5.122l-0.192,0.001l-0.218-0.001
				c-5.091,0-7.934,2.785-9.422,5.122c-0.248,0.39-0.479,0.805-0.706,1.271c-0.275,0.566-0.515,1.172-0.713,1.799
				c-0.098,0.308-0.184,0.62-0.259,0.936c-0.113,0.469-0.184,0.968-0.247,1.438c-0.074,0.556-0.109,1.178-0.109,1.958v6.702h2.522
				v-7.554c0-1.636,0.404-3.227,1.168-4.601c2.442-4.394,6.927-4.616,7.801-4.616c0.074,0,0.131,0.001,0.17,0.002
				c0.039-0.001,0.096-0.002,0.17-0.002c0.874,0,5.358,0.222,7.801,4.616c0.764,1.375,1.168,2.965,1.168,4.601V194.895z"/>
		</g>
		<g>
			<path fill="#5AAADB" d="M107.146,224.285H80.219c-3.017,0-5.485-2.468-5.485-5.485v-20.015c0-3.017,2.468-5.485,5.485-5.485
				h26.927c3.017,0,5.485,2.468,5.485,5.485V218.8C112.631,221.816,110.163,224.285,107.146,224.285z"/>
		</g>
		<g>
			<path fill="#0072CD" d="M107.146,225.285H80.219c-3.576,0-6.485-2.909-6.485-6.485v-20.015c0-3.576,2.909-6.485,6.485-6.485
				h26.927c3.576,0,6.485,2.909,6.485,6.485V218.8C113.631,222.375,110.722,225.285,107.146,225.285z M80.219,194.3
				c-2.473,0-4.485,2.012-4.485,4.485V218.8c0,2.473,2.012,4.485,4.485,4.485h26.927c2.473,0,4.485-2.012,4.485-4.485v-20.015
				c0-2.473-2.012-4.485-4.485-4.485H80.219z"/>
		</g>
		<g>
			<path fill="#FFFFFF" d="M96.374,209.51v7.057c0,1.444-1.159,2.626-2.604,2.626s-2.604-1.182-2.604-2.626v-7.057
				c-1.984-0.964-3.356-2.952-3.356-5.249c0-3.242,2.571-5.87,5.813-5.87s5.933,2.628,5.933,5.87
				C99.556,206.559,98.11,208.546,96.374,209.51z"/>
		</g>
	</g>
	<g>
		<g>
			<g>
				<g>
					<g>
						<path fill-rule="evenodd" clip-rule="evenodd" fill="#FFFFFF" d="M244.133,190.788c6.703,0,12.503,3.861,15.3,9.48
							c1.707-0.825,3.621-1.287,5.643-1.287c5.369,0,9.977,3.259,11.953,7.907c1.836-1.655,4.268-2.664,6.935-2.664
							c5.723,0,10.363,4.64,10.363,10.363s-4.64,10.362-10.363,10.362h-39.831c-9.433,0-17.081-7.647-17.081-17.081
							C227.053,198.435,234.7,190.788,244.133,190.788z"/>
					</g>
				</g>
			</g>
		</g>
		<g>
			<g>
				<g>
					<g>
						<path fill="#0072CD" d="M283.964,225.949h-39.831c-9.97,0-18.081-8.111-18.081-18.081s8.111-18.081,18.081-18.081
							c6.589,0,12.539,3.498,15.747,9.19c1.648-0.662,3.392-0.997,5.196-0.997c5.183,0,9.883,2.842,12.309,7.342
							c1.913-1.361,4.206-2.099,6.579-2.099c6.266,0,11.363,5.097,11.363,11.363C295.327,220.852,290.23,225.949,283.964,225.949z
							 M244.133,191.788c-8.867,0-16.081,7.214-16.081,16.081c0,8.867,7.214,16.081,16.081,16.081h39.831
							c5.163,0,9.363-4.2,9.363-9.362s-4.2-9.363-9.363-9.363c-2.319,0-4.544,0.854-6.266,2.406
							c-0.24,0.217-0.568,0.305-0.885,0.234c-0.315-0.07-0.578-0.288-0.705-0.585c-1.885-4.434-6.216-7.298-11.033-7.298
							c-1.825,0-3.578,0.399-5.208,1.188c-0.494,0.237-1.087,0.035-1.331-0.455C255.798,195.208,250.278,191.788,244.133,191.788z"
							/>
					</g>
				</g>
			</g>
		</g>
	</g>
	<g>
		<g>
			<rect x="41.028" y="223.493" fill="#0072CD" width="22" height="4"/>
		</g>
		<g>
			<rect x="21.028" y="223.493" fill="#0072CD" width="15" height="4"/>
		</g>
		<g>
			<rect x="318.028" y="223.493" fill="#0072CD" width="15" height="4"/>
		</g>
		<g>
			<rect x="68.028" y="223.493" fill="#0072CD" width="237" height="4"/>
		</g>
	</g>
	<g>
		<g>
			<g>
				<g>
					<g>
						<path fill="#FFFFFF" d="M189.291,214.263c0-5.321,0-13.037,0-13.037H178.92h-10.371c0,0,0,7.715,0,13.037
							c0,5.321-14.103,9.628-14.103,9.628h24.474h24.474C203.394,223.891,189.291,219.583,189.291,214.263z"/>
					</g>
				</g>
			</g>
		</g>
		<g>
			<g>
				<g>
					<g>
						<path fill="#EBF3FE" d="M189.291,213.935c0-5.304,0-12.709,0-12.709h-20.742c0,0,0,7.405,0,12.709H189.291z"/>
					</g>
				</g>
			</g>
		</g>
		<g>
			<g>
				<g>
					<g>
						<path fill="#0072CD" d="M210.091,224.891h-62.336l6.398-1.957c5.179-1.583,13.396-5.338,13.396-8.671v-14.037h22.742v14.037
							c0,3.337,8.216,7.09,13.395,8.671L210.091,224.891z M159.993,222.891h37.854c-4.283-1.867-9.556-4.918-9.556-8.628v-12.037
							h-18.742v12.037C169.549,217.973,164.275,221.024,159.993,222.891z"/>
					</g>
				</g>
			</g>
		</g>
		<g>
			<g>
				<g>
					<g>
						<path fill="#54AAE3" d="M243.912,112.173H113.927c-2.253,0-4.081,1.87-4.081,4.177v82.484h138.146V116.35
							C247.993,114.043,246.166,112.173,243.912,112.173z"/>
					</g>
				</g>
			</g>
		</g>
		<g>
			<g>
				<g>
					<g>
						<path fill="#0072CD" d="M248.993,199.834H108.847V116.35c0-2.854,2.279-5.177,5.081-5.177h129.985
							c2.801,0,5.081,2.322,5.081,5.177V199.834z M110.847,197.834h136.146V116.35c0-1.751-1.382-3.177-3.081-3.177H113.927
							c-1.699,0-3.081,1.425-3.081,3.177V197.834z"/>
					</g>
				</g>
			</g>
		</g>
		<g>
			<g>
				<g>
					<g>
						<rect x="116.479" y="118.313" fill="#FFFFFF" width="125.048" height="74.332"/>
					</g>
				</g>
			</g>
		</g>
		<g>
			<g>
				<g>
					<g>
						<path fill="#FFFFFF" d="M109.847,198.02v5.354c0,2.307,1.827,4.176,4.081,4.176h129.985c2.253,0,4.081-1.87,4.081-4.176
							v-5.354H109.847z"/>
					</g>
				</g>
			</g>
		</g>
		<g>
			<g>
				<g>
					<g>
						<path fill="#0072CD" d="M243.912,208.549H113.927c-2.801,0-5.081-2.322-5.081-5.176v-6.354h140.146v6.354
							C248.993,206.227,246.713,208.549,243.912,208.549z M110.847,199.02v4.354c0,1.751,1.382,3.176,3.081,3.176h129.985
							c1.699,0,3.081-1.425,3.081-3.176v-4.354H110.847z"/>
					</g>
				</g>
			</g>
		</g>
		<g>
			<g>
				<g>
					<g>
						<rect x="116.479" y="118.313" fill="#CCE4F2" width="125.074" height="6.785"/>
					</g>
				</g>
			</g>
		</g>
		<g>
			<g>
				<g>
					<g>
						<rect x="116.479" y="187.82" fill="#CCE4F2" width="125.074" height="4.825"/>
					</g>
				</g>
			</g>
		</g>
		<g>
			<g>
				<g>
					<g>
						<path fill="#0072CD" d="M242.527,193.645H115.479v-76.332h127.048V193.645z M117.479,191.645h123.048v-72.332H117.479V191.645
							z"/>
					</g>
				</g>
			</g>
		</g>
	</g>
	<g>
		<path fill="#0072CD" d="M267.258,116.699c-2.314,0-4.196-1.882-4.196-4.196s1.882-4.196,4.196-4.196s4.196,1.882,4.196,4.196
			S269.572,116.699,267.258,116.699z M267.258,110.306c-1.211,0-2.196,0.985-2.196,2.196s0.985,2.196,2.196,2.196
			s2.196-0.985,2.196-2.196S268.469,110.306,267.258,110.306z"/>
	</g>
	<g>
		<path fill="#0072CD" d="M107.258,93.699c-2.314,0-4.196-1.882-4.196-4.196s1.882-4.196,4.196-4.196s4.196,1.882,4.196,4.196
			S109.572,93.699,107.258,93.699z M107.258,87.306c-1.211,0-2.196,0.985-2.196,2.196s0.985,2.196,2.196,2.196
			s2.196-0.985,2.196-2.196S108.469,87.306,107.258,87.306z"/>
	</g>
	<g>
		<path fill="#0072CD" d="M314.258,214.699c-2.314,0-4.196-1.882-4.196-4.196s1.882-4.196,4.196-4.196s4.196,1.882,4.196,4.196
			S316.572,214.699,314.258,214.699z M314.258,208.306c-1.211,0-2.196,0.985-2.196,2.196s0.985,2.196,2.196,2.196
			s2.196-0.985,2.196-2.196S315.469,208.306,314.258,208.306z"/>
	</g>
	<g>
		<path fill="#0072CD" d="M58.258,188.699c-2.314,0-4.196-1.882-4.196-4.196s1.882-4.196,4.196-4.196s4.196,1.882,4.196,4.196
			S60.572,188.699,58.258,188.699z M58.258,182.306c-1.211,0-2.196,0.985-2.196,2.196s0.985,2.196,2.196,2.196
			s2.196-0.985,2.196-2.196S59.469,182.306,58.258,182.306z"/>
	</g>
	<g>
		<path fill="#0072CD" d="M196.258,68.699c-2.314,0-4.196-1.882-4.196-4.196s1.882-4.196,4.196-4.196s4.196,1.882,4.196,4.196
			S198.572,68.699,196.258,68.699z M196.258,62.306c-1.211,0-2.196,0.985-2.196,2.196s0.985,2.196,2.196,2.196
			s2.196-0.985,2.196-2.196S197.469,62.306,196.258,62.306z"/>
	</g>
	<g>
		<g>
			<path fill="#0072CD" d="M248.028,96.493h-1c-0.552,0-1-0.448-1-1s0.448-1,1-1h1c0.552,0,1,0.448,1,1
				S248.581,96.493,248.028,96.493z"/>
		</g>
		<g>
			<path fill="#0072CD" d="M243.028,96.493h-2c-0.552,0-1-0.448-1-1s0.448-1,1-1h2c0.552,0,1,0.448,1,1
				S243.581,96.493,243.028,96.493z M237.028,96.493h-2c-0.552,0-1-0.448-1-1s0.448-1,1-1h2c0.552,0,1,0.448,1,1
				S237.581,96.493,237.028,96.493z M231.028,96.493h-2c-0.552,0-1-0.448-1-1s0.448-1,1-1h2c0.552,0,1,0.448,1,1
				S231.581,96.493,231.028,96.493z M225.028,96.493h-2c-0.552,0-1-0.448-1-1s0.448-1,1-1h2c0.552,0,1,0.448,1,1
				S225.581,96.493,225.028,96.493z"/>
		</g>
		<g>
			<path fill="#0072CD" d="M218.028,96.493h-1c-0.552,0-1-0.448-1-1s0.448-1,1-1h1c0.552,0,1,0.448,1,1
				S218.581,96.493,218.028,96.493z"/>
		</g>
	</g>
	<g>
		<g>
			<path fill="#0072CD" d="M87.028,115.493h-1c-0.552,0-1-0.448-1-1s0.448-1,1-1h1c0.552,0,1,0.448,1,1
				S87.581,115.493,87.028,115.493z"/>
		</g>
		<g>
			<path fill="#0072CD" d="M81.028,115.493h-2c-0.552,0-1-0.448-1-1s0.448-1,1-1h2c0.552,0,1,0.448,1,1
				S81.581,115.493,81.028,115.493z M74.028,115.493h-2c-0.552,0-1-0.448-1-1s0.448-1,1-1h2c0.552,0,1,0.448,1,1
				S74.581,115.493,74.028,115.493z"/>
		</g>
		<g>
			<path fill="#0072CD" d="M67.028,115.493h-1c-0.552,0-1-0.448-1-1s0.448-1,1-1h1c0.552,0,1,0.448,1,1
				S67.581,115.493,67.028,115.493z"/>
		</g>
	</g>
	<g>
		<g>
			<path fill="#0072CD" d="M301.028,188.493h-1c-0.552,0-1-0.448-1-1s0.448-1,1-1h1c0.552,0,1,0.448,1,1
				S301.581,188.493,301.028,188.493z"/>
		</g>
		<g>
			<path fill="#0072CD" d="M296.028,188.493h-2c-0.552,0-1-0.448-1-1s0.448-1,1-1h2c0.552,0,1,0.448,1,1
				S296.581,188.493,296.028,188.493z M290.028,188.493h-2c-0.552,0-1-0.448-1-1s0.448-1,1-1h2c0.552,0,1,0.448,1,1
				S290.581,188.493,290.028,188.493z M284.028,188.493h-2c-0.552,0-1-0.448-1-1s0.448-1,1-1h2c0.552,0,1,0.448,1,1
				S284.581,188.493,284.028,188.493z M278.028,188.493h-2c-0.552,0-1-0.448-1-1s0.448-1,1-1h2c0.552,0,1,0.448,1,1
				S278.581,188.493,278.028,188.493z"/>
		</g>
		<g>
			<path fill="#0072CD" d="M271.028,188.493h-1c-0.552,0-1-0.448-1-1s0.448-1,1-1h1c0.552,0,1,0.448,1,1
				S271.581,188.493,271.028,188.493z"/>
		</g>
	</g>
	<g>
		<path fill="#0072CD" d="M165.028,68.493h-2c-0.552,0-1-0.448-1-1s0.448-1,1-1h2c0.552,0,1,0.448,1,1
			S165.581,68.493,165.028,68.493z M159.028,68.493h-2c-0.552,0-1-0.448-1-1s0.448-1,1-1h2c0.552,0,1,0.448,1,1
			S159.581,68.493,159.028,68.493z M153.028,68.493h-2c-0.552,0-1-0.448-1-1s0.448-1,1-1h2c0.552,0,1,0.448,1,1
			S153.581,68.493,153.028,68.493z M147.028,68.493h-2c-0.552,0-1-0.448-1-1s0.448-1,1-1h2c0.552,0,1,0.448,1,1
			S147.581,68.493,147.028,68.493z M141.028,68.493h-2c-0.552,0-1-0.448-1-1s0.448-1,1-1h2c0.552,0,1,0.448,1,1
			S141.581,68.493,141.028,68.493z M135.028,68.493h-2c-0.552,0-1-0.448-1-1s0.448-1,1-1h2c0.552,0,1,0.448,1,1
			S135.581,68.493,135.028,68.493z"/>
	</g>
	<g>
		<g>
			<path fill="#0072CD" d="M57.028,199.493h-1c-0.552,0-1-0.448-1-1s0.448-1,1-1h1c0.552,0,1,0.448,1,1
				S57.581,199.493,57.028,199.493z"/>
		</g>
		<g>
			<path fill="#0072CD" d="M52.028,199.493h-2c-0.552,0-1-0.448-1-1s0.448-1,1-1h2c0.552,0,1,0.448,1,1
				S52.581,199.493,52.028,199.493z M46.028,199.493h-2c-0.552,0-1-0.448-1-1s0.448-1,1-1h2c0.552,0,1,0.448,1,1
				S46.581,199.493,46.028,199.493z M40.028,199.493h-2c-0.552,0-1-0.448-1-1s0.448-1,1-1h2c0.552,0,1,0.448,1,1
				S40.581,199.493,40.028,199.493z M34.028,199.493h-2c-0.552,0-1-0.448-1-1s0.448-1,1-1h2c0.552,0,1,0.448,1,1
				S34.581,199.493,34.028,199.493z"/>
		</g>
		<g>
			<path fill="#0072CD" d="M27.028,199.493h-1c-0.552,0-1-0.448-1-1s0.448-1,1-1h1c0.552,0,1,0.448,1,1
				S27.581,199.493,27.028,199.493z"/>
		</g>
	</g>
	<g>
		<g>
			<path fill="#0072CD" d="M327.028,154.07c-0.256,0-0.512-0.098-0.707-0.293l-3.983-3.983c-0.391-0.391-0.391-1.023,0-1.414
				s1.023-0.391,1.414,0l3.983,3.983c0.391,0.391,0.391,1.023,0,1.414C327.54,153.973,327.284,154.07,327.028,154.07z"/>
		</g>
		<g>
			<path fill="#0072CD" d="M323.045,154.07c-0.256,0-0.512-0.098-0.707-0.293c-0.391-0.391-0.391-1.023,0-1.414l3.983-3.983
				c0.391-0.391,1.023-0.391,1.414,0s0.391,1.023,0,1.414l-3.983,3.983C323.557,153.973,323.301,154.07,323.045,154.07z"/>
		</g>
	</g>
	<g>
		<g>
			<path fill="#0072CD" d="M226.028,80.07c-0.256,0-0.512-0.098-0.707-0.293l-3.983-3.983c-0.391-0.391-0.391-1.023,0-1.414
				s1.023-0.391,1.414,0l3.983,3.983c0.391,0.391,0.391,1.023,0,1.414C226.54,79.973,226.284,80.07,226.028,80.07z"/>
		</g>
		<g>
			<path fill="#0072CD" d="M222.045,80.07c-0.256,0-0.512-0.098-0.707-0.293c-0.391-0.391-0.391-1.023,0-1.414l3.983-3.983
				c0.391-0.391,1.023-0.391,1.414,0s0.391,1.023,0,1.414l-3.983,3.983C222.557,79.973,222.301,80.07,222.045,80.07z"/>
		</g>
	</g>
	<g>
		<g>
			<path fill="#0072CD" d="M54.028,217.07c-0.256,0-0.512-0.098-0.707-0.293l-3.983-3.983c-0.391-0.391-0.391-1.023,0-1.414
				s1.023-0.391,1.414,0l3.983,3.983c0.391,0.391,0.391,1.023,0,1.414C54.54,216.973,54.284,217.07,54.028,217.07z"/>
		</g>
		<g>
			<path fill="#0072CD" d="M50.045,217.07c-0.256,0-0.512-0.098-0.707-0.293c-0.391-0.391-0.391-1.023,0-1.414l3.983-3.983
				c0.391-0.391,1.023-0.391,1.414,0s0.391,1.023,0,1.414l-3.983,3.983C50.557,216.973,50.301,217.07,50.045,217.07z"/>
		</g>
	</g>
	<g>
		<g>
			<path fill="#0072CD" d="M137.028,102.07c-0.256,0-0.512-0.098-0.707-0.293l-3.983-3.983c-0.391-0.391-0.391-1.023,0-1.414
				s1.023-0.391,1.414,0l3.983,3.983c0.391,0.391,0.391,1.023,0,1.414C137.54,101.973,137.284,102.07,137.028,102.07z"/>
		</g>
		<g>
			<path fill="#0072CD" d="M133.045,102.07c-0.256,0-0.512-0.098-0.707-0.293c-0.391-0.391-0.391-1.023,0-1.414l3.983-3.983
				c0.391-0.391,1.023-0.391,1.414,0s0.391,1.023,0,1.414l-3.983,3.983C133.557,101.973,133.301,102.07,133.045,102.07z"/>
		</g>
	</g>
	<g>
		<g>
			<g>
				<path fill="#54AAE3" d="M286.941,157.579h-10.25c-2.27,0-4.11-1.94-4.11-4.46c0-1.27,0.46-2.32,1.21-3.15
					c0.74-0.82,1.77-1.39,2.9-1.39h5.46c2.65,0,4.98-1.97,5.18-4.61c0.22-2.99-2.13-5.39-5.07-5.39c0,0-21.686,0-21.73,0
					c-0.28,0-0.5-0.22-0.5-0.5c0-0.28,0.22-0.5,0.5-0.5c0.044,0,0.5,0.006,0.5,0.006v-0.006h8.26c1.65,0,3.12-1.28,3.15-2.94
					c0.03-1.73-1.36-3.06-3.08-3.06h-16.88c-0.82,0-1.45,0.67-1.45,1.5v2.73c0,2.02-1.5,2.77-3.21,2.77h-9.3
					c-1.71,0-2.49-1-2.49-3.02v-2.48c0-0.83-0.67-1.5-1.5-1.5h-7.36c-1.71,0-2.14,0.73-2.14,2.76v9.24h-6.12
					c-1.71,0-2.88,1.96-2.88,3.98v8.57c0,2.02,1.17,3.45,2.88,3.45h6.12v8.96c0,2.02,0.43,4.04,2.14,4.04h7.36
					c0.83,0,1.5-0.67,1.5-1.5v-3.97c0-2.02,0.69-1.53,2.4-1.53h9.36c1.72,0,3.24-0.49,3.24,1.53v3.97c0,0.83,0.67,1.5,1.5,1.5h12.65
					c1.57,0,2.85-1.28,2.85-2.85v-0.17c0-1.64-1.34-2.98-2.98-2.98h-2.52c-0.83,0-1.5-0.67-1.5-1.5c0-0.83,0.67-1.5,1.5-1.5h24.33
					c1.75,0,3.18-1.09,3.28-2.8C290.251,159.019,288.711,157.579,286.941,157.579z"/>
			</g>
			<g>
				<path fill="#54AAE3" d="M293.163,151.579h-6.056c-0.985,0-1.785,0.514-1.785,1.5c0,0.985,0.799,1.5,1.785,1.5h6.056
					c0.985,0,1.785-0.515,1.785-1.5C294.948,152.093,294.148,151.579,293.163,151.579z"/>
			</g>
		</g>
		<g>
			<g>
				<path fill="#0072CD" d="M265.181,173.579h-12.65c-1.378,0-2.5-1.122-2.5-2.5v-3.97c0-0.399-0.079-0.511-0.08-0.512
					c-0.144-0.103-0.841-0.068-1.256-0.047c-0.291,0.015-0.595,0.029-0.905,0.029h-9.36c-0.333,0-0.63-0.017-0.893-0.032
					c-0.157-0.009-0.339-0.02-0.474-0.021c-0.017,0.111-0.033,0.293-0.033,0.583v3.97c0,1.378-1.122,2.5-2.5,2.5h-7.36
					c-1.172,0-3.14-0.655-3.14-5.04v-7.96h-5.12c-2.248,0-3.88-1.872-3.88-4.45v-8.57c0-2.448,1.451-4.98,3.88-4.98h5.12v-8.24
					c0-1.953,0.38-3.76,3.14-3.76h7.36c1.378,0,2.5,1.122,2.5,2.5v2.48c0,1.866,0.705,2.02,1.49,2.02h9.3
					c2.21,0,2.21-1.332,2.21-1.77v-2.73c0-1.402,1.076-2.5,2.45-2.5h6.05v2h-6.05c-0.256,0-0.45,0.215-0.45,0.5v2.73
					c0,2.325-1.613,3.77-4.21,3.77h-9.3c-1.303,0-3.49-0.522-3.49-4.02v-2.48c0-0.276-0.224-0.5-0.5-0.5h-7.36
					c-0.898,0-1.14,0-1.14,1.76v10.24h-7.12c-1.001,0-1.88,1.393-1.88,2.98v8.57c0,1.22,0.581,2.45,1.88,2.45h7.12v9.96
					c0,1.135,0.148,3.04,1.14,3.04h7.36c0.276,0,0.5-0.224,0.5-0.5v-3.97c0-0.786,0.077-1.585,0.633-2.11
					c0.565-0.532,1.289-0.491,1.99-0.449c0.229,0.013,0.487,0.029,0.776,0.029h9.36c0.276,0,0.547-0.014,0.806-0.027
					c0.986-0.046,2.003-0.099,2.736,0.598c0.47,0.447,0.698,1.088,0.698,1.958v3.97c0,0.276,0.224,0.5,0.5,0.5h12.65
					c1.02,0,1.85-0.83,1.85-1.85v-0.17c0-1.092-0.889-1.98-1.98-1.98h-2.52c-1.378,0-2.5-1.122-2.5-2.5s1.122-2.5,2.5-2.5h6.25v2
					h-6.25c-0.276,0-0.5,0.224-0.5,0.5s0.224,0.5,0.5,0.5h2.52c2.195,0,3.98,1.786,3.98,3.98v0.17
					C269.031,171.852,267.304,173.579,265.181,173.579z"/>
			</g>
			<g>
				<path fill="#0072CD" d="M263.469,139.579h-2.938c-0.827,0-1.5-0.673-1.5-1.5c0-0.652,0.418-1.208,1-1.415v-0.08l0.396-0.002
					c0.034-0.002,0.069-0.003,0.104-0.003l0.168,0.002l8.592-0.002c1.146,0,2.131-0.897,2.15-1.958
					c0.01-0.54-0.189-1.045-0.559-1.422c-0.393-0.399-0.933-0.62-1.521-0.62h-3.875v-2h3.875c1.129,0,2.176,0.433,2.948,1.218
					c0.749,0.763,1.151,1.778,1.132,2.859c-0.039,2.163-1.9,3.923-4.15,3.923h-5.822V139.579z"/>
			</g>
			<g>
				<path fill="#0072CD" d="M286.861,164.579v-2c1.082,0,2.207-0.575,2.282-1.859c0.032-0.518-0.157-1.021-0.532-1.421
					c-0.43-0.458-1.039-0.72-1.67-0.72h-10.25c-2.865,0-5.11-2.398-5.11-5.46c0-1.437,0.508-2.757,1.468-3.82
					c0.987-1.092,2.314-1.719,3.642-1.719h5.46c2.189,0,4.026-1.619,4.183-3.686c0.083-1.13-0.288-2.201-1.043-3.015
					c-0.767-0.826-1.871-1.299-3.029-1.299h-5.73v-2h5.73c1.712,0,3.35,0.707,4.495,1.938c1.138,1.225,1.697,2.832,1.572,4.525
					c-0.235,3.106-2.949,5.537-6.177,5.537h-5.46c-0.763,0-1.549,0.386-2.158,1.06c-0.632,0.7-0.952,1.534-0.952,2.48
					c0,1.94,1.366,3.46,3.11,3.46h10.25c1.181,0,2.321,0.492,3.127,1.351c0.757,0.806,1.138,1.84,1.071,2.912
					C291.013,163.005,289.213,164.579,286.861,164.579z"/>
			</g>
			<g>
				<path fill="#0072CD" d="M293.163,155.579h-6.056c-1.64,0-2.785-1.028-2.785-2.5s1.145-2.5,2.785-2.5h6.056
					c1.64,0,2.785,1.028,2.785,2.5S294.803,155.579,293.163,155.579z M287.107,152.579c-0.358,0-0.785,0.087-0.785,0.5
					s0.427,0.5,0.785,0.5h6.056c0.358,0,0.785-0.087,0.785-0.5s-0.427-0.5-0.785-0.5H287.107z"/>
			</g>
		</g>
		<g>
			<path fill="#0072CD" d="M284.031,170.579h-6c-0.552,0-1-0.448-1-1s0.448-1,1-1h6c0.552,0,1,0.448,1,1
				S284.583,170.579,284.031,170.579z"/>
		</g>
		<g>
			<path fill="#0072CD" d="M303.031,159.579h-4c-0.552,0-1-0.448-1-1s0.448-1,1-1h4c0.552,0,1,0.448,1,1
				S303.583,159.579,303.031,159.579z"/>
		</g>
		<g>
			<path fill="#0072CD" d="M289.031,135.579h-4c-0.552,0-1-0.448-1-1s0.448-1,1-1h4c0.552,0,1,0.448,1,1
				S289.583,135.579,289.031,135.579z"/>
		</g>
		<g>
			<g>
				<path fill="#EAF5FE" d="M80.98,151.079c0-1.276-1.034-2.5-2.309-2.5h-5.006c-1.275,0-2.31,1.224-2.31,2.5
					c0,1.275,1.034,2.5,2.31,2.5h5.006C79.947,153.579,80.98,152.354,80.98,151.079z"/>
			</g>
			<g>
				<path fill="#92D0EF" d="M138.395,144.579h4.637v-8.485c0-1.776-1.513-2.515-3.461-2.515h-9.539v-6.059
					c0-1.775-1.077-2.941-3.025-2.941h-10.583c-1.95,0-3.393,1.166-3.393,2.942v6.058h-11.908c-1.606,0-2.909,1.066-2.909,2.672
					c0,1.118,0.638,2.328,1.563,2.328H79.445c-1.819,0-3.414,1.683-3.414,3.501v0.103c0,1.818,1.595,3.396,3.414,3.396h10.163
					c2.27,0,4.111,1.88,4.111,4.403c0,1.263-0.46,2.343-1.206,3.172c-0.742,0.825-1.772,1.425-2.905,1.425h-5.569
					c-2.806,0-5.081,2.194-5.081,5c0,2.806,2.275,5,5.081,5h8.802c-0.444,0-0.721,1.19-0.721,1.938c0,1.702,1.379,3.062,3.082,3.062
					h17.83v4.823c0,1.775,1.443,3.177,3.392,3.177h10.583c1.949,0,3.199-1.547,3.199-3.323l-0.001-4.677h9.367
					c1.947,0,3.46-1.974,3.46-3.75v-7.671l-4.615,0.001c-1.946,0-4.385-1.271-4.385-3.048v-7.228
					C134.031,146.108,136.447,144.579,138.395,144.579z"/>
			</g>
		</g>
		<g>
			<g>
				<path fill="#0072CD" d="M78.671,154.579h-5.006c-1.794,0-3.31-1.603-3.31-3.5s1.516-3.5,3.31-3.5h5.006
					c1.794,0,3.309,1.603,3.309,3.5S80.465,154.579,78.671,154.579z M73.665,149.579c-0.673,0-1.31,0.729-1.31,1.5
					s0.636,1.5,1.31,1.5h5.006c0.673,0,1.309-0.729,1.309-1.5s-0.636-1.5-1.309-1.5H73.665z"/>
			</g>
			<g>
				<path fill="#0072CD" d="M127.006,178.579h-10.583c-2.462,0-4.392-1.834-4.392-4.177v-3.823h-13v-2h14c0.552,0,1,0.448,1,1v4.823
					c0,1.241,1.028,2.177,2.392,2.177h10.583c1.443,0,2.199-1.168,2.199-2.323l-0.001-4.676c0-0.266,0.105-0.52,0.293-0.708
					s0.442-0.293,0.707-0.293h9.367c1.363,0,2.46-1.504,2.46-2.75v-6.671l-3.615,0.001c-2.547,0-5.385-1.663-5.385-4.048v-7.228
					c0-2.384,2.934-4.304,5.363-4.304h3.637v-7.485c0-1.005-0.828-1.515-2.461-1.515h-9.539c-0.552,0-1-0.448-1-1v-6.059
					c0-1.288-0.681-1.941-2.025-1.941h-10.583c-1.104,0-2.393,0.509-2.393,1.942v6.058c0,0.552-0.448,1-1,1h-10v-2h9v-5.058
					c0-2.284,1.847-3.942,4.393-3.942h10.583c2.445,0,4.025,1.547,4.025,3.941v5.059h8.539c2.752,0,4.461,1.347,4.461,3.515v8.485
					c0,0.552-0.448,1-1,1h-4.637c-1.54,0-3.363,1.249-3.363,2.304v7.228c0,1.083,1.893,2.048,3.385,2.048l4.615-0.001
					c0.265,0,0.52,0.105,0.707,0.293s0.293,0.442,0.293,0.707v7.671c0,2.242-1.908,4.75-4.46,4.75h-8.366l0.001,3.677
					C131.205,176.721,129.399,178.579,127.006,178.579z M84.039,165.579c-3.353,0-6.081-2.691-6.081-6s2.728-6,6.081-6h5.569
					c0.749,0,1.537-0.398,2.162-1.094c0.621-0.69,0.949-1.556,0.949-2.503c0-1.908-1.367-3.403-3.111-3.403h-4.577v-2h4.577
					c2.866,0,5.111,2.373,5.111,5.403c0,1.449-0.506,2.777-1.462,3.841c-1.004,1.116-2.334,1.756-3.649,1.756h-5.569
					c-2.289,0-4.081,1.757-4.081,4s1.792,4,4.081,4V165.579z M76.435,145.272c-0.905-0.899-1.404-1.996-1.404-3.089v-0.103
					c0-2.398,2.063-4.501,4.414-4.501h15.586v2H79.445c-1.241,0-2.414,1.216-2.414,2.501v0.103c0,0.548,0.296,1.157,0.813,1.67
					L76.435,145.272z"/>
			</g>
		</g>
		<g>
			<path fill="#0072CD" d="M97.031,131.579h-8c-0.552,0-1-0.448-1-1s0.448-1,1-1h8c0.552,0,1,0.448,1,1
				S97.583,131.579,97.031,131.579z"/>
		</g>
		<g>
			<path fill="#0072CD" d="M82.031,171.579h-6c-0.552,0-1-0.448-1-1s0.448-1,1-1h6c0.552,0,1,0.448,1,1
				S82.583,171.579,82.031,171.579z"/>
		</g>
		<g>
			<path fill="#0072CD" d="M64.031,158.579h-7c-0.552,0-1-0.448-1-1s0.448-1,1-1h7c0.552,0,1,0.448,1,1
				S64.583,158.579,64.031,158.579z"/>
		</g>
		<g>
			<path fill="#0072CD" d="M69.031,143.579h-6c-0.552,0-1-0.448-1-1s0.448-1,1-1h6c0.552,0,1,0.448,1,1
				S69.583,143.579,69.031,143.579z"/>
		</g>
		<g>
			<g>
				<path fill="#0072CD" d="M217.031,177.579h-2c-0.552,0-1-0.448-1-1s0.448-1,1-1h2c0.552,0,1,0.448,1,1
					S217.583,177.579,217.031,177.579z M211.031,177.579h-2c-0.552,0-1-0.448-1-1s0.448-1,1-1h2c0.552,0,1,0.448,1,1
					S211.583,177.579,211.031,177.579z M205.031,177.579h-2c-0.552,0-1-0.448-1-1s0.448-1,1-1h2c0.552,0,1,0.448,1,1
					S205.583,177.579,205.031,177.579z M199.031,177.579h-2c-0.552,0-1-0.448-1-1s0.448-1,1-1h2c0.552,0,1,0.448,1,1
					S199.583,177.579,199.031,177.579z M193.031,177.579h-2c-0.552,0-1-0.448-1-1s0.448-1,1-1h2c0.552,0,1,0.448,1,1
					S193.583,177.579,193.031,177.579z"/>
			</g>
			<g>
				<g>
					<polygon fill="#0072CD" points="195.865,180.579 192.167,176.579 195.865,172.579 192.727,172.579 189.031,176.579 
						192.727,180.579 					"/>
				</g>
			</g>
		</g>
		<g>
			<g>
				<path fill="#0072CD" d="M174.031,177.579h-2c-0.552,0-1-0.448-1-1s0.448-1,1-1h2c0.552,0,1,0.448,1,1
					S174.583,177.579,174.031,177.579z M168.031,177.579h-2c-0.552,0-1-0.448-1-1s0.448-1,1-1h2c0.552,0,1,0.448,1,1
					S168.583,177.579,168.031,177.579z M162.031,177.579h-2c-0.552,0-1-0.448-1-1s0.448-1,1-1h2c0.552,0,1,0.448,1,1
					S162.583,177.579,162.031,177.579z M156.031,177.579h-2c-0.552,0-1-0.448-1-1s0.448-1,1-1h2c0.552,0,1,0.448,1,1
					S156.583,177.579,156.031,177.579z M150.031,177.579h-2c-0.552,0-1-0.448-1-1s0.448-1,1-1h2c0.552,0,1,0.448,1,1
					S150.583,177.579,150.031,177.579z"/>
			</g>
			<g>
				<g>
					<polygon fill="#0072CD" points="169.197,172.579 172.895,176.579 169.197,180.579 172.335,180.579 176.031,176.579 
						172.335,172.579 					"/>
				</g>
			</g>
		</g>
	</g>
	<g>
		<g>
			<g>
				<path fill="#FFFFFF" d="M180.295,81.456h-0.428c-14.866,0.149-26.875,12.792-26.875,28.383c0,5.303,1.313,10.314,3.833,14.495
					c6.331,10.496,9.872,24.825,9.872,24.825h13.169h0.428h13.169c0,0,3.542-14.329,9.873-24.825
					c2.521-4.18,3.833-9.192,3.833-14.495C207.17,94.248,195.161,81.604,180.295,81.456z"/>
			</g>
			<g>
				<path fill="#0072CD" d="M193.464,150.158h-27.549l-0.188-0.76c-0.035-0.142-3.581-14.308-9.758-24.549
					c-2.602-4.314-3.977-9.505-3.977-15.011c0-16.048,12.5-29.229,27.865-29.383h0.438c15.375,0.154,27.875,13.335,27.875,29.383
					c0,5.506-1.375,10.697-3.977,15.011c-6.177,10.241-9.723,24.407-9.758,24.549l-0.188,0.76H193.464z M167.472,148.158h25.217
					c0.83-3.134,4.213-15.094,9.791-24.342c2.414-4.002,3.69-8.836,3.69-13.978c0-14.956-11.612-27.24-25.885-27.383h-0.418
					c-14.263,0.143-25.875,12.427-25.875,27.383c0,5.142,1.276,9.976,3.69,13.978C163.259,133.063,166.642,145.023,167.472,148.158z
					"/>
			</g>
			<g id="XMLID_133_">
				<g id="XMLID_134_">
					<g>
						<g>
							<polygon fill="#EAF5FE" points="165.978,147.123 165.978,156.774 168.953,161.955 180.031,161.955 191.108,161.955 
								194.084,156.774 194.084,147.123 							"/>
						</g>
					</g>
				</g>
			</g>
			<g id="XMLID_96_">
				<g id="XMLID_109_">
					<g>
						<g>
							<path fill="#0072CD" d="M191.687,162.955h-23.313l-3.396-5.915v-10.917h30.107v10.917L191.687,162.955z M169.532,160.955
								h20.998l2.555-4.448v-8.384h-26.107v8.384L169.532,160.955z"/>
						</g>
					</g>
				</g>
			</g>
			<g>
				<rect x="164.202" y="149.248" fill="#0072CD" width="31.658" height="2"/>
			</g>
			<g>
				<rect x="164.202" y="152.697" fill="#0072CD" width="31.658" height="2"/>
			</g>
			<g>
				<rect x="164.202" y="156.145" fill="#0072CD" width="31.658" height="2"/>
			</g>
			<g>
				<g>
					<rect x="182.599" y="137.257" fill="#0072CD" width="2" height="9.866"/>
				</g>
				<g>
					<rect x="175.563" y="137.257" fill="#0072CD" width="2" height="9.866"/>
				</g>
			</g>
		</g>
		<g>
			<path fill-rule="evenodd" clip-rule="evenodd" fill="#D6EAFA" d="M180.081,89.912c-2.334-2.278-9.388-0.835-9.388,4.211
				c-4.739,0-8.92,6.302-5.636,11.478c-4.488,2.53-4.982,10.735,0.388,13.556c0,6.483,7.374,10.764,14.635,6.95
				c7.262,3.814,14.636-0.467,14.636-6.95c5.37-2.821,4.876-11.026,0.388-13.556c3.285-5.175-0.896-11.478-5.635-11.478
				C189.469,89.076,182.415,87.633,180.081,89.912z"/>
		</g>
		<g>
			<path fill="#0072CD" d="M185.642,128.542L185.642,128.542c-1.878,0-3.746-0.443-5.561-1.317c-1.815,0.875-3.683,1.317-5.56,1.317
				c-5.437,0-9.74-3.819-10.057-8.797c-2.414-1.503-3.863-4.183-3.909-7.285c-0.043-2.912,1.181-5.62,3.181-7.178
				c-1.202-2.47-1.127-5.333,0.247-7.831c1.275-2.32,3.476-3.916,5.782-4.26c0.53-3.356,3.899-5.33,7.165-5.33
				c1.225,0,2.313,0.277,3.151,0.793c0.838-0.516,1.926-0.793,3.151-0.793c1.721,0,3.463,0.552,4.779,1.513
				c1.321,0.965,2.148,2.298,2.386,3.817c2.307,0.344,4.506,1.94,5.782,4.26c1.374,2.499,1.449,5.361,0.247,7.831
				c2,1.558,3.224,4.266,3.181,7.178c-0.046,3.102-1.495,5.781-3.908,7.285c-0.148,2.36-1.184,4.523-2.955,6.141
				C190.868,127.599,188.346,128.542,185.642,128.542z M180.081,124.976l0.465,0.244c1.67,0.877,3.385,1.322,5.095,1.322h0.001
				c2.204,0,4.247-0.757,5.752-2.133c1.498-1.368,2.322-3.233,2.322-5.253v-0.604l0.535-0.281c2.063-1.083,3.317-3.267,3.355-5.839
				c0.038-2.574-1.137-4.914-2.994-5.96l-0.918-0.517l0.565-0.89c1.301-2.051,1.362-4.474,0.167-6.649
				c-1.1-2-3.045-3.292-4.958-3.292h-1v-1c0-3.104-3.212-4.261-5.237-4.261c-1.061,0-1.955,0.279-2.453,0.766l-0.699,0.682
				l-0.699-0.682c-0.498-0.486-1.392-0.766-2.453-0.766c-2.024,0-5.236,1.157-5.236,4.261v1h-1c-1.912,0-3.858,1.292-4.958,3.293
				c-1.195,2.175-1.135,4.598,0.167,6.649l0.565,0.89l-0.918,0.517c-1.856,1.046-3.031,3.386-2.993,5.959
				c0.038,2.573,1.292,4.756,3.355,5.84l0.535,0.281v0.604c0,4.142,3.547,7.387,8.075,7.387c1.71,0,3.425-0.445,5.095-1.322
				L180.081,124.976z"/>
		</g>
		<g id="XMLID_1880_">
			<g id="XMLID_1886_">
				<g id="XMLID_1887_">
					<g>
						<g>
							<path fill="#FFFFFF" d="M188.026,107.264c-0.027-0.219-0.227-0.426-0.443-0.465l-0.854-0.148
								c-0.219-0.039-0.452-0.24-0.523-0.452l-0.344-0.846c-0.095-0.197-0.071-0.506,0.062-0.685l0.508-0.707
								c0.127-0.178,0.125-0.47-0.009-0.643l-0.459-0.545c-0.152-0.16-0.435-0.214-0.635-0.116l-0.781,0.384
								c-0.2,0.095-0.504,0.066-0.677-0.066c0,0-0.133-0.103-0.382-0.258c-0.247-0.152-0.399-0.226-0.399-0.226
								c-0.194-0.1-0.356-0.358-0.358-0.578l-0.003-0.873c-0.004-0.218-0.177-0.453-0.389-0.515l-0.689-0.169
								c-0.214-0.042-0.476,0.082-0.581,0.276l-0.132,0.25l-0.159,0.303l-0.113,0.215c-0.105,0.194-0.371,0.356-0.59,0.358
								l-0.336,0.021l-0.151,0.011l-0.423,0.033c-0.221,0.03-0.504-0.09-0.636-0.271l-0.512-0.697
								c-0.131-0.18-0.408-0.267-0.615-0.192l-0.66,0.267c-0.202,0.095-0.339,0.35-0.309,0.566l0.123,0.861
								c0.03,0.221-0.09,0.504-0.27,0.633l-0.7,0.594c-0.157,0.152-0.456,0.221-0.667,0.154l-0.828-0.265
								c-0.21-0.066-0.487,0.023-0.618,0.202c0,0-0.063,0.085-0.194,0.3c-0.134,0.219-0.183,0.308-0.183,0.308
								c-0.102,0.195-0.062,0.485,0.091,0.64l0.605,0.625c0.152,0.158,0.224,0.462,0.159,0.67l-0.223,0.893
								c-0.039,0.214-0.24,0.447-0.449,0.519l-0.825,0.272c-0.209,0.069-0.374,0.306-0.37,0.523l0.051,0.716
								c0.027,0.218,0.227,0.426,0.443,0.465l0.854,0.147c0.219,0.04,0.452,0.24,0.523,0.452l0.344,0.846
								c0.097,0.198,0.071,0.506-0.057,0.685l-0.51,0.709c-0.13,0.176-0.125,0.468,0.012,0.641l0.454,0.544
								c0.152,0.16,0.435,0.214,0.635,0.116l0.781-0.384c0.197-0.097,0.501-0.066,0.677,0.066c0,0,0.138,0.104,0.382,0.258
								c0.247,0.152,0.401,0.23,0.401,0.23c0.195,0.095,0.357,0.353,0.359,0.576l0.003,0.871c0.002,0.218,0.175,0.453,0.386,0.515
								l0.69,0.169c0.214,0.042,0.476-0.083,0.581-0.276l0.407-0.768c0.103-0.194,0.368-0.354,0.588-0.358l0.911-0.065
								c0.221-0.03,0.505,0.09,0.636,0.27l0.512,0.697c0.131,0.181,0.408,0.268,0.615,0.193l0.663-0.272
								c0.2-0.09,0.337-0.344,0.307-0.563l-0.124-0.858c-0.03-0.221,0.09-0.505,0.27-0.633l0.7-0.594
								c0.16-0.152,0.461-0.223,0.669-0.154l0.828,0.263c0.208,0.069,0.485-0.023,0.615-0.199c0,0,0.064-0.085,0.197-0.299
								c0.137-0.219,0.18-0.311,0.18-0.311c0.102-0.192,0.061-0.482-0.091-0.643l-0.604-0.62c-0.155-0.161-0.226-0.462-0.159-0.67
								l0.221-0.891c0.039-0.217,0.24-0.449,0.449-0.521l0.827-0.273c0.207-0.071,0.376-0.305,0.367-0.528L188.026,107.264z
								 M183.923,110.59c-1.318,2.122-4.106,2.771-6.23,1.453c-2.119-1.319-2.773-4.104-1.453-6.229
								c0.751-1.212,1.982-1.94,3.295-2.104c0.149-0.019,0.303-0.027,0.454-0.026c0.141-0.006,0.279-0.003,0.417,0.011
								c0.153,0.007,0.302,0.023,0.455,0.05c0.553,0.094,1.099,0.298,1.608,0.613C184.59,105.678,185.242,108.466,183.923,110.59z"
								/>
						</g>
					</g>
				</g>
			</g>
			<g id="XMLID_1881_">
				<g id="XMLID_1882_">
					<g>
						<g>
							<path fill="#FFFFFF" d="M181.781,105.468c-0.302-0.192-0.627-0.321-0.955-0.401c-0.443-0.106-0.894-0.116-1.326-0.035
								c-0.862,0.157-1.659,0.663-2.159,1.47c-0.941,1.514-0.476,3.499,1.041,4.44c1.512,0.941,3.499,0.479,4.442-1.039
								C183.764,108.391,183.296,106.404,181.781,105.468z M181.068,108.812c-0.339,0.544-1.056,0.718-1.598,0.378
								c-0.549-0.342-0.712-1.058-0.375-1.603c0.091-0.146,0.209-0.271,0.348-0.357c0.365-0.242,0.852-0.26,1.252-0.013
								c0.028,0.014,0.051,0.032,0.073,0.053C181.251,107.621,181.39,108.293,181.068,108.812z"/>
						</g>
					</g>
				</g>
			</g>
		</g>
		<g>
			<g>
				<path fill="#0072CD" d="M172.379,99.786c-1.496,0-2.686-1.123-2.686-2.504v-3.023h2v3.023c0,0.273,0.299,0.504,0.653,0.504
					c0.387,0,0.686-0.231,0.686-0.504v-1.3h2v1.3C175.032,98.663,173.842,99.786,172.379,99.786z"/>
			</g>
			<g>
				<path fill="#0072CD" d="M168.143,108.843c-0.662,0-1.319-0.235-1.833-0.702l-2.35-2.138l1.346-1.479l2.35,2.138
					c0.264,0.241,0.729,0.24,0.992,0c0.126-0.115,0.181-0.227,0.181-0.345c0-0.118-0.055-0.23-0.157-0.323l-1.011-0.919l1.346-1.479
					l1.011,0.919c0.523,0.476,0.811,1.116,0.812,1.802c0,0.687-0.288,1.328-0.812,1.804
					C169.486,108.603,168.813,108.843,168.143,108.843z"/>
			</g>
			<g>
				<path fill="#0072CD" d="M166.328,119.949l-1.346-1.479l2.35-2.138c0.103-0.093,0.157-0.205,0.157-0.323
					c0-0.118-0.054-0.23-0.157-0.324c-0.288-0.263-0.751-0.263-1.015-0.021l-1.01,0.92l-1.347-1.479l1.011-0.92
					c1.033-0.939,2.65-0.939,3.684,0c0.547,0.498,0.835,1.138,0.834,1.825c0,0.687-0.288,1.327-0.811,1.802L166.328,119.949z"/>
			</g>
		</g>
		<g>
			<g>
				<path fill="#0072CD" d="M187.771,99.786c-1.496,0-2.686-1.123-2.686-2.504v-1.3h2v1.3c0,0.273,0.299,0.504,0.653,0.504
					c0.387,0,0.686-0.231,0.686-0.504v-3.023h2v3.023C190.424,98.663,189.234,99.786,187.771,99.786z"/>
			</g>
			<g>
				<path fill="#0072CD" d="M191.965,108.846c-0.663,0-1.325-0.235-1.842-0.705c-0.547-0.498-0.835-1.138-0.835-1.825
					c0-0.687,0.289-1.327,0.812-1.802l1.011-0.919l1.346,1.479l-1.011,0.919c-0.103,0.093-0.157,0.205-0.157,0.323
					c0,0.118,0.055,0.23,0.157,0.324c0.287,0.261,0.751,0.261,1.016,0.021l2.35-2.138l1.346,1.479l-2.35,2.138
					C193.29,108.611,192.627,108.846,191.965,108.846z"/>
			</g>
			<g>
				<path fill="#0072CD" d="M193.789,119.949l-2.35-2.138c-0.523-0.476-0.811-1.116-0.811-1.802c0-0.687,0.288-1.328,0.811-1.804
					c1.055-0.96,2.673-0.96,3.707-0.021l1.011,0.92l-1.347,1.479l-1.011-0.92c-0.264-0.241-0.728-0.24-0.991,0
					c-0.126,0.115-0.181,0.227-0.18,0.345c0,0.118,0.054,0.23,0.157,0.323l2.35,2.138L193.789,119.949z"/>
			</g>
		</g>
		<g>
			<rect x="179.081" y="89.912" fill="#0072CD" width="2" height="5.798"/>
		</g>
		<g>
			<rect x="179.081" y="120.3" fill="#0072CD" width="2" height="5.798"/>
		</g>
	</g>
	<g>
		<defs>
			<rect id="SVGID_1_" x="198.195" y="194.659" width="60" height="28.824"/>
		</defs>
		<clipPath id="SVGID_2_">
			<use xlink:href="#SVGID_1_"  overflow="visible"/>
		</clipPath>
		<g clip-path="url(#SVGID_2_)">
			<g>
				<path fill="#5AAADB" d="M229.743,247.679c-13.336,0-24.186-10.851-24.186-24.187c0-13.336,10.85-24.187,24.186-24.187
					s24.187,10.85,24.187,24.187C253.93,236.829,243.08,247.679,229.743,247.679z M229.743,202.098
					c-11.797,0-21.395,9.598-21.395,21.395c0,11.797,9.598,21.395,21.395,21.395s21.395-9.598,21.395-21.395
					C251.138,211.695,241.541,202.098,229.743,202.098z"/>
			</g>
			<g>
				<path fill="#FFFFFF" d="M229.743,202.098c-11.797,0-21.395,9.598-21.395,21.395c0,11.797,9.598,21.395,21.395,21.395
					s21.395-9.598,21.395-21.395C251.138,211.695,241.541,202.098,229.743,202.098z"/>
			</g>
			<g>
				<g>
					<rect x="228.865" y="204.504" fill="#0072CD" width="1.851" height="7.245"/>
				</g>
			</g>
			<g>
				<g>
					
						<rect x="216.179" y="209.153" transform="matrix(0.7071 -0.7071 0.7071 0.7071 -85.455 215.2563)" fill="#0072CD" width="1.861" height="3.256"/>
				</g>
			</g>
			<g>
				<g>
					<rect x="210.353" y="222.017" fill="#0072CD" width="9.456" height="1.851"/>
				</g>
			</g>
			<g>
				<g>
					
						<rect x="216.179" y="234.485" transform="matrix(-0.707 -0.7072 0.7072 -0.707 203.6129 556.5869)" fill="#54AAE3" width="1.861" height="3.257"/>
				</g>
			</g>
			<g>
				<g>
					<rect x="228.865" y="235.044" fill="#54AAE3" width="1.852" height="8.336"/>
				</g>
			</g>
			<g>
				<g>
					
						<rect x="241.51" y="234.485" transform="matrix(-0.707 0.7072 -0.7072 -0.707 580.8282 231.5755)" fill="#54AAE3" width="1.861" height="3.257"/>
				</g>
			</g>
			<g>
				<g>
					<rect x="240.631" y="222.017" fill="#0072CD" width="8.598" height="1.851"/>
				</g>
			</g>
			<g>
				<g>
					
						<rect x="241.51" y="209.153" transform="matrix(0.7071 0.7071 -0.7071 0.7071 220.0543 -109.695)" fill="#0072CD" width="1.861" height="3.257"/>
				</g>
			</g>
			<g>
				<polygon fill="#CCE4F2" points="228.701,223.116 241.808,208.169 229.764,223.984 				"/>
			</g>
			<g>
				<g>
					<path fill="#54AAE3" d="M231.001,221.011c1.208,1.014,1.404,2.623,0.29,3.737l-0.099,0.099
						c-1.115,1.115-2.722,0.919-3.736-0.289c-2.263-2.695-6.239-8.418-8.062-10.917c-0.379-0.521,0.262-1.008,0.688-0.691
						C222.987,215.104,228.306,218.75,231.001,221.011z"/>
				</g>
			</g>
			<g>
				<g>
					<path fill="#0072CD" d="M229.493,226.583c-1.044,0-2.066-0.504-2.804-1.382c-1.724-2.054-4.43-5.842-6.406-8.608
						c-0.659-0.923-1.245-1.743-1.698-2.363c-0.349-0.479-0.405-1.063-0.15-1.562c0.398-0.784,1.524-1.056,2.243-0.521
						c0.934,0.692,2.12,1.541,3.387,2.447c2.683,1.92,5.725,4.096,7.579,5.651c0.846,0.709,1.335,1.655,1.379,2.661
						c0.042,0.941-0.323,1.847-1.025,2.549l-0.101,0.101C231.235,226.217,230.38,226.583,229.493,226.583z M222.028,215.595
						c1.946,2.723,4.553,6.366,6.193,8.32c0.639,0.761,1.608,0.88,2.263,0.225l0.101-0.101c0.304-0.304,0.457-0.666,0.44-1.046
						c-0.019-0.439-0.256-0.872-0.667-1.216c-1.794-1.506-4.803-3.658-7.457-5.557C222.605,216.008,222.313,215.799,222.028,215.595
						z"/>
				</g>
			</g>
			<g>
				<circle fill="#FFFFFF" cx="229.392" cy="223.043" r="1.56"/>
			</g>
			<g>
				<circle fill="#CCE4F2" cx="229.381" cy="223.027" r="0.754"/>
			</g>
			<g>
				<path fill="#0072CD" d="M229.743,248.679c-13.888,0-25.186-11.299-25.186-25.187s11.298-25.187,25.186-25.187
					s25.187,11.299,25.187,25.187S243.631,248.679,229.743,248.679z M229.743,200.306c-12.785,0-23.186,10.401-23.186,23.187
					s10.401,23.187,23.186,23.187c12.785,0,23.187-10.401,23.187-23.187S242.528,200.306,229.743,200.306z M229.743,245.887
					c-12.349,0-22.395-10.046-22.395-22.395s10.046-22.395,22.395-22.395s22.395,10.046,22.395,22.395
					S242.092,245.887,229.743,245.887z M229.743,203.098c-11.246,0-20.395,9.149-20.395,20.395c0,11.246,9.149,20.395,20.395,20.395
					c11.246,0,20.395-9.149,20.395-20.395C250.138,212.247,240.989,203.098,229.743,203.098z"/>
			</g>
		</g>
	</g>
	<g>
		<g>
			<g>
				<g>
					<g>
						<g>
							<path fill="#B4D8E7" d="M155.875,196.019c-0.084-0.054-0.171-0.109-0.258-0.164
								C155.705,195.91,155.791,195.964,155.875,196.019z"/>
						</g>
					</g>
				</g>
				<g>
					<g>
						<g>
							<path fill="#B4D8E7" d="M155.563,195.822c-0.078-0.047-0.156-0.094-0.236-0.139
								C155.407,195.729,155.486,195.774,155.563,195.822z"/>
						</g>
					</g>
				</g>
				<g>
					<g>
						<g>
							<path fill="#B4D8E7" d="M155.255,195.642c-0.099-0.058-0.2-0.114-0.302-0.169
								C155.056,195.527,155.157,195.584,155.255,195.642z"/>
						</g>
					</g>
				</g>
			</g>
			<g>
				<g>
					<g>
						<g>
							<path fill="#0072CD" d="M129.414,215.964L129.414,215.964c-1.396,0-2.652-0.925-3.067-2.254
								c-0.005-0.014-0.009-0.027-0.013-0.041c-0.507-1.696,0.458-3.491,2.152-4.001l3.77-1.194c1.705-0.517,3.478,0.471,4,2.082
								c0.009,0.024,0.018,0.048,0.025,0.073c0.506,1.691-0.459,3.485-2.152,4l-3.772,1.195
								C130.041,215.918,129.728,215.964,129.414,215.964z M128.243,213.072c0.003,0.01,0.006,0.019,0.009,0.028
								c0.187,0.622,0.88,1.002,1.514,0.812l3.77-1.194c0.639-0.194,1.003-0.848,0.84-1.475c-0.006-0.015-0.011-0.031-0.016-0.047
								c-0.188-0.622-0.881-1.004-1.514-0.812l-3.77,1.195C128.431,211.773,128.067,212.438,128.243,213.072z"/>
						</g>
					</g>
				</g>
			</g>
		</g>
		<g>
			<g>
				<g>
					<path fill="#54AAE3" d="M164.688,202.093c-1.27-4.24-4.12-7.74-8.01-9.83c-0.4-0.22-0.81-0.41-1.22-0.59
						c-3.57-1.56-7.61-1.8-11.37-0.67c-4.24,1.28-7.72,4.12-9.81,8.01c-1.75,3.26-2.35,6.9-1.73,10.53
						c0.11,0.68,0.27,1.36,0.47,2.03c0.21,0.69,0.46,1.37,0.75,2.03c0.57,1.27,1.29,2.46,2.15,3.55c1.4,1.75,3.12,3.18,5.12,4.25
						c0.39,0.21,0.8,0.41,1.21,0.59c7.83,3.42,17.13,0.2,21.17-7.34C165.508,210.783,165.958,206.323,164.688,202.093z
						 M160.908,213.303c-3.35,6.24-11.04,8.9-17.52,6.07c-0.34-0.14-0.67-0.31-1-0.48c-3.08-1.66-5.39-4.4-6.54-7.82l-0.1-0.32
						c-1.04-3.5-0.67-7.19,1.05-10.39c1.72-3.22,4.6-5.57,8.11-6.62c3.11-0.94,6.45-0.75,9.41,0.54c0.34,0.15,0.68,0.32,1.01,0.49
						c3.22,1.73,5.57,4.62,6.63,8.14C162.999,206.403,162.628,210.093,160.908,213.303z"/>
				</g>
				<g opacity="0.6">
					<path fill="#54AAE3" d="M161.958,202.913c-1.06-3.52-3.41-6.41-6.63-8.14c-0.33-0.17-0.67-0.34-1.01-0.49
						c-2.96-1.29-6.3-1.48-9.41-0.54c-3.51,1.05-6.39,3.4-8.11,6.62c-1.72,3.2-2.09,6.89-1.05,10.39l0.1,0.32
						c1.15,3.42,3.46,6.16,6.54,7.82c0.33,0.17,0.66,0.34,1,0.48c6.48,2.83,14.17,0.17,17.52-6.07
						C162.628,210.093,162.999,206.403,161.958,202.913z M155.058,202.659c0,2.085-0.872,3.937-2.254,5.442
						c-1.387,1.511-3.452,2.165-5.442,2.254c-1.06,0.04-2.048-0.181-2.965-0.663c-0.954-0.31-1.78-0.841-2.477-1.591
						c-1.396-1.396-2.254-3.468-2.254-5.442v-0.083c0-2.085,0.872-3.937,2.254-5.442c1.387-1.511,3.451-2.165,5.442-2.254
						c1.06-0.04,2.048,0.181,2.965,0.663c0.954,0.31,1.78,0.841,2.477,1.591c1.396,1.396,2.254,3.468,2.254,5.442V202.659z"/>
				</g>
			</g>
		</g>
		<g>
			<g>
				<g>
					<path fill="#0072CD" d="M148.784,224.355c-2.405,0-4.74-0.487-6.938-1.447c-0.434-0.19-0.863-0.397-1.286-0.625
						c-2.114-1.134-3.938-2.652-5.419-4.511c-0.916-1.15-1.684-2.417-2.283-3.765c-0.313-0.703-0.583-1.428-0.799-2.153
						c-0.211-0.702-0.38-1.424-0.5-2.142c-0.654-3.851-0.017-7.715,1.843-11.173c2.212-4.121,5.903-7.136,10.393-8.492
						c3.976-1.196,8.286-0.943,12.062,0.705c0.437,0.191,0.869,0.402,1.294,0.63c4.13,2.221,7.148,5.923,8.498,10.423
						c1.341,4.485,0.863,9.216-1.346,13.321C161.25,220.818,155.303,224.355,148.784,224.355z M148.875,191.299
						c-1.525,0-3.041,0.223-4.504,0.663c-3.978,1.201-7.249,3.873-9.208,7.523c-1.647,3.063-2.211,6.484-1.632,9.894
						c0.107,0.638,0.256,1.277,0.444,1.901c0.192,0.645,0.431,1.288,0.71,1.913c0.531,1.194,1.21,2.315,2.02,3.332
						c1.311,1.646,2.926,2.99,4.801,3.996c0.376,0.203,0.756,0.386,1.139,0.554c1.945,0.85,4.01,1.28,6.139,1.28
						c5.781,0,11.052-3.133,13.756-8.176c1.957-3.637,2.38-7.828,1.192-11.801c-1.196-3.988-3.87-7.268-7.529-9.235
						c-0.376-0.203-0.761-0.389-1.148-0.559C153.102,191.732,151.023,191.299,148.875,191.299z M148.8,221.504L148.8,221.504
						c-2.016,0-3.97-0.408-5.81-1.211c-0.362-0.158-0.722-0.332-1.076-0.522c-3.307-1.774-5.796-4.749-7.01-8.377l-0.109-0.343
						c-1.125-3.767-0.727-7.725,1.118-11.16c1.851-3.452,4.941-5.976,8.703-7.108c3.327-1.003,6.939-0.792,10.104,0.589
						c0.364,0.159,0.724,0.333,1.08,0.524c3.454,1.857,5.979,4.956,7.113,8.727c1.12,3.752,0.721,7.713-1.124,11.158
						C159.231,218.544,154.254,221.504,148.8,221.504z M148.873,194.154c-1.247,0-2.485,0.183-3.68,0.543
						c-3.249,0.978-5.918,3.158-7.517,6.139c-1.593,2.967-1.937,6.385-0.969,9.626l0.099,0.312c1.046,3.128,3.198,5.702,6.053,7.234
						c0.306,0.164,0.617,0.314,0.931,0.452c1.587,0.693,3.271,1.044,5.009,1.044h0.001c4.717,0,9.019-2.556,11.228-6.669
						c1.592-2.975,1.938-6.398,0.97-9.638c-0.979-3.258-3.161-5.936-6.143-7.539c-0.307-0.164-0.619-0.316-0.935-0.454
						C152.324,194.507,150.626,194.154,148.873,194.154z"/>
				</g>
			</g>
		</g>
		<g>
			<g>
				<g>
					
						<rect x="114.344" y="204.164" transform="matrix(0.2868 0.958 -0.958 0.2868 291.2788 40.924)" fill="#D6EAFA" width="7.618" height="23.862"/>
				</g>
			</g>
		</g>
		<g>
			<g>
				<g>
					<path fill="#0072CD" d="M107.817,224.168c-0.43,0-0.828-0.28-0.958-0.713l-2.187-7.299c-0.076-0.254-0.048-0.528,0.078-0.762
						s0.339-0.407,0.594-0.483l22.86-6.844c0.528-0.158,1.086,0.142,1.245,0.671l2.185,7.298c0.158,0.529-0.142,1.086-0.671,1.245
						l-22.858,6.846C108.009,224.155,107.912,224.168,107.817,224.168z M106.876,216.54l1.612,5.384l20.943-6.272l-1.612-5.382
						L106.876,216.54z"/>
				</g>
			</g>
		</g>
	</g>
</g>
</svg>
