<?xml version="1.0" encoding="utf-8"?>
<!-- Generator: Adobe Illustrator 16.0.0, SVG Export Plug-In . SVG Version: 6.00 Build 0)  -->
<!DOCTYPE svg PUBLIC "-//W3C//DTD SVG 1.1//EN" "http://www.w3.org/Graphics/SVG/1.1/DTD/svg11.dtd">
<svg version="1.1" id="layer_1" xmlns="http://www.w3.org/2000/svg" xmlns:xlink="http://www.w3.org/1999/xlink" x="0px" y="0px"
	 width="628.766px" height="526.499px" viewBox="0 0 628.766 526.499" enable-background="new 0 0 628.766 526.499"
	 xml:space="preserve">
<g>
	<g>
		<g>
			<path fill="#D6EAFA" d="M459.596,300.231h122.572c-9.054,0-17.284,3.584-23.215,9.56c-5.956,6.001-9.639,13.069-9.639,22.216
				c0,18.271,14.723,31.871,32.854,31.871H459.596c9.056,0,17.262-2.578,23.22-8.525c5.93-5.977,9.61-13.572,9.61-22.722
				C492.426,314.336,477.731,300.231,459.596,300.231z"/>
		</g>
		<g>
			<circle fill="#D6EAFA" cx="312.735" cy="268.916" r="238.641"/>
		</g>
		<g>
			<path fill="#EAF5FE" d="M312.734,468.933c-110.288,0-200.018-89.727-200.018-200.017c0-110.291,89.729-200.019,200.018-200.019
				c110.29,0,200.019,89.728,200.019,200.019C512.753,379.206,423.024,468.933,312.734,468.933z M312.734,75.978
				c-106.384,0-192.938,86.553-192.938,192.938c0,106.387,86.555,192.938,192.938,192.938c106.387,0,192.939-86.551,192.939-192.938
				C505.674,162.53,419.121,75.978,312.734,75.978z"/>
		</g>
		<g>
			<path fill="#D6EAFA" d="M125.059,407.021h97.947c10.097,0,18.281,8.186,18.281,18.282l0,0c0,10.097-8.185,18.282-18.281,18.282
				h-97.947c-10.096,0-18.282-8.186-18.282-18.282l0,0C106.776,415.206,114.963,407.021,125.059,407.021z"/>
		</g>
		<g>
			<path fill="#D6EAFA" d="M101.469,478.922h210.162c6.545,0,11.849,5.306,11.849,11.85l0,0c0,6.547-5.304,11.85-11.849,11.85
				H101.469c-6.543,0-11.849-5.303-11.849-11.85l0,0C89.62,484.228,94.926,478.922,101.469,478.922z"/>
		</g>
		<g>
			<path fill="#D6EAFA" d="M418.447,502.801h22.144c6.546,0,11.85,5.306,11.85,11.851l0,0c0,6.542-5.304,11.848-11.85,11.848
				h-22.144c-6.544,0-11.85-5.306-11.85-11.848l0,0C406.598,508.106,411.903,502.801,418.447,502.801z"/>
		</g>
		<g>
			<path fill="#D6EAFA" d="M407.449,432.705h107.838c10.733,0,19.436,8.704,19.436,19.438l0,0c0,10.735-8.702,19.435-19.436,19.435
				H407.449c-10.736,0-19.436-8.701-19.436-19.435l0,0C388.014,441.409,396.713,432.705,407.449,432.705z"/>
		</g>
		<g>
			<path fill="#D6EAFA" d="M413.005,234.556h175.923c18.137,0,32.838,14.703,32.838,32.836l0,0c0,18.135-14.701,32.84-32.838,32.84
				H413.005c-18.137,0-32.84-14.705-32.84-32.84l0,0C380.165,249.259,394.868,234.556,413.005,234.556z"/>
		</g>
		<g>
			<path fill="#D6EAFA" d="M141.943,443.525h68.24c-5.041,0-9.626,2.182-12.926,5.483c-3.317,3.317-5.365,7.235-5.365,12.289
				c0,10.097,8.194,17.624,18.291,17.624h-68.24c5.04,0,9.608-1.337,12.925-4.626c3.302-3.3,5.352-7.654,5.352-12.71
				C160.22,451.477,152.039,443.525,141.943,443.525z"/>
		</g>
		<g>
			<path fill="#D6EAFA" d="M346.817,364.028h260.667c11.753,0,21.281,9.527,21.281,21.281l0,0c0,11.755-9.528,21.283-21.281,21.283
				H346.817c-11.753,0-21.283-9.529-21.283-21.283l0,0C325.534,373.556,335.064,364.028,346.817,364.028z"/>
		</g>
		<g>
			<path fill="#D6EAFA" d="M262.42,205.999H56.272c-19.257,0-34.863-15.607-34.863-34.863l0,0c0-19.254,15.606-34.865,34.863-34.865
				H262.42c19.257,0,34.866,15.611,34.866,34.865l0,0C297.286,190.392,281.677,205.999,262.42,205.999z"/>
		</g>
		<g>
			<path fill="#D6EAFA" d="M348.285,407.854H50.383C22.559,407.854,0,385.296,0,357.472l0,0c0-27.825,22.559-50.382,50.383-50.382
				h297.902c27.825,0,50.383,22.557,50.383,50.382l0,0C398.668,385.296,376.11,407.854,348.285,407.854z"/>
		</g>
		<g>
			<path fill="#D6EAFA" d="M516.848,125.902H352.38c-15.359,0-27.814-12.455-27.814-27.817l0,0
				c0-15.362,12.455-27.815,27.814-27.815h164.471c15.362,0,27.814,12.453,27.814,27.815l0,0
				C544.665,113.447,532.213,125.902,516.848,125.902z"/>
		</g>
		<g>
			<path fill="#D6EAFA" d="M284.26,78.421H159.25c-12.885,0-23.334-10.446-23.334-23.334l0,0c0-12.887,10.449-23.333,23.334-23.333
				h125.01c12.887,0,23.332,10.447,23.332,23.333l0,0C307.592,67.975,297.146,78.421,284.26,78.421z"/>
		</g>
		<g>
			<path fill="#D6EAFA" d="M466.258,30.274h-39.057c-8.361,0-15.138-6.776-15.138-15.138l0,0C412.063,6.777,418.84,0,427.201,0
				h39.057c8.359,0,15.137,6.777,15.137,15.137l0,0C481.395,23.499,474.617,30.274,466.258,30.274z"/>
		</g>
	</g>
	<g>
		<g>
			<g>
				<g>
					<circle fill="#54AAE3" cx="171.239" cy="332.817" r="63.858"/>
				</g>
			</g>
		</g>
		<g>
			<g>
				<g>
					<path fill="#0072CD" d="M171.239,398.444c-36.185,0-65.627-29.44-65.627-65.627s29.442-65.627,65.627-65.627
						c36.188,0,65.629,29.44,65.629,65.627S207.427,398.444,171.239,398.444z M171.239,270.73
						c-34.232,0-62.088,27.851-62.088,62.087c0,34.237,27.855,62.087,62.088,62.087c34.235,0,62.091-27.85,62.091-62.087
						C233.33,298.581,205.475,270.73,171.239,270.73z"/>
				</g>
			</g>
		</g>
		<g>
			<g>
				<path fill="#FFFFFF" d="M121.175,332.817c0,27.649,22.417,50.066,50.064,50.066c27.65,0,50.067-22.417,50.067-50.066
					s-22.417-50.063-50.067-50.063C143.592,282.755,121.175,305.168,121.175,332.817z"/>
			</g>
		</g>
		<g>
			<g>
				<circle fill="#54AAE3" cx="171.241" cy="332.817" r="33.868"/>
			</g>
		</g>
		<g>
			<g>
				<circle fill="#FFFFFF" cx="171.241" cy="332.817" r="18.363"/>
			</g>
		</g>
		<g>
			<g>
				<path fill="#0072CD" d="M171.239,384.653c-28.58,0-51.832-23.251-51.832-51.836c0-28.58,23.252-51.833,51.832-51.833
					c28.585,0,51.838,23.253,51.838,51.833C223.077,361.402,199.824,384.653,171.239,384.653z M171.239,284.524
					c-26.628,0-48.294,21.663-48.294,48.293s21.666,48.296,48.294,48.296c26.632,0,48.298-21.666,48.298-48.296
					S197.871,284.524,171.239,284.524z"/>
			</g>
		</g>
		<g>
			<g>
				<path fill="#0072CD" d="M171.239,368.454c-19.649,0-35.638-15.985-35.638-35.637s15.988-35.637,35.638-35.637
					c19.652,0,35.64,15.985,35.64,35.637S190.892,368.454,171.239,368.454z M171.239,300.72c-17.697,0-32.096,14.398-32.096,32.098
					c0,17.701,14.398,32.099,32.096,32.099c17.7,0,32.101-14.397,32.101-32.099C203.34,315.118,188.939,300.72,171.239,300.72z"/>
			</g>
		</g>
		<g>
			<g>
				<path fill="#0072CD" d="M171.239,352.95c-11.102,0-20.131-9.031-20.131-20.133s9.029-20.133,20.131-20.133
					c11.104,0,20.135,9.031,20.135,20.133S182.344,352.95,171.239,352.95z M171.239,316.225c-9.149,0-16.591,7.444-16.591,16.593
					s7.441,16.594,16.591,16.594c9.151,0,16.594-7.445,16.594-16.594S180.391,316.225,171.239,316.225z"/>
			</g>
		</g>
		<g>
			<path fill="#54AAE3" d="M167.813,333.735v8.981c0,1.839,1.476,3.346,3.316,3.346c1.84,0,3.315-1.507,3.315-3.346v-8.981
				c2.525-1.228,4.272-3.76,4.272-6.686c0-4.128-3.274-7.477-7.401-7.477s-7.553,3.349-7.553,7.477
				C163.764,329.976,165.603,332.508,167.813,333.735z"/>
		</g>
		<g>
			<path fill="#FFFFFF" d="M80.415,327.354c0,10.613,8.635,19.326,19.247,19.326c9.455,0,17.323-7.015,18.93-15.864h19.906v11.863
				c0,1.869,1.672,3.384,3.539,3.384c1.869,0,3.539-1.515,3.539-3.384v-11.863h7.079v11.863c0,1.869,1.672,3.384,3.542,3.384
				c1.866,0,3.539-1.515,3.539-3.384v-11.863h4.726c1.869,0,3.384-1.67,3.384-3.539c0-1.867-1.515-3.539-3.384-3.539h-45.87
				c-1.606-8.85-9.475-15.706-18.93-15.706C89.05,308.031,80.415,316.744,80.415,327.354z M87.493,327.433
				c0-6.709,5.459-12.167,12.169-12.167c6.709,0,12.166,5.458,12.166,12.167S106.371,339.6,99.662,339.6
				C92.952,339.6,87.493,334.142,87.493,327.433z"/>
		</g>
		<g>
			<path fill="#0072CD" d="M99.662,348.448c-11.589,0-21.017-9.461-21.017-21.095c0-11.63,9.428-21.094,21.017-21.094
				c9.668,0,18.003,6.521,20.354,15.708h44.446c2.794,0,5.152,2.433,5.152,5.309c0,2.879-2.358,5.311-5.152,5.311h-2.957v10.092
				c0,2.795-2.433,5.154-5.308,5.154c-2.879,0-5.311-2.359-5.311-5.154v-10.092h-3.539v10.092c0,2.795-2.433,5.154-5.311,5.154
				s-5.311-2.359-5.311-5.154v-10.092h-16.713C117.655,341.725,109.158,348.448,99.662,348.448z M99.662,309.8
				c-9.638,0-17.478,7.874-17.478,17.554c0,9.681,7.84,17.556,17.478,17.556c8.307,0,15.697-6.193,17.188-14.41
				c0.152-0.841,0.886-1.452,1.741-1.452h19.906c0.977,0,1.771,0.792,1.771,1.769v11.863c0,0.845,0.843,1.612,1.769,1.612
				s1.771-0.768,1.771-1.612v-11.863c0-0.977,0.792-1.769,1.769-1.769h7.079c0.978,0,1.771,0.792,1.771,1.769v11.863
				c0,0.845,0.843,1.612,1.771,1.612c0.926,0,1.768-0.768,1.768-1.612v-11.863c0-0.977,0.794-1.769,1.771-1.769h4.726
				c0.843,0,1.613-0.845,1.613-1.771c0-0.927-0.771-1.769-1.613-1.769h-45.87c-0.855,0-1.589-0.611-1.741-1.455
				C115.352,315.794,108.121,309.8,99.662,309.8z M99.662,341.37c-7.687,0-13.938-6.251-13.938-13.938s6.251-13.938,13.938-13.938
				c7.685,0,13.936,6.251,13.936,13.938S107.347,341.37,99.662,341.37z M99.662,317.035c-5.733,0-10.399,4.663-10.399,10.397
				c0,5.733,4.666,10.397,10.399,10.397c5.732,0,10.397-4.664,10.397-10.397C110.06,321.698,105.395,317.035,99.662,317.035z"/>
		</g>
	</g>
	<g>
		<g>
			<path fill="#FFFFFF" d="M317.019,264.128c0,25.625-20.77,46.399-46.396,46.399c-25.624,0-46.396-20.774-46.396-46.399
				c0-25.624,20.772-46.398,46.396-46.398C296.249,217.729,317.019,238.504,317.019,264.128z"/>
		</g>
		<g>
			<path fill="#0072CD" d="M270.622,312.296c-26.56,0-48.167-21.606-48.167-48.168c0-26.561,21.607-48.168,48.167-48.168
				s48.168,21.607,48.168,48.168C318.79,290.689,297.182,312.296,270.622,312.296z M270.622,219.5
				c-24.607,0-44.626,20.021-44.626,44.628c0,24.607,20.019,44.629,44.626,44.629c24.608,0,44.628-20.021,44.628-44.629
				C315.25,239.521,295.23,219.5,270.622,219.5z"/>
		</g>
		<g>
			<circle fill="#FFFFFF" cx="323.48" cy="264.128" r="47.931"/>
		</g>
		<g>
			<path fill="#0072CD" d="M323.479,313.829c-27.401,0-49.701-22.295-49.701-49.701c0-27.405,22.3-49.7,49.701-49.7
				c27.405,0,49.702,22.295,49.702,49.7C373.182,291.534,350.885,313.829,323.479,313.829z M323.479,217.967
				c-25.453,0-46.159,20.708-46.159,46.161s20.706,46.161,46.159,46.161c25.456,0,46.161-20.708,46.161-46.161
				S348.936,217.967,323.479,217.967z"/>
		</g>
		<g>
			<circle fill="#FFFFFF" cx="373.034" cy="264.128" r="35.542"/>
		</g>
		<g>
			<path fill="#0072CD" d="M373.035,301.44c-20.576,0-37.313-16.738-37.313-37.313c0-20.573,16.736-37.313,37.313-37.313
				c20.572,0,37.312,16.739,37.312,37.313C410.347,284.702,393.607,301.44,373.035,301.44z M373.035,230.355
				c-18.624,0-33.772,15.149-33.772,33.772s15.148,33.772,33.772,33.772c18.623,0,33.771-15.149,33.771-33.772
				S391.658,230.355,373.035,230.355z"/>
		</g>
		<g>
			<circle fill="#FFFFFF" cx="401.351" cy="239.351" r="16.37"/>
		</g>
		<g>
			<path fill="#0072CD" d="M401.352,257.492c-0.979,0-1.771-0.794-1.771-1.771c0-0.978,0.792-1.769,1.771-1.769
				c8.05,0,14.601-6.552,14.601-14.603c0-8.05-6.551-14.601-14.601-14.601c-8.052,0-14.601,6.551-14.601,14.601
				c0,0.761,0.059,1.524,0.177,2.271c0.148,0.967-0.512,1.87-1.477,2.023c-0.96,0.146-1.871-0.511-2.022-1.476
				c-0.146-0.928-0.219-1.875-0.219-2.818c0-10.003,8.138-18.14,18.142-18.14c10.003,0,18.14,8.137,18.14,18.14
				C419.491,249.354,411.354,257.492,401.352,257.492z"/>
		</g>
		<g>
			<circle fill="#FFFFFF" cx="234.239" cy="240.027" r="17.445"/>
		</g>
		<g>
			<path fill="#0072CD" d="M234.238,259.243c-8.826,0-16.797-6.129-18.766-15.094c-2.272-10.352,4.299-20.618,14.645-22.892
				c8.51-1.876,17.241,2.237,21.215,9.98c0.447,0.871,0.103,1.938-0.766,2.383c-0.875,0.447-1.94,0.103-2.382-0.768
				c-3.243-6.315-10.36-9.664-17.306-8.138c-8.441,1.853-13.803,10.229-11.951,18.675c1.856,8.438,10.229,13.796,18.672,11.948
				c0.961-0.208,1.899,0.394,2.109,1.348c0.211,0.955-0.394,1.898-1.348,2.108C236.98,259.099,235.598,259.243,234.238,259.243z"/>
		</g>
		<g>
			<g>
				<circle fill="#FFFFFF" cx="342.948" cy="269.022" r="25.93"/>
			</g>
			<g>
				<path fill="#0072CD" d="M364.79,256.857c-0.584,0-1.154-0.289-1.492-0.815c-4.475-7-12.081-11.178-20.349-11.178
					c-8.27,0-15.875,4.178-20.352,11.178c-0.525,0.819-1.623,1.062-2.441,0.537c-0.826-0.528-1.065-1.621-0.539-2.444
					c5.128-8.02,13.85-12.811,23.332-12.811c9.48,0,18.201,4.791,23.332,12.811c0.523,0.823,0.284,1.916-0.539,2.444
					C365.447,256.767,365.118,256.857,364.79,256.857z"/>
			</g>
		</g>
		<g>
			<g>
				<circle fill="#FFFFFF" cx="279.236" cy="267.88" r="33.635"/>
			</g>
			<g>
				<path fill="#0072CD" d="M307.57,251.573c-0.584,0-1.155-0.287-1.495-0.815c-5.899-9.229-15.935-14.743-26.839-14.743
					s-20.941,5.514-26.842,14.743c-0.525,0.823-1.625,1.059-2.443,0.536c-0.824-0.526-1.063-1.62-0.54-2.444
					c6.56-10.252,17.705-16.375,29.825-16.375c12.117,0,23.266,6.123,29.824,16.375c0.524,0.824,0.285,1.918-0.541,2.444
					C308.227,251.484,307.895,251.573,307.57,251.573z"/>
			</g>
		</g>
	</g>
	<g>
		<g>
			<g>
				<g>
					<g>
						<path fill-rule="evenodd" clip-rule="evenodd" fill="#FFFFFF" d="M252.457,273.479l-27.109-51.271
							c-2.544-4.816-0.875-10.691,3.728-13.123c4.45-2.354,10.009-0.633,12.676,3.83l27.365,51.756L252.457,273.479z"/>
					</g>
				</g>
			</g>
		</g>
		<g>
			<g>
				<g>
					<g>
						<path fill="#0072CD" d="M251.963,278.22l-28.961-54.771c-3.223-6.1-1.057-13.598,4.833-16.711
							c5.676-3,12.792-0.886,16.196,4.816l29.283,55.378l-4.694,2.48l-29.217-55.257c-1.889-3.154-5.909-4.402-9.085-2.724
							c-3.305,1.745-4.48,6.024-2.623,9.535l28.962,54.771L251.963,278.22z"/>
					</g>
				</g>
			</g>
		</g>
		<g>
			<g>
				<g>
					<g>
						<g>
							<polygon fill-rule="evenodd" clip-rule="evenodd" fill="#5BB9E9" points="251.933,245.571 255.827,252.821 236.394,263.253 
								237.541,257.958 232.502,256.004 							"/>
						</g>
					</g>
				</g>
			</g>
		</g>
		<g>
			<g>
				<g>
					<g>
						<g>
							<path fill="#0072CD" d="M236.394,265.022c-0.378,0-0.753-0.12-1.064-0.355c-0.553-0.417-0.812-1.114-0.665-1.788l0.827-3.819
								l-3.631-1.405c-0.645-0.252-1.082-0.853-1.125-1.542c-0.046-0.69,0.318-1.34,0.928-1.668l19.431-10.432
								c0.864-0.464,1.937-0.142,2.398,0.723l3.894,7.249c0.223,0.413,0.27,0.897,0.136,1.346c-0.136,0.451-0.445,0.83-0.858,1.05
								l-19.431,10.433C236.967,264.954,236.681,265.022,236.394,265.022z M236.725,255.743l1.457,0.564
								c0.811,0.316,1.272,1.174,1.089,2.025l-0.336,1.548l14.496-7.782l-2.219-4.13L236.725,255.743z"/>
						</g>
					</g>
				</g>
			</g>
		</g>
		<g>
			<path fill="#0072CD" d="M253.922,274.263c-0.646,0-1.267-0.353-1.578-0.966c-0.444-0.873-0.096-1.938,0.773-2.383l14.353-7.304
				c0.874-0.438,1.938-0.096,2.382,0.776c0.441,0.872,0.097,1.936-0.773,2.38l-14.356,7.304
				C254.465,274.2,254.191,274.263,253.922,274.263z"/>
		</g>
	</g>
	<g>
		<g>
			<path fill="#FFFFFF" d="M380.843,215.995h-2.288c-5.917,0-10.715-4.797-10.715-10.713l0,0c0-5.917,4.798-10.716,10.715-10.716
				h2.288c5.917,0,10.717,4.799,10.717,10.716l0,0C391.56,211.198,386.76,215.995,380.843,215.995z"/>
		</g>
		<g id="XMLID_818_">
			<g id="XMLID_819_">
				<g>
					<g>
						<g>
							<path fill="#FFFFFF" d="M355.532,179.827c5.519-8.494,10.212-17.154,10.219-26.704c0.015-28.241-22.862-51.148-51.104-51.163
								c-28.24-0.017-51.145,22.863-51.16,51.104c-0.007,9.55,4.421,18.458,8.976,26.106h-0.196
								c20.958,32.513,17.001,47.408,17.001,47.408l25.309,0.013l25.309,0.015C339.885,226.606,338.32,206.322,355.532,179.827z"/>
						</g>
					</g>
				</g>
			</g>
		</g>
		<g id="XMLID_816_">
			<g id="XMLID_817_">
				<g>
					<g>
						<g>
							<path fill="#0072CD" d="M339.885,228.375h-0.003l-50.615-0.028c-0.55,0-1.065-0.254-1.401-0.69
								c-0.334-0.436-0.447-1.002-0.306-1.532c0.032-0.129,3.338-14.781-16.779-45.993c-0.156-0.242-0.248-0.514-0.276-0.792
								c-4.42-7.517-8.793-16.458-8.787-26.276c0.02-29.154,23.747-52.872,52.9-52.872c14.162,0.007,27.446,5.517,37.432,15.515
								c9.984,9.997,15.479,23.286,15.47,37.419c-0.004,10.107-5.051,19.271-10.502,27.667
								c-16.691,25.695-15.383,45.481-15.368,45.679c0.039,0.492-0.133,0.979-0.466,1.339
								C340.847,228.17,340.377,228.375,339.885,228.375z M291.285,224.81l46.785,0.026c0.041-5.731,1.461-23.625,15.976-45.974
								c5.96-9.174,9.931-17.062,9.935-25.742c0.008-13.186-5.12-25.584-14.437-34.913c-9.317-9.33-21.71-14.472-34.899-14.479
								c-27.229,0-49.373,22.133-49.387,49.339c-0.008,9.281,4.406,17.947,8.726,25.198c0.122,0.208,0.201,0.434,0.233,0.665
								C290.635,204.647,291.643,219.502,291.285,224.81z"/>
						</g>
					</g>
				</g>
			</g>
		</g>
		<g>
			<polygon fill="#5BB9E9" points="289.294,221.853 289.283,237.066 298.595,253.844 330.859,253.86 340.192,237.096 
				340.201,221.883 			"/>
		</g>
		<g>
			<path fill="#0072CD" d="M330.859,255.631L330.859,255.631l-32.268-0.019c-0.641,0-1.232-0.349-1.543-0.911l-9.313-16.775
				c-0.145-0.263-0.222-0.56-0.222-0.861l0.009-15.212c0-0.469,0.186-0.92,0.52-1.249c0.334-0.334,0.78-0.52,1.251-0.52l0,0
				l50.907,0.029c0.977,0,1.769,0.792,1.769,1.771l-0.009,15.212c0,0.302-0.077,0.598-0.223,0.86l-9.332,16.767
				C332.093,255.282,331.504,255.631,330.859,255.631z M299.637,252.073l30.184,0.02l8.602-15.456l0.008-12.986l-47.369-0.024
				l-0.006,12.982L299.637,252.073z"/>
		</g>
		<g>
			<path fill="#0072CD" d="M342.868,231.556h-0.003l-56.449-0.034c-0.978,0-1.771-0.792-1.77-1.771
				c0.003-0.977,0.793-1.769,1.771-1.769l0,0l56.453,0.034c0.976,0,1.769,0.792,1.767,1.771
				C344.637,230.764,343.843,231.556,342.868,231.556z"/>
		</g>
		<g>
			<path fill="#0072CD" d="M342.863,238.666h-0.002l-56.45-0.029c-0.976,0-1.769-0.794-1.767-1.773c0-0.975,0.794-1.767,1.769-1.767
				h0.003l56.449,0.03c0.976,0,1.771,0.793,1.77,1.771C344.632,237.875,343.839,238.666,342.863,238.666z"/>
		</g>
		<g>
			<path fill="#0072CD" d="M340.201,245.779L340.201,245.779l-51.132-0.03c-0.978,0-1.769-0.793-1.769-1.771
				s0.791-1.769,1.769-1.769l0,0l51.132,0.029c0.977,0,1.769,0.792,1.769,1.771C341.97,244.987,341.178,245.779,340.201,245.779z"/>
		</g>
		<g>
			<g>
				<path fill="#5BB9E9" d="M303.701,156.307c2.438,0,4.566-1.516,5.704-3.766c1.187,1.789,3.064,2.947,5.18,2.947h35.976
					c3.41,0,6.185-3.165,6.185-7.052c0-3.888-2.774-7.051-6.185-7.051h-0.257c1.032-3.72,0.196-7.908-2.28-10.73
					c-0.451-0.512-0.94-0.966-1.464-1.356c-0.771-0.604-1.615-1.05-2.505-1.32c-0.742-0.249-1.514-0.395-2.297-0.423
					c-0.633-1.914-1.623-3.669-2.896-5.121c-2.155-2.457-5.015-3.948-8.05-4.196c-2.699-0.221-5.383,0.545-7.651,2.169
					c-0.591-0.581-1.222-1.092-1.887-1.531c-0.884-0.689-1.896-1.188-2.998-1.437c-1.085-0.337-2.214-0.512-3.366-0.512
					c-3.472,0-6.754,1.605-9.141,4.439c-0.981-0.592-2.087-0.958-3.252-1.047c-0.617-0.103-1.241-0.16-1.863-0.16
					c-5.314,0-9.975,3.692-11.844,9.284c-4.801,0.155-8.701,4.479-9.012,9.904c-0.02,0.064-0.032,0.132-0.041,0.203
					c-0.047,0.354-0.068,0.709-0.068,1.058c0,0.261,0.015,0.519,0.039,0.776h-0.947c-3.41,0-6.184,3.163-6.184,7.051
					c0,3.887,2.773,7.052,6.184,7.052h21.846c0.027,0,0.051-0.007,0.076-0.01C301.604,156.01,302.624,156.307,303.701,156.307z"/>
			</g>
			<g>
				<g>
					<path fill="#FFFFFF" d="M317.01,124.113c-0.607,0.011-1.099,0.591-1.084,1.274c0,0.049,0,0.098,0,0.144
						c0,5.125-3.604,9.336-8.101,9.454c-0.037-0.117-0.071-0.235-0.113-0.351c-1.031-2.974-3.017-5.311-5.591-6.582
						c-0.557-0.274-1.206,0.017-1.448,0.654c-0.062,0.163-0.089,0.331-0.089,0.498c0,0.487,0.248,0.947,0.662,1.154
						c2.034,1.003,3.602,2.851,4.417,5.2c0.814,2.349,0.778,4.919-0.101,7.238c-0.242,0.636,0.012,1.374,0.572,1.65
						c0.557,0.278,1.206-0.015,1.448-0.652c0.769-2.022,1.026-4.196,0.779-6.323c5.464-0.431,9.769-5.641,9.769-11.94
						c0-0.059,0-0.122-0.002-0.183C318.12,124.656,317.617,124.103,317.01,124.113z"/>
					<path fill="#FFFFFF" d="M350.561,141.386h-0.257c1.032-3.72,0.196-7.908-2.28-10.73c-0.451-0.512-0.94-0.966-1.464-1.356
						c-0.771-0.604-1.615-1.05-2.505-1.32c-0.742-0.249-1.514-0.395-2.297-0.423c-0.633-1.914-1.623-3.669-2.896-5.121
						c-2.155-2.457-5.015-3.948-8.05-4.196c-2.699-0.221-5.383,0.545-7.651,2.169c-0.591-0.581-1.222-1.092-1.887-1.531
						c-0.884-0.689-1.896-1.188-2.998-1.437c-1.085-0.337-2.214-0.512-3.366-0.512c-3.472,0-6.754,1.605-9.141,4.439
						c-0.981-0.592-2.087-0.958-3.252-1.047c-0.617-0.103-1.241-0.16-1.863-0.16c-5.314,0-9.975,3.692-11.844,9.284
						c-4.801,0.155-8.701,4.479-9.012,9.904c-0.02,0.064-0.032,0.132-0.041,0.203c-0.047,0.354-0.068,0.709-0.068,1.058
						c0,0.261,0.015,0.519,0.039,0.776h-0.947c-3.41,0-6.184,3.163-6.184,7.051c0,3.887,2.773,7.052,6.184,7.052h21.846
						c0.027,0,0.051-0.007,0.076-0.01c0.9,0.531,1.921,0.828,2.998,0.828c2.438,0,4.566-1.516,5.704-3.766
						c1.187,1.789,3.064,2.947,5.18,2.947h35.976c3.41,0,6.185-3.165,6.185-7.052C356.745,144.549,353.971,141.386,350.561,141.386z
						 M350.561,152.976h-35.976c-2.365,0-4.285-2.193-4.285-4.89c0-2.697,1.92-4.889,4.285-4.889h3.458
						c0.479,2.825,2.381,5.203,4.998,5.864c0.592,0.151,1.181-0.278,1.313-0.954c0.13-0.678-0.244-1.349-0.839-1.501
						c-2.324-0.586-3.798-3.225-3.285-5.875c0.028-0.142,0.032-0.28,0.018-0.418c0.593-3.507,3.302-6.164,6.546-6.164
						c3.456,0,6.307,3.016,6.634,6.861c-0.119-0.007-0.239-0.012-0.361-0.012c-3.306,0-5.994,3.066-5.994,6.834
						c0,0.696,0.494,1.258,1.102,1.258c0.609,0,1.102-0.562,1.102-1.258c0-2.382,1.702-4.322,3.791-4.322s3.79,1.94,3.79,4.322
						c0,0.696,0.493,1.258,1.104,1.258c0.609,0,1.102-0.562,1.102-1.258c0-2.709-1.391-5.057-3.4-6.161
						c-0.039-5.541-4-10.035-8.867-10.035c-4.574,0-8.349,3.97-8.819,9.048h-3.39c-3.58,0-6.49,3.32-6.49,7.401
						c0,0.149,0.006,0.302,0.012,0.447c-0.015,0.085-0.024,0.175-0.024,0.267c0,2.753-1.964,4.994-4.381,4.994
						c-2.414,0-4.379-2.241-4.379-4.994c0-0.694-0.492-1.257-1.1-1.257c-0.609,0-1.104,0.563-1.104,1.257
						c0,1.542,0.412,2.981,1.114,4.176h-2.523c-2.363,0-4.286-2.193-4.286-4.89c0-0.881,0.208-1.706,0.567-2.421
						c0.074-0.099,0.141-0.212,0.191-0.338c0.003-0.008,0.005-0.017,0.007-0.023c0.774-1.272,2.062-2.106,3.521-2.106h4.662
						c0.607,0,1.101-0.563,1.101-1.257s-0.493-1.256-1.101-1.256h-4.662c-1.1,0-2.133,0.313-3.039,0.864
						c-0.066-0.627-0.201-1.247-0.41-1.849c-0.634-1.826-1.853-3.26-3.431-4.041c-0.559-0.276-1.208,0.019-1.45,0.653
						c-0.062,0.162-0.09,0.333-0.09,0.499c0,0.485,0.246,0.948,0.663,1.153c1.04,0.515,1.844,1.459,2.258,2.659
						c0.396,1.143,0.395,2.384,0.009,3.521c-0.633,1.142-1.001,2.494-1.001,3.941c0,1.873,0.614,3.585,1.624,4.89h-12.062
						c-2.194,0-3.98-2.036-3.98-4.539c0-2.502,1.786-4.538,3.98-4.538h1.597c0.913,2.072,2.673,3.623,4.833,3.98
						c0.604,0.101,1.161-0.377,1.25-1.063c0.088-0.689-0.332-1.324-0.936-1.425c-1.456-0.239-2.635-1.307-3.223-2.724
						c0.002-0.126-0.011-0.253-0.042-0.375c-0.187-0.735-0.28-1.49-0.28-2.247c0-3.966,2.512-7.271,5.818-7.96
						c0.19,0.067,0.396,0.077,0.601,0.017c0.219-0.063,0.435-0.113,0.651-0.149l0.027-0.001c0.139,0,0.282,0.005,0.44,0.018
						c0.165,0.013,0.321-0.021,0.469-0.085c2.608,0.043,4.982,2.055,5.671,5.07c0.156,0.673,0.755,1.073,1.346,0.898
						c0.588-0.174,0.943-0.857,0.787-1.532c-0.838-3.675-3.508-6.262-6.6-6.832c1.713-4.136,5.349-6.815,9.463-6.815
						c0.264,0,0.523,0.015,0.784,0.037c0.14,0.067,0.292,0.105,0.451,0.102c0.133-0.002,0.266,0.002,0.4,0.012
						c0.933,0.165,1.837,0.474,2.701,0.925c1.73,1.163,2.903,3.295,2.938,5.747c0.006,0.692,0.507,1.247,1.116,1.238
						c0.607-0.011,1.104-0.578,1.084-1.276c-0.034-2.603-1.009-4.941-2.544-6.604c1.948-2.182,4.563-3.413,7.324-3.413
						c0.712,0,1.412,0.079,2.094,0.238c0.117,0.072,0.25,0.121,0.392,0.139c0.106,0.017,0.213,0.034,0.318,0.055
						c0.845,0.267,1.653,0.653,2.415,1.151c1.717,1.397,2.732,3.793,2.463,6.342c-0.07,0.69,0.359,1.314,0.963,1.397
						c0.604,0.082,1.152-0.408,1.225-1.098c0.188-1.758-0.072-3.46-0.675-4.962c4.095-3.103,9.687-2.496,13.199,1.508
						c0.968,1.104,1.733,2.423,2.258,3.857c-1.457,0.504-2.763,1.465-3.781,2.81c-0.182,0.238-0.27,0.53-0.27,0.823
						c0,0.352,0.129,0.701,0.381,0.95c0.46,0.452,1.157,0.398,1.553-0.128c1.587-2.088,4.051-2.804,6.231-2.05
						c0.557,0.208,1.089,0.497,1.585,0.857c0.199,0.151,0.392,0.317,0.578,0.5c0.062,0.061,0.127,0.111,0.198,0.155
						c0.147,0.141,0.291,0.288,0.426,0.446c2.063,2.35,2.637,5.938,1.491,8.952h-3.44c-0.609,0-1.101,0.562-1.101,1.256
						c0,0.695,0.491,1.257,1.101,1.257h4.127h1.09h0.83c2.193,0,3.979,2.036,3.979,4.538
						C354.54,150.939,352.754,152.976,350.561,152.976z"/>
				</g>
				<g>
					<g>
						<path fill="#0072CD" d="M303.701,158.078c-1.183,0-2.356-0.283-3.43-0.819h-21.49c-4.385,0-7.954-3.959-7.954-8.822
							c0-4.557,3.134-8.319,7.137-8.774c0.011-0.114,0.023-0.228,0.041-0.343c0.008-0.077,0.021-0.157,0.038-0.236
							c0.404-5.873,4.375-10.51,9.495-11.294c2.639-6.451,8.593-10.336,15.271-9.213c0.837,0.057,1.707,0.266,2.564,0.616
							c3.602-3.548,8.809-4.88,13.426-3.443c1.202,0.267,2.447,0.86,3.565,1.73c0.312,0.206,0.64,0.447,0.971,0.717
							c2.334-1.338,4.966-1.932,7.622-1.724c3.495,0.288,6.774,1.989,9.237,4.794c1.169,1.339,2.143,2.926,2.842,4.642
							c0.534,0.087,1.061,0.218,1.58,0.392c1.052,0.318,2.087,0.865,3.034,1.606c0.595,0.444,1.177,0.983,1.702,1.579
							c2.424,2.763,3.522,6.598,3.055,10.37c3.499,0.926,6.107,4.422,6.107,8.581c0,4.863-3.568,8.822-7.955,8.822h-35.976
							c-1.817,0-3.576-0.676-5-1.878C308.041,157.084,305.933,158.078,303.701,158.078z M300.703,153.711
							c0.314,0,0.625,0.081,0.896,0.243c2.162,1.269,4.97,0.27,6.226-2.211c0.284-0.563,0.847-0.933,1.478-0.969
							c0.642-0.03,1.229,0.263,1.576,0.789c0.911,1.368,2.258,2.155,3.706,2.155h35.976c2.434,0,4.416-2.369,4.416-5.282
							c0-2.912-1.982-5.281-4.416-5.281h-0.257c-0.552,0-1.074-0.259-1.409-0.699c-0.334-0.44-0.443-1.012-0.295-1.544
							c0.885-3.192,0.139-6.759-1.908-9.092c-0.361-0.411-0.764-0.785-1.193-1.104c-0.631-0.496-1.278-0.838-1.956-1.044
							c-0.643-0.215-1.247-0.327-1.849-0.349c-0.739-0.028-1.384-0.511-1.614-1.212c-0.561-1.688-1.441-3.248-2.547-4.512
							c-1.851-2.11-4.288-3.388-6.865-3.597c-2.282-0.193-4.545,0.46-6.476,1.843c-0.699,0.5-1.658,0.425-2.271-0.178
							c-0.501-0.493-1.049-0.937-1.624-1.319c-0.813-0.625-1.586-0.997-2.412-1.184c-1.057-0.324-2.013-0.468-2.975-0.468
							c-2.952,0-5.717,1.354-7.787,3.812c-0.56,0.664-1.52,0.822-2.267,0.373c-0.77-0.461-1.602-0.732-2.475-0.797
							c-0.694-0.111-1.224-0.156-1.728-0.156c-4.534,0-8.524,3.169-10.165,8.077c-0.233,0.701-0.881,1.183-1.621,1.206
							c-3.839,0.123-7.046,3.742-7.303,8.237c-0.007,0.136-0.03,0.272-0.069,0.404c-0.021,0.205-0.036,0.482-0.036,0.755
							c0,0.208,0.011,0.416,0.03,0.622c0.043,0.494-0.124,0.984-0.457,1.351c-0.336,0.366-0.811,0.573-1.305,0.573h-0.947
							c-2.434,0-4.415,2.369-4.415,5.281c0,2.913,1.981,5.282,4.415,5.282h21.751C300.601,153.713,300.65,153.711,300.703,153.711z"
							/>
					</g>
				</g>
			</g>
		</g>
		<g>
			<path fill="#0072CD" d="M359.213,285.161h-24.756c-11.061,0-20.061-8.999-20.061-20.063v-67.94c0-4.688-3.815-8.501-8.503-8.501
				c-6.64,0-12.043-5.404-12.043-12.044v-21.125c0-0.978,0.79-1.77,1.77-1.77c0.979,0,1.771,0.792,1.771,1.77v21.125
				c0,4.689,3.813,8.503,8.503,8.503c6.641,0,12.043,5.401,12.043,12.042v67.94c0,9.111,7.409,16.523,16.521,16.523h24.756
				c10.321,0,18.717-8.396,18.717-18.718v-57.705c0-0.977,0.792-1.771,1.77-1.771c0.979,0,1.771,0.794,1.771,1.771v57.705
				C381.47,275.178,371.486,285.161,359.213,285.161z"/>
		</g>
		<g>
			<path fill="#0072CD" d="M380.843,217.764h-2.288c-6.884,0-12.485-5.599-12.485-12.481c0-6.884,5.602-12.484,12.485-12.484h2.288
				c6.886,0,12.485,5.601,12.485,12.484C393.328,212.165,387.729,217.764,380.843,217.764z M378.555,196.337
				c-4.932,0-8.945,4.012-8.945,8.945c0,4.93,4.014,8.941,8.945,8.941h2.288c4.931,0,8.946-4.012,8.946-8.941
				c0-4.934-4.016-8.945-8.946-8.945H378.555z"/>
		</g>
	</g>
	<g>
		<g>
			<rect x="77.231" y="395.536" fill="#0072CD" width="47.785" height="7.078"/>
		</g>
		<g>
			<rect x="38.296" y="395.536" fill="#0072CD" width="26.547" height="7.078"/>
		</g>
		<g>
			<rect x="563.926" y="395.536" fill="#0072CD" width="26.546" height="7.078"/>
		</g>
		<g>
			<rect x="133.865" y="395.536" fill="#0072CD" width="407.053" height="7.078"/>
		</g>
	</g>
	<g>
		<g>
			<path fill="#0072CD" d="M179.746,250.145h-1.768c-0.979,0-1.771-0.794-1.771-1.771c0-0.978,0.791-1.771,1.771-1.771h1.768
				c0.98,0,1.771,0.794,1.771,1.771C181.518,249.351,180.727,250.145,179.746,250.145z"/>
		</g>
		<g>
			<path fill="#0072CD" d="M170.758,250.145h-3.609c-0.978,0-1.771-0.794-1.771-1.771c0-0.978,0.793-1.771,1.771-1.771h3.609
				c0.978,0,1.771,0.794,1.771,1.771C172.529,249.351,171.735,250.145,170.758,250.145z M159.929,250.145h-3.61
				c-0.977,0-1.771-0.794-1.771-1.771c0-0.978,0.795-1.771,1.771-1.771h3.61c0.978,0,1.771,0.794,1.771,1.771
				C161.699,249.351,160.906,250.145,159.929,250.145z M149.099,250.145h-3.609c-0.978,0-1.771-0.794-1.771-1.771
				c0-0.978,0.793-1.771,1.771-1.771h3.609c0.978,0,1.769,0.794,1.769,1.771C150.867,249.351,150.076,250.145,149.099,250.145z"/>
		</g>
		<g>
			<path fill="#0072CD" d="M138.27,250.145h-1.771c-0.977,0-1.769-0.794-1.769-1.771c0-0.978,0.792-1.771,1.769-1.771h1.771
				c0.977,0,1.768,0.794,1.768,1.771C140.037,249.351,139.246,250.145,138.27,250.145z"/>
		</g>
	</g>
	<g>
		<path fill="#0072CD" d="M440.052,284.408c-4.096,0-7.428-3.332-7.428-7.43c0-4.093,3.332-7.423,7.428-7.423
			c4.095,0,7.425,3.33,7.425,7.423C447.477,281.076,444.146,284.408,440.052,284.408z M440.052,273.096
			c-2.144,0-3.888,1.74-3.888,3.883c0,2.146,1.744,3.891,3.888,3.891c2.143,0,3.886-1.745,3.886-3.891
			C443.938,274.836,442.194,273.096,440.052,273.096z"/>
	</g>
	<g>
		<path fill="#0072CD" d="M216.792,148.112c-4.096,0-7.428-3.332-7.428-7.427s3.332-7.427,7.428-7.427
			c4.095,0,7.425,3.332,7.425,7.427S220.887,148.112,216.792,148.112z M216.792,136.798c-2.144,0-3.889,1.744-3.889,3.888
			c0,2.143,1.745,3.887,3.889,3.887c2.143,0,3.886-1.744,3.886-3.887C220.678,138.542,218.935,136.798,216.792,136.798z"/>
	</g>
	<g>
		<g>
			<rect x="223.04" y="265.676" fill="#EAF5FE" width="138.868" height="131.628"/>
		</g>
		<g>
			<rect x="361.908" y="265.676" fill="#92D0EF" width="50.083" height="131.628"/>
		</g>
		<g>
			<path fill="#0072CD" d="M361.908,399.073H223.04c-0.978,0-1.771-0.789-1.771-1.77V265.676c0-0.977,0.793-1.768,1.771-1.768
				h138.868c0.979,0,1.769,0.791,1.769,1.768v131.628C363.677,398.284,362.887,399.073,361.908,399.073z M224.81,395.536h135.329
				V267.447H224.81V395.536z"/>
		</g>
		<g>
			<path fill="#0072CD" d="M411.991,399.073h-50.083c-0.979,0-1.77-0.789-1.77-1.77V265.676c0-0.977,0.79-1.768,1.77-1.768h50.083
				c0.978,0,1.771,0.791,1.771,1.768v131.628C413.762,398.284,412.969,399.073,411.991,399.073z M363.677,395.536h46.546V267.447
				h-46.546V395.536z"/>
		</g>
		<g>
			<polygon fill="#FFFFFF" points="338.296,319.582 195.32,319.582 222.931,265.676 361.578,265.676 			"/>
		</g>
		<g>
			<polygon fill="#FFFFFF" points="433.448,314.567 382.981,314.567 362.066,265.676 412.532,265.676 			"/>
		</g>
		<g>
			<path fill="#0072CD" d="M338.296,321.353H195.32c-0.616,0-1.189-0.321-1.513-0.848c-0.32-0.525-0.344-1.18-0.063-1.729
				l27.611-53.905c0.304-0.592,0.912-0.962,1.575-0.962h138.647c0.597,0,1.152,0.297,1.479,0.797
				c0.326,0.496,0.383,1.128,0.145,1.673l-23.28,53.907C339.641,320.932,339.001,321.353,338.296,321.353z M198.213,317.813h138.92
				l21.753-50.366H224.014L198.213,317.813z"/>
		</g>
		<g>
			<path fill="#0072CD" d="M433.484,316.338c-0.013,0-0.026-0.003-0.036,0h-50.467c-0.708,0-1.35-0.424-1.628-1.073l-20.915-48.892
				c-0.233-0.547-0.176-1.176,0.151-1.672c0.328-0.496,0.884-0.793,1.477-0.793h50.466c0.71,0,1.35,0.421,1.63,1.071l20.785,48.593
				c0.192,0.284,0.306,0.627,0.306,0.995C435.253,315.546,434.461,316.338,433.484,316.338z M384.146,312.798h46.619l-19.4-45.351
				H364.75L384.146,312.798z"/>
		</g>
	</g>
	<g>
		<g>
			<g>
				<path fill="#5BB9E9" d="M445.631,158.055l2.49-2.49l4.136,4.135c0.827,0.831,2.115,1.524,2.844,0.797l3.655-3.654l-2.821-2.82
					c-0.829-0.829-0.558-1.457,0.171-2.184l3.953-3.955c0.727-0.729,1.426-1.069,2.258-0.241l2.821,2.82l3.142-3.144
					c0.729-0.729,0.543-2.525-0.287-3.355l-4.134-4.135l1.98-1.978c0.728-0.729,0.883-1.964,0.054-2.793l-4.502-4.502
					c-0.828-0.828-2.057-0.665-2.784,0.063l-1.979,1.98l-3.643-3.643c-0.827-0.829-2.269-0.656-2.995,0.072l-3.145,3.144
					l1.963,1.963c0.828,0.827,1.344,2.387,0.617,3.113l-3.954,3.956c-0.728,0.725-2.214,0.139-3.044-0.689l-1.961-1.963
					l-3.655,3.653c-0.729,0.729-0.391,1.661,0.438,2.488l3.643,3.64l-2.489,2.489c-0.73,0.728-0.809,1.872,0.021,2.699l4.502,4.504
					C443.756,158.854,444.904,158.781,445.631,158.055z"/>
			</g>
		</g>
		<g>
			<g>
				<path fill="#FFFFFF" d="M442.244,126.729l-2.528-2.53l4.236-4.236c0.828-0.826,1.79-2.305,1.063-3.034l-3.849-3.847l-3.05,3.049
					c-0.825,0.83-1.071,0.563-1.801-0.167l-3.954-3.949c-0.728-0.73-1.356-1.34-0.526-2.166l3.05-3.051l-3.047-3.046
					c-0.728-0.726-2.526-0.084-3.354,0.743l-4.237,4.236l-2.208-2.208c-0.728-0.729-2.096-1.222-2.925-0.392l-4.503,4.503
					c-0.828,0.829-0.55,2.412,0.178,3.139l2.209,2.211l-3.521,3.519c-0.827,0.829-0.738,1.893-0.009,2.619l3.045,3.046l1.814-1.815
					c0.827-0.827,2.671-1.432,3.4-0.706l3.954,3.955c0.728,0.727-0.242,2.208-1.069,3.035l-1.815,1.813l3.847,3.849
					c0.729,0.729,1.472,0.502,2.302-0.326l3.521-3.522l2.527,2.528c0.727,0.728,1.991,0.686,2.82-0.142l4.502-4.503
					C443.146,128.504,442.974,127.454,442.244,126.729z"/>
			</g>
		</g>
		<g>
			<g>
				<path fill="#0072CD" d="M454.335,162.573c-1.546,0-2.847-1.136-3.332-1.623l-2.882-2.881l-1.237,1.236
					c-0.701,0.703-1.62,1.088-2.587,1.088l0,0c-0.971,0-1.901-0.396-2.622-1.116l-4.504-4.502c-0.719-0.719-1.112-1.648-1.112-2.615
					s0.39-1.887,1.095-2.59l1.237-1.236l-2.392-2.386c-0.89-0.891-1.355-1.872-1.355-2.84c0-0.809,0.315-1.553,0.92-2.154
					l3.651-3.653c0.332-0.33,0.781-0.518,1.252-0.518l0,0c0.471,0,0.92,0.188,1.251,0.518l1.963,1.964
					c0.246,0.247,0.559,0.404,0.76,0.469l3.55-3.551c-0.043-0.209-0.197-0.558-0.433-0.796l-1.963-1.963
					c-0.331-0.331-0.52-0.781-0.52-1.251c0-0.468,0.188-0.919,0.52-1.251l3.145-3.144c1.409-1.413,4.082-1.493,5.5-0.071
					l2.389,2.389l0.728-0.728c1.413-1.419,3.875-1.477,5.287-0.064l4.503,4.502c1.468,1.469,1.443,3.795-0.056,5.296l-0.728,0.727
					l2.881,2.885c0.787,0.784,1.261,2.001,1.262,3.25c0,1.054-0.346,1.979-0.975,2.606l-3.145,3.144
					c-0.66,0.665-1.836,0.665-2.502,0l-2.579-2.577l-3.87,3.875l2.572,2.58c0.691,0.69,0.691,1.812,0,2.502l-3.652,3.653
					C455.821,162.278,455.105,162.573,454.335,162.573z M448.121,153.796c0.453,0,0.904,0.174,1.251,0.52l4.136,4.135
					c0.244,0.243,0.478,0.401,0.644,0.491l2.103-2.1l-1.57-1.569c-0.684-0.681-1.03-1.434-1.03-2.235
					c0-1.125,0.688-1.938,1.204-2.453l3.95-3.954c0.532-0.53,1.375-1.241,2.54-1.241c0.554,0,1.391,0.174,2.218,0.999l1.572,1.572
					l1.888-1.893c0-0.103-0.115-0.685-0.281-0.852l-4.137-4.137c-0.334-0.332-0.518-0.782-0.518-1.251
					c0-0.47,0.186-0.92,0.518-1.251l1.978-1.978l0,0c0,0,0.17-0.178,0.057-0.29l-4.503-4.503c-0.121-0.033-0.211-0.005-0.279,0.063
					l-1.98,1.981c-0.69,0.69-1.812,0.69-2.502,0l-3.643-3.642c-0.318-0.038-0.455,0.037-0.492,0.071l-1.892,1.893l0.71,0.711
					c1.506,1.503,2.11,4.118,0.617,5.615l-3.955,3.956c-0.557,0.555-1.292,0.847-2.129,0.847c-1.388,0-2.673-0.79-3.415-1.532
					l-0.712-0.714l-2.165,2.166c0.05,0.062,0.114,0.137,0.199,0.223l3.643,3.639c0.331,0.332,0.517,0.783,0.517,1.251
					c0,0.471-0.186,0.92-0.517,1.253l-2.489,2.487l0.019,0.197l4.504,4.502l0.205,0.03l2.487-2.488
					C447.216,153.97,447.67,153.796,448.121,153.796z"/>
			</g>
		</g>
		<g>
			<g>
				<path fill="#0072CD" d="M427.56,137.507c-0.55,0-1.372-0.165-2.164-0.956l-3.849-3.851c-0.334-0.331-0.519-0.782-0.519-1.251
					c0-0.471,0.187-0.919,0.521-1.252l1.813-1.813c0.314-0.315,0.558-0.659,0.694-0.906l-3.377-3.379
					c-0.369,0.047-0.874,0.278-1.101,0.504l-1.812,1.814c-0.334,0.332-0.783,0.52-1.254,0.52l0,0c-0.468,0-0.919-0.188-1.248-0.52
					l-3.05-3.046c-1.456-1.457-1.452-3.658,0.011-5.119l2.27-2.27l-0.961-0.96c-0.748-0.75-1.199-1.886-1.199-3.033
					c0-1.022,0.363-1.948,1.026-2.609l4.501-4.5c1.365-1.369,3.903-1.133,5.427,0.389l0.957,0.959l2.985-2.985
					c0.943-0.943,2.428-1.577,3.696-1.577c1.093,0,1.777,0.452,2.157,0.83l3.05,3.049c0.69,0.692,0.69,1.813,0,2.503l-2.617,2.619
					c0.025,0.023,0.047,0.047,0.07,0.066l3.711,3.711l2.615-2.615c0.692-0.69,1.812-0.69,2.502,0l3.849,3.847
					c1.34,1.343,0.909,3.566-1.063,5.538l-2.985,2.984l1.279,1.278c1.499,1.5,1.531,3.648,0.072,5.106l-4.503,4.504
					c-0.76,0.759-1.75,1.176-2.789,1.176l0,0c-0.967,0-1.867-0.368-2.534-1.033l-1.276-1.278l-2.27,2.271
					C429.331,137.087,428.469,137.507,427.56,137.507z M425.303,131.451l2.328,2.329c0.021-0.018,0.043-0.039,0.064-0.062
					l3.518-3.521c0.667-0.663,1.842-0.663,2.505,0l2.527,2.528c0.066-0.003,0.19-0.012,0.319-0.143l4.501-4.501
					c0.03,0.026,0.002-0.026-0.07-0.104l-2.53-2.527c-0.69-0.692-0.69-1.813,0-2.504l4.236-4.235
					c0.314-0.315,0.557-0.659,0.691-0.903l-2.227-2.227l-1.797,1.799c-0.479,0.478-1.15,1.032-2.085,1.032
					c-1.023,0-1.675-0.65-2.194-1.173l-3.979-3.976c-0.471-0.473-0.974-0.974-1.244-1.65c-0.42-1.046-0.157-2.146,0.718-3.021
					l1.799-1.797l-1.58-1.577c-0.348,0.055-0.834,0.293-1.067,0.525l-4.237,4.237c-0.69,0.69-1.811,0.69-2.502,0l-2.208-2.209
					c-0.154-0.157-0.378-0.264-0.516-0.296l-4.408,4.407c-0.034,0.104,0.054,0.506,0.173,0.634l2.214,2.213
					c0.688,0.691,0.688,1.813-0.002,2.502l-3.521,3.521l1.812,1.884l0.534-0.538c0.929-0.928,2.417-1.551,3.704-1.551
					c1.121,0,1.814,0.459,2.198,0.842l3.957,3.958c1.337,1.335,0.905,3.56-1.069,5.537L425.303,131.451z"/>
			</g>
		</g>
		<g>
			<path fill="#0072CD" d="M453.043,145.994h-7.006c-0.977,0-1.769-0.791-1.769-1.768c0-0.979,0.792-1.771,1.769-1.771h2.702
				l-13.759-13.604c-0.692-0.688-0.698-1.808-0.012-2.502c0.687-0.697,1.807-0.702,2.502-0.015l16.818,16.633
				c0.513,0.505,0.664,1.266,0.393,1.931C454.41,145.561,453.762,145.994,453.043,145.994z"/>
		</g>
		<g>
			<path fill="#0072CD" d="M453.117,145.994c-0.978,0-1.77-0.791-1.77-1.768v-7.081c0-0.979,0.792-1.77,1.77-1.77
				c0.979,0,1.771,0.791,1.771,1.77v7.081C454.888,145.203,454.096,145.994,453.117,145.994z"/>
		</g>
	</g>
	<g>
		<g>
			
				<rect x="358.26" y="196.618" transform="matrix(0.7974 0.6034 -0.6034 0.7974 194.3586 -182.1827)" fill="#0072CD" width="20.53" height="3.541"/>
		</g>
		<g>
			
				<rect x="366.754" y="92.554" transform="matrix(0.6035 0.7974 -0.7974 0.6035 228.1129 -253.0833)" fill="#0072CD" width="3.541" height="20.531"/>
		</g>
		<g>
			<g>
				
					<rect x="343.563" y="77.426" transform="matrix(0.8919 0.4522 -0.4522 0.8919 76.9184 -146.6861)" fill="#0072CD" width="3.54" height="20.295"/>
			</g>
			<g>
				
					<rect x="276.589" y="85.804" transform="matrix(0.4519 0.8921 -0.8921 0.4519 235.2744 -207.788)" fill="#0072CD" width="20.295" height="3.54"/>
			</g>
		</g>
		<g>
			
				<rect x="373.17" y="172.727" transform="matrix(0.9277 0.3733 -0.3733 0.9277 92.8463 -130.4837)" fill="#0072CD" width="20.351" height="3.539"/>
		</g>
		<g>
			
				<rect x="379.805" y="116.538" transform="matrix(0.3729 0.9279 -0.9279 0.3729 356.8723 -274.5913)" fill="#0072CD" width="3.538" height="20.347"/>
		</g>
		<g>
			<rect x="373.905" y="148.54" fill="#0072CD" width="19.468" height="3.539"/>
		</g>
		<g>
			
				<rect x="259.532" y="188.125" transform="matrix(0.603 0.7977 -0.7977 0.603 262.001 -129.6913)" fill="#0072CD" width="3.54" height="20.527"/>
		</g>
		<g>
			
				<rect x="251.038" y="101.049" transform="matrix(0.7974 0.6035 -0.6035 0.7974 115.0019 -136.8615)" fill="#0072CD" width="20.528" height="3.54"/>
		</g>
		<g>
			
				<rect x="244.711" y="164.323" transform="matrix(0.3727 0.928 -0.928 0.3727 316.55 -119.2589)" fill="#0072CD" width="3.54" height="20.347"/>
		</g>
		<g>
			
				<rect x="238.077" y="124.943" transform="matrix(0.9278 0.3732 -0.3732 0.9278 65.2197 -83.4881)" fill="#0072CD" width="20.349" height="3.538"/>
		</g>
		<g>
			<rect x="235.861" y="148.54" fill="#0072CD" width="19.467" height="3.539"/>
		</g>
		<g>
			<rect x="313.731" y="72.438" fill="#0072CD" width="3.541" height="19.468"/>
		</g>
	</g>
	<g>
		<g>
			<g>
				<g>
					<g>
						<path fill-rule="evenodd" clip-rule="evenodd" fill="#FFFFFF" d="M414.588,236.723l16.807-55.508
							c1.578-5.216-1.185-10.663-6.167-12.171c-4.817-1.458-9.945,1.294-11.709,6.183l-16.966,56.035L414.588,236.723z"/>
					</g>
				</g>
			</g>
		</g>
		<g>
			<g>
				<g>
					<g>
						<path fill="#0072CD" d="M415.979,241.282l-5.081-1.538l17.956-59.299c1.149-3.805-0.821-7.778-4.396-8.86
							c-3.442-1.048-7.149,0.954-8.442,4.543l-18.069,59.693l-5.082-1.537l18.112-59.827c2.299-6.377,8.88-9.816,15.02-7.953
							c6.377,1.929,9.938,8.873,7.938,15.479L415.979,241.282z"/>
					</g>
				</g>
			</g>
		</g>
		<g>
			<g>
				<g>
					<g>
						<g>
							<polygon fill-rule="evenodd" clip-rule="evenodd" fill="#5BB9E9" points="409.767,209.228 407.333,217.088 428.4,223.612 
								426.262,218.636 430.837,215.753 							"/>
						</g>
					</g>
				</g>
			</g>
		</g>
		<g>
			<g>
				<g>
					<g>
						<g>
							<path fill="#0072CD" d="M428.4,225.383c-0.173,0-0.35-0.024-0.523-0.078l-21.067-6.525c-0.933-0.289-1.456-1.281-1.168-2.215
								l2.434-7.86c0.14-0.447,0.451-0.823,0.866-1.041s0.902-0.264,1.35-0.124l21.069,6.522c0.659,0.206,1.141,0.774,1.229,1.461
								c0.093,0.684-0.226,1.357-0.81,1.729l-3.294,2.076l1.542,3.588c0.271,0.633,0.152,1.369-0.313,1.883
								C429.376,225.176,428.895,225.383,428.4,225.383z M409.547,215.922l15.715,4.865l-0.625-1.454
								c-0.345-0.8-0.054-1.729,0.682-2.194l1.322-0.834l-15.708-4.863L409.547,215.922z"/>
						</g>
					</g>
				</g>
			</g>
		</g>
		<g>
			<path fill="#0072CD" d="M412.967,237.803c-0.16,0-0.326-0.022-0.487-0.067l-15.486-4.424c-0.938-0.27-1.483-1.251-1.214-2.188
				c0.267-0.942,1.244-1.479,2.188-1.218l15.484,4.425c0.939,0.268,1.485,1.249,1.216,2.188
				C414.444,237.298,413.736,237.803,412.967,237.803z"/>
		</g>
	</g>
	<g>
		<g>
			<g>
				<g>
					<path fill-rule="evenodd" clip-rule="evenodd" fill="#FFFFFF" d="M166.952,155.379c21.228,0,38.438,14.846,38.438,33.16
						c0,11.002-6.204,20.742-15.757,26.778l5.414,13.692l-13.268-9.862c-4.563,1.648-9.574,2.56-14.828,2.56
						c-21.23,0-38.439-14.849-38.439-33.168C128.513,170.225,145.722,155.379,166.952,155.379z"/>
				</g>
			</g>
		</g>
		<g>
			<g>
				<g>
					<path fill="#0072CD" d="M195.048,230.78c-0.372,0-0.741-0.114-1.056-0.35l-12.516-9.303c-4.625,1.559-9.508,2.348-14.524,2.348
						c-22.171,0-40.21-15.671-40.21-34.937c0-19.26,18.039-34.929,40.21-34.929c22.17,0,40.209,15.669,40.209,34.929
						c0,10.697-5.712,20.865-15.353,27.466l4.887,12.354c0.29,0.737,0.058,1.576-0.571,2.057
						C195.808,230.657,195.427,230.78,195.048,230.78z M181.78,217.376c0.375,0,0.747,0.12,1.057,0.349l8.28,6.157l-3.128-7.912
						c-0.313-0.792-0.02-1.694,0.699-2.149c9.35-5.907,14.932-15.357,14.932-25.281c0-17.308-16.45-31.39-36.668-31.39
						c-20.222,0-36.671,14.082-36.671,31.39c0,17.314,16.449,31.396,36.671,31.396c4.933,0,9.72-0.824,14.228-2.452
						C181.374,217.41,181.578,217.376,181.78,217.376z"/>
				</g>
			</g>
		</g>
		<g>
			<g>
				<g>
					<g>
						<path fill="#5BB9E9" d="M162.775,195.058l-0.051-1.342c-0.157-2.638,0.722-5.326,3.047-8.114
							c1.654-1.964,2.998-3.621,2.998-5.377c0-1.81-1.188-2.998-3.772-3.101c-1.704,0-3.775,0.62-5.118,1.551l-1.755-5.633
							c1.86-1.087,4.961-2.12,8.631-2.12c6.822,0,9.923,3.772,9.923,8.063c0,3.928-2.43,6.512-4.393,8.682
							c-1.911,2.119-2.688,4.134-2.637,6.461v0.93H162.775z M161.43,202.19c0-2.739,1.914-4.703,4.603-4.703
							c2.791,0,4.598,1.964,4.649,4.703c0,2.688-1.858,4.702-4.649,4.702C163.293,206.893,161.43,204.879,161.43,202.19z"/>
					</g>
				</g>
			</g>
		</g>
	</g>
	<g>
		<g>
			<g>
				<path fill="#0072CD" d="M457.694,234.889c0,0-0.235-0.277-0.588-0.698c-0.331-0.413-0.756-0.967-1.163-1.53
					c-0.816-1.124-1.544-2.302-1.544-2.302l-0.007-0.012c-0.506-0.821-0.252-1.898,0.57-2.401c0.813-0.505,1.883-0.255,2.393,0.554
					c0,0,0.678,1.076,1.43,2.094c0.375,0.512,0.765,1.005,1.06,1.365c0.29,0.337,0.483,0.564,0.483,0.564l0.068,0.081
					c0.633,0.742,0.548,1.86-0.197,2.493c-0.742,0.636-1.858,0.547-2.494-0.194L457.694,234.889z"/>
			</g>
			<g>
				<path fill="#0072CD" d="M450.449,221.992c0,0-0.104-0.332-0.258-0.826c-0.15-0.505-0.334-1.181-0.495-1.864
					c-0.327-1.367-0.506-2.771-0.506-2.771v-0.014c-0.118-0.922,0.532-1.763,1.452-1.88c0.917-0.118,1.753,0.524,1.877,1.437
					c0,0,0.171,1.232,0.473,2.449c0.146,0.605,0.316,1.208,0.456,1.658c0.147,0.452,0.243,0.752,0.243,0.752l0.009,0.03
					c0.289,0.896-0.203,1.856-1.102,2.145c-0.896,0.287-1.856-0.205-2.145-1.099L450.449,221.992z"/>
			</g>
			<g>
				<path fill="#0072CD" d="M449.68,207.113c0,0,0.092-0.34,0.229-0.85c0.146-0.51,0.366-1.19,0.618-1.854
					c0.494-1.335,1.151-2.593,1.151-2.593l0.01-0.019c0.413-0.789,1.389-1.097,2.18-0.683c0.785,0.409,1.093,1.378,0.692,2.164
					c0,0-0.566,1.106-0.983,2.268c-0.213,0.578-0.397,1.166-0.521,1.612c-0.118,0.453-0.195,0.755-0.195,0.755l-0.011,0.037
					c-0.229,0.876-1.122,1.402-2,1.176c-0.876-0.229-1.399-1.123-1.173-2L449.68,207.113z"/>
			</g>
			<g>
				<path fill="#0072CD" d="M457.225,194.335c0,0,0.244-0.239,0.613-0.601c0.375-0.359,0.884-0.828,1.403-1.279
					c1.037-0.911,2.132-1.74,2.132-1.74l0.012-0.007c0.682-0.52,1.652-0.385,2.172,0.298c0.514,0.678,0.383,1.645-0.287,2.164
					c0,0-1.017,0.785-1.967,1.631c-0.478,0.424-0.942,0.86-1.283,1.194c-0.338,0.337-0.566,0.563-0.566,0.563l-0.016,0.017
					c-0.615,0.616-1.612,0.614-2.229,0c-0.611-0.615-0.611-1.614,0.005-2.229L457.225,194.335z"/>
			</g>
			<g>
				<path fill="#0072CD" d="M469.201,185.909c0,0,0.314-0.139,0.787-0.349c0.48-0.205,1.129-0.464,1.787-0.697
					c1.317-0.475,2.687-0.805,2.687-0.805l0.011-0.004c0.806-0.194,1.619,0.302,1.815,1.107c0.192,0.806-0.3,1.615-1.102,1.814
					c0,0-1.214,0.301-2.393,0.735c-0.593,0.212-1.175,0.449-1.608,0.638c-0.437,0.196-0.727,0.325-0.727,0.325l-0.023,0.011
					c-0.766,0.345-1.667,0.001-2.009-0.765c-0.345-0.766-0.003-1.663,0.763-2.007L469.201,185.909z"/>
			</g>
			<g>
				<path fill="#0072CD" d="M483.816,183.544c0,0,0.346,0.056,0.861,0.137c0.521,0.09,1.215,0.235,1.897,0.411
					c1.368,0.346,2.679,0.854,2.679,0.854l0.018,0.01c0.755,0.288,1.127,1.135,0.836,1.888c-0.291,0.751-1.134,1.123-1.882,0.838
					c0,0-1.17-0.444-2.38-0.743c-0.604-0.152-1.213-0.274-1.673-0.354c-0.466-0.068-0.776-0.115-0.776-0.115l-0.034-0.007
					c-0.807-0.122-1.362-0.877-1.238-1.681c0.122-0.809,0.877-1.362,1.683-1.24L483.816,183.544z"/>
			</g>
			<g>
				<path fill="#0072CD" d="M497.282,189.556c0,0,0.268,0.214,0.667,0.534c0.402,0.329,0.927,0.774,1.438,1.237
					c1.024,0.917,1.977,1.902,1.977,1.902l0.008,0.009c0.546,0.563,0.531,1.463-0.031,2.006c-0.563,0.543-1.457,0.53-2.002-0.026
					c0,0-0.9-0.919-1.859-1.768c-0.477-0.424-0.964-0.837-1.338-1.138c-0.377-0.298-0.629-0.496-0.629-0.496l-0.016-0.014
					c-0.623-0.491-0.729-1.395-0.236-2.017c0.491-0.622,1.394-0.728,2.017-0.235L497.282,189.556z"/>
			</g>
			<g>
				<path fill="#0072CD" d="M507.103,200.263c0,0,0.774,1.115,1.49,2.259c0.729,1.145,1.403,2.314,1.403,2.314
					c0.384,0.658,0.163,1.501-0.494,1.884c-0.656,0.383-1.497,0.158-1.881-0.494c0,0-0.659-1.123-1.363-2.218
					c-0.699-1.099-1.445-2.16-1.445-2.16c-0.444-0.63-0.291-1.497,0.338-1.941c0.629-0.44,1.5-0.288,1.939,0.34l0.007,0.006
					L507.103,200.263z"/>
			</g>
			<g>
				<path fill="#0072CD" d="M514.085,212.888l2.02,4.91c0.28,0.682-0.045,1.463-0.728,1.743c-0.678,0.28-1.456-0.043-1.738-0.72
					l-2.049-4.896c-0.289-0.688,0.035-1.48,0.723-1.769c0.688-0.288,1.48,0.034,1.769,0.725L514.085,212.888z"/>
			</g>
			<g>
				<path fill="#0072CD" d="M518.953,226.358l1.354,5.133c0.184,0.69-0.229,1.398-0.918,1.58c-0.688,0.183-1.393-0.225-1.58-0.913
					l-1.384-5.124c-0.19-0.697,0.223-1.416,0.92-1.606c0.699-0.188,1.416,0.226,1.606,0.922L518.953,226.358z"/>
			</g>
			<g>
				<path fill="#0072CD" d="M522.094,240.305l0.758,5.254c0.1,0.685-0.376,1.319-1.059,1.418c-0.681,0.099-1.313-0.372-1.416-1.052
					l-0.789-5.251c-0.104-0.69,0.372-1.336,1.063-1.441c0.69-0.103,1.336,0.375,1.441,1.065L522.094,240.305z"/>
			</g>
			<g>
				<path fill="#0072CD" d="M523.639,254.509l0.169,5.31c0.021,0.668-0.503,1.224-1.17,1.245c-0.665,0.021-1.224-0.498-1.247-1.163
					l-0.199-5.306c-0.024-0.677,0.501-1.245,1.179-1.269c0.674-0.026,1.243,0.5,1.269,1.177V254.509z"/>
			</g>
			<g>
				<path fill="#0072CD" d="M523.565,268.806l-0.468,5.288c-0.058,0.642-0.625,1.118-1.266,1.061s-1.112-0.617-1.059-1.257
					l0.436-5.293c0.054-0.652,0.625-1.136,1.274-1.083c0.652,0.055,1.136,0.628,1.082,1.275V268.806z"/>
			</g>
			<g>
				<path fill="#0072CD" d="M521.71,282.994l-1.192,5.174c-0.139,0.605-0.741,0.984-1.347,0.845s-0.981-0.74-0.847-1.343
					l1.161-5.182c0.14-0.614,0.751-1.001,1.362-0.862c0.616,0.137,1.001,0.746,0.863,1.36L521.71,282.994z"/>
			</g>
			<g>
				<path fill="#0072CD" d="M517.803,296.748c0,0-0.471,1.262-0.993,2.5c-0.515,1.245-1.081,2.468-1.081,2.468
					c-0.25,0.544-0.892,0.783-1.436,0.533c-0.541-0.249-0.778-0.891-0.535-1.434c0,0,0.543-1.187,1.038-2.401
					c0.5-1.21,0.953-2.438,0.953-2.438c0.208-0.568,0.839-0.861,1.409-0.652c0.569,0.21,0.86,0.841,0.65,1.412l-0.002,0.005
					L517.803,296.748z"/>
			</g>
			<g>
				<path fill="#0072CD" d="M511.443,309.62c0,0-0.718,1.14-1.49,2.248c-0.77,1.11-1.596,2.18-1.596,2.18
					c-0.348,0.457-0.998,0.544-1.457,0.198c-0.454-0.349-0.539-1.001-0.197-1.456c0,0,0.791-1.039,1.524-2.118
					c0.744-1.073,1.433-2.181,1.433-2.181c0.309-0.496,0.959-0.648,1.452-0.342c0.498,0.308,0.651,0.96,0.343,1.456l-0.005,0.004
					L511.443,309.62z"/>
			</g>
			<g>
				<path fill="#0072CD" d="M502.331,320.743c0,0-0.98,0.931-2.014,1.803c-1.028,0.879-2.106,1.7-2.106,1.7
					c-0.437,0.336-1.063,0.253-1.399-0.184c-0.333-0.435-0.25-1.063,0.183-1.401c0,0,1.033-0.791,2.015-1.645
					c0.992-0.85,1.933-1.752,1.933-1.752c0.402-0.387,1.047-0.371,1.434,0.03c0.387,0.404,0.371,1.049-0.03,1.436l-0.004,0.004
					L502.331,320.743z"/>
			</g>
			<g>
				<path fill="#0072CD" d="M490.605,329.077c0,0-1.199,0.631-2.427,1.187c-1.228,0.565-2.485,1.062-2.485,1.062
					c-0.489,0.196-1.046-0.041-1.242-0.533c-0.197-0.487,0.042-1.043,0.53-1.242c0,0,1.21-0.486,2.391-1.04
					c1.185-0.545,2.338-1.156,2.338-1.156c0.472-0.25,1.06-0.071,1.313,0.401c0.252,0.475,0.072,1.063-0.4,1.315l-0.009,0.003
					L490.605,329.077z"/>
			</g>
			<g>
				<path fill="#0072CD" d="M477.092,333.979l-5.192,1.114c-0.492,0.105-0.975-0.207-1.08-0.699
					c-0.106-0.491,0.208-0.976,0.695-1.082l5.187-1.146c0.5-0.114,0.996,0.202,1.107,0.703c0.111,0.503-0.205,0.999-0.708,1.109
					H477.092z"/>
			</g>
			<g>
				<path fill="#0072CD" d="M463.033,336.372c0,0-1.341,0.119-2.688,0.173c-1.35,0.061-2.709,0.034-2.709,0.034
					c-0.475-0.011-0.854-0.402-0.849-0.879c0.009-0.477,0.402-0.855,0.877-0.849c0,0,1.298,0.015,2.603-0.052
					c1.307-0.06,2.611-0.186,2.611-0.186c0.483-0.048,0.916,0.308,0.963,0.793c0.049,0.483-0.309,0.915-0.792,0.963h-0.006
					L463.033,336.372z"/>
			</g>
			<g>
				<path fill="#0072CD" d="M448.641,334.874c0,0-0.28-0.123-0.781-0.405c-0.466-0.27-1.078-0.67-1.622-1.175
					c-0.551-0.493-1.022-1.09-1.312-1.571c-0.295-0.485-0.438-0.837-0.438-0.837l-0.011-0.027c-0.171-0.419,0.027-0.896,0.447-1.064
					c0.412-0.17,0.883,0.025,1.058,0.434c0,0,0.461,1.069,1.364,1.844c0.435,0.398,0.942,0.725,1.338,0.949
					c0.37,0.208,0.692,0.355,0.692,0.355c0.419,0.19,0.604,0.684,0.415,1.104c-0.19,0.417-0.683,0.604-1.102,0.416L448.641,334.874z
					"/>
			</g>
			<g>
				<path fill="#0072CD" d="M445.659,321.701c0,0,0.169-0.3,0.417-0.746c0.259-0.447,0.624-1.027,1.014-1.589
					c0.77-1.128,1.646-2.169,1.646-2.169l0.007-0.007c0.276-0.325,0.762-0.365,1.086-0.094c0.323,0.273,0.366,0.755,0.097,1.082
					c0,0-0.83,0.999-1.551,2.068c-0.363,0.532-0.701,1.078-0.94,1.495c-0.231,0.423-0.388,0.705-0.388,0.705l-0.009,0.02
					c-0.209,0.379-0.688,0.52-1.071,0.311c-0.381-0.212-0.52-0.691-0.31-1.072L445.659,321.701z"/>
			</g>
			<g>
				<path fill="#0072CD" d="M455.233,310.974c0,0,1.059-0.834,2.163-1.598c1.104-0.775,2.249-1.483,2.249-1.483
					c0.338-0.212,0.784-0.112,0.997,0.227c0.211,0.338,0.104,0.785-0.228,0.996c0,0-1.11,0.697-2.175,1.458
					c-1.073,0.754-2.096,1.568-2.096,1.568c-0.32,0.255-0.787,0.203-1.041-0.117c-0.255-0.321-0.201-0.785,0.117-1.042l0.006-0.004
					L455.233,310.974z"/>
			</g>
			<g>
				<path fill="#0072CD" d="M467.644,303.842c0,0,1.249-0.502,2.528-0.919c1.281-0.431,2.588-0.769,2.588-0.769
					c0.359-0.094,0.731,0.122,0.824,0.481c0.098,0.359-0.119,0.729-0.479,0.827c0,0-1.262,0.336-2.498,0.76
					c-1.242,0.415-2.454,0.908-2.454,0.908c-0.354,0.146-0.757-0.024-0.903-0.38c-0.146-0.355,0.025-0.76,0.379-0.905l0.004-0.002
					L467.644,303.842z"/>
			</g>
			<g>
				<path fill="#0072CD" d="M481.667,300.92c0,0,1.357-0.017,2.707,0.099c1.354,0.104,2.69,0.347,2.69,0.347
					c0.342,0.061,0.573,0.385,0.513,0.728c-0.06,0.339-0.39,0.568-0.729,0.511c0,0-1.279-0.225-2.573-0.313
					c-1.3-0.103-2.601-0.077-2.601-0.077c-0.356,0.007-0.651-0.275-0.658-0.633c-0.009-0.356,0.275-0.652,0.631-0.658l0.006-0.003
					H481.667z"/>
			</g>
			<g>
				<path fill="#0072CD" d="M495.549,304.442c0,0,1.18,0.676,2.271,1.48c1.104,0.794,2.11,1.702,2.11,1.702
					c0.24,0.212,0.266,0.582,0.051,0.821c-0.209,0.242-0.581,0.261-0.822,0.052c0,0-0.971-0.866-2.032-1.62
					c-1.054-0.763-2.184-1.398-2.184-1.398c-0.288-0.162-0.391-0.53-0.229-0.816c0.163-0.289,0.53-0.392,0.817-0.229l0.002,0.002
					L495.549,304.442z"/>
			</g>
			<g>
				<path fill="#0072CD" d="M505.691,314.511c0,0,0.723,1.138,1.36,2.32c0.646,1.179,1.21,2.398,1.21,2.398
					c0.126,0.267,0.016,0.585-0.254,0.711c-0.266,0.127-0.584,0.01-0.713-0.254c0,0-0.561-1.188-1.197-2.333
					c-0.631-1.152-1.343-2.25-1.343-2.25c-0.165-0.256-0.09-0.599,0.164-0.766c0.26-0.164,0.602-0.09,0.766,0.165L505.691,314.511z"
					/>
			</g>
			<g>
				<path fill="#0072CD" d="M510.79,327.847c0,0,0.173,1.344,0.198,2.693c0.039,1.354-0.07,2.701-0.07,2.701
					c-0.019,0.273-0.257,0.479-0.528,0.457c-0.271-0.017-0.478-0.257-0.46-0.527c0,0,0.099-1.303,0.054-2.605
					c-0.03-1.305-0.205-2.597-0.205-2.597c-0.038-0.277,0.158-0.536,0.437-0.574c0.279-0.039,0.534,0.16,0.572,0.438v0.003
					L510.79,327.847z"/>
			</g>
			<g>
				<path fill="#0072CD" d="M508.903,341.975c0,0-0.481,1.258-1.059,2.469c-0.568,1.217-1.229,2.386-1.229,2.386
					c-0.122,0.219-0.396,0.3-0.616,0.178c-0.218-0.12-0.295-0.397-0.177-0.615c0,0,0.639-1.148,1.187-2.341
					c0.56-1.188,1.021-2.414,1.021-2.414c0.09-0.243,0.361-0.368,0.604-0.275c0.24,0.092,0.365,0.361,0.275,0.604L508.903,341.975z"
					/>
			</g>
			<g>
				<path fill="#0072CD" d="M501.536,354.16c0,0-0.853,1.031-1.758,2.016c-0.898,0.987-1.844,1.933-1.844,1.933
					c-0.16,0.163-0.421,0.164-0.584,0.004c-0.16-0.162-0.16-0.423-0.002-0.583c0,0,0.926-0.939,1.808-1.919
					c0.888-0.978,1.722-1.995,1.722-1.995c0.149-0.184,0.419-0.211,0.603-0.062c0.182,0.149,0.209,0.419,0.061,0.603L501.536,354.16
					z"/>
			</g>
			<g>
				<path fill="#0072CD" d="M491.267,364.014l-4.277,3.144c-0.167,0.119-0.397,0.086-0.521-0.08c-0.12-0.164-0.085-0.397,0.079-0.52
					l4.26-3.169c0.171-0.126,0.413-0.09,0.541,0.081c0.129,0.171,0.092,0.413-0.079,0.541L491.267,364.014z"/>
			</g>
			<g>
				<path fill="#0072CD" d="M479.425,371.849l-4.7,2.47c-0.16,0.082-0.361,0.021-0.444-0.141c-0.086-0.16-0.023-0.359,0.135-0.447
					l4.688-2.493c0.167-0.09,0.378-0.025,0.469,0.143c0.089,0.167,0.022,0.377-0.144,0.467L479.425,371.849z"/>
			</g>
			<g>
				<path fill="#0072CD" d="M466.598,377.916l-4.982,1.829c-0.15,0.055-0.316-0.022-0.373-0.172
					c-0.053-0.149,0.022-0.316,0.172-0.372l4.972-1.858c0.159-0.058,0.335,0.02,0.394,0.18c0.061,0.156-0.021,0.332-0.179,0.392
					L466.598,377.916z"/>
			</g>
			<g>
				<path fill="#0072CD" d="M453.098,382.266l-5.18,1.165c-0.135,0.033-0.27-0.053-0.298-0.188
					c-0.032-0.133,0.054-0.268,0.187-0.298l5.173-1.194c0.142-0.037,0.282,0.056,0.316,0.196c0.032,0.141-0.056,0.282-0.196,0.316
					L453.098,382.266z"/>
			</g>
			<g>
				<path fill="#0072CD" d="M439.139,384.78l-5.294,0.42c-0.112,0.008-0.213-0.077-0.222-0.19c-0.008-0.116,0.075-0.214,0.188-0.225
					l5.29-0.446c0.125-0.014,0.234,0.079,0.242,0.202c0.011,0.122-0.081,0.229-0.203,0.239H439.139z"/>
			</g>
			<g>
				<path fill="#0072CD" d="M424.973,385.179c0,0-1.33-0.074-2.653-0.199c-1.326-0.12-2.645-0.292-2.645-0.292
					c-0.092-0.014-0.155-0.097-0.145-0.188c0.013-0.091,0.094-0.154,0.186-0.144c0,0,1.313,0.165,2.635,0.278
					c1.319,0.115,2.642,0.18,2.642,0.18c0.103,0.006,0.179,0.092,0.172,0.192c-0.004,0.1-0.089,0.178-0.189,0.173H424.973z"/>
			</g>
			<g>
				<path fill="#0072CD" d="M410.978,382.97c0,0-1.286-0.347-2.552-0.753c-1.268-0.404-2.512-0.871-2.512-0.871
					c-0.067-0.024-0.102-0.096-0.075-0.161c0.023-0.064,0.096-0.099,0.16-0.075c0,0,1.242,0.459,2.506,0.851
					c1.265,0.402,2.547,0.735,2.547,0.735c0.075,0.021,0.123,0.099,0.102,0.174c-0.02,0.076-0.099,0.122-0.171,0.101H410.978z"/>
			</g>
			<g>
				<path fill="#0072CD" d="M397.904,377.563c0,0-1.153-0.667-2.258-1.404c-1.113-0.731-2.176-1.529-2.176-1.529
					c-0.038-0.027-0.045-0.081-0.018-0.119c0.029-0.039,0.082-0.045,0.119-0.018c0,0,1.064,0.789,2.177,1.512
					c1.105,0.728,2.256,1.388,2.256,1.388c0.049,0.028,0.064,0.088,0.036,0.137c-0.027,0.048-0.087,0.064-0.137,0.037V377.563z"/>
			</g>
			<g>
				<path fill="#0072CD" d="M386.929,368.671c0,0-0.896-0.983-1.724-2.022c-0.836-1.034-1.605-2.118-1.605-2.118
					c-0.014-0.021-0.009-0.049,0.011-0.062c0.021-0.015,0.047-0.011,0.062,0.011c0,0,0.772,1.075,1.612,2.102
					c0.834,1.033,1.732,2.009,1.732,2.009c0.021,0.025,0.021,0.062-0.004,0.086C386.989,368.696,386.951,368.696,386.929,368.671
					L386.929,368.671z"/>
			</g>
			<g>
				<path fill="#0072CD" d="M379.136,356.894c0,0-0.571-1.199-1.077-2.427c-0.512-1.226-0.959-2.475-0.959-2.475l0.007-0.005
					c0,0,0.456,1.25,0.973,2.471c0.514,1.226,1.091,2.42,1.091,2.42c0.003,0.01,0,0.02-0.008,0.026
					C379.151,356.907,379.141,356.904,379.136,356.894L379.136,356.894z"/>
			</g>
		</g>
		<g>
			<path fill="#54AAE3" d="M514.214,272.44l-30.681-46.739c-0.468-0.804-1.292-1.323-2.191-1.392
				c-0.916-0.075-1.786,0.328-2.349,1.057l-9.538,12.369l-9.517-1.418l-0.62,11.678l2.002,0.318l-7.979,5.168l10.404,10.882
				L514.214,272.44z"/>
		</g>
		<g>
			<path fill="#0072CD" d="M514.214,274.211c-0.095,0-0.187-0.008-0.28-0.022l-50.469-8.078c-0.383-0.062-0.731-0.246-0.999-0.523
				l-10.404-10.879c-0.365-0.383-0.54-0.906-0.479-1.432c0.062-0.521,0.353-0.994,0.793-1.278l5.274-3.415
				c-0.077-0.212-0.113-0.443-0.101-0.683l0.62-11.677c0.027-0.498,0.266-0.963,0.652-1.276c0.383-0.314,0.883-0.449,1.377-0.381
				l8.488,1.266l8.905-11.546c0.937-1.215,2.374-1.867,3.894-1.739c1.472,0.109,2.813,0.956,3.574,2.263l30.631,46.66
				c0.385,0.587,0.39,1.346,0.008,1.934C515.369,273.912,514.809,274.211,514.214,274.211z M464.613,262.71l45.92,7.351
				l-28.479-43.386c-0.225-0.383-0.524-0.577-0.845-0.601c-0.342,0.021-0.629,0.133-0.814,0.372l-9.537,12.372
				c-0.391,0.506-1.03,0.752-1.663,0.669l-7.59-1.131l-0.437,8.142l0.433,0.068c0.723,0.117,1.298,0.664,1.452,1.381
				c0.151,0.719-0.156,1.454-0.771,1.853l-6.185,4.008L464.613,262.71z"/>
		</g>
		<g>
			<path fill="#FFFFFF" d="M515.324,272.731c0.155-0.21,0.182-0.504,0.046-0.731l-32.765-55.27
				c-0.479-0.804-1.326-1.321-2.252-1.386c-0.941-0.072-1.837,0.334-2.419,1.065l-25.956,32.694
				c-0.582,0.733-0.759,1.709-0.487,2.596c0.273,0.901,0.971,1.606,1.862,1.88l61.269,19.365
				C514.875,273.024,515.155,272.933,515.324,272.731z"/>
		</g>
		<g>
			<path fill="#0072CD" d="M514.809,274.746L514.809,274.746c-0.246-0.002-0.487-0.038-0.719-0.111l-61.269-19.367
				c-1.443-0.442-2.579-1.585-3.024-3.054c-0.442-1.447-0.147-3.021,0.794-4.209l25.958-32.697c0.956-1.199,2.412-1.85,3.939-1.727
				c1.494,0.104,2.859,0.94,3.639,2.242l32.767,55.274c0.5,0.839,0.44,1.896-0.152,2.692
				C516.214,274.426,515.531,274.746,514.809,274.746z M480.215,217.111c-0.402,0-0.693,0.147-0.896,0.4l-25.954,32.694
				c-0.216,0.273-0.284,0.64-0.182,0.979c0.105,0.341,0.361,0.604,0.688,0.704l58.478,18.482l-31.266-52.737
				c-0.181-0.303-0.501-0.499-0.852-0.522C480.223,217.111,480.219,217.111,480.215,217.111z"/>
		</g>
		<g>
			<path fill="#D6EAFA" d="M501.746,262.378l-42.077-22.95l-0.658-5.722l9.067-4.889l34.08,33.055
				c0.133,0.106,0.146,0.312,0.041,0.444C502.092,262.462,501.891,262.483,501.746,262.378z"/>
		</g>
		<g>
			<path fill="#0072CD" d="M501.944,264.214c-0.393,0-0.774-0.109-1.107-0.314l-42.015-22.92c-0.507-0.273-0.845-0.777-0.911-1.349
				l-0.661-5.721c-0.079-0.721,0.284-1.418,0.92-1.76l9.067-4.89c0.683-0.37,1.519-0.25,2.073,0.286l34.046,33.021
				c0.808,0.727,0.919,1.978,0.229,2.849C503.24,263.893,502.609,264.214,501.944,264.214z M461.324,238.313l31.998,17.455
				l-25.546-24.777l-6.872,3.703L461.324,238.313z"/>
		</g>
	</g>
	<g>
		<g>
			<path fill="#0072CD" d="M202.858,259.708c-0.453,0-0.906-0.174-1.251-0.52l-7.049-7.05c-0.69-0.688-0.69-1.809,0-2.502
				c0.69-0.69,1.812-0.69,2.505,0l7.046,7.05c0.691,0.69,0.691,1.811,0,2.502C203.763,259.534,203.313,259.708,202.858,259.708z"/>
		</g>
		<g>
			<path fill="#0072CD" d="M195.81,259.708c-0.453,0-0.904-0.174-1.251-0.52c-0.69-0.691-0.69-1.812,0-2.502l7.049-7.05
				c0.691-0.69,1.812-0.69,2.502,0c0.691,0.693,0.691,1.813,0,2.502l-7.046,7.05C196.717,259.534,196.264,259.708,195.81,259.708z"
				/>
		</g>
	</g>
	<g>
		<g>
			<path fill="#0072CD" d="M443.576,369.171c-0.453,0-0.907-0.173-1.251-0.52l-7.049-7.047c-0.69-0.69-0.69-1.812,0-2.502
				c0.69-0.693,1.812-0.693,2.502,0l7.049,7.047c0.69,0.693,0.69,1.812,0,2.502C444.48,368.998,444.029,369.171,443.576,369.171z"/>
		</g>
		<g>
			<path fill="#0072CD" d="M436.527,369.171c-0.454,0-0.905-0.173-1.251-0.52c-0.69-0.69-0.69-1.809,0-2.502l7.049-7.047
				c0.69-0.693,1.812-0.693,2.502,0c0.69,0.69,0.69,1.812,0,2.502l-7.049,7.047C437.434,368.998,436.98,369.171,436.527,369.171z"/>
		</g>
	</g>
	<g>
		<g>
			<path fill="#0072CD" d="M422.607,155.604c-0.451,0-0.904-0.174-1.251-0.518l-7.047-7.049c-0.692-0.69-0.692-1.812,0-2.502
				c0.69-0.69,1.81-0.69,2.502,0l7.047,7.048c0.692,0.691,0.692,1.812,0,2.503C423.514,155.43,423.061,155.604,422.607,155.604z"/>
		</g>
		<g>
			<path fill="#0072CD" d="M415.559,155.604c-0.451,0-0.905-0.174-1.249-0.518c-0.692-0.691-0.692-1.812,0-2.503l7.047-7.048
				c0.69-0.69,1.812-0.69,2.502,0c0.692,0.69,0.692,1.812,0,2.502l-7.047,7.049C416.465,155.43,416.012,155.604,415.559,155.604z"/>
		</g>
	</g>
</g>
</svg>
