<?xml version="1.0" encoding="utf-8"?>
<!-- Generator: Adobe Illustrator 16.0.0, SVG Export Plug-In . SVG Version: 6.00 Build 0)  -->
<!DOCTYPE svg PUBLIC "-//W3C//DTD SVG 1.1//EN" "http://www.w3.org/Graphics/SVG/1.1/DTD/svg11.dtd">
<svg version="1.1" id="layer_1" xmlns="http://www.w3.org/2000/svg" xmlns:xlink="http://www.w3.org/1999/xlink" x="0px" y="0px"
	 width="617.275px" height="632.721px" viewBox="5.656 4.376 617.275 632.721" enable-background="new 5.656 4.376 617.275 632.721"
	 xml:space="preserve">
<g>
	<circle fill="#D6EAFA" cx="312.675" cy="268.376" r="234.28"/>
</g>
<g>
	<path fill="#EAF5FE" d="M312.676,467.603c-109.854,0-199.227-89.373-199.227-199.227c0-109.853,89.373-199.225,199.227-199.225
		S511.9,158.524,511.9,268.376C511.9,378.23,422.53,467.603,312.676,467.603z M312.676,76.102
		c-106.022,0-192.277,86.254-192.277,192.274c0,106.021,86.255,192.277,192.277,192.277c106.02,0,192.275-86.256,192.275-192.277
		C504.951,162.356,418.696,76.102,312.676,76.102z"/>
</g>
<g>
	<path fill="#D6EAFA" d="M127.366,403.959h98.28c9.327,0,16.886,7.562,16.886,16.886v2.125c0,9.325-7.559,16.885-16.886,16.885
		h-98.28c-9.326,0-16.886-7.56-16.886-16.885v-2.125C110.479,411.521,118.04,403.959,127.366,403.959z"/>
</g>
<g>
	<path fill="#D6EAFA" d="M90.263,474.343h191.184c6.531,0,11.825,5.292,11.825,11.821l0,0c0,6.533-5.294,11.823-11.823,11.823
		H90.263c-6.531,0-11.822-5.29-11.822-11.823l0,0C78.441,479.635,83.732,474.343,90.263,474.343z"/>
</g>
<g>
	<path fill="#D6EAFA" d="M416.456,497.988h21.738c6.424,0,11.632,5.209,11.632,11.633l0,0c0,6.424-5.208,11.633-11.632,11.633
		h-21.738c-6.425,0-11.633-5.209-11.633-11.633l0,0C404.823,503.197,410.031,497.988,416.456,497.988z"/>
</g>
<g>
	<path fill="#D6EAFA" d="M405.657,429.175h105.866c10.54,0,19.082,8.543,19.082,19.081l0,0c0,10.536-8.542,19.082-19.082,19.082
		H405.657c-10.539,0-19.081-8.546-19.081-19.082l0,0C386.576,437.718,395.118,429.175,405.657,429.175z"/>
</g>
<g>
	<path fill="#D6EAFA" d="M145.003,439.593h66.994c-4.949,0-9.449,2.141-12.689,5.382c-3.256,3.258-5.269,7.103-5.269,12.063
		c0,9.912,8.046,17.305,17.958,17.305h-66.994c4.948,0,9.434-1.314,12.689-4.542c3.243-3.239,5.252-7.513,5.252-12.478
		C162.944,447.398,154.914,439.593,145.003,439.593z"/>
</g>
<g>
	<path fill="#D6EAFA" d="M407.637,234.645h172.71c17.806,0,32.237,14.434,32.237,32.237l0,0c0,17.804-14.432,32.238-32.237,32.238
		h-172.71c-17.806,0-32.238-14.435-32.238-32.238l0,0C375.398,249.078,389.831,234.645,407.637,234.645z"/>
</g>
<g>
	<path fill="#D6EAFA" d="M346.137,361.751h255.901c11.541,0,20.894,9.354,20.894,20.895l0,0c0,11.539-9.353,20.893-20.894,20.893
		H346.137c-11.541,0-20.896-9.354-20.896-20.893l0,0C325.24,371.106,334.596,361.751,346.137,361.751z"/>
</g>
<g>
	<path fill="#D6EAFA" d="M451.643,299.12h120.333c-8.892,0-16.971,3.529-22.795,9.408c-5.847,5.904-9.46,12.857-9.46,21.861
		c0,17.978,14.449,31.361,32.255,31.361H451.643c8.888,0,16.943-2.538,22.791-8.39c5.823-5.88,9.434-13.355,9.434-22.358
		C483.867,312.999,469.444,299.12,451.643,299.12z"/>
</g>
<g>
	<path fill="#D6EAFA" d="M263.281,206.611H60.9c-18.903,0-34.229-15.322-34.229-34.227l0,0c0-18.903,15.325-34.228,34.229-34.228
		h202.381c18.904,0,34.227,15.325,34.227,34.228l0,0C297.508,191.288,282.185,206.611,263.281,206.611z"/>
</g>
<g>
	<path fill="#D6EAFA" d="M347.575,404.779H55.117c-27.317,0-49.461-22.146-49.461-49.465l0,0c0-27.314,22.144-49.459,49.461-49.459
		h292.458c27.317,0,49.46,22.145,49.46,49.459v0.003C397.035,382.632,374.893,404.779,347.575,404.779z"/>
</g>
<g>
	<path fill="#D6EAFA" d="M513.061,127.976H351.597c-15.081,0-27.308-12.226-27.308-27.307l0,0c0-15.083,12.227-27.308,27.308-27.308
		h161.464c15.082,0,27.309,12.225,27.309,27.308l0,0C540.369,115.75,528.143,127.976,513.061,127.976z"/>
</g>
<g>
	<path fill="#D6EAFA" d="M343.061,586.976H181.597c-15.081,0-27.308-12.227-27.308-27.307l0,0c0-15.082,12.227-27.308,27.308-27.308
		h161.464c15.082,0,27.309,12.226,27.309,27.308l0,0C370.369,574.749,358.143,586.976,343.061,586.976z"/>
</g>
<g>
	<path fill="#D6EAFA" d="M297.76,54.923c3.306,0,6.529,0.25,9.673,0.704c-1.396-11.313-11.021-20.079-22.714-20.079H161.995
		c-12.651,0-22.906,10.257-22.906,22.908c0,12.653,10.255,22.908,22.906,22.908h82.351C257.212,65.421,277.228,54.923,297.76,54.923
		z"/>
</g>
<g>
	<path fill="#D6EAFA" d="M463.392,34.097h-38.344c-8.205,0-14.86-6.653-14.86-14.862l0,0c0-8.207,6.655-14.859,14.86-14.859h38.344
		c8.208,0,14.863,6.652,14.863,14.859l0,0C478.255,27.445,471.6,34.097,463.392,34.097z"/>
</g>
<g>
	<path fill="#D6EAFA" d="M369.392,637.097h-38.344c-8.205,0-14.86-6.652-14.86-14.861l0,0c0-8.207,6.655-14.859,14.86-14.859h38.344
		c8.208,0,14.863,6.652,14.863,14.859l0,0C384.255,630.445,377.6,637.097,369.392,637.097z"/>
</g>
<g>
	<g>
		<rect x="376.379" y="241.525" fill-rule="evenodd" clip-rule="evenodd" fill="#92D0EF" width="45.174" height="151.158"/>
	</g>
	<g>
		<path fill="#0072CD" d="M421.553,394.421h-45.174c-0.96,0-1.736-0.779-1.736-1.738V241.525c0-0.959,0.776-1.737,1.736-1.737
			h45.174c0.961,0,1.738,0.778,1.738,1.737v151.158C423.291,393.642,422.514,394.421,421.553,394.421z M378.117,390.947h41.699
			V243.262h-41.699V390.947z"/>
	</g>
	<g>
		<path fill-rule="evenodd" clip-rule="evenodd" fill="#54AAE3" d="M410.559,262.809c0,6.401-5.188,11.591-11.593,11.591
			c-6.399,0-11.592-5.189-11.592-11.591c0-6.402,5.192-11.593,11.592-11.593C405.37,251.216,410.559,256.406,410.559,262.809z"/>
	</g>
	<g>
		<path fill="#0072CD" d="M398.966,276.138c-7.35,0-13.329-5.979-13.329-13.329s5.979-13.33,13.329-13.33
			c7.351,0,13.33,5.979,13.33,13.33S406.316,276.138,398.966,276.138z M398.966,252.954c-5.433,0-9.854,4.421-9.854,9.855
			c0,5.435,4.422,9.854,9.854,9.854c5.437,0,9.854-4.42,9.854-9.854C408.82,257.375,404.402,252.954,398.966,252.954z"/>
	</g>
</g>
<g>
	<g>
		<rect x="421.553" y="241.525" fill-rule="evenodd" clip-rule="evenodd" fill="#54AAE3" width="45.174" height="151.158"/>
	</g>
	<g>
		<path fill="#0072CD" d="M466.727,394.421h-45.174c-0.96,0-1.736-0.779-1.736-1.738V241.525c0-0.959,0.776-1.737,1.736-1.737
			h45.174c0.961,0,1.738,0.778,1.738,1.737v151.158C468.465,393.642,467.688,394.421,466.727,394.421z M423.291,390.947h41.699
			V243.262h-41.699V390.947z"/>
	</g>
	<g>
		<path fill-rule="evenodd" clip-rule="evenodd" fill="#92D0EF" d="M455.732,262.809c0,6.401-5.189,11.591-11.593,11.591
			c-6.399,0-11.592-5.189-11.592-11.591c0-6.402,5.192-11.593,11.592-11.593C450.543,251.216,455.732,256.406,455.732,262.809z"/>
	</g>
	<g>
		<path fill="#0072CD" d="M444.14,276.138c-7.35,0-13.329-5.979-13.329-13.329s5.979-13.33,13.329-13.33
			c7.351,0,13.33,5.979,13.33,13.33S451.49,276.138,444.14,276.138z M444.14,252.954c-5.433,0-9.854,4.421-9.854,9.855
			c0,5.435,4.422,9.854,9.854,9.854c5.437,0,9.854-4.42,9.854-9.854C453.994,257.375,449.576,252.954,444.14,252.954z"/>
	</g>
</g>
<g>
	<g>
		<rect x="466.727" y="241.525" fill-rule="evenodd" clip-rule="evenodd" fill="#EAF5FE" width="45.174" height="151.158"/>
	</g>
	<g>
		<path fill="#0072CD" d="M511.9,394.421h-45.174c-0.96,0-1.736-0.779-1.736-1.738V241.525c0-0.959,0.776-1.737,1.736-1.737H511.9
			c0.96,0,1.738,0.778,1.738,1.737v151.158C513.639,393.642,512.86,394.421,511.9,394.421z M468.465,390.947h41.697V243.262h-41.697
			V390.947z"/>
	</g>
	<g>
		<path fill-rule="evenodd" clip-rule="evenodd" fill="#92D0EF" d="M500.906,262.809c0,6.401-5.189,11.591-11.593,11.591
			c-6.399,0-11.592-5.189-11.592-11.591c0-6.402,5.192-11.593,11.592-11.593C495.717,251.216,500.906,256.406,500.906,262.809z"/>
	</g>
	<g>
		<path fill="#0072CD" d="M489.313,276.138c-7.35,0-13.329-5.979-13.329-13.329s5.979-13.33,13.329-13.33s13.33,5.979,13.33,13.33
			S496.663,276.138,489.313,276.138z M489.313,252.954c-5.432,0-9.854,4.421-9.854,9.855c0,5.435,4.423,9.854,9.854,9.854
			c5.438,0,9.854-4.42,9.854-9.854C499.168,257.375,494.751,252.954,489.313,252.954z"/>
	</g>
</g>
<g>
	<g>
		<rect x="42.789" y="392.683" fill="#0072CD" width="26.062" height="6.95"/>
	</g>
	<g>
		<rect x="558.813" y="392.683" fill="#0072CD" width="26.061" height="6.95"/>
	</g>
	<g>
		<rect x="83.619" y="392.683" fill="#0072CD" width="452.606" height="6.95"/>
	</g>
</g>
<g>
	<path fill="#0072CD" d="M413.263,185.229c-4.018,0-7.289-3.271-7.289-7.291s3.271-7.291,7.289-7.291
		c4.021,0,7.293,3.27,7.293,7.291S417.283,185.229,413.263,185.229z M413.263,174.122c-2.104,0-3.813,1.712-3.813,3.815
		c0,2.104,1.709,3.816,3.813,3.816c2.106,0,3.817-1.712,3.817-3.816C417.08,175.834,415.369,174.122,413.263,174.122z"/>
</g>
<g>
	<path fill="#0072CD" d="M530.605,281.734c-4.018,0-7.289-3.27-7.289-7.291s3.271-7.291,7.289-7.291c4.021,0,7.293,3.27,7.293,7.291
		S534.627,281.734,530.605,281.734z M530.605,270.627c-2.104,0-3.814,1.712-3.814,3.815s1.71,3.816,3.814,3.816
		s3.818-1.713,3.818-3.816S532.71,270.627,530.605,270.627z"/>
</g>
<g>
	<path fill="#0072CD" d="M107.021,328.426c-4.021,0-7.291-3.271-7.291-7.29c0-4.02,3.271-7.291,7.291-7.291
		c4.019,0,7.291,3.271,7.291,7.291C114.311,325.155,111.04,328.426,107.021,328.426z M107.021,317.32
		c-2.104,0-3.816,1.711-3.816,3.816c0,2.104,1.712,3.816,3.816,3.816c2.104,0,3.815-1.713,3.815-3.816
		C110.836,319.031,109.125,317.32,107.021,317.32z"/>
</g>
<g>
	<path fill="#0072CD" d="M209.367,153.69c-4.019,0-7.291-3.271-7.291-7.292s3.271-7.29,7.291-7.29c4.02,0,7.292,3.27,7.292,7.29
		S213.387,153.69,209.367,153.69z M209.367,142.583c-2.103,0-3.815,1.712-3.815,3.815c0,2.104,1.712,3.816,3.815,3.816
		c2.104,0,3.816-1.712,3.816-3.816C213.183,144.295,211.471,142.583,209.367,142.583z"/>
</g>
<g>
	<path fill="#0072CD" d="M142.473,185.988c-4.019,0-7.291-3.271-7.291-7.291c0-4.021,3.271-7.291,7.291-7.291
		c4.02,0,7.292,3.271,7.292,7.291C149.765,182.716,146.493,185.988,142.473,185.988z M142.473,174.881
		c-2.104,0-3.815,1.712-3.815,3.816s1.711,3.815,3.815,3.815s3.816-1.712,3.816-3.815S144.577,174.881,142.473,174.881z"/>
</g>
<g>
	<path fill="#0072CD" d="M116.925,354.298h-3.476c-0.96,0-1.738-0.776-1.738-1.738c0-0.96,0.778-1.736,1.738-1.736h3.476
		c0.96,0,1.736,0.776,1.736,1.736C118.661,353.522,117.885,354.298,116.925,354.298z M106.5,354.298h-3.475
		c-0.959,0-1.737-0.776-1.737-1.738c0-0.96,0.778-1.736,1.737-1.736h3.475c0.959,0,1.737,0.776,1.737,1.736
		C108.236,353.522,107.459,354.298,106.5,354.298z M96.074,354.298H92.6c-0.959,0-1.737-0.776-1.737-1.738
		c0-0.96,0.778-1.736,1.737-1.736h3.475c0.96,0,1.738,0.776,1.738,1.736C97.812,353.522,97.034,354.298,96.074,354.298z
		 M85.65,354.298h-3.476c-0.959,0-1.737-0.776-1.737-1.738c0-0.96,0.778-1.736,1.737-1.736h3.476c0.959,0,1.737,0.776,1.737,1.736
		C87.388,353.522,86.609,354.298,85.65,354.298z M75.226,354.298H71.75c-0.96,0-1.738-0.776-1.738-1.738
		c0-0.96,0.778-1.736,1.738-1.736h3.475c0.959,0,1.737,0.776,1.737,1.736C76.962,353.522,76.185,354.298,75.226,354.298z
		 M64.801,354.298h-3.475c-0.96,0-1.738-0.776-1.738-1.738c0-0.96,0.777-1.736,1.738-1.736h3.475c0.959,0,1.736,0.776,1.736,1.736
		C66.537,353.522,65.76,354.298,64.801,354.298z"/>
</g>
<g>
	<path fill="#0072CD" d="M181.013,234.728h-3.475c-0.961,0-1.737-0.778-1.737-1.737c0-0.96,0.776-1.738,1.737-1.738h3.475
		c0.96,0,1.737,0.778,1.737,1.738C182.75,233.949,181.974,234.728,181.013,234.728z M170.589,234.728h-3.476
		c-0.96,0-1.737-0.778-1.737-1.737c0-0.96,0.777-1.738,1.737-1.738h3.476c0.96,0,1.736,0.778,1.736,1.738
		C172.325,233.949,171.549,234.728,170.589,234.728z M160.164,234.728h-3.475c-0.96,0-1.737-0.778-1.737-1.737
		c0-0.96,0.777-1.738,1.737-1.738h3.475c0.96,0,1.738,0.778,1.738,1.738C161.901,233.949,161.124,234.728,160.164,234.728z
		 M149.738,234.728h-3.475c-0.96,0-1.737-0.778-1.737-1.737c0-0.96,0.777-1.738,1.737-1.738h3.475c0.961,0,1.738,0.778,1.738,1.738
		C151.477,233.949,150.699,234.728,149.738,234.728z"/>
</g>
<g>
	<path fill="#0072CD" d="M218.46,174.122h-3.475c-0.961,0-1.738-0.778-1.738-1.738c0-0.959,0.777-1.737,1.738-1.737h3.475
		c0.961,0,1.737,0.778,1.737,1.737C220.197,173.344,219.421,174.122,218.46,174.122z M208.036,174.122h-3.475
		c-0.96,0-1.738-0.778-1.738-1.738c0-0.959,0.778-1.737,1.738-1.737h3.475c0.96,0,1.737,0.778,1.737,1.737
		C209.772,173.344,208.996,174.122,208.036,174.122z M197.61,174.122h-3.475c-0.96,0-1.737-0.778-1.737-1.738
		c0-0.959,0.777-1.737,1.737-1.737h3.475c0.96,0,1.738,0.778,1.738,1.737C199.348,173.344,198.57,174.122,197.61,174.122z
		 M187.186,174.122h-3.475c-0.96,0-1.737-0.778-1.737-1.738c0-0.959,0.777-1.737,1.737-1.737h3.475c0.961,0,1.738,0.778,1.738,1.737
		C188.924,173.344,188.146,174.122,187.186,174.122z M176.761,174.122h-3.475c-0.961,0-1.737-0.778-1.737-1.738
		c0-0.959,0.776-1.737,1.737-1.737h3.475c0.96,0,1.738,0.778,1.738,1.737C178.499,173.344,177.722,174.122,176.761,174.122z"/>
</g>
<g>
	<path fill="#0072CD" d="M410.446,138.631h-3.476c-0.96,0-1.736-0.777-1.736-1.737c0-0.96,0.776-1.738,1.736-1.738h3.476
		c0.961,0,1.738,0.778,1.738,1.738C412.185,137.854,411.407,138.631,410.446,138.631z M400.021,138.631h-3.475
		c-0.961,0-1.738-0.777-1.738-1.737c0-0.96,0.777-1.738,1.738-1.738h3.475c0.961,0,1.738,0.778,1.738,1.738
		C401.76,137.854,400.982,138.631,400.021,138.631z M389.597,138.631h-3.475c-0.96,0-1.738-0.777-1.738-1.737
		c0-0.96,0.778-1.738,1.738-1.738h3.475c0.961,0,1.737,0.778,1.737,1.738C391.334,137.854,390.558,138.631,389.597,138.631z
		 M379.172,138.631h-3.475c-0.96,0-1.737-0.777-1.737-1.737c0-0.96,0.777-1.738,1.737-1.738h3.475c0.961,0,1.737,0.778,1.737,1.738
		C380.909,137.854,380.133,138.631,379.172,138.631z M368.747,138.631h-3.475c-0.96,0-1.737-0.777-1.737-1.737
		c0-0.96,0.777-1.738,1.737-1.738h3.475c0.961,0,1.737,0.778,1.737,1.738C370.484,137.854,369.708,138.631,368.747,138.631z"/>
</g>
<g>
	<path fill="#0072CD" d="M553.6,379.025h-3.475c-0.961,0-1.737-0.778-1.737-1.737s0.776-1.738,1.737-1.738h3.475
		c0.96,0,1.736,0.779,1.736,1.738S554.56,379.025,553.6,379.025z M543.175,379.025h-3.476c-0.96,0-1.736-0.778-1.736-1.737
		s0.776-1.738,1.736-1.738h3.476c0.961,0,1.737,0.779,1.737,1.738S544.136,379.025,543.175,379.025z M532.75,379.025h-3.475
		c-0.961,0-1.738-0.778-1.738-1.737s0.777-1.738,1.738-1.738h3.475c0.961,0,1.737,0.779,1.737,1.738S533.711,379.025,532.75,379.025
		z M522.326,379.025h-0.981c-0.96,0-1.738-0.778-1.738-1.737s0.778-1.738,1.738-1.738h0.981c0.959,0,1.736,0.779,1.736,1.738
		S523.285,379.025,522.326,379.025z"/>
</g>
<g>
	<g>
		<path fill="#0072CD" d="M113.941,380.136c-0.445,0-0.889-0.169-1.229-0.51l-6.921-6.919c-0.679-0.678-0.679-1.777,0-2.456
			c0.679-0.679,1.777-0.679,2.457,0l6.921,6.918c0.678,0.68,0.678,1.778,0,2.457C114.83,379.967,114.386,380.136,113.941,380.136z"
			/>
	</g>
	<g>
		<path fill="#0072CD" d="M107.021,380.136c-0.444,0-0.89-0.169-1.229-0.51c-0.679-0.679-0.679-1.777,0-2.457l6.921-6.918
			c0.679-0.679,1.778-0.679,2.457,0c0.678,0.679,0.678,1.778,0,2.456l-6.921,6.919C107.91,379.967,107.464,380.136,107.021,380.136z
			"/>
	</g>
</g>
<g>
	<g>
		<path fill="#0072CD" d="M264.232,136.633c-0.444,0-0.889-0.169-1.228-0.509l-6.919-6.919c-0.678-0.679-0.678-1.778,0-2.457
			c0.679-0.679,1.778-0.679,2.457,0l6.919,6.919c0.679,0.68,0.679,1.778,0,2.457C265.122,136.463,264.678,136.633,264.232,136.633z"
			/>
	</g>
	<g>
		<path fill="#0072CD" d="M257.313,136.633c-0.444,0-0.889-0.169-1.229-0.509c-0.678-0.679-0.678-1.777,0-2.457l6.919-6.919
			c0.678-0.679,1.778-0.679,2.457,0c0.679,0.679,0.679,1.778,0,2.457l-6.919,6.919C258.202,136.463,257.758,136.633,257.313,136.633
			z"/>
	</g>
</g>
<g>
	<g>
		<path fill="#0072CD" d="M367.377,119.396c-0.445,0-0.89-0.17-1.229-0.509l-6.92-6.922c-0.679-0.678-0.679-1.778,0-2.457
			s1.778-0.678,2.457,0l6.92,6.921c0.678,0.678,0.678,1.779,0,2.457C368.266,119.226,367.82,119.396,367.377,119.396z"/>
	</g>
	<g>
		<path fill="#0072CD" d="M360.457,119.396c-0.444,0-0.889-0.17-1.229-0.509c-0.679-0.678-0.679-1.779,0-2.457l6.92-6.921
			c0.678-0.678,1.777-0.678,2.457,0c0.678,0.678,0.678,1.778,0,2.457l-6.92,6.922C361.346,119.226,360.901,119.396,360.457,119.396z
			"/>
	</g>
</g>
<g>
	<g>
		<path fill="#0072CD" d="M459.508,224.377c-0.443,0-0.888-0.17-1.227-0.509l-6.921-6.919c-0.678-0.679-0.678-1.778,0-2.457
			c0.68-0.679,1.779-0.679,2.457,0l6.921,6.919c0.678,0.68,0.678,1.778,0,2.457C460.397,224.207,459.953,224.377,459.508,224.377z"
			/>
	</g>
	<g>
		<path fill="#0072CD" d="M452.59,224.377c-0.445,0-0.889-0.17-1.229-0.509c-0.678-0.679-0.678-1.777,0-2.457l6.921-6.919
			c0.678-0.679,1.777-0.679,2.457,0c0.678,0.679,0.678,1.778,0,2.457l-6.921,6.919C453.479,224.207,453.034,224.377,452.59,224.377z
			"/>
	</g>
</g>
<g>
	<g>
		<path fill="#0072CD" d="M530.605,358.397c-0.444,0-0.89-0.169-1.229-0.509l-6.919-6.921c-0.679-0.679-0.679-1.779,0-2.457
			s1.777-0.678,2.457,0l6.919,6.921c0.678,0.68,0.678,1.778,0,2.457C531.495,358.228,531.05,358.397,530.605,358.397z"/>
	</g>
	<g>
		<path fill="#0072CD" d="M523.687,358.397c-0.445,0-0.89-0.169-1.229-0.509c-0.679-0.679-0.679-1.777,0-2.457l6.919-6.921
			c0.678-0.678,1.777-0.678,2.457,0c0.678,0.678,0.678,1.778,0,2.457l-6.919,6.921C524.574,358.228,524.131,358.397,523.687,358.397
			z"/>
	</g>
</g>
<g>
	<g>
		<path fill="#0072CD" d="M173.098,211.276c-0.444,0-0.889-0.17-1.229-0.509l-6.919-6.919c-0.679-0.679-0.679-1.778,0-2.457
			c0.679-0.679,1.778-0.679,2.457,0l6.919,6.919c0.679,0.678,0.679,1.777,0,2.457C173.987,211.105,173.543,211.276,173.098,211.276z
			"/>
	</g>
	<g>
		<path fill="#0072CD" d="M166.179,211.276c-0.444,0-0.889-0.17-1.229-0.509c-0.679-0.679-0.679-1.778,0-2.457l6.919-6.919
			c0.679-0.679,1.779-0.679,2.457,0c0.679,0.678,0.679,1.778,0,2.457l-6.919,6.919C167.068,211.105,166.623,211.276,166.179,211.276
			z"/>
	</g>
</g>
<g>
	<g>
		<g>
			<g>
				<g>
					<path fill="#FFFFFF" d="M331.85,376.534c0-9.246,0-22.65,0-22.65h-18.019h-18.019c0,0,0,13.404,0,22.65
						c0,9.244-24.503,16.728-24.503,16.728h42.521h42.522C356.354,393.262,331.85,385.779,331.85,376.534z"/>
				</g>
			</g>
		</g>
	</g>
	<g>
		<g>
			<g>
				<g>
					<path fill="#EBF3FE" d="M331.85,373.573c0-7.22,0-17.299,0-17.299h-36.037c0,0,0,10.079,0,17.299H331.85z"/>
				</g>
			</g>
		</g>
	</g>
	<g>
		<g>
			<g>
				<g>
					<path fill="#0072CD" d="M356.354,394.999H271.31c-0.86,0-1.591-0.63-1.718-1.48s0.388-1.667,1.211-1.92
						c8.998-2.748,23.272-9.273,23.272-15.064v-22.65c0-0.96,0.777-1.737,1.738-1.737h36.037c0.961,0,1.738,0.777,1.738,1.737v22.65
						c0,5.791,14.275,12.316,23.271,15.064c0.826,0.253,1.341,1.069,1.212,1.92C357.946,394.369,357.213,394.999,356.354,394.999z
						 M280.947,391.524h65.77c-7.441-3.241-16.604-8.544-16.604-14.989V355.62H297.55v20.914
						C297.55,382.98,288.389,388.282,280.947,391.524z"/>
				</g>
			</g>
		</g>
	</g>
	<g>
		<g>
			<g>
				<g>
					<path fill="#92D0EF" d="M426.752,199.157H200.911c-3.916,0-7.09,3.249-7.09,7.257v143.313h240.024V206.414
						C433.845,202.406,430.668,199.157,426.752,199.157z"/>
				</g>
			</g>
		</g>
	</g>
	<g>
		<g>
			<g>
				<g>
					<path fill="#0072CD" d="M433.845,351.464H193.82c-0.96,0-1.738-0.777-1.738-1.736V206.414c0-4.96,3.96-8.994,8.828-8.994
						h225.841c4.869,0,8.83,4.034,8.83,8.994v143.313C435.582,350.687,434.805,351.464,433.845,351.464z M195.558,347.99h236.549
						V206.414c0-3.043-2.402-5.52-5.354-5.52H200.911c-2.953,0-5.353,2.477-5.353,5.52V347.99z"/>
				</g>
			</g>
		</g>
	</g>
	<g>
		<g>
			<g>
				<g>
					<rect x="205.344" y="209.826" fill="#FFFFFF" width="217.263" height="129.147"/>
				</g>
			</g>
		</g>
	</g>
	<g>
		<g>
			<g>
				<g>
					<path fill="#54AAE3" d="M193.82,348.312v9.302c0,4.007,3.174,7.257,7.09,7.257h225.841c3.916,0,7.093-3.25,7.093-7.257v-9.302
						H193.82z"/>
				</g>
			</g>
		</g>
	</g>
	<g>
		<g>
			<g>
				<g>
					<path fill="#0072CD" d="M426.752,366.608H200.911c-4.868,0-8.828-4.034-8.828-8.994v-9.302c0-0.96,0.778-1.736,1.738-1.736
						h240.024c0.96,0,1.737,0.776,1.737,1.736v9.302C435.582,362.573,431.621,366.608,426.752,366.608z M195.558,350.049v7.564
						c0,3.044,2.4,5.519,5.353,5.519h225.841c2.952,0,5.354-2.475,5.354-5.519v-7.564H195.558z"/>
				</g>
			</g>
		</g>
	</g>
	<g>
		<g>
			<g>
				<g>
					<rect x="205.344" y="209.826" fill="#EAF5FE" width="217.312" height="11.787"/>
				</g>
			</g>
		</g>
	</g>
	<g>
		<g>
			<g>
				<g>
					<rect x="205.344" y="330.589" fill="#EAF5FE" width="217.312" height="8.385"/>
				</g>
			</g>
		</g>
	</g>
	<g>
		<g>
			<g>
				<g>
					<path fill="#0072CD" d="M422.607,340.712H205.344c-0.96,0-1.737-0.779-1.737-1.738V209.826c0-0.96,0.777-1.737,1.737-1.737
						h217.263c0.961,0,1.738,0.777,1.738,1.737v129.147C424.346,339.933,423.568,340.712,422.607,340.712z M207.082,337.238h213.789
						V211.564H207.082V337.238z"/>
				</g>
			</g>
		</g>
	</g>
</g>
<g>
	<g>
		<rect x="173.098" y="335.347" fill-rule="evenodd" clip-rule="evenodd" fill="#FFFFFF" width="20.85" height="15.637"/>
	</g>
	<path fill-rule="evenodd" clip-rule="evenodd" fill="#54AAE3" d="M195.408,371.604c-0.01,3.18-0.017,4.948-0.017,5.095
		c0,9.348,7.576,16.924,16.923,16.924s16.923-7.576,16.923-16.924c0-0.145,0-2.311,0-5.219L195.408,371.604z"/>
	<g>
		<path fill-rule="evenodd" clip-rule="evenodd" fill="#54AAE3" d="M237.418,309.431c0-13.865-11.24-25.104-25.104-25.104
			c-13.866,0-25.104,11.239-25.104,25.104h-0.014l0.021,0.333c0.013,0.904,0.072,1.795,0.177,2.674c0,0,3.626,45.936,3.626,46.122
			c0,11.76,9.534,21.293,21.294,21.293s21.292-9.533,21.292-21.293c0-0.169,3.601-45.925,3.601-45.925
			C237.341,311.584,237.418,310.517,237.418,309.431z"/>
	</g>
	<path fill-rule="evenodd" clip-rule="evenodd" fill="#54AAE3" d="M170.827,371.604l-33.829-0.124c0,2.908,0,5.074,0,5.219
		c0,9.348,7.578,16.924,16.923,16.924c9.348,0,16.925-7.576,16.925-16.924C170.846,376.552,170.838,374.783,170.827,371.604z"/>
	<g>
		<path fill-rule="evenodd" clip-rule="evenodd" fill="#54AAE3" d="M128.818,309.431c0-13.865,11.239-25.104,25.104-25.104
			c13.864,0,25.104,11.239,25.104,25.104h0.014l-0.021,0.333c-0.014,0.904-0.073,1.795-0.178,2.674c0,0-3.626,45.936-3.626,46.122
			c0,11.76-9.534,21.293-21.292,21.293c-11.76,0-21.293-9.533-21.293-21.293c0-0.169-3.601-45.925-3.601-45.925
			C128.895,311.584,128.818,310.517,128.818,309.431z"/>
	</g>
	<g>
		<path fill="#0072CD" d="M212.314,395.359c-10.289,0-18.661-8.371-18.661-18.66l0.017-5.101l3.475,0.014l-0.017,5.087
			c0,8.373,6.812,15.186,15.186,15.186c8.373,0,15.186-6.813,15.186-15.186v-5.219h3.475v5.219
			C230.975,386.988,222.604,395.359,212.314,395.359z"/>
	</g>
	<g>
		<path fill-rule="evenodd" clip-rule="evenodd" fill="#FFFFFF" d="M234.691,341.748v5.223c0,9.347-10.021,16.926-22.377,16.926
			c-12.354,0-22.375-7.579-22.375-16.926c0-0.152,0.011-2.573,0.021-5.746l0.512,0.01c2.192,7.592,11.146,13.272,21.842,13.272
			c10.459,0,19.248-5.431,21.689-12.771L234.691,341.748z"/>
	</g>
	<g>
		<path fill-rule="evenodd" clip-rule="evenodd" fill="#FFFFFF" d="M176.157,341.748v5.223c0,9.347-10.021,16.926-22.374,16.926
			c-12.356,0-22.376-7.579-22.376-16.926c0-0.152,0.01-2.573,0.021-5.746l0.513,0.01c2.19,7.592,11.144,13.272,21.842,13.272
			c10.457,0,19.246-5.431,21.688-12.771L176.157,341.748z"/>
	</g>
	<g>
		<circle fill-rule="evenodd" clip-rule="evenodd" fill="#FFFFFF" cx="212.314" cy="309.431" r="25.104"/>
	</g>
	<g>
		<path fill-rule="evenodd" clip-rule="evenodd" fill="#92D0EF" d="M212.314,325.847c-9.052,0-16.417-7.363-16.417-16.416
			c0-9.052,7.365-16.417,16.417-16.417s16.416,7.365,16.416,16.417C228.73,318.484,221.367,325.847,212.314,325.847z"/>
	</g>
	<g>
		<path fill="#0072CD" d="M212.314,381.59c-12.7,0-23.031-10.331-23.031-23.03c-0.043-0.611-2.387-30.355-3.621-45.984
			c-0.105-0.871-0.169-1.833-0.181-2.789l-0.019-0.241c-0.007-0.112-0.004-0.228,0.011-0.338
			c0.121-14.698,12.115-26.618,26.841-26.618c14.801,0,26.84,12.041,26.84,26.842c0,1.105-0.074,2.257-0.224,3.423
			c-1.216,15.489-3.546,45.12-3.59,45.806C235.345,371.259,225.013,381.59,212.314,381.59z M188.943,309.535l0.009,0.114
			c0.014,0.924,0.069,1.762,0.168,2.583c3.638,46.072,3.638,46.239,3.638,46.327c0,10.783,8.773,19.555,19.557,19.555
			s19.555-8.771,19.555-19.555c0-0.088,0-0.237,3.605-46.063c0.14-1.103,0.205-2.107,0.205-3.066
			c0-12.884-10.481-23.367-23.365-23.367c-12.885,0-23.367,10.483-23.367,23.367C188.947,309.467,188.945,309.5,188.943,309.535z"/>
	</g>
	<g>
		<path fill="#0072CD" d="M153.921,395.359c-10.289,0-18.66-8.371-18.66-18.66v-5.219h3.475v5.219
			c0,8.373,6.812,15.186,15.185,15.186c8.375,0,15.188-6.813,15.188-15.186l-0.019-5.087l3.475-0.014l0.019,5.101
			C172.584,386.988,164.212,395.359,153.921,395.359z"/>
	</g>
	<g>
		<circle fill-rule="evenodd" clip-rule="evenodd" fill="#FFFFFF" cx="153.922" cy="309.431" r="25.104"/>
	</g>
	<g>
		<path fill-rule="evenodd" clip-rule="evenodd" fill="#92D0EF" d="M153.923,325.847c-9.052,0-16.417-7.363-16.417-16.416
			c0-9.052,7.365-16.417,16.417-16.417c9.053,0,16.416,7.365,16.416,16.417C170.339,318.484,162.976,325.847,153.923,325.847z"/>
	</g>
	<g>
		<path fill="#0072CD" d="M212.314,336.274c-14.8,0-26.842-12.042-26.842-26.843s12.042-26.842,26.842-26.842
			c14.801,0,26.84,12.041,26.84,26.842S227.115,336.274,212.314,336.274z M212.314,286.064c-12.885,0-23.367,10.483-23.367,23.367
			c0,12.885,10.482,23.368,23.367,23.368c12.884,0,23.365-10.483,23.365-23.368C235.68,296.547,225.198,286.064,212.314,286.064z"/>
	</g>
	<g>
		<path fill="#0072CD" d="M212.314,328.091c-10.291,0-18.663-8.369-18.663-18.66c0-10.29,8.372-18.662,18.663-18.662
			c10.289,0,18.661,8.372,18.661,18.662C230.975,319.722,222.604,328.091,212.314,328.091z M212.314,294.243
			c-8.375,0-15.188,6.814-15.188,15.188c0,8.374,6.813,15.187,15.188,15.187c8.373,0,15.186-6.813,15.186-15.187
			C227.5,301.058,220.688,294.243,212.314,294.243z"/>
	</g>
	<g>
		<path fill="#0072CD" d="M153.921,328.091c-10.289,0-18.66-8.369-18.66-18.66c0-10.29,8.372-18.662,18.66-18.662
			c10.291,0,18.663,8.372,18.663,18.662C172.584,319.722,164.212,328.091,153.921,328.091z M153.921,294.243
			c-8.373,0-15.185,6.814-15.185,15.188c0,8.374,6.812,15.187,15.185,15.187c8.375,0,15.188-6.813,15.188-15.187
			C169.109,301.058,162.296,294.243,153.921,294.243z"/>
	</g>
	<g>
		<path fill="#0072CD" d="M153.923,336.274c-14.801,0-26.842-12.042-26.842-26.843s12.041-26.842,26.842-26.842
			s26.841,12.041,26.841,26.842S168.724,336.274,153.923,336.274z M153.923,286.064c-12.885,0-23.367,10.483-23.367,23.367
			c0,12.885,10.482,23.368,23.367,23.368c12.883,0,23.366-10.483,23.366-23.368C177.289,296.547,166.806,286.064,153.923,286.064z"
			/>
	</g>
	<g>
		<path fill="#0072CD" d="M153.923,381.59c-12.7,0-23.031-10.331-23.031-23.03c-0.041-0.586-2.371-30.217-3.595-45.787
			c-0.141-1.085-0.215-2.236-0.215-3.342c0-14.801,12.041-26.842,26.842-26.842c14.728,0,26.724,11.923,26.839,26.627
			c0.016,0.105,0.02,0.214,0.012,0.322l-0.02,0.332c-0.013,0.88-0.075,1.84-0.187,2.773c-1.228,15.561-3.572,45.305-3.618,46.012
			C176.953,371.259,166.621,381.59,153.923,381.59z M153.923,286.064c-12.885,0-23.367,10.483-23.367,23.367
			c0,0.959,0.065,1.964,0.197,2.985c3.613,45.906,3.613,46.056,3.613,46.144c0,10.783,8.773,19.555,19.557,19.555
			s19.555-8.771,19.555-19.555c0-0.088,0-0.255,3.631-46.26c0.106-0.883,0.162-1.724,0.173-2.562l0.01-0.188
			c-0.002-0.039-0.003-0.079-0.003-0.119C177.289,296.547,166.806,286.064,153.923,286.064z"/>
	</g>
	<g>
		<rect x="177.099" y="332.799" fill="#0072CD" width="12.118" height="3.475"/>
	</g>
	<g>
		<rect x="176.376" y="348.412" fill="#0072CD" width="13.563" height="3.475"/>
	</g>
	<g>
		<path fill="#0072CD" d="M183.157,348.032c-2.06,0-3.734-1.675-3.734-3.734c0-2.061,1.674-3.735,3.734-3.735
			c2.06,0,3.735,1.675,3.735,3.735C186.893,346.358,185.217,348.032,183.157,348.032z M183.157,344.038
			c-0.142,0-0.26,0.117-0.26,0.26c0,0.287,0.52,0.287,0.52,0C183.417,344.156,183.3,344.038,183.157,344.038z"/>
	</g>
</g>
<g>
	<g>
		<defs>
			<circle id="SVGID_1_" cx="313.998" cy="281.79" r="48.8"/>
		</defs>
		<clipPath id="SVGID_2_">
			<use xlink:href="#SVGID_1_"  overflow="visible"/>
		</clipPath>
		<g clip-path="url(#SVGID_2_)">
			<g>
				<path fill="#54AAE3" d="M339.74,326.323h-51.483v-63.329c0-13.606,11.032-24.639,24.638-24.639h2.209
					c13.607,0,24.637,11.033,24.637,24.639V326.323z"/>
			</g>
			<g>
				<path fill="#0072CD" d="M339.74,328.06h-51.483c-0.96,0-1.737-0.777-1.737-1.737v-63.329c0-14.544,11.831-26.375,26.375-26.375
					h2.209c14.544,0,26.374,11.832,26.374,26.375v63.329C341.478,327.282,340.7,328.06,339.74,328.06z M289.995,324.584h48.008
					v-61.591c0-12.627-10.272-22.9-22.899-22.9h-2.209c-12.627,0-22.9,10.273-22.9,22.9V324.584z"/>
			</g>
			<g>
				<path fill="#92D0EF" d="M349.388,350.113v-32.75c0-14.655-10.337-24.194-24.997-24.194h-23.454
					c-14.66,0-22.326,9.539-22.326,24.194v32.75H349.388z"/>
			</g>
			<g>
				<path fill="#0072CD" d="M351.125,350.087h-3.476v-33.48c0-13.184-9.202-21.701-23.445-21.701h-24.528v-3.475h24.528
					c16.103,0,26.921,10.117,26.921,25.176V350.087z"/>
			</g>
			<g>
				<path fill="#0072CD" d="M314.336,316.167c-0.607,0-1.171-0.316-1.488-0.836l-12.423-20.49l2.973-1.802l10.914,18.003
					l10.74-18.273l2.996,1.762l-12.216,20.78c-0.309,0.526-0.876,0.852-1.486,0.856C314.343,316.167,314.34,316.167,314.336,316.167
					z"/>
			</g>
			<g>
				<rect x="312.495" y="320.866" fill="#0072CD" width="3.474" height="10.589"/>
			</g>
			<g>
				<rect x="312.495" y="341.886" fill="#0072CD" width="3.474" height="8.227"/>
			</g>
			<g>
				<rect x="331.976" y="330.984" fill="#0072CD" width="3.476" height="19.129"/>
			</g>
			<g>
				<g>
					<path fill="#FFFFFF" d="M333.523,264.358c0-10.783-8.741-19.523-19.523-19.523l0,0c-10.784,0-19.525,8.742-19.525,19.525v2.603
						c0,10.781,8.741,19.522,19.521,19.522l0,0c10.785,0,19.526-8.741,19.526-19.524V264.358z"/>
				</g>
				<g>
					<path fill="#0072CD" d="M313.997,288.222c-11.722,0-21.259-9.537-21.259-21.26v-2.603c0-11.724,9.537-21.262,21.262-21.262
						c11.721,0,21.259,9.537,21.259,21.26v2.603C335.26,278.685,325.722,288.222,313.997,288.222z M314,246.573
						c-9.808,0-17.788,7.978-17.788,17.787v2.603c0,9.807,7.978,17.785,17.785,17.785c9.808,0,17.788-7.98,17.788-17.787v-2.603
						C331.785,254.55,323.808,246.573,314,246.573z"/>
				</g>
			</g>
			<g>
				<path fill="#0072CD" d="M327.744,335.835c-0.818,0-1.646-0.082-2.454-0.242l0.676-3.41c0.587,0.117,1.184,0.177,1.778,0.177
					c4.931,0,8.941-4.011,8.941-8.942c0-2.58-1.116-5.035-3.061-6.735l2.287-2.616c2.701,2.361,4.248,5.769,4.248,9.352
					C340.16,330.264,334.592,335.835,327.744,335.835z"/>
			</g>
			<g>
				<path fill="#0072CD" d="M301.892,335.835c-6.846,0-12.417-5.571-12.417-12.418c0-3.583,1.547-6.994,4.247-9.352l2.288,2.616
					c-1.945,1.7-3.06,4.153-3.06,6.735c0,4.932,4.011,8.942,8.941,8.942c0.592,0,1.189-0.06,1.778-0.177l0.675,3.41
					C303.534,335.753,302.71,335.835,301.892,335.835z"/>
			</g>
			<g>
				<path fill="#54AAE3" d="M304.05,244.034c0,0,3.929,19.944,33.759,19.944C337.809,263.979,335.967,233.983,304.05,244.034z"/>
			</g>
			<g>
				<path fill="#0072CD" d="M336.913,265.717c-30.109,0-34.524-19.94-34.564-20.143l3.402-0.702
					c0.151,0.71,4.012,17.37,31.163,17.37V265.717z"/>
			</g>
		</g>
	</g>
	<g>
		<defs>
			<circle id="SVGID_3_" cx="313.999" cy="136.894" r="36.25"/>
		</defs>
		<clipPath id="SVGID_4_">
			<use xlink:href="#SVGID_3_"  overflow="visible"/>
		</clipPath>
		<g clip-path="url(#SVGID_4_)">
			<g>
				<path fill="#FFFFFF" d="M335.685,161.139v-35.752c0-11.463-9.291-20.758-20.757-20.758h-1.857
					c-11.465,0-20.759,9.295-20.759,20.758v35.752H335.685z"/>
			</g>
			<g>
				<path fill="#0072CD" d="M335.685,162.876h-43.373c-0.96,0-1.736-0.778-1.736-1.737v-35.752
					c0-12.404,10.092-22.496,22.495-22.496h1.857c12.402,0,22.495,10.091,22.495,22.496v35.752
					C337.423,162.098,336.645,162.876,335.685,162.876z M294.05,159.401h39.897v-34.014c0-10.488-8.531-19.021-19.02-19.021h-1.857
					c-10.488,0-19.021,8.533-19.021,19.021V159.401z"/>
			</g>
			<g>
				<g>
					<circle fill="#FFFFFF" cx="294.947" cy="147.21" r="8.989"/>
				</g>
				<g>
					<path fill="#0072CD" d="M294.947,157.939c-5.915,0-10.727-4.813-10.727-10.729c0-5.915,4.813-10.727,10.727-10.727
						c1.356,0,2.683,0.252,3.941,0.749l-1.275,3.231c-0.852-0.335-1.748-0.506-2.666-0.506c-3.999,0-7.252,3.254-7.252,7.252
						c0,3.999,3.253,7.253,7.252,7.253c1.335,0,2.643-0.367,3.777-1.061l1.813,2.964
						C298.856,157.395,296.924,157.939,294.947,157.939z"/>
				</g>
			</g>
			<g>
				<g>
					<circle fill="#FFFFFF" cx="333.859" cy="147.21" r="8.989"/>
				</g>
				<g>
					<path fill="#0072CD" d="M333.859,157.939c-1.976,0-3.909-0.544-5.59-1.572l1.813-2.964c1.134,0.694,2.44,1.061,3.777,1.061
						c4,0,7.252-3.254,7.252-7.253c0-3.998-3.252-7.252-7.252-7.252c-0.916,0-1.815,0.171-2.668,0.506l-1.275-3.231
						c1.26-0.497,2.586-0.749,3.943-0.749c5.915,0,10.727,4.812,10.727,10.727C344.586,153.126,339.774,157.939,333.859,157.939z"/>
				</g>
			</g>
			<g>
				<path fill="#54AAE3" d="M340.286,187.645v-24.327c0-10.887-7.68-17.972-18.568-17.972h-17.422
					c-10.889,0-16.584,7.085-16.584,17.972v24.327H340.286z"/>
			</g>
			<g>
				<path fill="#0072CD" d="M342.023,187.626h-3.475v-24.87c0-9.521-6.661-15.673-16.967-15.673h-18.223v-3.476h18.223
					c12.226,0,20.441,7.695,20.441,19.148V187.626z"/>
			</g>
			<g>
				<path fill="#0072CD" d="M314.248,162.876c-0.607,0-1.17-0.317-1.485-0.836l-9.229-15.22l2.973-1.801l7.718,12.731l7.602-12.927
					l2.996,1.762l-9.074,15.435c-0.313,0.527-0.875,0.854-1.486,0.857C314.259,162.876,314.252,162.876,314.248,162.876z"/>
			</g>
			<g>
				<rect x="312.436" y="165.92" fill="#0072CD" width="3.475" height="7.865"/>
			</g>
			<g>
				<rect x="312.436" y="181.535" fill="#0072CD" width="3.475" height="6.11"/>
			</g>
			<g>
				<rect x="326.906" y="173.434" fill="#0072CD" width="3.475" height="14.21"/>
			</g>
			<g>
				<g>
					<path fill="#FFFFFF" d="M328.501,123.945c0-8.011-6.492-14.502-14.5-14.502l0,0c-8.011,0-14.505,6.493-14.505,14.502v1.935
						c0,8.008,6.494,14.501,14.501,14.501l0,0c8.012,0,14.504-6.493,14.504-14.503V123.945z"/>
				</g>
				<g>
					<path fill="#0072CD" d="M313.997,142.118c-8.953,0-16.238-7.285-16.238-16.239v-1.935c0-8.954,7.285-16.24,16.242-16.24
						c8.952,0,16.238,7.286,16.238,16.24v1.933C330.238,134.832,322.952,142.118,313.997,142.118z M314,111.18
						c-7.041,0-12.767,5.727-12.767,12.765v1.935c0,7.038,5.727,12.765,12.764,12.765c7.042,0,12.767-5.728,12.767-12.767v-1.933
						C326.764,116.906,321.039,111.18,314,111.18z"/>
				</g>
			</g>
			<g>
				<g>
					<path fill="#FFFFFF" d="M330.231,123.038c-1.435-7.671-8.144-13.482-16.231-13.482c-8.089,0-14.799,5.812-16.233,13.482
						H330.231z"/>
				</g>
				<g>
					<path fill="#0072CD" d="M330.231,124.776h-32.464c-0.519,0-1.007-0.229-1.337-0.627c-0.329-0.397-0.466-0.922-0.372-1.429
						c1.615-8.634,9.159-14.901,17.942-14.901c8.779,0,16.323,6.267,17.938,14.901c0.095,0.507-0.041,1.032-0.37,1.429
						C331.236,124.546,330.747,124.776,330.231,124.776z M300.014,121.301h27.971c-2.012-5.907-7.594-10.007-13.984-10.007
						C307.608,111.294,302.025,115.393,300.014,121.301z"/>
				</g>
			</g>
			<g>
				<path fill="#0072CD" d="M324.208,177.485c-0.645,0-1.289-0.063-1.91-0.188l0.682-3.407c0.397,0.079,0.812,0.12,1.229,0.12
					c3.417,0,6.196-2.779,6.196-6.194c0-1.787-0.773-3.489-2.121-4.669l2.291-2.615c2.101,1.84,3.306,4.495,3.306,7.284
					C333.88,173.148,329.542,177.485,324.208,177.485z"/>
			</g>
			<g>
				<path fill="#0072CD" d="M305.006,177.485c-5.333,0-9.672-4.337-9.672-9.669c0-2.789,1.206-5.443,3.307-7.284l2.291,2.615
					c-1.349,1.18-2.122,2.882-2.122,4.669c0,3.416,2.779,6.194,6.197,6.194c0.417,0,0.831-0.041,1.229-0.12l0.682,3.407
					C306.295,177.422,305.651,177.485,305.006,177.485z"/>
			</g>
		</g>
	</g>
	<g>
		<defs>
			<circle id="SVGID_5_" cx="258.526" cy="194.67" r="40.066"/>
		</defs>
		<clipPath id="SVGID_6_">
			<use xlink:href="#SVGID_5_"  overflow="visible"/>
		</clipPath>
		<g clip-path="url(#SVGID_6_)">
			<g>
				<path fill="#54AAE3" d="M285.959,240.055v-25.386c0-11.361-8.014-18.755-19.378-18.755h-18.183
					c-11.364,0-17.307,7.395-17.307,18.755v25.386H285.959z"/>
			</g>
			<g>
				<path fill="#0072CD" d="M287.697,240.036h-3.474v-25.955c0-9.982-6.981-16.431-17.784-16.431h-19.015v-3.475h19.015
					c12.716,0,21.258,8,21.258,19.906V240.036z"/>
			</g>
			<g>
				<path fill="#0072CD" d="M258.786,214.133c-0.607,0-1.171-0.317-1.486-0.836l-9.631-15.885l2.973-1.802l8.123,13.396l7.996-13.6
					l2.996,1.761l-9.472,16.108c-0.31,0.526-0.875,0.853-1.486,0.857C258.795,214.133,258.79,214.133,258.786,214.133z"/>
			</g>
			<g>
				<rect x="256.969" y="217.385" fill="#0072CD" width="3.476" height="8.207"/>
			</g>
			<g>
				<rect x="256.969" y="233.679" fill="#0072CD" width="3.476" height="6.376"/>
			</g>
			<g>
				<rect x="272.07" y="225.228" fill="#0072CD" width="3.475" height="14.827"/>
			</g>
			<g>
				<g>
					<path fill="#FFFFFF" d="M249.354,190.528v12.794l9.478-7.233l9.227,7.233v-12.794l-0.315-0.431l0,0
						c-2.993,7.73-13.948,7.672-16.862-0.087l-0.085-0.226L249.354,190.528z"/>
				</g>
				<g>
					<path fill="#0072CD" d="M249.354,205.058c-0.263,0-0.527-0.059-0.771-0.179c-0.593-0.294-0.967-0.897-0.967-1.558v-12.794
						c0-0.651,0.363-1.246,0.941-1.545L250,188.24c0.443-0.228,0.957-0.256,1.42-0.077c0.463,0.178,0.827,0.546,1.002,1.01
						l0.084,0.226c1.309,3.485,4.382,4.727,6.823,4.727c2.413,0,5.463-1.224,6.792-4.655c0.229-0.592,0.764-1.012,1.393-1.095
						c0.632-0.09,1.254,0.183,1.629,0.695l0.315,0.431c0.219,0.298,0.337,0.657,0.337,1.026v12.794c0,0.664-0.381,1.271-0.978,1.562
						c-0.596,0.291-1.309,0.215-1.833-0.194l-8.168-6.405l-8.411,6.418C250.099,204.939,249.727,205.058,249.354,205.058z
						 M251.092,193.782v6.027l4.009-3.059C253.549,196.094,252.178,195.08,251.092,193.782z M262.856,197.034l3.465,2.717v-4.679
						C265.309,195.941,264.138,196.605,262.856,197.034z"/>
				</g>
			</g>
			<g>
				<g>
					<path fill="#FFFFFF" d="M276.115,176.032c0-9.714-7.875-17.588-17.589-17.588l0,0c-9.715,0-17.59,7.874-17.59,17.59v2.345
						c0,9.714,7.875,17.588,17.589,17.588l0,0c9.715,0,17.59-7.876,17.59-17.59V176.032z"/>
				</g>
				<g>
					<path fill="#0072CD" d="M258.525,197.705c-10.656,0-19.326-8.67-19.326-19.326v-2.345c0-10.657,8.67-19.328,19.327-19.328
						c10.655,0,19.326,8.67,19.326,19.326v2.345C277.853,189.034,269.182,197.705,258.525,197.705z M258.526,160.181
						c-8.741,0-15.852,7.112-15.852,15.853v2.345c0,8.74,7.111,15.851,15.851,15.851c8.741,0,15.852-7.112,15.852-15.853v-2.345
						C274.377,167.292,267.267,160.181,258.526,160.181z"/>
				</g>
			</g>
		</g>
	</g>
	<g>
		<defs>
			<circle id="SVGID_7_" cx="369.472" cy="194.67" r="40.065"/>
		</defs>
		<clipPath id="SVGID_8_">
			<use xlink:href="#SVGID_7_"  overflow="visible"/>
		</clipPath>
		<g clip-path="url(#SVGID_8_)">
			<g>
				<path fill="#92D0EF" d="M396.411,241.852v-24.93c0-11.156-7.87-18.418-19.028-18.418h-17.855
					c-11.161,0-16.994,7.262-16.994,18.418v24.93H396.411z"/>
			</g>
			<g>
				<path fill="#0072CD" d="M398.148,241.833h-3.476v-25.488c0-9.782-6.841-16.104-17.432-16.104H358.57v-3.475h18.671
					c12.505,0,20.907,7.867,20.907,19.578V241.833z"/>
			</g>
			<g>
				<path fill="#0072CD" d="M369.729,216.427c-0.607,0-1.171-0.317-1.487-0.837l-9.457-15.598l2.972-1.803l7.949,13.11l7.824-13.31
					l2.996,1.762l-9.298,15.819c-0.312,0.527-0.875,0.852-1.485,0.857C369.738,216.427,369.731,216.427,369.729,216.427z"/>
			</g>
			<g>
				<rect x="367.912" y="219.589" fill="#0072CD" width="3.475" height="8.06"/>
			</g>
			<g>
				<rect x="367.912" y="235.59" fill="#0072CD" width="3.475" height="6.262"/>
			</g>
			<g>
				<rect x="382.742" y="227.291" fill="#0072CD" width="3.475" height="14.561"/>
			</g>
			<g>
				<g>
					<path fill="#FFFFFF" d="M360.467,193.216v12.563l9.306-7.103l9.061,7.103v-12.563l-0.31-0.423l0,0
						c-2.938,7.59-13.699,7.535-16.56-0.084l-0.081-0.223L360.467,193.216z"/>
				</g>
				<g>
					<path fill="#0072CD" d="M360.467,207.515c-0.264,0-0.525-0.059-0.771-0.179c-0.594-0.294-0.967-0.897-0.967-1.558v-12.563
						c0-0.651,0.363-1.247,0.94-1.544l1.415-0.73c0.441-0.23,0.96-0.253,1.422-0.077c0.464,0.179,0.828,0.547,1.001,1.013
						l0.084,0.223c1.277,3.403,4.283,4.617,6.669,4.617c2.358,0,5.341-1.195,6.642-4.551c0.23-0.591,0.764-1.012,1.391-1.095
						c0.631-0.084,1.256,0.183,1.629,0.693l0.313,0.422c0.217,0.298,0.336,0.66,0.336,1.029v12.563c0,0.664-0.38,1.271-0.978,1.561
						c-0.594,0.291-1.307,0.215-1.832-0.194l-8.002-6.273l-8.24,6.287C361.211,207.395,360.841,207.515,360.467,207.515z
						 M362.205,196.499v5.767l3.841-2.932C364.563,198.699,363.253,197.732,362.205,196.499z M373.789,199.617l3.307,2.592v-4.463
						C376.125,198.568,375.008,199.2,373.789,199.617z"/>
				</g>
			</g>
			<g>
				<g>
					<path fill="#FFFFFF" d="M385.369,180.615c0-8.779-7.117-15.896-15.896-15.896l0,0c-8.782,0-15.898,7.116-15.898,15.897v2.119
						c0,8.779,7.116,15.896,15.895,15.896l0,0c8.782,0,15.899-7.117,15.899-15.896V180.615z"/>
				</g>
				<g>
					<path fill="#0072CD" d="M369.47,200.368c-9.722,0-17.632-7.91-17.632-17.632v-2.119c0-9.723,7.91-17.634,17.636-17.634
						c9.722,0,17.632,7.911,17.632,17.633v2.121C387.105,192.458,379.195,200.368,369.47,200.368z M369.474,166.458
						c-7.809,0-14.161,6.352-14.161,14.159v2.119c0,7.807,6.353,14.158,14.157,14.158c7.809,0,14.161-6.351,14.161-14.158v-2.121
						C383.631,172.808,377.278,166.458,369.474,166.458z"/>
				</g>
			</g>
			<g>
				<g>
					<path fill="#54AAE3" d="M376.701,177.6h-8.785c-4.113,0-7.449-3.336-7.449-7.451v-0.15c0-4.115,3.336-7.451,7.449-7.451h20.981
						v2.857C388.897,172.14,383.438,177.6,376.701,177.6z"/>
				</g>
				<g>
					<path fill="#0072CD" d="M376.701,179.338h-8.785c-5.066,0-9.187-4.122-9.187-9.188c0-5.217,4.12-9.339,9.187-9.339h20.981
						c0.961,0,1.737,0.778,1.737,1.738v2.857C390.635,173.088,384.384,179.338,376.701,179.338z M367.916,164.286
						c-3.149,0-5.711,2.563-5.711,5.713c0,3.3,2.562,5.863,5.711,5.863h8.785c5.77,0,10.459-4.691,10.459-10.457v-1.119H367.916z"/>
				</g>
			</g>
		</g>
	</g>
</g>
<g>
	<g>
		<g>
			<g>
				<g>
					<g>
						<path fill="#0072CD" d="M372.623,335.255c-2.121,0-4.137-0.672-5.837-1.945l-11.368-8.776
							c-4.262-3.213-5.142-9.321-1.944-13.604c0.037-0.051,0.077-0.098,0.122-0.146c1.832-2.362,4.697-3.769,7.696-3.769
							c2.121,0,4.14,0.674,5.84,1.95l11.361,8.772c4.269,3.199,5.148,9.31,1.938,13.604
							C378.592,333.798,375.677,335.255,372.623,335.255z M356.178,313.116c-1.961,2.749-1.371,6.604,1.348,8.653l11.364,8.773
							c1.072,0.805,2.372,1.237,3.733,1.237c1.995,0,3.82-0.913,5.012-2.502c2.077-2.779,1.514-6.709-1.245-8.775l-11.365-8.773
							c-1.072-0.807-2.368-1.239-3.732-1.239c-1.992,0-3.821,0.913-5.013,2.504C356.249,313.037,356.215,313.077,356.178,313.116z"
							/>
					</g>
				</g>
			</g>
		</g>
	</g>
	<g>
		<g>
			<g>
				<path fill="#FFFFFF" d="M254.942,289.798c4.339,30.579,31.896,53.037,62.692,51.162c1.612-0.109,3.255-0.279,4.836-0.513
					c8.104-1.146,15.715-3.858,22.641-8.06c4.263-2.635,8.186-5.766,11.688-9.376c1.799-1.875,3.502-3.876,5.066-5.952
					c1.503-2.029,2.898-4.137,4.109-6.307c6.6-11.531,9.081-24.628,7.191-37.848c-2.264-15.792-10.541-29.742-23.327-39.335
					c-11.361-8.51-25.356-12.693-39.397-11.842c-1.612,0.108-3.237,0.25-4.866,0.498c-15.793,2.262-29.803,10.601-39.365,23.401
					C256.662,258.399,252.649,274.083,254.942,289.798z M274.456,251.797c7.951-10.631,19.513-17.514,32.578-19.388
					c1.331-0.172,2.696-0.326,4.029-0.404c11.639-0.712,23.2,2.792,32.594,9.843c10.601,7.903,17.449,19.45,19.295,32.5
					c1.859,12.988-1.456,25.959-9.329,36.545l-0.745,0.961c-8.135,10.166-19.374,16.599-31.879,18.412
					c-1.316,0.17-2.65,0.342-3.984,0.388c-25.479,1.565-48.263-17.002-51.889-42.312
					C263.281,275.307,266.598,262.335,274.456,251.797z"/>
			</g>
		</g>
	</g>
	<g>
		<g>
			<g>
				<path fill="#0072CD" d="M314.031,342.801c-30.388,0-56.534-22.682-60.824-52.762c-2.326-16.163,1.794-32.309,11.604-45.456
					c9.864-13.189,24.252-21.74,40.515-24.078c1.656-0.239,3.346-0.412,5.02-0.515c14.436-0.88,28.95,3.515,40.541,12.198
					c13.15,9.864,21.668,24.233,23.989,40.461c1.958,13.614-0.598,27.097-7.388,38.989c-1.249,2.2-2.671,4.372-4.229,6.45
					c-1.588,2.133-3.346,4.195-5.219,6.126c-3.598,3.716-7.648,6.96-12.04,9.639c-7.116,4.337-14.944,7.138-23.272,8.325
					c-1.626,0.234-3.302,0.405-4.979,0.508C316.502,342.764,315.263,342.801,314.031,342.801z M314.048,223.351
					c-1.161,0-2.325,0.036-3.487,0.106c-1.581,0.098-3.177,0.261-4.739,0.486c-15.346,2.206-28.921,10.275-38.226,22.719
					c-9.256,12.404-13.143,27.635-10.947,42.885c4.208,29.53,30.777,51.509,60.885,49.672c1.585-0.097,3.166-0.26,4.703-0.479
					c7.859-1.122,15.247-3.764,21.955-7.854c4.141-2.524,7.959-5.582,11.353-9.089c1.771-1.824,3.431-3.771,4.934-5.788
					c1.47-1.965,2.813-4.012,3.99-6.09c6.407-11.218,8.816-23.934,6.967-36.775c-2.188-15.312-10.228-28.868-22.631-38.175
					C338.8,227.477,326.458,223.351,314.048,223.351z M314.024,332.49c-0.003,0-0.003,0-0.007,0
					c-25.273-0.001-47.036-18.872-50.619-43.893c-1.913-13.479,1.521-26.918,9.669-37.848c8.228-10.986,20.199-18.104,33.715-20.046
					c1.381-0.196,2.782-0.339,4.168-0.423c11.999-0.73,24.113,2.928,33.758,10.163c10.95,8.203,18.043,20.16,19.971,33.67
					c1.924,13.445-1.511,26.871-9.661,37.802l-0.777,1.006c-8.334,10.448-20.041,17.209-32.978,19.055
					c-1.389,0.197-2.786,0.338-4.153,0.419C316.078,332.457,315.049,332.49,314.024,332.49z M314.034,233.661
					c-0.956,0-1.913,0.028-2.872,0.087c-1.294,0.079-2.601,0.211-3.889,0.396c-12.593,1.808-23.754,8.444-31.421,18.687
					c-7.595,10.185-10.797,22.714-9.014,35.276c3.339,23.318,23.622,40.906,47.182,40.908c0,0,0,0,0.003,0
					c0.954,0,1.91-0.029,2.874-0.088c1.279-0.076,2.579-0.209,3.871-0.393c12.058-1.721,22.975-8.025,30.738-17.758l0.74-0.96
					c7.585-10.167,10.781-22.682,8.99-35.212c-1.796-12.59-8.406-23.734-18.613-31.381
					C334.405,237.057,324.252,233.661,314.034,233.661z"/>
			</g>
		</g>
	</g>
	<g>
		<g>
			<g>
				
					<rect x="390.787" y="308.212" transform="matrix(-0.5985 0.8011 -0.8011 -0.5985 923.9572 233.2183)" fill="#92D0EF" width="25.499" height="79.861"/>
			</g>
		</g>
	</g>
	<g>
		<g>
			<path fill="#92D0EF" d="M462.139,346.644h-45.91c-3.621,0-6.556,2.936-6.556,6.557l0,0c0,3.62,2.935,6.555,6.556,6.555h45.91
				c3.621,0,6.557-2.935,6.557-6.555l0,0C468.695,349.579,465.76,346.644,462.139,346.644z"/>
		</g>
		<g>
			<path fill="#92D0EF" d="M427.535,328.542h-28.542c-3.621,0-6.556,2.935-6.556,6.555l0,0c0,3.62,2.935,6.556,6.556,6.556h28.542
				c3.621,0,6.557-2.936,6.557-6.556l0,0C434.092,331.477,431.156,328.542,427.535,328.542z"/>
		</g>
		<g>
			<path fill="#92D0EF" d="M487.664,359.659h-14.415c-1.992,0-3.61,1.615-3.61,3.609l0,0c0,1.991,1.618,3.607,3.61,3.607h14.415
				c1.992,0,3.607-1.616,3.607-3.607l0,0C491.271,361.275,489.656,359.659,487.664,359.659z"/>
		</g>
		<g>
			<path fill="#92D0EF" d="M427.896,372.32h51.337c2.744,0,4.967,2.223,4.967,4.968c0,2.741-2.223,4.966-4.967,4.966h-51.337V372.32
				z"/>
		</g>
		<g>
			<path fill="#92D0EF" d="M454.666,359.659h-24.47c1.805,0,3.448,0.782,4.632,1.967c1.191,1.189,1.925,2.595,1.925,4.406
				c0,3.621-2.939,6.321-6.557,6.321h24.47c-1.809,0-3.447-0.481-4.635-1.66c-1.185-1.184-1.922-2.744-1.922-4.558
				C448.109,362.511,451.045,359.659,454.666,359.659z"/>
		</g>
	</g>
	<g>
		<g>
			<path fill="#0072CD" d="M479.232,385.177h-40.271c-7.688,0-15.284-2.58-21.382-7.268l-54.723-42.07
				c-0.754-0.578-0.903-1.656-0.333-2.418l15.261-20.428c0.553-0.747,1.605-0.92,2.375-0.393l19.373,13.308h28.003
				c4.497,0,8.294,3.99,8.294,8.713c0,4.722-3.797,8.71-8.294,8.71h-5.843l1.687,1.176h37.82c2.864,0,5.486,1.179,7.204,3.234
				c2.205,2.641,2.649,6.078,1.19,9.197c-1.418,3.033-4.343,4.991-7.455,4.991h-8.442c-2.122,0-3.849,1.985-3.849,4.425
				c0,1.609,0.768,2.713,1.412,3.356c0.749,0.745,1.764,1.142,2.922,1.142h25.051c3.572,0,6.705,3.348,6.705,7.164
				C485.938,381.831,482.805,385.177,479.232,385.177z M366.335,334.127l53.362,41.027c5.494,4.221,12.335,6.547,19.264,6.547
				h40.271c1.659,0,3.23-1.789,3.23-3.685c0-1.895-1.571-3.688-3.23-3.688h-25.051c-2.064,0-3.972-0.766-5.375-2.153
				c-1.572-1.569-2.434-3.634-2.434-5.82c0-4.356,3.285-7.899,7.323-7.899h8.442c1.769,0,3.459-1.175,4.307-2.99
				c0.421-0.896,1.19-3.224-0.709-5.497c-1.056-1.263-2.709-1.987-4.537-1.987h-38.367c-0.353,0-0.699-0.108-0.991-0.31
				l-6.682-4.648c-0.624-0.436-0.892-1.223-0.664-1.949c0.228-0.723,0.898-1.216,1.655-1.216h11.385
				c2.566,0,4.818-2.447,4.818-5.236c0-2.791-2.252-5.238-4.818-5.238h-28.542c-0.349,0-0.691-0.104-0.983-0.306l-18.444-12.668
				L366.335,334.127z"/>
		</g>
		<g>
			<path fill="#0072CD" d="M487.664,368.13h-14.415c-3.099,0-5.349-2.035-5.349-4.838s2.25-4.837,5.349-4.837h14.415
				c3.098,0,5.345,2.034,5.345,4.837S490.762,368.13,487.664,368.13z M473.249,361.93c-0.563,0-1.873,0.132-1.873,1.362
				s1.31,1.363,1.873,1.363h14.415c0.563,0,1.871-0.133,1.871-1.363s-1.308-1.362-1.871-1.362H473.249z"/>
		</g>
	</g>
</g>
<g>
	<path fill="#0072CD" d="M485.839,196.35h-6.841c-3.444,0-4.873-3.707-6.135-6.977c-0.775-2.005-1.834-4.752-2.892-4.752
		c-1.08,0-2.091,2.496-2.902,4.501c-1.266,3.126-2.7,6.669-6.118,6.669c-3.42,0-4.862-3.516-6.135-6.617
		c-0.815-1.987-1.83-4.46-2.916-4.46c-1.072,0-2.145,2.728-2.929,4.719c-1.279,3.243-2.728,6.917-6.162,6.917h-9.095
		c-0.96,0-1.737-0.777-1.737-1.737c0-0.96,0.777-1.737,1.737-1.737h9.095c1.069,0,2.146-2.726,2.929-4.717
		c1.275-3.243,2.725-6.919,6.162-6.919c3.414,0,4.856,3.514,6.128,6.614c0.819,1.988,1.834,4.462,2.923,4.462
		c1.076,0,2.088-2.494,2.898-4.498c1.266-3.127,2.7-6.671,6.122-6.671c3.444,0,4.872,3.706,6.135,6.976
		c0.773,2.007,1.832,4.754,2.892,4.754h6.841c0.96,0,1.737,0.777,1.737,1.737C487.576,195.573,486.799,196.35,485.839,196.35z"/>
</g>
<g>
	<path fill="#0072CD" d="M174.836,271.062h-6.842c-3.444,0-4.875-3.708-6.136-6.979c-0.773-2.005-1.832-4.751-2.891-4.751
		c-1.081,0-2.09,2.496-2.901,4.5c-1.267,3.128-2.702,6.67-6.121,6.67s-4.861-3.515-6.133-6.617
		c-0.816-1.986-1.831-4.459-2.917-4.459c-1.071,0-2.145,2.728-2.929,4.719c-1.277,3.242-2.727,6.918-6.161,6.918h-9.094
		c-0.96,0-1.738-0.779-1.738-1.737c0-0.959,0.778-1.738,1.738-1.738h9.094c1.069,0,2.143-2.727,2.926-4.717
		c1.278-3.243,2.728-6.919,6.163-6.919c3.416,0,4.857,3.514,6.13,6.614c0.816,1.988,1.831,4.462,2.92,4.462
		c1.078,0,2.087-2.494,2.898-4.498c1.266-3.127,2.702-6.671,6.124-6.671c3.444,0,4.873,3.706,6.133,6.976
		c0.774,2.007,1.833,4.753,2.894,4.753h6.842c0.96,0,1.736,0.779,1.736,1.738C176.572,270.282,175.796,271.062,174.836,271.062z"/>
</g>
</svg>
