<?xml version="1.0" encoding="utf-8"?>
<!-- Generator: Adobe Illustrator 16.0.0, SVG Export Plug-In . SVG Version: 6.00 Build 0)  -->
<!DOCTYPE svg PUBLIC "-//W3C//DTD SVG 1.1//EN" "http://www.w3.org/Graphics/SVG/1.1/DTD/svg11.dtd">
<svg version="1.1" id="layer_1" xmlns="http://www.w3.org/2000/svg" xmlns:xlink="http://www.w3.org/1999/xlink" x="0px" y="0px"
	 width="617.275px" height="537px" viewBox="0 69.86 617.275 537" enable-background="new 0 69.86 617.275 537"
	 xml:space="preserve">
<g>
	<g>
		<g>
			<circle fill="#D6EAFA" cx="307.413" cy="344.958" r="232.763"/>
		</g>
		<g>
			<path fill="#EAF5FE" d="M307.411,540.047c-107.572,0-195.09-87.516-195.09-195.089s87.518-195.087,195.09-195.087
				c107.573,0,195.091,87.514,195.091,195.087S414.984,540.047,307.411,540.047z M307.411,156.775
				c-103.765,0-188.186,84.417-188.186,188.183c0,103.765,84.421,188.186,188.186,188.186c103.767,0,188.187-84.421,188.187-188.186
				C495.598,241.193,411.178,156.775,307.411,156.775z"/>
		</g>
		<g>
			<path fill="#D6EAFA" d="M124.358,479.66h95.533c9.849,0,17.832,7.984,17.832,17.833l0,0c0,9.848-7.983,17.832-17.832,17.832
				h-95.533c-9.848,0-17.831-7.984-17.831-17.832l0,0C106.527,487.645,114.511,479.66,124.358,479.66z"/>
		</g>
		<g>
			<path fill="#D6EAFA" d="M101.351,549.967h188.877c6.382,0,11.558,5.174,11.558,11.557l0,0c0,6.386-5.175,11.557-11.558,11.557
				H101.351c-6.383,0-11.558-5.171-11.558-11.557l0,0C89.793,555.141,94.968,549.967,101.351,549.967z"/>
		</g>
		<g>
			<path fill="#D6EAFA" d="M409.835,573.08h22.967c6.005,0,10.873,4.87,10.873,10.874v1.369c0,6.004-4.868,10.873-10.873,10.873
				h-22.967c-6.004,0-10.873-4.869-10.873-10.873v-1.369C398.962,577.95,403.831,573.08,409.835,573.08z"/>
		</g>
		<g>
			<path fill="#D6EAFA" d="M294.942,496.106h230.68c10.47,0,18.957,8.49,18.957,18.959l0,0c0,10.471-8.487,18.957-18.957,18.957
				h-230.68c-10.471,0-18.958-8.486-18.958-18.957l0,0C275.984,504.597,284.472,496.106,294.942,496.106z"/>
		</g>
		<g>
			<path fill="#D6EAFA" d="M140.825,515.065h66.56c-4.917,0-9.388,2.15-12.607,5.408c-3.235,3.266-5.233,7.129-5.233,12.117
				c0,9.954,7.992,17.376,17.84,17.376h-66.56c4.917,0,9.373-1.318,12.607-4.56c3.22-3.256,5.22-7.548,5.22-12.534
				C158.652,522.903,150.673,515.065,140.825,515.065z"/>
		</g>
		<g>
			<path fill="#D6EAFA" d="M401.757,311.445h171.59c17.691,0,32.031,14.338,32.031,32.029l0,0c0,17.688-14.34,32.027-32.031,32.027
				h-171.59c-17.689,0-32.028-14.34-32.028-32.027l0,0C369.729,325.783,384.067,311.445,401.757,311.445z"/>
		</g>
		<g>
			<path fill="#D6EAFA" d="M340.655,437.727h254.242c11.466,0,20.76,9.295,20.76,20.757l0,0c0,11.467-9.294,20.76-20.76,20.76
				H340.655c-11.465,0-20.759-9.293-20.759-20.76l0,0C319.896,447.021,329.19,437.727,340.655,437.727z"/>
		</g>
		<g>
			<path fill="#D6EAFA" d="M452.382,375.501h119.552c-8.829,0-16.859,3.498-22.644,9.326c-5.811,5.854-9.4,12.744-9.4,21.669
				c0,17.819,14.356,31.085,32.044,31.085H452.382c8.832,0,16.834-2.515,22.646-8.317c5.784-5.825,9.373-13.236,9.373-22.16
				C484.4,389.258,470.07,375.501,452.382,375.501z"/>
		</g>
		<g>
			<path fill="#D6EAFA" d="M258.336,283.593H57.267c-18.78,0-34.004-15.226-34.004-34.005l0,0c0-18.782,15.224-34.007,34.004-34.007
				h201.07c18.781,0,34.006,15.226,34.006,34.007l0,0C292.343,268.368,277.117,283.593,258.336,283.593z"/>
		</g>
		<g>
			<path fill="#D6EAFA" d="M342.085,480.474H51.522c-27.139,0-49.141-22.002-49.141-49.143l0,0
				c0-27.138,22.002-49.139,49.141-49.139h290.563c27.142,0,49.142,22.001,49.142,49.139l0,0
				C391.227,458.472,369.227,480.474,342.085,480.474z"/>
		</g>
		<g>
			<path fill="#D6EAFA" d="M506.499,205.465H346.08c-14.982,0-27.129-12.147-27.129-27.129l0,0c0-14.983,12.146-27.13,27.129-27.13
				h160.419c14.982,0,27.13,12.147,27.13,27.13l0,0C533.629,193.318,521.481,205.465,506.499,205.465z"/>
		</g>
		<g>
			<path fill="#D6EAFA" d="M279.638,159.155h-121.93c-12.569,0-22.759-10.188-22.759-22.758l0,0
				c0-12.568,10.19-22.757,22.759-22.757h121.93c12.568,0,22.757,10.188,22.757,22.757l0,0
				C302.395,148.967,292.206,159.155,279.638,159.155z"/>
		</g>
		<g>
			<path fill="#D6EAFA" d="M457.152,112.197h-38.094c-8.156,0-14.766-6.611-14.766-14.767l0,0c0-8.152,6.609-14.764,14.766-14.764
				h38.094c8.154,0,14.765,6.611,14.765,14.764l0,0C471.917,105.586,465.307,112.197,457.152,112.197z"/>
		</g>
	</g>
	<g>
		<g id="XMLID_652_">
			<g>
				<g>
					<g>
						<g>
							<path fill="#0072CD" d="M163.039,266.071c-0.525,0-1.043-0.238-1.382-0.69c-0.573-0.761-0.42-1.844,0.342-2.416
								c0.479-0.36,0.96-0.709,1.445-1.048c0.784-0.543,1.857-0.353,2.403,0.428c0.546,0.782,0.354,1.857-0.428,2.403
								c-0.451,0.315-0.901,0.641-1.345,0.975C163.764,265.958,163.399,266.071,163.039,266.071z"/>
						</g>
						<g>
							<path fill="#0072CD" d="M168.427,364.668c-1.008,0-2.035-0.054-3.048-0.16c-0.948-0.097-1.635-0.946-1.537-1.894
								c0.099-0.952,0.934-1.652,1.897-1.539c0.908,0.096,1.816,0.173,2.734,0.142l0.484-0.005c0.963,0.017,1.742,0.737,1.76,1.69
								c0.019,0.953-0.739,1.742-1.692,1.761l-0.549,0.005C168.459,364.668,168.443,364.668,168.427,364.668z M175.793,363.763
								c-0.776,0-1.481-0.527-1.675-1.314c-0.227-0.927,0.339-1.861,1.266-2.089c1.035-0.252,2.089-0.568,3.132-0.933
								c0.898-0.325,1.885,0.155,2.201,1.054c0.316,0.9-0.157,1.886-1.057,2.202c-1.149,0.404-2.311,0.75-3.456,1.032
								C176.067,363.748,175.93,363.763,175.793,363.763z M158.878,362.958c-0.2,0-0.403-0.033-0.601-0.108
								c-1.141-0.422-2.263-0.922-3.336-1.482c-0.844-0.441-1.172-1.485-0.731-2.329c0.442-0.845,1.482-1.174,2.33-0.731
								c0.945,0.494,1.934,0.933,2.939,1.307c0.894,0.332,1.349,1.324,1.017,2.219C160.238,362.528,159.579,362.958,158.878,362.958
								z M185.343,359.932c-0.605,0-1.192-0.316-1.508-0.884c-0.466-0.83-0.169-1.883,0.662-2.348
								c0.946-0.531,1.895-1.111,2.82-1.727c0.795-0.533,1.866-0.313,2.394,0.48c0.527,0.792,0.313,1.864-0.481,2.392
								c-0.999,0.666-2.022,1.293-3.044,1.865C185.917,359.86,185.628,359.932,185.343,359.932z M150.094,357.673
								c-0.405,0-0.811-0.143-1.14-0.43c-0.894-0.787-1.764-1.645-2.586-2.546c-0.642-0.705-0.59-1.798,0.114-2.438
								c0.704-0.645,1.797-0.589,2.438,0.112c0.737,0.809,1.516,1.576,2.315,2.279c0.715,0.63,0.786,1.721,0.155,2.437
								C151.049,357.475,150.573,357.673,150.094,357.673z M193.721,353.945c-0.479,0-0.956-0.199-1.296-0.586
								c-0.63-0.718-0.561-1.807,0.155-2.438c0.824-0.725,1.636-1.484,2.433-2.276c0.677-0.674,1.768-0.669,2.442,0.007
								c0.672,0.676,0.669,1.77-0.007,2.44c-0.848,0.843-1.71,1.649-2.587,2.423C194.533,353.802,194.125,353.945,193.721,353.945z
								 M143.55,349.753c-0.584,0-1.154-0.298-1.479-0.834c-0.612-1.013-1.192-2.066-1.724-3.141
								c-0.423-0.855-0.075-1.89,0.779-2.313c0.854-0.428,1.891-0.072,2.313,0.779c0.49,0.988,1.022,1.959,1.584,2.888
								c0.494,0.816,0.233,1.876-0.583,2.37C144.163,349.671,143.854,349.753,143.55,349.753z M139.323,340.364
								c-0.73,0-1.408-0.468-1.644-1.199c-0.356-1.109-0.683-2.261-0.972-3.417c-0.231-0.926,0.332-1.863,1.257-2.094
								c0.924-0.225,1.862,0.333,2.092,1.258c0.271,1.089,0.575,2.153,0.91,3.197c0.292,0.907-0.208,1.879-1.116,2.172
								C139.674,340.337,139.497,340.364,139.323,340.364z M137.129,330.298c-0.858,0-1.603-0.639-1.71-1.514
								c-0.143-1.156-0.258-2.33-0.339-3.519c-0.065-0.95,0.653-1.773,1.604-1.84c0.968-0.047,1.774,0.653,1.84,1.604
								c0.077,1.124,0.185,2.233,0.32,3.33c0.118,0.944-0.554,1.807-1.5,1.924C137.272,330.295,137.201,330.298,137.129,330.298z
								 M136.692,319.999c-0.021,0-0.041,0-0.062-0.002c-0.953-0.033-1.698-0.833-1.665-1.785c0.041-1.164,0.109-2.337,0.209-3.519
								c0.079-0.95,0.891-1.678,1.866-1.574c0.95,0.079,1.655,0.913,1.575,1.863c-0.095,1.125-0.161,2.24-0.2,3.35
								C138.383,319.265,137.618,319.999,136.692,319.999z M137.792,309.746c-0.1,0-0.202-0.009-0.305-0.027
								c-0.938-0.167-1.563-1.064-1.396-2.002c0.204-1.145,0.437-2.294,0.697-3.448c0.21-0.93,1.136-1.512,2.064-1.304
								c0.93,0.211,1.514,1.135,1.304,2.063c-0.249,1.102-0.471,2.201-0.667,3.295C139.341,309.159,138.614,309.746,137.792,309.746
								z M140.283,299.739c-0.171,0-0.346-0.025-0.516-0.079c-0.91-0.284-1.417-1.253-1.133-2.161l0.085-0.267
								c0.333-1.03,0.688-2.057,1.061-3.07c0.33-0.896,1.322-1.352,2.217-1.023c0.895,0.329,1.353,1.322,1.023,2.216
								c-0.358,0.97-0.698,1.953-1.02,2.948l-0.071,0.223C141.699,299.267,141.018,299.739,140.283,299.739z M144.06,290.147
								c-0.248,0-0.5-0.052-0.737-0.165c-0.862-0.409-1.23-1.438-0.822-2.299c0.506-1.069,1.032-2.117,1.577-3.146
								c0.445-0.841,1.49-1.165,2.333-0.716c0.844,0.446,1.163,1.492,0.716,2.335c-0.52,0.98-1.022,1.982-1.507,3.004
								C145.325,289.783,144.706,290.147,144.06,290.147z M149.107,281.157c-0.326,0-0.655-0.092-0.949-0.285
								c-0.796-0.526-1.015-1.596-0.49-2.392c0.654-0.989,1.326-1.956,2.016-2.893c0.563-0.767,1.641-0.935,2.413-0.369
								c0.768,0.564,0.933,1.645,0.368,2.412c-0.655,0.894-1.294,1.809-1.914,2.75C150.219,280.884,149.667,281.157,149.107,281.157
								z M155.433,273.019c-0.416,0-0.834-0.151-1.165-0.454c-0.703-0.643-0.751-1.735-0.108-2.438
								c0.806-0.88,1.627-1.729,2.463-2.542c0.683-0.666,1.775-0.649,2.441,0.034c0.665,0.683,0.649,1.777-0.034,2.44
								c-0.79,0.767-1.563,1.568-2.323,2.397C156.366,272.83,155.901,273.019,155.433,273.019z"/>
						</g>
						<g>
							<path fill="#0072CD" d="M200.869,346.421c-0.378,0-0.759-0.124-1.078-0.38c-0.745-0.596-0.865-1.683-0.269-2.426
								c0.35-0.436,0.696-0.879,1.037-1.33c0.577-0.757,1.658-0.906,2.417-0.333c0.76,0.577,0.908,1.661,0.332,2.421
								c-0.36,0.473-0.722,0.939-1.091,1.4C201.876,346.199,201.375,346.421,200.869,346.421z"/>
						</g>
					</g>
				</g>
			</g>
		</g>
		<g id="XMLID_650_">
			<g>
				<g>
					<g>
						<g>
							<path fill="#0072CD" d="M141.748,281.833c-0.293,0-0.59-0.074-0.861-0.231c-0.827-0.477-1.109-1.534-0.632-2.358
								c0.295-0.511,0.595-1.019,0.901-1.52c0.498-0.815,1.56-1.072,2.372-0.574c0.814,0.497,1.071,1.559,0.575,2.372
								c-0.291,0.478-0.578,0.961-0.859,1.448C142.924,281.524,142.344,281.833,141.748,281.833z"/>
						</g>
						<g>
							<path fill="#0072CD" d="M134.333,298.943c-0.169,0-0.341-0.023-0.51-0.075c-0.911-0.282-1.422-1.248-1.142-2.158l0.404-1.286
								c0.189-0.584,0.383-1.162,0.581-1.735c0.313-0.901,1.297-1.381,2.197-1.063c0.901,0.312,1.378,1.294,1.065,2.196
								c-0.19,0.549-0.377,1.104-0.559,1.664l-0.39,1.239C135.753,298.466,135.07,298.943,134.333,298.943z M137.555,290.177
								c-0.229,0-0.461-0.045-0.684-0.141c-0.876-0.38-1.278-1.394-0.9-2.27c0.424-0.979,0.863-1.945,1.318-2.896
								c0.412-0.859,1.442-1.223,2.302-0.812c0.86,0.411,1.225,1.442,0.813,2.303c-0.436,0.91-0.858,1.835-1.263,2.775
								C138.858,289.788,138.223,290.177,137.555,290.177z"/>
						</g>
						<g>
							<path fill="#0072CD" d="M132.367,306.657c-0.114,0-0.23-0.011-0.347-0.035c-0.933-0.189-1.536-1.101-1.347-2.035
								c0.117-0.575,0.241-1.146,0.37-1.72c0.208-0.932,1.132-1.518,2.063-1.306c0.93,0.208,1.515,1.133,1.305,2.062
								c-0.125,0.553-0.243,1.101-0.355,1.652C133.889,306.094,133.17,306.657,132.367,306.657z"/>
						</g>
					</g>
				</g>
			</g>
		</g>
		<g id="XMLID_649_">
			<g>
				<g>
					<g>
						<g>
							<path fill="#0072CD" d="M159.773,278.441c-0.34,0-0.684-0.101-0.985-0.31c-0.783-0.545-0.975-1.62-0.43-2.402
								c0.334-0.481,0.672-0.956,1.013-1.43c0.558-0.771,1.637-0.946,2.409-0.391c0.773,0.559,0.949,1.637,0.391,2.41
								c-0.329,0.457-0.657,0.919-0.98,1.382C160.856,278.184,160.319,278.441,159.773,278.441z"/>
						</g>
						<g>
							<path fill="#0072CD" d="M146.905,302.595c-0.211,0-0.425-0.04-0.633-0.12c-0.886-0.35-1.322-1.354-0.972-2.24
								c0.38-0.962,0.768-1.915,1.166-2.859c0.371-0.878,1.385-1.288,2.263-0.918c0.879,0.371,1.289,1.382,0.919,2.261
								c-0.389,0.92-0.767,1.847-1.137,2.784C148.244,302.18,147.594,302.595,146.905,302.595z M150.567,294.22
								c-0.252,0-0.508-0.055-0.749-0.172c-0.859-0.415-1.219-1.447-0.804-2.305c0.449-0.934,0.91-1.856,1.379-2.768
								c0.437-0.848,1.475-1.185,2.326-0.743c0.847,0.436,1.181,1.477,0.745,2.324c-0.457,0.885-0.903,1.78-1.342,2.688
								C151.825,293.861,151.208,294.22,150.567,294.22z M154.856,286.148c-0.295,0-0.593-0.076-0.866-0.234
								c-0.823-0.48-1.103-1.536-0.624-2.36c0.522-0.895,1.053-1.78,1.593-2.653c0.502-0.811,1.568-1.06,2.375-0.56
								c0.811,0.502,1.063,1.565,0.56,2.376c-0.523,0.847-1.039,1.705-1.544,2.572C156.03,285.842,155.45,286.148,154.856,286.148z"
								/>
						</g>
						<g>
							<path fill="#0072CD" d="M144.267,309.971c-0.176,0-0.354-0.026-0.53-0.083c-0.906-0.293-1.406-1.266-1.114-2.173
								c0.181-0.559,0.365-1.113,0.551-1.662c0.307-0.905,1.287-1.389,2.188-1.083c0.903,0.304,1.388,1.286,1.083,2.188
								c-0.182,0.537-0.361,1.074-0.536,1.615C145.674,309.506,144.996,309.971,144.267,309.971z"/>
						</g>
					</g>
				</g>
			</g>
		</g>
		<g>
			<g>
				<g>
					<g>
						<g>
							<g>
								<g>
									<path fill="#54AAE3" d="M159.853,266.856c0,0,7.631-27.798,17.931-16.729C188.087,261.193,159.853,266.856,159.853,266.856
										z"/>
								</g>
							</g>
						</g>
					</g>
				</g>
				<g>
					<g>
						<g>
							<g>
								<g>
									<path fill="#0072CD" d="M159.853,268.583c-0.474,0-0.933-0.196-1.263-0.55c-0.409-0.438-0.561-1.055-0.402-1.633
										c0.579-2.109,5.911-20.604,14.709-20.604c2.133,0,4.202,1.062,6.151,3.154c3.042,3.267,2.989,6.102,2.408,7.905
										c-2.484,7.718-19.349,11.309-21.263,11.693C160.079,268.571,159.965,268.583,159.853,268.583z M172.896,249.25
										c-4.079,0-8.25,8.456-10.52,15.25c6.38-1.66,14.579-4.929,15.792-8.704c0.162-0.5,0.651-2.022-1.649-4.492
										C175.251,249.94,174.033,249.25,172.896,249.25z"/>
								</g>
							</g>
						</g>
					</g>
				</g>
			</g>
			<g>
				<g>
					<polygon fill="#54AAE3" points="174.748,222.232 192.203,219.878 181.78,229.616 179.311,231.925 170.792,222.805 					"/>
				</g>
				<g>
					<polygon fill="#54AAE3" points="205.451,255.097 204.555,258.94 196.147,249.945 198.617,247.64 209.041,237.899 					"/>
				</g>
				<g>
					<path fill="#EBF3FE" d="M197.229,215.182c0.037-0.033,4.267,0.007,8.601,0.058c5.059,0.061,9.047,4.329,8.765,9.379
						c-0.243,4.33-0.491,8.55-0.528,8.588l0.104-0.098l-16.839-18.021L197.229,215.182z"/>
				</g>
				<g>
					<path fill="#0072CD" d="M214.096,234.858c-0.448,0-0.892-0.164-1.218-0.5c-0.132-0.137-0.24-0.289-0.322-0.449l-16.022-17.145
						c-0.213-0.095-0.412-0.233-0.58-0.417c-0.643-0.703-0.594-1.793,0.107-2.436l0.102-0.095c0.473-0.437,1.124-0.56,1.698-0.372
						h0.147c1.428,0,4.605,0.032,7.84,0.069c2.924,0.035,5.633,1.23,7.628,3.366c1.995,2.136,3.004,4.919,2.84,7.835
						c-0.14,2.501-0.379,6.688-0.484,8.139c0.083,0.549-0.068,1.126-0.484,1.516c-0.017,0.016-0.035,0.032-0.053,0.047
						c-0.003,0.003-0.007,0.007-0.01,0.01v-0.002C214.949,234.711,214.52,234.858,214.096,234.858z M201.404,216.918l11.215,12
						c0.072-1.23,0.157-2.709,0.251-4.396c0.11-1.968-0.57-3.845-1.916-5.287c-1.346-1.439-3.174-2.247-5.146-2.271
						C204.265,216.948,202.735,216.931,201.404,216.918z"/>
				</g>
				<g>
					
						<rect x="201.588" y="213.409" transform="matrix(0.7308 -0.6825 0.6825 0.7308 -99.1714 199.9913)" fill="#54AAE3" width="4.811" height="24.662"/>
				</g>
				<g>
					<path fill="#0072CD" d="M210.654,238.119c-0.461,0-0.922-0.184-1.261-0.548l-16.837-18.021
						c-0.313-0.333-0.48-0.778-0.464-1.237c0.016-0.457,0.212-0.891,0.546-1.203l3.516-3.284c0.697-0.653,1.789-0.614,2.439,0.083
						l16.838,18.021c0.313,0.333,0.48,0.778,0.464,1.237c-0.015,0.456-0.212,0.89-0.546,1.202l-3.517,3.284
						C211.499,237.965,211.076,238.119,210.654,238.119z M196.256,218.455l14.481,15.498l0.992-0.927l-14.481-15.499
						L196.256,218.455z"/>
				</g>
				<g>
					<path fill="#0072CD" d="M179.311,233.651c-0.02,0-0.038,0-0.057-0.002c-0.458-0.015-0.891-0.21-1.205-0.545l-8.518-9.12
						c-0.438-0.47-0.58-1.145-0.366-1.75c0.212-0.607,0.745-1.044,1.381-1.136l3.954-0.573l17.473-2.356
						c0.742-0.096,1.468,0.293,1.791,0.971c0.321,0.679,0.167,1.489-0.381,2.001l-12.892,12.045
						C180.17,233.486,179.749,233.651,179.311,233.651z M174.308,224.039l5.085,5.445l7.676-7.171L174.308,224.039z"/>
				</g>
				<g>
					<path fill="#92D0EF" d="M210.654,236.392l-19.786,18.486c-3.847,3.594-8.583,0.368-8.583,0.368l-9.203-9.848
						c0,0-3.191-4.673,0.949-8.54l19.785-18.486L210.654,236.392z"/>
				</g>
				<g>
					<path fill="#0072CD" d="M204.555,260.667c-0.471,0-0.931-0.194-1.261-0.547l-8.407-8.995c-0.312-0.334-0.479-0.78-0.464-1.238
						c0.017-0.457,0.213-0.889,0.547-1.201l12.892-12.047c0.549-0.514,1.37-0.613,2.025-0.243c0.655,0.369,0.997,1.12,0.844,1.857
						l-3.589,17.198l-0.906,3.883c-0.144,0.621-0.62,1.111-1.234,1.274C204.854,260.648,204.703,260.667,204.555,260.667z
						 M198.588,250.028l5.02,5.372l0.164-0.696l2.466-11.824L198.588,250.028z"/>
				</g>
				<g>
					<path fill="#0072CD" d="M186.656,258.304c-2.866,0-5.098-1.465-5.343-1.632c-0.106-0.07-0.203-0.154-0.289-0.248l-9.203-9.848
						c-0.06-0.064-0.116-0.133-0.165-0.206c-1.394-2.038-2.936-6.915,1.196-10.773l19.785-18.487c0.698-0.65,1.79-0.613,2.439,0.083
						l16.837,18.021c0.313,0.334,0.479,0.779,0.464,1.238c-0.016,0.456-0.212,0.89-0.547,1.202l-19.786,18.486
						C190.532,257.555,188.667,258.304,186.656,258.304z M183.39,253.9c0.417,0.244,1.751,0.951,3.266,0.951
						c1.153,0,2.146-0.405,3.034-1.234l18.524-17.308l-14.479-15.499l-18.525,17.308c-2.747,2.565-1.163,5.556-0.758,6.215
						L183.39,253.9z"/>
				</g>
				<g>
					<circle fill="#FFFFFF" cx="196.251" cy="232.973" r="4.946"/>
				</g>
				<g>
					<circle fill="#FFFFFF" cx="187.73" cy="240.934" r="4.946"/>
				</g>
			</g>
		</g>
	</g>
	<g>
		<g>
			<rect x="38.68" y="468.458" fill="#0072CD" width="25.893" height="6.904"/>
		</g>
		<g>
			<rect x="551.36" y="468.458" fill="#0072CD" width="25.893" height="6.904"/>
		</g>
		<g>
			<rect x="74.649" y="468.458" fill="#0072CD" width="468.673" height="6.904"/>
		</g>
	</g>
	<g>
		<path fill="#0072CD" d="M182.783,388.602c-3.994,0-7.243-3.25-7.243-7.246c0-3.993,3.249-7.242,7.243-7.242
			s7.244,3.249,7.244,7.242C190.027,385.352,186.777,388.602,182.783,388.602z M182.783,377.566c-2.091,0-3.791,1.698-3.791,3.789
			c0,2.092,1.7,3.793,3.791,3.793c2.09,0,3.792-1.701,3.792-3.793C186.575,379.265,184.874,377.566,182.783,377.566z"/>
	</g>
	<g>
		<path fill="#0072CD" d="M410.282,381.059c-3.994,0-7.244-3.247-7.244-7.241c0-3.996,3.25-7.246,7.244-7.246
			c3.993,0,7.242,3.25,7.242,7.246C417.524,377.812,414.275,381.059,410.282,381.059z M410.282,370.024
			c-2.09,0-3.791,1.7-3.791,3.793c0,2.09,1.701,3.789,3.791,3.789c2.091,0,3.791-1.699,3.791-3.789
			C414.073,371.725,412.373,370.024,410.282,370.024z"/>
	</g>
	<g>
		<path fill="#0072CD" d="M410.282,282.43c-3.994,0-7.244-3.25-7.244-7.245c0-3.993,3.25-7.242,7.244-7.242
			c3.993,0,7.242,3.249,7.242,7.242C417.524,279.179,414.275,282.43,410.282,282.43z M410.282,271.395
			c-2.09,0-3.791,1.699-3.791,3.79c0,2.092,1.701,3.793,3.791,3.793c2.091,0,3.791-1.701,3.791-3.793
			C414.073,273.094,412.373,271.395,410.282,271.395z"/>
	</g>
	<g>
		<path fill="#0072CD" d="M188.301,295.141c-3.994,0-7.243-3.249-7.243-7.243c0-3.995,3.25-7.245,7.243-7.245
			s7.243,3.25,7.243,7.245C195.544,291.892,192.294,295.141,188.301,295.141z M188.301,284.106c-2.09,0-3.792,1.701-3.792,3.792
			c0,2.09,1.701,3.79,3.792,3.79c2.091,0,3.792-1.7,3.792-3.79C192.093,285.807,190.392,284.106,188.301,284.106z"/>
	</g>
	<g>
		<path fill="#0072CD" d="M57.144,450.659c-3.994,0-7.243-3.25-7.243-7.246c0-3.992,3.25-7.24,7.243-7.24
			c3.995,0,7.244,3.248,7.244,7.24C64.387,447.409,61.138,450.659,57.144,450.659z M57.144,439.626c-2.09,0-3.791,1.698-3.791,3.787
			c0,2.094,1.701,3.794,3.791,3.794c2.091,0,3.792-1.7,3.792-3.794C60.936,441.324,59.234,439.626,57.144,439.626z"/>
	</g>
	<g>
		<path fill="#0072CD" d="M147.096,235.185c-3.995,0-7.243-3.249-7.243-7.241c0-3.996,3.249-7.246,7.243-7.246
			s7.244,3.25,7.244,7.246C154.34,231.937,151.091,235.185,147.096,235.185z M147.096,224.15c-2.09,0-3.791,1.701-3.791,3.793
			c0,2.09,1.701,3.789,3.791,3.789s3.792-1.699,3.792-3.789C150.888,225.851,149.187,224.15,147.096,224.15z"/>
	</g>
	<g>
		<g>
			<path fill="#0072CD" d="M139.081,255.286h-1.727c-0.953,0-1.726-0.772-1.726-1.727c0-0.954,0.772-1.726,1.726-1.726h1.727
				c0.953,0,1.726,0.772,1.726,1.726C140.807,254.514,140.034,255.286,139.081,255.286z"/>
		</g>
		<g>
			<path fill="#0072CD" d="M130.45,255.286h-3.453c-0.953,0-1.726-0.772-1.726-1.727c0-0.954,0.773-1.726,1.726-1.726h3.453
				c0.953,0,1.726,0.772,1.726,1.726C132.176,254.514,131.403,255.286,130.45,255.286z M120.093,255.286h-3.452
				c-0.954,0-1.727-0.772-1.727-1.727c0-0.954,0.772-1.726,1.727-1.726h3.452c0.953,0,1.726,0.772,1.726,1.726
				C121.818,254.514,121.045,255.286,120.093,255.286z M109.735,255.286h-3.452c-0.953,0-1.727-0.772-1.727-1.727
				c0-0.954,0.773-1.726,1.727-1.726h3.452c0.954,0,1.726,0.772,1.726,1.726C111.461,254.514,110.689,255.286,109.735,255.286z
				 M99.378,255.286h-3.452c-0.954,0-1.726-0.772-1.726-1.727c0-0.954,0.772-1.726,1.726-1.726h3.452
				c0.954,0,1.727,0.772,1.727,1.726C101.104,254.514,100.332,255.286,99.378,255.286z"/>
		</g>
		<g>
			<path fill="#0072CD" d="M87.295,255.286h-1.726c-0.954,0-1.727-0.772-1.727-1.727c0-0.954,0.773-1.726,1.727-1.726h1.726
				c0.953,0,1.726,0.772,1.726,1.726C89.021,254.514,88.248,255.286,87.295,255.286z"/>
		</g>
	</g>
	<g>
		<g>
			<path fill="#0072CD" d="M241.479,314.98h-1.726c-0.953,0-1.726-0.771-1.726-1.726c0-0.953,0.773-1.726,1.726-1.726h1.726
				c0.954,0,1.727,0.772,1.727,1.726C243.206,314.209,242.433,314.98,241.479,314.98z"/>
		</g>
		<g>
			<path fill="#0072CD" d="M232.711,314.98h-3.52c-0.953,0-1.726-0.771-1.726-1.726c0-0.953,0.772-1.726,1.726-1.726h3.52
				c0.954,0,1.727,0.772,1.727,1.726C234.438,314.209,233.665,314.98,232.711,314.98z M222.148,314.98h-3.521
				c-0.953,0-1.726-0.771-1.726-1.726c0-0.953,0.773-1.726,1.726-1.726h3.521c0.954,0,1.727,0.772,1.727,1.726
				C223.875,314.209,223.102,314.98,222.148,314.98z M211.585,314.98h-3.521c-0.953,0-1.726-0.771-1.726-1.726
				c0-0.953,0.773-1.726,1.726-1.726h3.521c0.954,0,1.727,0.772,1.727,1.726C213.312,314.209,212.539,314.98,211.585,314.98z"/>
		</g>
		<g>
			<path fill="#0072CD" d="M201.021,314.98h-1.725c-0.954,0-1.726-0.771-1.726-1.726c0-0.953,0.772-1.726,1.726-1.726h1.725
				c0.955,0,1.728,0.772,1.728,1.726C202.748,314.209,201.975,314.98,201.021,314.98z"/>
		</g>
	</g>
	<g>
		<g>
			<path fill="#0072CD" d="M468.14,295.919h-1.727c-0.955,0-1.728-0.772-1.728-1.727c0-0.954,0.772-1.726,1.728-1.726h1.727
				c0.953,0,1.726,0.772,1.726,1.726C469.865,295.147,469.093,295.919,468.14,295.919z"/>
		</g>
		<g>
			<path fill="#0072CD" d="M459.371,295.919h-3.522c-0.951,0-1.726-0.772-1.726-1.727c0-0.954,0.774-1.726,1.726-1.726h3.522
				c0.953,0,1.726,0.772,1.726,1.726C461.097,295.147,460.324,295.919,459.371,295.919z M448.808,295.919h-3.521
				c-0.954,0-1.726-0.772-1.726-1.727c0-0.954,0.771-1.726,1.726-1.726h3.521c0.953,0,1.726,0.772,1.726,1.726
				C450.533,295.147,449.761,295.919,448.808,295.919z M438.243,295.919h-3.52c-0.955,0-1.727-0.772-1.727-1.727
				c0-0.954,0.771-1.726,1.727-1.726h3.52c0.954,0,1.727,0.772,1.727,1.726C439.97,295.147,439.197,295.919,438.243,295.919z"/>
		</g>
		<g>
			<path fill="#0072CD" d="M427.681,295.919h-1.727c-0.953,0-1.726-0.772-1.726-1.727c0-0.954,0.772-1.726,1.726-1.726h1.727
				c0.954,0,1.727,0.772,1.727,1.726C429.407,295.147,428.635,295.919,427.681,295.919z"/>
		</g>
	</g>
	<g>
		<g>
			<path fill="#0072CD" d="M434.554,247.006h-1.727c-0.953,0-1.726-0.772-1.726-1.727c0-0.954,0.772-1.726,1.726-1.726h1.727
				c0.951,0,1.726,0.772,1.726,1.726C436.279,246.233,435.505,247.006,434.554,247.006z"/>
		</g>
		<g>
			<path fill="#0072CD" d="M425.061,247.006h-3.884c-0.953,0-1.726-0.772-1.726-1.727c0-0.954,0.772-1.726,1.726-1.726h3.884
				c0.954,0,1.728,0.772,1.728,1.726C426.788,246.233,426.015,247.006,425.061,247.006z M413.409,247.006h-3.883
				c-0.953,0-1.727-0.772-1.727-1.727c0-0.954,0.773-1.726,1.727-1.726h3.883c0.954,0,1.726,0.772,1.726,1.726
				C415.135,246.233,414.363,247.006,413.409,247.006z"/>
		</g>
		<g>
			<path fill="#0072CD" d="M401.757,247.006h-1.725c-0.956,0-1.727-0.772-1.727-1.727c0-0.954,0.771-1.726,1.727-1.726h1.725
				c0.954,0,1.727,0.772,1.727,1.726C403.483,246.233,402.711,247.006,401.757,247.006z"/>
		</g>
	</g>
	<g>
		<g>
			<path fill="#0072CD" d="M320.05,356.811h-1.726c-0.954,0-1.727-0.771-1.727-1.727c0-0.952,0.772-1.725,1.727-1.725h1.726
				c0.954,0,1.726,0.772,1.726,1.725C321.775,356.039,321.004,356.811,320.05,356.811z"/>
		</g>
		<g>
			<path fill="#0072CD" d="M311.641,356.811h-3.34c-0.953,0-1.727-0.771-1.727-1.727c0-0.952,0.773-1.725,1.727-1.725h3.34
				c0.955,0,1.727,0.772,1.727,1.725C313.367,356.039,312.596,356.811,311.641,356.811z M301.618,356.811h-3.342
				c-0.953,0-1.727-0.771-1.727-1.727c0-0.952,0.774-1.725,1.727-1.725h3.342c0.953,0,1.726,0.772,1.726,1.725
				C303.344,356.039,302.571,356.811,301.618,356.811z"/>
		</g>
		<g>
			<path fill="#0072CD" d="M291.595,356.811h-1.727c-0.954,0-1.727-0.771-1.727-1.727c0-0.952,0.773-1.725,1.727-1.725h1.727
				c0.953,0,1.726,0.772,1.726,1.725C293.321,356.039,292.547,356.811,291.595,356.811z"/>
		</g>
	</g>
	<g>
		<g>
			<path fill="#0072CD" d="M176.639,334.8c-0.441,0-0.883-0.17-1.22-0.506l-6.875-6.875c-0.674-0.675-0.674-1.768,0-2.441
				c0.675-0.674,1.767-0.674,2.44,0l6.875,6.875c0.674,0.674,0.674,1.767,0,2.441C177.522,334.63,177.081,334.8,176.639,334.8z"/>
		</g>
		<g>
			<path fill="#0072CD" d="M169.765,334.8c-0.442,0-0.884-0.17-1.221-0.506c-0.674-0.675-0.674-1.768,0-2.441l6.875-6.875
				c0.674-0.674,1.766-0.674,2.44,0s0.674,1.767,0,2.441l-6.875,6.875C170.647,334.63,170.206,334.8,169.765,334.8z"/>
		</g>
	</g>
	<g>
		<g>
			<path fill="#0072CD" d="M450.528,269.622c-0.44,0-0.883-0.168-1.22-0.505l-6.876-6.875c-0.674-0.674-0.674-1.767,0-2.441
				c0.674-0.674,1.767-0.674,2.44,0l6.876,6.875c0.674,0.674,0.674,1.767,0,2.441C451.412,269.453,450.97,269.622,450.528,269.622z"
				/>
		</g>
		<g>
			<path fill="#0072CD" d="M443.654,269.622c-0.443,0-0.885-0.168-1.222-0.505c-0.674-0.675-0.674-1.767,0-2.441l6.876-6.875
				c0.674-0.674,1.767-0.674,2.44,0c0.674,0.674,0.674,1.767,0,2.441l-6.876,6.875C444.536,269.453,444.096,269.622,443.654,269.622
				z"/>
		</g>
	</g>
	<g>
		<g>
			<path fill="#0072CD" d="M403.469,220.25c-0.441,0-0.884-0.169-1.221-0.506l-6.875-6.875c-0.674-0.673-0.674-1.767,0-2.44
				c0.674-0.675,1.768-0.675,2.441,0l6.875,6.874c0.674,0.674,0.674,1.767,0,2.441C404.352,220.081,403.91,220.25,403.469,220.25z"
				/>
		</g>
		<g>
			<path fill="#0072CD" d="M396.594,220.25c-0.441,0-0.883-0.169-1.221-0.506c-0.674-0.675-0.674-1.767,0-2.441l6.875-6.874
				c0.676-0.675,1.767-0.675,2.441,0c0.674,0.674,0.674,1.767,0,2.44l-6.875,6.875C397.478,220.081,397.035,220.25,396.594,220.25z"
				/>
		</g>
	</g>
	<g>
		<g>
			<path fill="#0072CD" d="M310.161,392.036c-0.442,0-0.884-0.168-1.221-0.506l-6.874-6.873c-0.674-0.674-0.674-1.768,0-2.441
				s1.767-0.674,2.441,0l6.874,6.873c0.674,0.675,0.674,1.768,0,2.441C311.044,391.868,310.604,392.036,310.161,392.036z"/>
		</g>
		<g>
			<path fill="#0072CD" d="M303.287,392.036c-0.442,0-0.884-0.168-1.221-0.506c-0.674-0.674-0.674-1.767,0-2.441l6.874-6.873
				c0.675-0.674,1.768-0.674,2.441,0s0.674,1.768,0,2.441l-6.874,6.873C304.17,391.868,303.728,392.036,303.287,392.036z"/>
		</g>
	</g>
	<g>
		<g>
			<path fill="#0072CD" d="M525.277,360.25c-0.443,0-0.886-0.169-1.224-0.506l-6.873-6.877c-0.674-0.675-0.674-1.768,0.001-2.441
				c0.674-0.673,1.769-0.673,2.442,0l6.875,6.878c0.672,0.674,0.672,1.766-0.003,2.44C526.16,360.081,525.719,360.25,525.277,360.25
				z"/>
		</g>
		<g>
			<path fill="#0072CD" d="M518.402,360.25c-0.441,0-0.883-0.169-1.221-0.506c-0.675-0.675-0.675-1.767-0.001-2.44l6.873-6.878
				c0.674-0.673,1.769-0.673,2.442,0c0.675,0.674,0.675,1.767,0.003,2.441l-6.875,6.877
				C519.287,360.081,518.844,360.25,518.402,360.25z"/>
		</g>
	</g>
	<g>
		<g>
			<path fill="#0072CD" d="M74.649,414.47c-0.441,0-0.883-0.168-1.22-0.506l-6.876-6.874c-0.675-0.674-0.675-1.767,0-2.44
				c0.674-0.676,1.766-0.676,2.44,0l6.876,6.875c0.674,0.673,0.674,1.766,0,2.439C75.533,414.302,75.092,414.47,74.649,414.47z"/>
		</g>
		<g>
			<path fill="#0072CD" d="M67.774,414.47c-0.442,0-0.883-0.168-1.22-0.506c-0.675-0.674-0.675-1.767,0-2.439l6.876-6.875
				c0.675-0.676,1.767-0.676,2.441,0c0.674,0.674,0.674,1.767,0,2.44l-6.876,6.874C68.657,414.302,68.216,414.47,67.774,414.47z"/>
		</g>
	</g>
	<g>
		<g>
			<path fill="#0072CD" d="M115.762,283.788c-0.442,0-0.884-0.168-1.222-0.506l-6.875-6.878c-0.674-0.673-0.674-1.766,0.001-2.44
				c0.675-0.674,1.768-0.674,2.442,0l6.875,6.878c0.674,0.674,0.674,1.767-0.001,2.44
				C116.646,283.62,116.204,283.788,115.762,283.788z"/>
		</g>
		<g>
			<path fill="#0072CD" d="M108.888,283.788c-0.442,0-0.884-0.168-1.221-0.506c-0.675-0.673-0.675-1.766-0.001-2.44l6.875-6.878
				c0.675-0.674,1.767-0.674,2.442,0c0.675,0.674,0.675,1.767,0.001,2.44l-6.875,6.878
				C109.771,283.62,109.329,283.788,108.888,283.788z"/>
		</g>
	</g>
	<g>
		<g>
			<g>
				<g>
					<g>
						<path fill-rule="evenodd" clip-rule="evenodd" fill="#FFFFFF" d="M347.64,282.359c13.349,0,24.898,7.69,30.469,18.88
							c3.396-1.642,7.209-2.563,11.235-2.563c10.693,0,19.868,6.49,23.805,15.746c3.658-3.298,8.498-5.308,13.812-5.308
							c11.397,0,20.635,9.242,20.635,20.637c0,11.398-9.237,20.637-20.635,20.637h-79.32c-18.785,0-34.016-15.229-34.016-34.015
							C313.624,297.588,328.854,282.359,347.64,282.359z"/>
					</g>
				</g>
			</g>
		</g>
		<g>
			<g>
				<g>
					<g>
						<path fill-rule="evenodd" clip-rule="evenodd" fill="#EDF7FF" d="M369.894,308.211c1.907-3.146,4.701-5.722,8.011-7.346
							c-5.641-10.984-17.067-18.506-30.265-18.506c-0.848,0-1.682,0.041-2.513,0.101
							C358.902,283.31,368.993,294.688,369.894,308.211z"/>
					</g>
					<g>
						<path fill-rule="evenodd" clip-rule="evenodd" fill="#EDF7FF" d="M426.96,309.115c-1.396,0-2.76,0.148-4.076,0.412
							c0.342-0.021,0.68-0.051,1.037-0.051c17.418,0,17.389,27.022,0,27.022c-13.319,0-16.424-15.795-9.374-23.23
							c-0.482,0.364-0.95,0.75-1.398,1.154c-3.937-9.256-13.111-15.746-23.805-15.746c-1.362,0-2.698,0.112-4.006,0.317
							c0.192-0.006,0.379-0.03,0.573-0.03c10.153,0,18.723,8.567,18.723,18.722c0,10.118-8.605,18.722-18.723,18.722
							c-9.256,0-17.174-7.128-18.502-16.082c-4.438,8.766-14.033,14.985-23.928,14.985c-14.838,0-25.826-12.126-26.469-26.465
							c-0.195-4.353,0.906-8.506,2.914-12.181c-3.963,5.559-6.303,12.36-6.303,19.709c0,18.786,15.23,34.015,34.016,34.015h79.32
							c11.397,0,20.635-9.238,20.635-20.637C447.595,318.356,438.357,309.115,426.96,309.115z"/>
					</g>
				</g>
			</g>
		</g>
		<g>
			<path fill="#FFFFFF" d="M494.02,350.376h-75.963c-4.815,0-8.722-3.908-8.722-8.723l0,0c0-4.818,3.906-8.723,8.722-8.723h75.963
				c4.816,0,8.72,3.904,8.72,8.723l0,0C502.739,346.468,498.836,350.376,494.02,350.376z"/>
		</g>
		<g>
			<path fill="#FFFFFF" d="M467.502,325.089h-40.908c-2.099,0-3.798-1.702-3.798-3.799l0,0c0-2.099,1.699-3.797,3.795-3.797h40.911
				c2.097,0,3.796,1.698,3.796,3.797l0,0C471.298,323.387,469.599,325.089,467.502,325.089z"/>
		</g>
		<g>
			<path fill="#FFFFFF" d="M502.915,329.054h-12.041c-2.193,0-3.971-1.772-3.971-3.965l0,0c0-2.19,1.777-3.968,3.971-3.968h12.041
				c2.189,0,3.967,1.777,3.967,3.968l0,0C506.882,327.281,505.104,329.054,502.915,329.054z"/>
		</g>
		<g>
			<path fill="#FFFFFF" d="M458.294,332.931h-15.126c1.117,0,2.135-0.481,2.865-1.214c0.734-0.734,1.188-1.601,1.188-2.724
				c0-2.239-1.815-3.904-4.054-3.904h15.126c-1.118,0-2.131,0.298-2.867,1.024c-0.73,0.731-1.185,1.696-1.185,2.815
				C454.242,331.171,456.055,332.931,458.294,332.931z"/>
		</g>
		<g>
			<g>
				<path fill="#0072CD" d="M494.02,351.644H347.64c-19.711,0-35.746-15.924-35.746-35.496c0-19.572,16.03-35.495,35.734-35.495
					c13.09,0,24.908,7.006,31.23,18.397c3.274-1.338,6.777-2.015,10.439-2.015c10.283,0,19.625,5.755,24.378,14.84
					c3.731-2.713,8.216-4.136,13.098-4.136c4.501,0,8.721,1.394,12.539,4.143l-2.017,2.801c-3.219-2.316-6.76-3.491-10.522-3.491
					c-4.817,0-9.161,1.622-12.562,4.688c-0.414,0.375-0.982,0.524-1.529,0.403c-0.545-0.122-0.998-0.497-1.216-1.01
					c-3.819-8.982-12.521-14.786-22.169-14.786c-3.715,0-7.234,0.791-10.463,2.35c-0.85,0.408-1.875,0.063-2.296-0.785
					c-5.509-11.07-16.589-17.946-28.911-17.946c-17.801,0-32.283,14.374-32.283,32.042c0,17.668,14.487,32.043,32.295,32.043h146.38
					c3.923,0,6.994-2.993,6.994-6.81c0-3.822-3.071-6.814-6.994-6.814h-9.844v-3.453h9.844c5.858,0,10.446,4.51,10.446,10.268
					C504.466,347.135,499.878,351.644,494.02,351.644z"/>
			</g>
			<g>
				<path fill="#0072CD" d="M453.481,331.308l-0.111-0.241c-0.253-0.545-0.604-1.288-0.604-2.128c0-0.672,0.113-2.98,1.566-4.434
					c0.838-0.83,2.157-1.928,3.961-1.928h9.208c0.61,0,1.985-0.127,2.127-1.258c-0.054-0.378-0.365-0.984-2.127-0.984h-16.056
					v-3.452h16.056c2.999,0,5.06,1.42,5.504,3.694c0.058,0.171,0.089,0.354,0.089,0.547v0.401c0,0.188-0.031,0.368-0.084,0.536
					c-0.445,2.378-2.588,3.968-5.509,3.968h-9.208c-0.411,0-0.88,0.285-1.523,0.922c-0.268,0.269-0.549,1.088-0.549,1.987
					c0.016,0.107,0.185,0.469,0.275,0.663l0.147,0.318L453.481,331.308z"/>
			</g>
			<g>
				<path fill="#0072CD" d="M502.915,330.298h-12.041c-3.303,0-5.695-2.222-5.695-5.283s2.393-5.283,5.695-5.283h12.041
					c3.388,0,5.755,2.099,5.755,5.104C508.67,327.988,506.195,330.298,502.915,330.298z M490.874,323.185
					c-1.037,0-2.244,0.479-2.244,1.83s1.207,1.83,2.244,1.83h12.041c1.109,0,2.304-0.6,2.304-1.918c0-1.624-1.763-1.742-2.304-1.742
					H490.874z"/>
			</g>
			<g>
				<rect x="464.253" y="331.113" fill="#0072CD" width="12.809" height="3.453"/>
			</g>
		</g>
	</g>
	<g>
		<g>
			<g>
				<path fill="#FFFFFF" d="M305.343,212.903h-0.624c-21.655,0.216-39.15,18.634-39.15,41.348c0,7.723,1.912,15.022,5.585,21.112
					c9.222,15.29,14.381,36.166,14.381,36.166h19.184h0.624h19.183c0,0,5.16-20.876,14.383-36.166
					c3.672-6.089,5.584-13.389,5.584-21.112C344.493,231.538,327,213.119,305.343,212.903z"/>
			</g>
			<g>
				<path fill="#0072CD" d="M325.879,313.254h-41.694l-0.324-1.311c-0.051-0.207-5.208-20.807-14.184-35.688
					c-3.815-6.326-5.833-13.935-5.833-22.003c0-23.526,18.329-42.85,40.859-43.074h0.641c22.547,0.224,40.876,19.548,40.876,43.074
					c0,8.067-2.017,15.677-5.832,22.003c-8.983,14.893-14.135,35.481-14.185,35.688L325.879,313.254z M286.872,309.803h36.321
					c1.298-4.867,6.209-22.022,14.238-35.331c3.492-5.788,5.335-12.78,5.335-20.22c0-21.642-16.796-39.417-37.438-39.623h-0.607
					c-20.628,0.206-37.423,17.98-37.423,39.623c0,7.44,1.844,14.433,5.336,20.22C280.662,287.78,285.574,304.936,286.872,309.803z"
					/>
			</g>
			<g id="XMLID_644_">
				<g id="XMLID_648_">
					<g>
						<g>
							<polygon fill="#54AAE3" points="284.487,308.562 284.487,322.62 288.822,330.171 304.959,330.171 321.096,330.171 
								325.432,322.62 325.432,308.562 							"/>
						</g>
					</g>
				</g>
			</g>
			<g id="XMLID_630_">
				<g id="XMLID_643_">
					<g>
						<g>
							<path fill="#0072CD" d="M322.097,331.896h-34.275l-5.061-8.814v-16.246h44.397v16.246L322.097,331.896z M289.821,328.444
								h30.275l3.611-6.284v-11.872h-37.493v11.872L289.821,328.444z"/>
						</g>
					</g>
				</g>
			</g>
			<g>
				<rect x="281.901" y="311.391" fill="#0072CD" width="46.117" height="3.453"/>
			</g>
			<g>
				<rect x="281.901" y="316.415" fill="#0072CD" width="46.117" height="3.451"/>
			</g>
			<g>
				<rect x="281.901" y="321.438" fill="#0072CD" width="46.117" height="3.453"/>
			</g>
			<g>
				<g>
					<rect x="308.432" y="294.192" fill="#0072CD" width="3.452" height="14.369"/>
				</g>
				<g>
					<rect x="298.181" y="294.192" fill="#0072CD" width="3.452" height="14.369"/>
				</g>
			</g>
		</g>
		<g>
			<path fill-rule="evenodd" clip-rule="evenodd" fill="#92D0EF" d="M305.031,225.222c-3.4-3.321-13.677-1.217-13.677,6.133
				c-6.902,0-12.993,9.18-8.208,16.719c-6.539,3.685-7.257,15.641,0.565,19.747c0,9.447,10.741,15.681,21.319,10.125
				c10.578,5.556,21.32-0.678,21.32-10.125c7.823-4.106,7.104-16.062,0.565-19.747c4.784-7.539-1.305-16.719-8.21-16.719
				C318.707,224.005,308.432,221.901,305.031,225.222z"/>
		</g>
		<g>
			<path fill="#0072CD" d="M313.131,281.766L313.131,281.766c-2.734,0-5.455-0.636-8.1-1.89c-2.644,1.254-5.366,1.89-8.101,1.89
				c-8.014,0-14.368-5.602-14.908-12.931c-3.523-2.251-5.635-6.198-5.702-10.76c-0.063-4.244,1.688-8.199,4.567-10.539
				c-1.693-3.631-1.551-7.807,0.457-11.459c1.862-3.389,5.054-5.738,8.426-6.312c0.889-4.914,5.854-7.798,10.67-7.798
				c1.767,0,3.348,0.39,4.591,1.113c1.243-0.723,2.825-1.113,4.591-1.113c4.816,0,9.781,2.884,10.671,7.798
				c3.37,0.574,6.563,2.923,8.425,6.312c2.01,3.651,2.151,7.827,0.459,11.459c2.878,2.34,4.632,6.296,4.567,10.541
				c-0.069,4.56-2.181,8.507-5.704,10.758c-0.25,3.455-1.783,6.618-4.382,8.992C320.88,280.366,317.141,281.766,313.131,281.766z
				 M305.031,275.995l0.803,0.421c2.396,1.259,4.85,1.896,7.297,1.896c3.145,0,6.056-1.079,8.2-3.036
				c2.124-1.941,3.293-4.59,3.293-7.456v-1.043l0.925-0.485c2.915-1.531,4.689-4.62,4.744-8.268c0.054-3.653-1.604-6.97-4.225-8.446
				l-1.581-0.893l0.974-1.536c1.842-2.901,1.926-6.332,0.232-9.411c-1.554-2.83-4.296-4.656-6.986-4.656h-1.726v-1.726
				c0-4.324-4.514-5.937-7.359-5.937c-1.453,0-2.72,0.389-3.384,1.04l-1.207,1.177l-1.206-1.177c-0.667-0.651-1.932-1.04-3.386-1.04
				c-2.845,0-7.359,1.613-7.359,5.937v1.726h-1.727c-2.688,0-5.429,1.827-6.984,4.658c-1.694,3.078-1.608,6.509,0.233,9.41
				l0.976,1.536l-1.586,0.893c-2.62,1.477-4.277,4.791-4.223,8.445c0.054,3.647,1.828,6.739,4.743,8.27l0.924,0.485v1.043
				c0,5.883,5.048,10.492,11.493,10.492c2.449,0,4.904-0.637,7.298-1.896L305.031,275.995z"/>
		</g>
		<g id="XMLID_619_">
			<g id="XMLID_625_">
				<g id="XMLID_626_">
					<g>
						<g>
							<path fill="#FFFFFF" d="M316.608,250.499c-0.041-0.317-0.333-0.621-0.647-0.678l-1.244-0.215
								c-0.319-0.058-0.658-0.348-0.763-0.658l-0.503-1.234c-0.137-0.287-0.103-0.734,0.092-0.998l0.739-1.028
								c0.187-0.26,0.182-0.685-0.013-0.934l-0.669-0.795c-0.223-0.233-0.634-0.31-0.924-0.169l-1.141,0.56
								c-0.289,0.139-0.732,0.094-0.983-0.097l-1.14-0.706c-0.284-0.145-0.519-0.521-0.521-0.842l-0.005-1.272
								c-0.007-0.316-0.259-0.66-0.567-0.751l-1.005-0.246c-0.309-0.061-0.692,0.121-0.846,0.404l-0.192,0.364l-0.231,0.442
								l-0.165,0.313c-0.154,0.284-0.54,0.52-0.861,0.522l-1.326,0.095c-0.324,0.044-0.737-0.131-0.927-0.395l-0.746-1.014
								c-0.19-0.263-0.594-0.388-0.894-0.28l-0.963,0.388c-0.295,0.138-0.494,0.508-0.45,0.823l0.178,1.254
								c0.044,0.324-0.129,0.734-0.393,0.923l-1.018,0.864c-0.231,0.222-0.666,0.324-0.973,0.226l-1.206-0.388
								c-0.308-0.094-0.711,0.034-0.9,0.293c0,0-0.093,0.128-0.283,0.439c-0.195,0.32-0.267,0.448-0.267,0.448
								c-0.148,0.283-0.089,0.708,0.133,0.93L295.87,248c0.222,0.229,0.325,0.67,0.232,0.974l-0.325,1.302
								c-0.057,0.314-0.349,0.651-0.654,0.755l-1.202,0.398c-0.303,0.101-0.544,0.445-0.538,0.761l0.074,1.042
								c0.039,0.32,0.329,0.62,0.646,0.678l1.244,0.216c0.319,0.057,0.66,0.351,0.762,0.657l0.502,1.234
								c0.142,0.287,0.103,0.738-0.083,0.998l-0.743,1.032c-0.189,0.257-0.183,0.682,0.017,0.935l0.661,0.792
								c0.223,0.232,0.634,0.313,0.925,0.172l1.139-0.56c0.286-0.142,0.728-0.098,0.986,0.094l1.141,0.714
								c0.283,0.138,0.52,0.513,0.523,0.836l0.003,1.271c0.003,0.317,0.256,0.657,0.563,0.749l1.004,0.246
								c0.311,0.061,0.693-0.122,0.847-0.401l0.592-1.12c0.149-0.283,0.536-0.516,0.857-0.523l1.327-0.094
								c0.322-0.047,0.735,0.128,0.926,0.392l0.744,1.015c0.194,0.263,0.596,0.391,0.898,0.283l0.964-0.398
								c0.292-0.128,0.49-0.502,0.447-0.819l-0.18-1.25c-0.043-0.321,0.132-0.736,0.394-0.921l1.02-0.866
								c0.233-0.223,0.673-0.328,0.976-0.226l1.206,0.384c0.303,0.101,0.707-0.033,0.895-0.29c0,0,0.094-0.125,0.288-0.438
								c0.199-0.317,0.262-0.453,0.262-0.453c0.149-0.28,0.089-0.701-0.131-0.934l-0.88-0.903c-0.225-0.236-0.329-0.674-0.231-0.978
								l0.321-1.298c0.056-0.313,0.348-0.654,0.652-0.758l1.206-0.397c0.3-0.102,0.549-0.442,0.535-0.77L316.608,250.499z
								 M310.63,255.344c-1.92,3.091-5.983,4.039-9.076,2.117c-3.088-1.922-4.041-5.978-2.117-9.073
								c1.096-1.767,2.888-2.825,4.801-3.065c0.216-0.027,0.442-0.04,0.661-0.037c0.206-0.01,0.406-0.003,0.606,0.017
								c0.224,0.007,0.44,0.03,0.663,0.071c0.808,0.138,1.602,0.435,2.343,0.894C311.601,248.189,312.55,252.251,310.63,255.344z"/>
						</g>
					</g>
				</g>
			</g>
			<g id="XMLID_620_">
				<g id="XMLID_621_">
					<g>
						<g>
							<path fill="#FFFFFF" d="M307.509,247.882c-0.44-0.28-0.913-0.469-1.391-0.583c-0.646-0.155-1.303-0.169-1.932-0.05
								c-1.255,0.229-2.417,0.963-3.146,2.141c-1.372,2.205-0.693,5.094,1.517,6.466c2.202,1.373,5.096,0.699,6.471-1.51
								C310.396,252.141,309.716,249.248,307.509,247.882z M306.471,252.754c-0.496,0.792-1.539,1.044-2.328,0.549
								c-0.801-0.496-1.039-1.541-0.546-2.333c0.131-0.213,0.305-0.394,0.506-0.519c0.53-0.354,1.24-0.378,1.824-0.021
								c0.042,0.021,0.074,0.047,0.107,0.078C306.736,251.021,306.938,251.999,306.471,252.754z"/>
						</g>
					</g>
				</g>
			</g>
		</g>
		<g>
			<g>
				<path fill="#0072CD" d="M293.813,239.875c-2.329,0-4.184-1.759-4.184-3.918v-4.403h3.452v4.403c0,0.22,0.292,0.466,0.683,0.466
					c0.451,0,0.729-0.245,0.729-0.466v-1.895h3.453v1.895C297.946,238.116,296.092,239.875,293.813,239.875z"/>
			</g>
			<g>
				<path fill="#0072CD" d="M287.641,253.067c-1.028,0-2.05-0.364-2.849-1.087l-3.425-3.119l2.323-2.552l3.424,3.115
					c0.282,0.254,0.799,0.254,1.083-0.003c0.125-0.115,0.173-0.209,0.173-0.302c0-0.092-0.048-0.188-0.139-0.268l-1.475-1.345
					l2.326-2.553l1.471,1.342c0.805,0.729,1.269,1.76,1.269,2.823c0,1.064-0.464,2.094-1.272,2.827
					C289.727,252.695,288.682,253.067,287.641,253.067z"/>
			</g>
			<g>
				<path fill="#0072CD" d="M285.178,269.178l-2.322-2.553l3.423-3.115c0.092-0.084,0.141-0.179,0.141-0.273
					c0-0.095-0.049-0.189-0.142-0.273c-0.317-0.288-0.833-0.288-1.113-0.03l-1.476,1.34l-2.32-2.556l1.473-1.338
					c1.604-1.462,4.121-1.46,5.729,0.001c0.84,0.765,1.302,1.794,1.302,2.856s-0.462,2.09-1.269,2.826L285.178,269.178z"/>
			</g>
		</g>
		<g>
			<g>
				<path fill="#0072CD" d="M316.234,239.875c-2.328,0-4.183-1.759-4.183-3.918v-1.895h3.453v1.895c0,0.221,0.279,0.466,0.682,0.466
					c0.449,0,0.729-0.245,0.729-0.466v-4.403h3.454v4.403C320.369,238.116,318.514,239.875,316.234,239.875z"/>
			</g>
			<g>
				<path fill="#0072CD" d="M322.343,253.071c-1.028,0-2.059-0.364-2.861-1.09c-0.844-0.769-1.307-1.799-1.307-2.861
					c0-1.063,0.463-2.092,1.271-2.825l1.47-1.341l2.326,2.553l-1.474,1.341c-0.094,0.084-0.142,0.178-0.142,0.272
					c0,0.094,0.048,0.187,0.139,0.27c0.321,0.292,0.84,0.293,1.121,0.032l3.422-3.112l2.323,2.552l-3.424,3.115
					C324.406,252.707,323.374,253.071,322.343,253.071z"/>
			</g>
			<g>
				<path fill="#0072CD" d="M324.816,269.178l-3.421-3.115c-0.807-0.736-1.268-1.764-1.268-2.826s0.461-2.091,1.268-2.825
					c1.641-1.492,4.158-1.495,5.765-0.031l1.47,1.337l-2.319,2.556l-1.474-1.338c-0.284-0.258-0.8-0.26-1.082-0.002
					c-0.128,0.115-0.176,0.208-0.176,0.304c0,0.094,0.048,0.189,0.143,0.273l3.422,3.115L324.816,269.178z"/>
			</g>
		</g>
		<g>
			<rect x="303.305" y="225.222" fill="#0072CD" width="3.452" height="8.446"/>
		</g>
		<g>
			<rect x="303.305" y="269.49" fill="#0072CD" width="3.452" height="8.446"/>
		</g>
	</g>
	<g>
		<g>
			<g>
				<g>
					<path fill="#54AAE3" d="M265.52,437.909h-48.959c-4.729,0-8.563-3.834-8.563-8.564v-71.311
						c0-18.249,14.794-33.043,33.042-33.043l0,0c18.25,0,33.044,14.794,33.044,33.043v71.311
						C274.083,434.075,270.248,437.909,265.52,437.909z"/>
				</g>
				<g>
					<path fill="#0072CD" d="M265.52,439.636h-48.959c-5.674,0-10.29-4.617-10.29-10.291v-71.311
						c0-19.171,15.598-34.77,34.769-34.77c19.172,0,34.771,15.599,34.771,34.77v71.311
						C275.81,435.019,271.193,439.636,265.52,439.636z M241.039,326.717c-17.268,0-31.316,14.051-31.316,31.317v71.311
						c0,3.77,3.067,6.838,6.837,6.838h48.959c3.77,0,6.837-3.068,6.837-6.838v-71.311
						C272.357,340.768,258.309,326.717,241.039,326.717z"/>
				</g>
				<g>
					<path fill="#FFFFFF" d="M286.465,468.448v-42.039c0-18.813-13.267-31.059-32.086-31.059h-30.107
						c-18.818,0-28.658,12.245-28.658,31.059v42.039H286.465z"/>
				</g>
				<g>
					<path fill="#0072CD" d="M288.19,468.414h-3.452v-42.978c0-17.228-12.009-28.359-30.596-28.359h-31.488v-3.453h31.488
						c20.365,0,34.048,12.785,34.048,31.813V468.414z"/>
				</g>
				<g>
					<path fill="#0072CD" d="M241.472,424.369c-0.604,0-1.163-0.314-1.476-0.832l-15.947-26.3l2.952-1.79l14.447,23.829
						l14.217-24.18l2.975,1.749l-15.681,26.672c-0.308,0.524-0.868,0.848-1.477,0.852
						C241.48,424.369,241.476,424.369,241.472,424.369z"/>
				</g>
				<g>
					<rect x="239.613" y="430.905" fill="#0072CD" width="3.453" height="13.592"/>
				</g>
				<g>
					<rect x="239.613" y="457.888" fill="#0072CD" width="3.453" height="10.561"/>
				</g>
				<g>
					<rect x="264.618" y="443.894" fill="#0072CD" width="3.452" height="24.555"/>
				</g>
				<g>
					<g>
						<path fill="#FFFFFF" d="M266.1,358.368c0-13.84-11.219-25.06-25.061-25.06l0,0c-13.84,0-25.061,11.22-25.061,25.06v3.345
							c0,13.841,11.221,25.06,25.061,25.06l0,0c13.841,0,25.061-11.219,25.061-25.063V358.368z"/>
					</g>
					<g>
						<path fill="#0072CD" d="M241.039,388.499c-14.77,0-26.786-12.016-26.786-26.786v-3.345c0-14.77,12.017-26.786,26.786-26.786
							c14.771,0,26.786,12.017,26.786,26.786v3.341C267.825,376.482,255.81,388.499,241.039,388.499z M241.039,335.035
							c-12.867,0-23.334,10.466-23.334,23.333v3.345c0,12.868,10.467,23.334,23.334,23.334s23.334-10.468,23.334-23.338v-3.341
							C264.373,345.501,253.906,335.035,241.039,335.035z"/>
					</g>
				</g>
				<g>
					<path fill="#0072CD" d="M258.684,449.614c-1.04,0-2.069-0.103-3.06-0.306l0.689-3.381c0.765,0.154,1.562,0.233,2.371,0.233
						c6.606,0,11.98-5.375,11.98-11.982c0-3.456-1.494-6.746-4.099-9.023l2.272-2.598c3.355,2.931,5.279,7.168,5.279,11.621
						C274.116,442.691,267.193,449.614,258.684,449.614z"/>
				</g>
				<g>
					<path fill="#0072CD" d="M225.499,449.614c-8.511,0-15.435-6.923-15.435-15.436c0-4.453,1.924-8.69,5.279-11.621l2.273,2.598
						c-2.605,2.277-4.1,5.567-4.1,9.023c0,6.607,5.375,11.982,11.983,11.982c0.806,0,1.604-0.079,2.372-0.233l0.688,3.381
						C227.566,449.512,226.536,449.614,225.499,449.614z"/>
				</g>
				<g>
					<path fill="#54AAE3" d="M228.268,332.28c0,0,5.044,25.604,43.335,25.604C271.603,357.884,269.239,319.378,228.268,332.28z"/>
				</g>
				<g>
					<path fill="#0072CD" d="M270.452,359.61c-38.243,0-43.823-25.196-43.875-25.451l3.382-0.695
						c0.195,0.928,5.191,22.692,40.493,22.692V359.61z"/>
				</g>
			</g>
		</g>
		<g>
			<g>
				<g>
					<path fill="#FFFFFF" d="M498.188,422.642v-61.782c0-19.81-16.063-35.868-35.873-35.868h-3.211
						c-19.81,0-35.871,16.059-35.871,35.868v61.782H498.188z"/>
				</g>
				<g>
					<path fill="#0072CD" d="M498.188,424.369h-74.955c-0.953,0-1.725-0.772-1.725-1.728v-61.782
						c0-20.729,16.864-37.595,37.596-37.595h3.211c20.731,0,37.599,16.865,37.599,37.595v61.782
						C499.914,423.597,499.142,424.369,498.188,424.369z M424.96,420.915h71.502v-60.056c0-18.825-15.318-34.143-34.146-34.143
						h-3.211c-18.828,0-34.145,15.317-34.145,34.143V420.915z"/>
				</g>
				<g>
					<g>
						<path fill="#FFFFFF" d="M412.252,398.577c0-8.58,6.956-15.536,15.535-15.536c8.578,0,15.534,6.956,15.534,15.536
							c0,8.576-6.956,15.532-15.534,15.532C419.208,414.109,412.252,407.153,412.252,398.577z"/>
					</g>
					<g>
						<path fill="#0072CD" d="M427.787,415.836c-9.519,0-17.261-7.744-17.261-17.259c0-9.518,7.742-17.264,17.261-17.264
							c2.187,0,4.321,0.406,6.343,1.203l-1.268,3.214c-1.616-0.638-3.324-0.963-5.075-0.963c-7.614,0-13.808,6.194-13.808,13.81
							c0,7.613,6.193,13.806,13.808,13.806c2.544,0,5.032-0.698,7.196-2.019l1.797,2.946
							C434.076,414.963,430.965,415.836,427.787,415.836z"/>
					</g>
				</g>
				<g>
					<g>
						<path fill="#FFFFFF" d="M510.563,398.577c0-8.58-6.956-15.536-15.534-15.536c-8.579,0-15.533,6.956-15.533,15.536
							c0,8.576,6.954,15.532,15.533,15.532C503.607,414.109,510.563,407.153,510.563,398.577z"/>
					</g>
					<g>
						<path fill="#0072CD" d="M495.029,415.836c-3.178,0-6.288-0.873-8.995-2.525l1.801-2.946c2.164,1.32,4.652,2.019,7.194,2.019
							c7.612,0,13.808-6.192,13.808-13.806c0-7.615-6.195-13.81-13.808-13.81c-1.75,0-3.458,0.325-5.076,0.963l-1.268-3.214
							c2.021-0.797,4.156-1.203,6.344-1.203c9.517,0,17.26,7.746,17.26,17.264C512.289,408.092,504.546,415.836,495.029,415.836z"/>
					</g>
				</g>
				<g>
					<path fill="#54AAE3" d="M506.137,468.448v-42.039c0-18.813-13.269-31.059-32.086-31.059h-30.107
						c-18.82,0-28.66,12.245-28.66,31.059v42.039H506.137z"/>
				</g>
				<g>
					<path fill="#0072CD" d="M507.863,468.414h-3.453v-42.978c0-17.228-12.011-28.359-30.599-28.359h-31.486v-3.453h31.486
						c20.367,0,34.052,12.785,34.052,31.813V468.414z"/>
				</g>
				<g>
					<path fill="#0072CD" d="M461.142,424.369c-0.602,0-1.162-0.314-1.475-0.832l-15.948-26.3l2.954-1.79l14.447,23.829
						l14.217-24.184l2.977,1.749l-15.686,26.676c-0.305,0.524-0.865,0.848-1.474,0.852
						C461.149,424.369,461.146,424.369,461.142,424.369z"/>
				</g>
				<g>
					<rect x="459.284" y="430.905" fill="#0072CD" width="3.453" height="13.592"/>
				</g>
				<g>
					<rect x="459.284" y="457.888" fill="#0072CD" width="3.453" height="10.561"/>
				</g>
				<g>
					<rect x="484.291" y="443.894" fill="#0072CD" width="3.45" height="24.555"/>
				</g>
				<g>
					<g>
						<path fill="#FFFFFF" d="M485.771,358.368c0-13.84-11.22-25.06-25.06-25.06l0,0c-13.842,0-25.063,11.22-25.063,25.06v3.341
							c0,13.841,11.221,25.061,25.061,25.061l0,0c13.842,0,25.062-11.22,25.062-25.061V358.368z"/>
					</g>
					<g>
						<path fill="#0072CD" d="M460.709,388.495c-14.771,0-26.785-12.015-26.785-26.786v-3.341c0-14.77,12.018-26.786,26.787-26.786
							c14.771,0,26.786,12.017,26.786,26.786v3.341C487.497,376.48,475.481,388.495,460.709,388.495z M460.711,335.035
							c-12.867,0-23.336,10.466-23.336,23.333v3.341c0,12.868,10.468,23.334,23.334,23.334c12.867,0,23.336-10.466,23.336-23.334
							v-3.341C484.045,345.501,473.576,335.035,460.711,335.035z"/>
					</g>
				</g>
				<g>
					<g>
						<path fill="#FFFFFF" d="M488.759,356.804c-2.478-13.256-14.073-27.75-28.048-27.75c-13.974,0-25.572,14.494-28.049,27.75
							H488.759z"/>
					</g>
					<g>
						<path fill="#0072CD" d="M488.759,358.53h-56.097c-0.514,0-1-0.229-1.328-0.623c-0.329-0.396-0.464-0.916-0.369-1.42
							c2.269-12.135,11.945-21.839,24.083-24.144l0.643,3.393c-10.06,1.909-18.213,9.558-20.866,19.342h51.774
							c-2.547-9.464-10.106-16.857-19.757-19.122l0.789-3.36c11.667,2.736,20.625,12.115,22.823,23.892
							c0.095,0.504-0.041,1.024-0.367,1.42C489.759,358.304,489.271,358.53,488.759,358.53z"/>
					</g>
				</g>
				<g>
					<path fill="#0072CD" d="M478.354,449.614c-1.038,0-2.066-0.103-3.06-0.306l0.688-3.381c0.768,0.154,1.566,0.233,2.372,0.233
						c6.608,0,11.982-5.375,11.982-11.982c0-3.457-1.493-6.747-4.1-9.023l2.269-2.598c3.357,2.931,5.285,7.167,5.285,11.621
						C493.79,442.691,486.864,449.614,478.354,449.614z"/>
				</g>
				<g>
					<path fill="#0072CD" d="M445.167,449.614c-8.508,0-15.433-6.923-15.433-15.436c0-4.454,1.924-8.69,5.282-11.621l2.27,2.598
						c-2.605,2.276-4.1,5.566-4.1,9.023c0,6.607,5.373,11.982,11.98,11.982c0.809,0,1.605-0.079,2.373-0.233l0.688,3.381
						C447.234,449.512,446.206,449.614,445.167,449.614z"/>
				</g>
			</g>
		</g>
		<g>
			<g>
				<g>
					<path fill="#54AAE3" d="M176.639,468.454v-42.372c0-18.959-13.373-31.302-32.339-31.302h-30.345
						c-18.966,0-28.883,12.343-28.883,31.302v42.372H176.639z"/>
				</g>
				<g>
					<path fill="#0072CD" d="M178.365,468.421h-3.452v-43.317c0-17.371-12.11-28.597-30.853-28.597h-31.736v-3.451h31.736
						c20.519,0,34.305,12.877,34.305,32.048V468.421z"/>
				</g>
				<g>
					<path fill="#0072CD" d="M131.29,424.017c-0.603,0-1.162-0.317-1.475-0.833l-16.072-26.51l2.952-1.791l14.573,24.039
						l14.341-24.393l2.975,1.75l-15.806,26.884c-0.308,0.525-0.868,0.85-1.476,0.854
						C131.299,424.017,131.295,424.017,131.29,424.017z"/>
				</g>
				<g>
					<rect x="129.432" y="430.616" fill="#0072CD" width="3.452" height="13.698"/>
				</g>
				<g>
					<rect x="129.432" y="457.811" fill="#0072CD" width="3.452" height="10.644"/>
				</g>
				<g>
					<rect x="154.633" y="443.703" fill="#0072CD" width="3.453" height="24.751"/>
				</g>
				<g>
					<g>
						<path fill="#FFFFFF" d="M115.549,385.796v21.348l15.816-12.07l15.4,12.07v-21.348l-0.529-0.719l0,0
							c-4.993,12.9-23.278,12.805-28.14-0.145l-0.142-0.378L115.549,385.796z"/>
					</g>
					<g>
						<path fill="#0072CD" d="M146.766,408.871c-0.379,0-0.755-0.126-1.064-0.368l-14.35-11.247l-14.755,11.26
							c-0.521,0.398-1.224,0.465-1.813,0.175c-0.588-0.291-0.96-0.891-0.96-1.547v-21.348c0-0.646,0.361-1.237,0.935-1.534
							l2.406-1.241c0.439-0.225,0.953-0.253,1.412-0.074c0.46,0.177,0.822,0.542,0.996,1.002l0.143,0.378
							c2.392,6.376,8.018,8.646,12.484,8.646c4.415,0,9.998-2.237,12.429-8.52c0.227-0.587,0.757-1.002,1.381-1.087
							c0.621-0.083,1.246,0.181,1.619,0.687l0.529,0.718c0.219,0.296,0.336,0.656,0.336,1.025v21.348
							c0,0.661-0.376,1.263-0.971,1.553C147.282,408.813,147.023,408.871,146.766,408.871z M117.275,387.352v16.304l10.281-7.847
							C123.101,394.587,119.425,391.596,117.275,387.352z M135.497,396.117l9.543,7.479v-13.084
							C142.62,393.43,139.295,395.396,135.497,396.117z"/>
					</g>
				</g>
				<g>
					<g>
						<path fill="#FFFFFF" d="M160.209,361.605c0-16.214-13.142-29.355-29.354-29.355l0,0c-16.213,0-29.355,13.142-29.355,29.355
							v3.915c0,16.209,13.143,29.352,29.354,29.352l0,0c16.213,0,29.355-13.143,29.355-29.355V361.605z"/>
					</g>
					<g>
						<path fill="#0072CD" d="M130.854,396.599c-17.137,0-31.08-13.942-31.08-31.078v-3.915c0-17.139,13.944-31.082,31.081-31.082
							c17.138,0,31.081,13.943,31.081,31.082v3.911C161.937,382.654,147.992,396.599,130.854,396.599z M130.855,333.976
							c-15.235,0-27.629,12.396-27.629,27.63v3.915c0,15.231,12.394,27.625,27.628,27.625s27.629-12.396,27.629-27.629v-3.911
							C158.483,346.371,146.09,333.976,130.855,333.976z"/>
					</g>
				</g>
			</g>
		</g>
		<g>
			<g>
				<g>
					<path fill="#92D0EF" d="M398.77,468.481v-44.002c0-19.687-13.89-32.504-33.583-32.504h-31.513
						c-19.696,0-29.994,12.817-29.994,32.504v44.002H398.77z"/>
				</g>
				<g>
					<path fill="#0072CD" d="M400.495,468.448h-3.452v-44.982c0-18.083-12.601-29.764-32.105-29.764H331.98v-3.453h32.957
						c21.267,0,35.558,13.348,35.558,33.217V468.448z"/>
				</g>
				<g>
					<path fill="#0072CD" d="M351.676,422.269c-0.604,0-1.163-0.315-1.475-0.831l-16.693-27.528l2.955-1.791l15.19,25.059
						l14.949-25.429l2.975,1.75l-16.413,27.919c-0.309,0.523-0.869,0.848-1.477,0.852
						C351.685,422.269,351.681,422.269,351.676,422.269z"/>
				</g>
				<g>
					<rect x="349.812" y="429.19" fill="#0072CD" width="3.452" height="14.223"/>
				</g>
				<g>
					<rect x="349.812" y="457.429" fill="#0072CD" width="3.452" height="11.053"/>
				</g>
				<g>
					<rect x="375.983" y="442.78" fill="#0072CD" width="3.452" height="25.701"/>
				</g>
				<g>
					<g>
						<path fill="#FFFFFF" d="M335.33,382.643v22.171l16.422-12.529l15.993,12.529v-22.171l-0.549-0.745l0,0
							c-5.186,13.396-24.173,13.298-29.222-0.147l-0.146-0.395L335.33,382.643z"/>
					</g>
					<g>
						<path fill="#0072CD" d="M367.745,406.54c-0.377,0-0.754-0.124-1.064-0.367l-14.943-11.709l-15.36,11.723
							c-0.521,0.398-1.225,0.467-1.813,0.176c-0.588-0.292-0.962-0.892-0.962-1.549v-22.171c0-0.646,0.362-1.237,0.937-1.532
							l2.499-1.289c0.437-0.228,0.949-0.251,1.41-0.077c0.458,0.176,0.822,0.542,0.995,1.004l0.146,0.395
							c2.499,6.65,8.367,9.021,13.029,9.021c4.604,0,10.431-2.335,12.967-8.89c0.229-0.586,0.758-1.003,1.381-1.087
							c0.628-0.084,1.245,0.179,1.618,0.686l0.55,0.745c0.22,0.297,0.338,0.657,0.338,1.024v22.171c0,0.662-0.379,1.265-0.972,1.554
							C368.262,406.482,368.001,406.54,367.745,406.54z M337.056,383.976v17.351l10.892-8.311
							C343.189,391.75,339.281,388.542,337.056,383.976z M355.882,393.325l10.138,7.944v-13.913
							C363.476,390.492,359.936,392.59,355.882,393.325z"/>
					</g>
				</g>
				<g>
					<g>
						<path fill="#FFFFFF" d="M379.277,360.408c0-15.496-12.561-28.055-28.054-28.055l0,0c-15.493,0-28.055,12.559-28.055,28.055
							v3.743c0,15.491,12.561,28.054,28.053,28.054l0,0c15.495,0,28.056-12.563,28.056-28.057V360.408z"/>
					</g>
					<g>
						<path fill="#0072CD" d="M351.222,393.931c-16.421,0-29.779-13.358-29.779-29.779v-3.743c0-16.421,13.36-29.779,29.781-29.779
							s29.78,13.358,29.78,29.779v3.74C381.004,380.57,367.645,393.931,351.222,393.931z M351.224,334.08
							c-14.519,0-26.328,11.811-26.328,26.328v3.743c0,14.518,11.81,26.328,26.326,26.328c14.519,0,26.33-11.813,26.33-26.331v-3.74
							C377.552,345.891,365.741,334.08,351.224,334.08z"/>
					</g>
				</g>
				<g>
					<g>
						<path fill="#54AAE3" d="M363.985,355.084h-15.506c-7.264,0-13.149-5.886-13.149-13.148v-0.266
							c0-7.263,5.886-13.152,13.149-13.152h37.029v5.043C385.509,345.449,375.873,355.084,363.985,355.084z"/>
					</g>
					<g>
						<path fill="#0072CD" d="M363.985,356.811h-15.506c-8.203,0-14.877-6.672-14.877-14.875v-0.266
							c0-8.205,6.674-14.879,14.877-14.879h37.029c0.952,0,1.727,0.771,1.727,1.727v5.043
							C387.235,346.382,376.805,356.811,363.985,356.811z M348.479,330.244c-6.3,0-11.424,5.125-11.424,11.426v0.266
							c0,6.299,5.124,11.424,11.424,11.424h15.506c10.915,0,19.797-8.881,19.797-19.799v-3.316H348.479z"/>
					</g>
				</g>
			</g>
		</g>
		<g>
			<g>
				<g>
					<g>
						<g>
							<g>
								<path fill="#FFFFFF" d="M505.497,464.925v-53.246c0-2.963-2.33-5.364-5.205-5.364h-81.018c-2.875,0-5.204,2.401-5.204,5.364
									v53.246H505.497z"/>
							</g>
						</g>
					</g>
				</g>
				<g>
					<g>
						<path fill="#FFFFFF" d="M496.923,438.095h25.06c2.584,0,4.678,2.093,4.678,4.676l0,0c0,2.582-2.094,4.676-4.678,4.676h-25.06
							c-2.585,0-4.678-2.094-4.678-4.676l0,0C492.245,440.188,494.34,438.095,496.923,438.095z"/>
					</g>
					<g>
						<path fill="#FFFFFF" d="M499.231,419.729h13.625c2.587,0,4.679,2.094,4.679,4.676l0,0c0,2.586-2.092,4.681-4.679,4.681
							h-13.625c-2.584,0-4.677-2.095-4.677-4.681l0,0C494.555,421.823,496.647,419.729,499.231,419.729z"/>
					</g>
					<g>
						<path fill="#FFFFFF" d="M490.889,455.782h37.132c1.673,0,3.029,1.529,3.029,3.417l0,0c0,1.889-1.356,3.419-3.029,3.419
							h-37.132c-1.678,0-3.033-1.53-3.033-3.419l0,0C487.855,457.312,489.211,455.782,490.889,455.782z"/>
					</g>
					<g>
						<path fill="#FFFFFF" d="M517.967,411.038h13.437c1.675,0,3.032,1.355,3.032,3.031l0,0c0,1.676-1.357,3.031-3.032,3.031
							h-13.437c-1.674,0-3.029-1.355-3.029-3.031l0,0C514.938,412.394,516.293,411.038,517.967,411.038z"/>
					</g>
					<g>
						<path fill="#FFFFFF" d="M500.668,447.011h18.034c-1.332,0-2.544,0.551-3.416,1.383c-0.876,0.84-1.418,1.827-1.418,3.103
							c0,2.55,2.166,4.447,4.834,4.447h-18.034c1.332,0,2.541-0.338,3.417-1.167c0.872-0.834,1.412-1.932,1.412-3.205
							C505.497,449.018,503.336,447.011,500.668,447.011z"/>
					</g>
				</g>
			</g>
			<g>
				<g>
					<path fill="#0072CD" d="M505.497,466.7H413.99c-0.952,0-1.726-0.771-1.726-1.727v-53.572c0-4.012,2.682-6.814,6.523-6.814
						h81.988c3.799,0,6.447,2.803,6.447,6.814v6.093h5.633c3.533,0,6.405,2.879,6.405,6.419s-2.872,6.42-6.405,6.42h-5.633v5.931
						h14.761c3.516,0,6.291,2.73,6.354,6.226c0,0.021,0,0.042,0,0.062c0,0.007,0,0.015,0,0.022
						c-0.023,3.609-2.872,6.528-6.354,6.528h-3.911c-0.604,0-1.092,0.184-1.449,0.546c-0.713,0.719-0.876,1.03-0.876,1.673
						c0,1.757,1.484,2.542,2.954,2.542h9.318c2.802,0,4.756,2.765,4.756,5.246s-1.954,5.246-4.756,5.246h-20.797v0.619
						C507.224,465.929,506.452,466.7,505.497,466.7z M415.717,463.249h88.054v-0.621c0-0.954,0.771-1.726,1.727-1.726h22.523
						c0.596,0,1.303-0.974,1.303-1.794c0-0.821-0.707-1.794-1.303-1.794h-9.318c-3.652,0-6.406-2.576-6.406-5.994
						c0-2.041,0.968-3.188,1.876-4.101c1.012-1.027,2.363-1.57,3.901-1.57h3.911c1.563,0,2.893-1.411,2.902-3.08
						c-0.01-1.591-1.284-2.854-2.902-2.854h-16.487c-0.955,0-1.727-0.772-1.727-1.727v-9.383c0-0.953,0.771-1.727,1.727-1.727h7.359
						c1.629,0,2.952-1.332,2.952-2.967s-1.323-2.966-2.952-2.966h-7.359c-0.955,0-1.727-0.772-1.727-1.726v-7.82
						c0-2.105-1.119-3.36-2.994-3.36h-81.988c-1.894,0-3.071,1.288-3.071,3.36V463.249z"/>
				</g>
				<g>
					<path fill="#0072CD" d="M531.403,418.6h-13.437c-2.583,0-4.657-1.908-4.802-4.377c-0.008-0.055-0.009-0.109-0.009-0.167v-0.107
						c0-0.087,0.005-0.172,0.019-0.254c0.216-2.486,2.299-4.414,4.792-4.414h13.436c2.668,0,4.759,2.047,4.759,4.662
						C536.161,416.554,534.07,418.6,531.403,418.6z M517.967,412.735c-0.722,0-1.345,0.595-1.358,1.298
						c0.014,0.675,0.701,1.114,1.358,1.114h13.437c0.745,0,1.305-0.519,1.305-1.205c0-0.689-0.56-1.207-1.306-1.207H517.967z"/>
				</g>
			</g>
			<g>
				<path fill="#0072CD" d="M532.479,433.849h-14.077c-0.954,0-1.727-0.771-1.727-1.727c0-0.954,0.772-1.725,1.727-1.725h14.077
					c0.955,0,1.727,0.771,1.727,1.725C534.206,433.077,533.435,433.849,532.479,433.849z"/>
			</g>
			<g>
				<path fill="#0072CD" d="M534.825,451.448h-4.693c-0.952,0-1.725-0.771-1.725-1.727c0-0.953,0.772-1.725,1.725-1.725h4.693
					c0.956,0,1.727,0.771,1.727,1.725C536.552,450.677,535.781,451.448,534.825,451.448z"/>
			</g>
			<g>
				<path fill="#0072CD" d="M532.479,426.257h-4.693c-0.953,0-1.726-0.771-1.726-1.726c0-0.955,0.772-1.727,1.726-1.727h4.693
					c0.955,0,1.727,0.771,1.727,1.727C534.206,425.485,533.435,426.257,532.479,426.257z"/>
			</g>
			<g>
				<g>
					<circle fill="#92D0EF" cx="460.245" cy="437.099" r="8.833"/>
				</g>
				<g>
					<path fill="#0072CD" d="M460.247,447.659c-5.824,0-10.561-4.737-10.561-10.561c0-5.821,4.736-10.559,10.561-10.559
						c5.821,0,10.556,4.737,10.556,10.559C470.803,442.922,466.068,447.659,460.247,447.659z M460.247,429.992
						c-3.918,0-7.107,3.188-7.107,7.106c0,3.919,3.189,7.108,7.107,7.108c3.916,0,7.104-3.189,7.104-7.108
						C467.351,433.181,464.163,429.992,460.247,429.992z"/>
				</g>
			</g>
			<g>
				<g>
					<g>
						<g>
							<path fill="#FFFFFF" d="M412.719,463.199v2.527c0,1.398,1.108,2.531,2.473,2.531h90.107c1.364,0,2.473-1.133,2.473-2.531
								v-2.527H412.719z"/>
						</g>
					</g>
				</g>
			</g>
			<g>
				<g>
					<g>
						<g>
							<path fill="#0072CD" d="M505.299,469.984h-90.107c-2.315,0-4.198-1.909-4.198-4.258v-2.527c0-0.956,0.774-1.728,1.726-1.728
								h95.053c0.952,0,1.727,0.771,1.727,1.728v2.527C509.498,468.075,507.615,469.984,505.299,469.984z M414.445,464.925v0.802
								c0,0.444,0.336,0.806,0.746,0.806h90.107c0.411,0,0.746-0.361,0.746-0.806v-0.802H414.445z"/>
						</g>
					</g>
				</g>
			</g>
		</g>
		<g>
			<g>
				<g>
					<g>
						<g>
							<g>
								<path fill="#FFFFFF" d="M306.393,464.543v-52.739c0-2.933,2.309-5.313,5.156-5.313h80.25c2.848,0,5.155,2.381,5.155,5.313
									v52.739H306.393z"/>
							</g>
						</g>
					</g>
				</g>
			</g>
			<g>
				<g>
					<g>
						<g>
							<g>
								<path fill="#0072CD" d="M396.954,466.269h-90.561c-0.955,0-1.728-0.771-1.728-1.726v-52.739c0-3.883,3.088-7.04,6.884-7.04
									h80.25c3.795,0,6.88,3.157,6.88,7.04v52.739C398.679,465.497,397.907,466.269,396.954,466.269z M308.118,462.816h87.11
									v-51.013c0-1.978-1.538-3.588-3.429-3.588h-80.25c-1.893,0-3.431,1.61-3.431,3.588V462.816z"/>
							</g>
						</g>
					</g>
				</g>
			</g>
			<g>
				<g>
					<g>
						<g>
							<path fill="#FFFFFF" d="M398.633,463.661v2.504c0,1.385-1.097,2.508-2.448,2.508h-89.024c-1.352,0-2.448-1.123-2.448-2.508
								v-2.504H398.633z"/>
						</g>
					</g>
				</g>
			</g>
			<g>
				<g>
					<g>
						<g>
							<path fill="#0072CD" d="M396.185,470.399h-89.024c-2.302,0-4.174-1.9-4.174-4.234v-2.504c0-0.955,0.773-1.727,1.727-1.727
								h93.92c0.953,0,1.726,0.771,1.726,1.727v2.504C400.358,468.499,398.486,470.399,396.185,470.399z M306.439,465.386v0.779
								c0,0.432,0.323,0.781,0.721,0.781h89.024c0.396,0,0.722-0.35,0.722-0.781v-0.779H306.439z"/>
						</g>
					</g>
				</g>
			</g>
			<g>
				<g>
					<circle fill="#92D0EF" cx="351.672" cy="435.519" r="8.833"/>
				</g>
				<g>
					<path fill="#0072CD" d="M351.673,446.073c-5.822,0-10.558-4.734-10.558-10.555c0-5.822,4.735-10.56,10.558-10.56
						c5.821,0,10.558,4.737,10.558,10.56C362.23,441.339,357.494,446.073,351.673,446.073z M351.673,428.411
						c-3.918,0-7.105,3.188-7.105,7.107c0,3.917,3.188,7.104,7.105,7.104c3.917,0,7.105-3.187,7.105-7.104
						C358.778,431.599,355.59,428.411,351.673,428.411z"/>
				</g>
			</g>
		</g>
		<g>
			<g>
				<g>
					<g>
						<g>
							<g>
								<path fill="#FFFFFF" d="M194.189,464.543v-52.739c0-2.933,2.309-5.313,5.156-5.313h80.25c2.847,0,5.156,2.381,5.156,5.313
									v52.739H194.189z"/>
							</g>
						</g>
					</g>
				</g>
			</g>
			<g>
				<g>
					<g>
						<g>
							<g>
								<path fill="#0072CD" d="M284.751,466.269h-90.562c-0.954,0-1.727-0.771-1.727-1.726v-52.739c0-3.883,3.087-7.04,6.883-7.04
									h80.25c3.794,0,6.881,3.157,6.881,7.04v52.739C286.477,465.497,285.704,466.269,284.751,466.269z M195.915,462.816h87.108
									v-51.013c0-1.978-1.538-3.588-3.428-3.588h-80.25c-1.892,0-3.431,1.61-3.431,3.588V462.816z"/>
							</g>
						</g>
					</g>
				</g>
			</g>
			<g>
				<g>
					<g>
						<g>
							<path fill="#FFFFFF" d="M286.43,463.661v2.504c0,1.385-1.096,2.508-2.448,2.508h-89.023c-1.352,0-2.447-1.123-2.447-2.508
								v-2.504H286.43z"/>
						</g>
					</g>
				</g>
			</g>
			<g>
				<g>
					<g>
						<g>
							<path fill="#0072CD" d="M283.981,470.399h-89.023c-2.302,0-4.174-1.9-4.174-4.234v-2.504c0-0.955,0.773-1.727,1.727-1.727
								h93.919c0.953,0,1.726,0.771,1.726,1.727v2.504C288.155,468.499,286.284,470.399,283.981,470.399z M194.236,465.386v0.779
								c0,0.432,0.324,0.781,0.722,0.781h89.023c0.398,0,0.722-0.35,0.722-0.781v-0.779H194.236z"/>
						</g>
					</g>
				</g>
			</g>
			<g>
				<g>
					<circle fill="#92D0EF" cx="239.47" cy="435.519" r="8.832"/>
				</g>
				<g>
					<path fill="#0072CD" d="M239.47,446.073c-5.822,0-10.559-4.734-10.559-10.555c0-5.822,4.737-10.56,10.559-10.56
						s10.558,4.737,10.558,10.56C250.027,441.339,245.292,446.073,239.47,446.073z M239.47,428.411
						c-3.917,0-7.105,3.188-7.105,7.107c0,3.917,3.188,7.104,7.105,7.104c3.918,0,7.105-3.187,7.105-7.104
						C246.575,431.599,243.388,428.411,239.47,428.411z"/>
				</g>
			</g>
		</g>
		<g>
			<g>
				<g>
					<g>
						<g>
							<g>
								<path fill="#FFFFFF" d="M85.439,464.543v-52.739c0-2.933,2.31-5.313,5.157-5.313h80.25c2.847,0,5.155,2.381,5.155,5.313
									v52.739H85.439z"/>
							</g>
						</g>
					</g>
				</g>
			</g>
			<g>
				<g>
					<g>
						<g>
							<g>
								<path fill="#0072CD" d="M176,466.269H85.439c-0.954,0-1.726-0.771-1.726-1.726v-52.739c0-3.883,3.087-7.04,6.883-7.04h80.25
									c3.794,0,6.881,3.157,6.881,7.04v52.739C177.727,465.497,176.954,466.269,176,466.269z M87.165,462.816h87.108v-51.013
									c0-1.978-1.538-3.588-3.428-3.588h-80.25c-1.892,0-3.431,1.61-3.431,3.588V462.816z"/>
							</g>
						</g>
					</g>
				</g>
			</g>
			<g>
				<g>
					<g>
						<g>
							<path fill="#FFFFFF" d="M177.679,463.661v2.504c0,1.385-1.095,2.508-2.447,2.508H86.208c-1.353,0-2.448-1.123-2.448-2.508
								v-2.504H177.679z"/>
						</g>
					</g>
				</g>
			</g>
			<g>
				<g>
					<g>
						<g>
							<path fill="#0072CD" d="M175.231,470.399H86.208c-2.302,0-4.175-1.9-4.175-4.234v-2.504c0-0.955,0.773-1.727,1.727-1.727
								h93.919c0.954,0,1.727,0.771,1.727,1.727v2.504C179.405,468.499,177.533,470.399,175.231,470.399z M85.486,465.386v0.779
								c0,0.432,0.324,0.781,0.722,0.781h89.023c0.398,0,0.721-0.35,0.721-0.781v-0.779H85.486z"/>
						</g>
					</g>
				</g>
			</g>
			<g>
				<g>
					<circle fill="#92D0EF" cx="130.719" cy="435.519" r="8.831"/>
				</g>
				<g>
					<path fill="#0072CD" d="M130.72,446.073c-5.822,0-10.559-4.734-10.559-10.555c0-5.822,4.737-10.56,10.559-10.56
						c5.821,0,10.558,4.737,10.558,10.56C141.277,441.339,136.541,446.073,130.72,446.073z M130.72,428.411
						c-3.918,0-7.105,3.188-7.105,7.107c0,3.917,3.188,7.104,7.105,7.104s7.104-3.187,7.104-7.104
						C137.824,431.599,134.638,428.411,130.72,428.411z"/>
				</g>
			</g>
		</g>
	</g>
	<g>
		<g>
			
				<rect x="346.215" y="296.127" transform="matrix(0.7974 0.6034 -0.6034 0.7974 251.9075 -154.6194)" fill="#0072CD" width="20.023" height="3.454"/>
		</g>
		<g>
			
				<rect x="354.5" y="194.628" transform="matrix(0.6032 0.7976 -0.7976 0.6032 304.5771 -202.9231)" fill="#0072CD" width="3.453" height="20.024"/>
		</g>
		<g>
			<g>
				
					<rect x="331.883" y="179.869" transform="matrix(0.8921 0.4518 -0.4518 0.8921 121.7422 -130.2633)" fill="#0072CD" width="3.455" height="19.794"/>
			</g>
			<g>
				
					<rect x="266.559" y="188.04" transform="matrix(0.452 0.892 -0.892 0.452 320.7717 -142.6111)" fill="#0072CD" width="19.794" height="3.453"/>
			</g>
		</g>
		<g>
			
				<rect x="360.762" y="272.822" transform="matrix(0.9278 0.3732 -0.3732 0.9278 129.2402 -118.5021)" fill="#0072CD" width="19.847" height="3.452"/>
		</g>
		<g>
			
				<rect x="367.233" y="218.018" transform="matrix(0.3733 0.9277 -0.9277 0.3733 442.6722 -199.4398)" fill="#0072CD" width="3.453" height="19.847"/>
		</g>
		<g>
			<rect x="361.479" y="249.23" fill="#0072CD" width="18.987" height="3.453"/>
		</g>
		<g>
			
				<rect x="249.922" y="287.842" transform="matrix(0.6032 0.7976 -0.7976 0.6032 337.4163 -82.5254)" fill="#0072CD" width="3.454" height="20.024"/>
		</g>
		<g>
			
				<rect x="241.637" y="202.913" transform="matrix(0.7974 0.6034 -0.6034 0.7974 174.4727 -110.3978)" fill="#0072CD" width="20.024" height="3.454"/>
		</g>
		<g>
			
				<rect x="235.467" y="264.626" transform="matrix(0.3732 0.9278 -0.9278 0.3732 403.3866 -47.9675)" fill="#0072CD" width="3.452" height="19.846"/>
		</g>
		<g>
			
				<rect x="228.995" y="226.216" transform="matrix(0.9277 0.3733 -0.3733 0.9277 102.3491 -72.7046)" fill="#0072CD" width="19.846" height="3.452"/>
		</g>
		<g>
			<rect x="226.835" y="249.23" fill="#0072CD" width="18.988" height="3.453"/>
		</g>
		<g>
			<rect x="302.787" y="175.005" fill="#0072CD" width="3.453" height="18.988"/>
		</g>
	</g>
</g>
</svg>
