<?xml version="1.0" encoding="utf-8"?>
<!-- Generator: Adobe Illustrator 16.0.0, SVG Export Plug-In . SVG Version: 6.00 Build 0)  -->
<!DOCTYPE svg PUBLIC "-//W3C//DTD SVG 1.1//EN" "http://www.w3.org/Graphics/SVG/1.1/DTD/svg11.dtd">
<svg version="1.1" id="layer_1" xmlns="http://www.w3.org/2000/svg" xmlns:xlink="http://www.w3.org/1999/xlink" x="0px" y="0px"
	 width="628.766px" height="526.5px" viewBox="0 0 628.766 526.5" enable-background="new 0 0 628.766 526.5" xml:space="preserve">
<g>
	<g>
		<g>
			<path fill="#D6EAFA" d="M449.69,297.896h116.483c-8.603,0-16.428,3.35-22.063,8.928c-5.66,5.608-9.157,12.206-9.157,20.754
				c0,17.064,13.987,29.769,31.221,29.769H449.69c8.604,0,16.403-2.407,22.063-7.964c5.637-5.582,9.134-12.678,9.134-21.223
				C480.886,311.069,466.922,297.896,449.69,297.896z"/>
		</g>
		<g>
			<circle fill="#D6EAFA" cx="312.77" cy="268.918" r="221.868"/>
		</g>
		<g>
			<path fill="#FFFFFF" d="M312.769,467.375c-109.428,0-198.454-89.026-198.454-198.457c0-109.426,89.026-198.452,198.454-198.452
				s198.454,89.026,198.454,198.452C511.223,378.349,422.197,467.375,312.769,467.375z M312.769,77.048
				c-105.799,0-191.872,86.073-191.872,191.871c0,105.801,86.073,191.875,191.872,191.875c105.798,0,191.872-86.074,191.872-191.875
				C504.641,163.121,418.567,77.048,312.769,77.048z"/>
		</g>
		<g>
			<path fill="#D6EAFA" d="M134.603,397.318h91.061c9.387,0,16.997,7.609,16.997,16.997l0,0c0,9.387-7.61,16.997-16.997,16.997
				h-91.061c-9.387,0-16.997-7.61-16.997-16.997l0,0C117.606,404.927,125.216,397.318,134.603,397.318z"/>
		</g>
		<g>
			<path fill="#D6EAFA" d="M116.353,464.333h134.922c6.084,0,11.017,4.933,11.017,11.016l0,0c0,6.087-4.932,11.017-11.017,11.017
				H116.353c-6.084,0-11.016-4.93-11.016-11.017l0,0C105.337,469.265,110.269,464.333,116.353,464.333z"/>
		</g>
		<g>
			<path fill="#EAF5FE" d="M410.398,486.365h21.892c5.723,0,10.363,4.641,10.363,10.364v1.305c0,5.724-4.641,10.364-10.363,10.364
				h-21.892c-5.724,0-10.364-4.641-10.364-10.364v-1.305C400.033,491.005,404.674,486.365,410.398,486.365z"/>
		</g>
		<g>
			<path fill="#D6EAFA" d="M303.646,421.199h191.701c9.982,0,18.071,8.089,18.071,18.07l0,0c0,9.979-8.089,18.07-18.071,18.07
				H303.646c-9.98,0-18.07-8.092-18.07-18.07l0,0C285.575,429.288,293.666,421.199,303.646,421.199z"/>
		</g>
		<g>
			<path fill="#EAF5FE" d="M153.98,431.064h63.444c-4.687,0-8.948,2.028-12.018,5.098c-3.083,3.085-4.988,6.726-4.988,11.424
				c0,9.388,7.619,16.387,17.005,16.387H153.98c4.687,0,8.935-1.243,12.018-4.3c3.069-3.069,4.974-7.115,4.974-11.816
				C170.971,438.456,163.366,431.064,153.98,431.064z"/>
		</g>
		<g>
			<path fill="#D6EAFA" d="M414.215,236.974h163.562c16.86,0,30.528,13.669,30.528,30.53l0,0c0,16.859-13.668,30.53-30.528,30.53
				H414.215c-16.86,0-30.529-13.671-30.529-30.53l0,0C383.686,250.644,397.355,236.974,414.215,236.974z"/>
		</g>
		<g>
			<path fill="#D6EAFA" d="M344.456,357.346h242.343c10.93,0,19.788,8.86,19.788,19.786l0,0c0,10.93-8.858,19.787-19.788,19.787
				H344.456c-10.929,0-19.787-8.857-19.787-19.787l0,0C324.669,366.207,333.528,357.346,344.456,357.346z"/>
		</g>
		<g>
			<path fill="#D6EAFA" d="M265.99,210.426H74.333c-17.902,0-32.414-14.511-32.414-32.413l0,0c0-17.902,14.512-32.415,32.414-32.415
				H265.99c17.902,0,32.414,14.513,32.414,32.415l0,0C298.405,195.915,283.892,210.426,265.99,210.426z"/>
		</g>
		<g>
			<path fill="#D6EAFA" d="M345.819,393.156H68.857c-25.87,0-46.842-20.973-46.842-46.842l0,0c0-25.867,20.972-46.84,46.842-46.84
				h276.961c25.87,0,46.843,20.973,46.843,46.84l0,0C392.661,372.183,371.689,393.156,345.819,393.156z"/>
		</g>
		<g>
			<path fill="#D6EAFA" d="M502.536,136.539H349.627c-14.282,0-25.86-11.579-25.86-25.86l0,0c0-14.283,11.578-25.86,25.86-25.86
				h152.909c14.281,0,25.86,11.577,25.86,25.86l0,0C528.397,124.96,516.818,136.539,502.536,136.539z"/>
		</g>
		<g>
			<path fill="#D6EAFA" d="M455.501,47.053h-36.313c-7.772,0-14.074-6.3-14.074-14.074l0,0c0-7.772,6.302-14.073,14.074-14.073
				h36.313c7.771,0,14.072,6.3,14.072,14.073l0,0C469.573,40.753,463.272,47.053,455.501,47.053z"/>
		</g>
		<g>
			<path fill="#D6EAFA" d="M311.78,91.814H170.073c-11.981,0-21.694-9.711-21.694-21.694l0,0c0-11.98,9.712-21.694,21.694-21.694
				H311.78c11.98,0,21.694,9.713,21.694,21.694l0,0C333.474,82.103,323.76,91.814,311.78,91.814z"/>
		</g>
	</g>
	<g>
		<g>
			<g>
				<g>
					<g>
						<path fill="#FFFFFF" d="M379.337,316.381v61.163c0,5.029,4.075,9.107,9.104,9.107H495.49c5.027,0,9.105-4.078,9.105-9.107
							v-61.163c0-5.029-4.078-9.107-9.105-9.107H388.442C383.412,307.274,379.337,311.352,379.337,316.381z"/>
					</g>
				</g>
			</g>
		</g>
		<g>
			<g>
				<g>
					<g>
						<path fill="#0072CD" d="M495.49,388.296H388.442c-5.928,0-10.75-4.823-10.75-10.752v-61.163
							c0-5.929,4.822-10.753,10.75-10.753H495.49c5.928,0,10.751,4.824,10.751,10.753v61.163
							C506.241,383.473,501.418,388.296,495.49,388.296z M388.442,308.919c-4.113,0-7.459,3.349-7.459,7.462v61.163
							c0,4.113,3.346,7.462,7.459,7.462H495.49c4.113,0,7.46-3.349,7.46-7.462v-61.163c0-4.113-3.347-7.462-7.46-7.462H388.442z"/>
					</g>
				</g>
			</g>
		</g>
		<g>
			<g>
				<g>
					<g>
						<rect x="388.049" y="313.807" fill="#EAF5FE" width="104.984" height="67.239"/>
					</g>
				</g>
			</g>
		</g>
		<g>
			<g id="XMLID_360_">
				<g id="XMLID_367_">
					<g id="XMLID_368_">
						<polygon fill="#FFFFFF" points="405.683,328.954 416.744,323.477 427.346,329.008 437.948,329.008 444.129,323.589 
							455.036,334.429 465.64,329.008 476.393,323.589 486.243,328.565 486.243,372.875 395.081,372.875 395.081,321.832 						"/>
					</g>
				</g>
				<g id="XMLID_365_">
					<g id="XMLID_366_">
						<polygon fill="#D6EAFA" points="405.531,340.227 416.59,328.954 429.303,341.551 445.06,334.655 454.884,346.445 
							465.64,334.429 476.547,340.018 486.243,335.111 486.243,372.875 395.081,372.875 395.081,334.655 						"/>
					</g>
				</g>
				<g id="XMLID_363_">
					<g id="XMLID_364_">
						<polygon fill="#54AAE3" points="405.835,334.429 416.438,339.906 426.609,351.957 438.099,345.494 444.282,340.095 
							455.036,356.478 465.791,350.916 476.547,356.636 486.243,351.453 486.243,372.875 395.081,372.875 395.081,341.014 						"/>
					</g>
				</g>
				<g id="XMLID_361_">
					<g id="XMLID_362_">
						<polygon fill="#92D0EF" points="405.683,353.599 416.438,345.607 427.041,356.559 437.948,351.083 444.256,360.483 
							462.697,362.62 476.393,350.97 486.243,356.015 486.243,372.875 395.081,372.875 395.081,349.903 						"/>
					</g>
				</g>
			</g>
			<g>
				<path fill="#0072CD" d="M486.244,374.667h-91.406c-0.907,0-1.646-0.737-1.646-1.646v-51.19c0-0.61,0.34-1.171,0.879-1.455
					c0.544-0.285,1.196-0.244,1.7,0.101l9.487,6.535l9.896-5.059c0.466-0.235,1.016-0.239,1.482-0.006l10.628,5.303h9.981
					l5.84-4.972c0.647-0.55,1.606-0.521,2.214,0.073l10.352,10.08l20.456-10.312c0.478-0.24,1.041-0.234,1.512,0.014l9.394,4.978
					c0.54,0.284,0.876,0.846,0.876,1.453v44.457C487.89,373.93,487.153,374.667,486.244,374.667z M396.484,371.376h88.115v-41.82
					l-7.766-4.115l-20.75,10.457c-0.627,0.316-1.386,0.199-1.887-0.291l-10.117-9.852l-5.157,4.392
					c-0.299,0.254-0.677,0.394-1.067,0.394h-10.977c-0.255,0-0.506-0.061-0.733-0.173l-10.232-5.104l-10.03,5.126
					c-0.536,0.272-1.183,0.231-1.681-0.111l-7.718-5.315V371.376z"/>
			</g>
		</g>
		<g>
			<g>
				<g>
					<g>
						<path fill="#0072CD" d="M493.033,382.692H388.049c-0.909,0-1.645-0.737-1.645-1.646v-67.239c0-0.907,0.735-1.646,1.645-1.646
							h104.984c0.909,0,1.646,0.738,1.646,1.646v67.239C494.679,381.955,493.943,382.692,493.033,382.692z M389.695,379.402h101.693
							v-63.949H389.695V379.402z"/>
					</g>
				</g>
			</g>
		</g>
		<g>
			<circle fill="#9ECFED" cx="499.066" cy="347.425" r="2.328"/>
		</g>
	</g>
	<g>
		<path fill="#0072CD" d="M355.456,337.601c-3.808,0-6.906-3.098-6.906-6.906c0-3.807,3.099-6.902,6.906-6.902
			c3.807,0,6.903,3.096,6.903,6.902C362.36,334.503,359.263,337.601,355.456,337.601z M355.456,327.083
			c-1.992,0-3.615,1.62-3.615,3.612c0,1.993,1.623,3.615,3.615,3.615c1.993,0,3.612-1.622,3.612-3.615
			C359.069,328.703,357.449,327.083,355.456,327.083z"/>
	</g>
	<g>
		<path fill="#0072CD" d="M477.563,244.348c-3.808,0-6.904-3.098-6.904-6.906c0-3.807,3.097-6.903,6.904-6.903
			c3.809,0,6.904,3.096,6.904,6.903C484.467,241.25,481.371,244.348,477.563,244.348z M477.563,233.83
			c-1.992,0-3.613,1.621-3.613,3.612c0,1.993,1.621,3.615,3.613,3.615s3.614-1.622,3.614-3.615
			C481.177,235.45,479.555,233.83,477.563,233.83z"/>
	</g>
	<g>
		<path fill="#0072CD" d="M525.771,368.552c-3.808,0-6.904-3.098-6.904-6.906c0-3.807,3.097-6.903,6.904-6.903
			c3.809,0,6.905,3.097,6.905,6.903C532.676,365.455,529.579,368.552,525.771,368.552z M525.771,358.034
			c-1.992,0-3.613,1.62-3.613,3.612s1.621,3.615,3.613,3.615c1.993,0,3.614-1.623,3.614-3.615S527.764,358.034,525.771,358.034z"/>
	</g>
	<g>
		<path fill="#0072CD" d="M365.975,114.698c-3.809,0-6.906-3.098-6.906-6.905s3.098-6.905,6.906-6.905
			c3.807,0,6.904,3.098,6.904,6.905S369.781,114.698,365.975,114.698z M365.975,104.179c-1.992,0-3.615,1.621-3.615,3.614
			s1.623,3.614,3.615,3.614s3.613-1.621,3.613-3.614S367.967,104.179,365.975,104.179z"/>
	</g>
	<g>
		<path fill="#0072CD" d="M219.483,131.123c-3.807,0-6.905-3.097-6.905-6.904c0-3.808,3.098-6.905,6.905-6.905
			c3.808,0,6.905,3.097,6.905,6.905C226.388,128.025,223.291,131.123,219.483,131.123z M219.483,120.604
			c-1.993,0-3.614,1.622-3.614,3.614c0,1.992,1.621,3.613,3.614,3.613s3.614-1.621,3.614-3.613
			C223.097,122.226,221.476,120.604,219.483,120.604z"/>
	</g>
	<g>
		<path fill="#0072CD" d="M100.834,191.105c-3.807,0-6.904-3.097-6.904-6.904c0-3.808,3.097-6.905,6.904-6.905
			c3.808,0,6.905,3.097,6.905,6.905C107.739,188.008,104.641,191.105,100.834,191.105z M100.834,180.587
			c-1.992,0-3.614,1.621-3.614,3.614c0,1.992,1.622,3.614,3.614,3.614c1.993,0,3.614-1.622,3.614-3.614
			C104.448,182.208,102.826,180.587,100.834,180.587z"/>
	</g>
	<g>
		<path fill="#0072CD" d="M72.641,377.897c-3.808,0-6.905-3.096-6.905-6.902c0-3.809,3.097-6.906,6.905-6.906
			c3.807,0,6.904,3.098,6.904,6.906C79.546,374.801,76.448,377.897,72.641,377.897z M72.641,367.379
			c-1.993,0-3.614,1.623-3.614,3.615s1.621,3.612,3.614,3.612c1.992,0,3.614-1.62,3.614-3.612S74.634,367.379,72.641,367.379z"/>
	</g>
	<g>
		<path fill="#0072CD" d="M180.404,202.767h-3.291c-0.909,0-1.646-0.737-1.646-1.646s0.737-1.646,1.646-1.646h3.291
			c0.909,0,1.645,0.737,1.645,1.646S181.312,202.767,180.404,202.767z M170.531,202.767h-3.291c-0.909,0-1.646-0.737-1.646-1.646
			s0.737-1.646,1.646-1.646h3.291c0.909,0,1.646,0.737,1.646,1.646S171.44,202.767,170.531,202.767z M160.658,202.767h-3.291
			c-0.909,0-1.646-0.737-1.646-1.646s0.737-1.646,1.646-1.646h3.291c0.909,0,1.646,0.737,1.646,1.646
			S161.567,202.767,160.658,202.767z M150.786,202.767h-3.291c-0.909,0-1.646-0.737-1.646-1.646s0.737-1.646,1.646-1.646h3.291
			c0.909,0,1.646,0.737,1.646,1.646S151.695,202.767,150.786,202.767z M140.914,202.767h-2.285c-0.909,0-1.646-0.737-1.646-1.646
			s0.737-1.646,1.646-1.646h2.285c0.909,0,1.646,0.737,1.646,1.646S141.823,202.767,140.914,202.767z"/>
	</g>
	<g>
		<path fill="#0072CD" d="M433.973,122.587h-3.291c-0.909,0-1.646-0.737-1.646-1.645c0-0.909,0.736-1.646,1.646-1.646h3.291
			c0.908,0,1.646,0.737,1.646,1.646C435.618,121.85,434.881,122.587,433.973,122.587z M424.101,122.587h-3.291
			c-0.909,0-1.646-0.737-1.646-1.645c0-0.909,0.736-1.646,1.646-1.646h3.291c0.907,0,1.645,0.737,1.645,1.646
			C425.745,121.85,425.008,122.587,424.101,122.587z M414.228,122.587h-3.291c-0.909,0-1.645-0.737-1.645-1.645
			c0-0.909,0.735-1.646,1.645-1.646h3.291c0.908,0,1.646,0.737,1.646,1.646C415.873,121.85,415.136,122.587,414.228,122.587z
			 M404.356,122.587h-3.291c-0.909,0-1.646-0.737-1.646-1.645c0-0.909,0.736-1.646,1.646-1.646h3.291
			c0.908,0,1.646,0.737,1.646,1.646C406.001,121.85,405.264,122.587,404.356,122.587z M394.484,122.587h-2.285
			c-0.909,0-1.646-0.737-1.646-1.645c0-0.909,0.736-1.646,1.646-1.646h2.285c0.907,0,1.646,0.737,1.646,1.646
			C396.129,121.85,395.391,122.587,394.484,122.587z"/>
	</g>
	<g>
		<path fill="#0072CD" d="M291.874,106.374h-3.291c-0.909,0-1.646-0.737-1.646-1.645c0-0.909,0.737-1.646,1.646-1.646h3.291
			c0.909,0,1.646,0.736,1.646,1.646C293.52,105.637,292.783,106.374,291.874,106.374z M282.002,106.374h-3.291
			c-0.909,0-1.646-0.737-1.646-1.645c0-0.909,0.737-1.646,1.646-1.646h3.291c0.909,0,1.646,0.736,1.646,1.646
			C283.647,105.637,282.91,106.374,282.002,106.374z M272.13,106.374h-3.291c-0.909,0-1.646-0.737-1.646-1.645
			c0-0.909,0.737-1.646,1.646-1.646h3.291c0.909,0,1.645,0.736,1.645,1.646C273.775,105.637,273.038,106.374,272.13,106.374z
			 M262.257,106.374h-3.291c-0.909,0-1.645-0.737-1.645-1.645c0-0.909,0.736-1.646,1.645-1.646h3.291
			c0.909,0,1.646,0.736,1.646,1.646C263.903,105.637,263.166,106.374,262.257,106.374z M252.385,106.374H250.1
			c-0.909,0-1.646-0.737-1.646-1.645c0-0.909,0.737-1.646,1.646-1.646h2.285c0.909,0,1.646,0.736,1.646,1.646
			C254.03,105.637,253.293,106.374,252.385,106.374z"/>
	</g>
	<g>
		<path fill="#0072CD" d="M98.787,348.608h-3.291c-0.909,0-1.646-0.737-1.646-1.646c0-0.909,0.737-1.646,1.646-1.646h3.291
			c0.909,0,1.646,0.736,1.646,1.646C100.433,347.871,99.696,348.608,98.787,348.608z M88.915,348.608h-3.291
			c-0.909,0-1.645-0.737-1.645-1.646c0-0.909,0.736-1.646,1.645-1.646h3.291c0.909,0,1.646,0.736,1.646,1.646
			C90.561,347.871,89.824,348.608,88.915,348.608z M79.043,348.608h-3.291c-0.909,0-1.646-0.737-1.646-1.646
			c0-0.909,0.737-1.646,1.646-1.646h3.291c0.909,0,1.646,0.736,1.646,1.646C80.688,347.871,79.951,348.608,79.043,348.608z
			 M69.171,348.608H65.88c-0.909,0-1.646-0.737-1.646-1.646c0-0.909,0.737-1.646,1.646-1.646h3.291c0.909,0,1.645,0.736,1.645,1.646
			C70.816,347.871,70.079,348.608,69.171,348.608z M59.298,348.608h-2.285c-0.908,0-1.645-0.737-1.645-1.646
			c0-0.909,0.737-1.646,1.645-1.646h2.285c0.909,0,1.646,0.736,1.646,1.646C60.944,347.871,60.207,348.608,59.298,348.608z"/>
	</g>
	<g>
		<g>
			<path fill="#0072CD" d="M299.5,329.4c-0.421,0-0.842-0.16-1.164-0.482l-6.553-6.552c-0.643-0.644-0.643-1.685,0-2.327
				s1.684-0.643,2.327,0l6.553,6.553c0.643,0.641,0.643,1.684,0,2.326C300.342,329.24,299.921,329.4,299.5,329.4z"/>
		</g>
		<g>
			<path fill="#0072CD" d="M292.947,329.4c-0.421,0-0.842-0.16-1.163-0.482c-0.643-0.643-0.643-1.686,0-2.326l6.553-6.553
				c0.643-0.643,1.684-0.643,2.327,0c0.643,0.643,0.643,1.684,0,2.327l-6.553,6.552C293.789,329.24,293.368,329.4,292.947,329.4z"/>
		</g>
	</g>
	<g>
		<g>
			<path fill="#0072CD" d="M502.343,298.485c-0.421,0-0.842-0.161-1.163-0.482l-6.554-6.556c-0.644-0.643-0.644-1.684,0-2.327
				c0.643-0.643,1.684-0.643,2.326,0l6.555,6.557c0.643,0.643,0.643,1.684,0,2.326C503.186,298.324,502.765,298.485,502.343,298.485
				z"/>
		</g>
		<g>
			<path fill="#0072CD" d="M495.789,298.485c-0.421,0-0.842-0.161-1.163-0.482c-0.644-0.643-0.644-1.684,0-2.326l6.554-6.557
				c0.643-0.643,1.685-0.643,2.327,0c0.643,0.644,0.643,1.685,0,2.327l-6.555,6.556C496.631,298.324,496.21,298.485,495.789,298.485
				z"/>
		</g>
	</g>
	<g>
		<g>
			<path fill="#0072CD" d="M471.734,204.741c-0.421,0-0.843-0.161-1.164-0.482l-6.554-6.553c-0.643-0.642-0.643-1.684,0-2.327
				c0.643-0.643,1.684-0.643,2.326,0l6.555,6.553c0.643,0.642,0.643,1.684,0,2.327C472.575,204.581,472.155,204.741,471.734,204.741
				z"/>
		</g>
		<g>
			<path fill="#0072CD" d="M465.179,204.741c-0.421,0-0.842-0.161-1.163-0.482c-0.643-0.643-0.643-1.685,0-2.327l6.554-6.553
				c0.644-0.643,1.685-0.643,2.327,0c0.643,0.643,0.643,1.685,0,2.327l-6.555,6.553C466.021,204.581,465.6,204.741,465.179,204.741z
				"/>
		</g>
	</g>
	<g>
		<g>
			<path fill="#0072CD" d="M465.483,115.601c-0.421,0-0.842-0.161-1.163-0.482l-6.553-6.553c-0.643-0.643-0.643-1.684,0-2.327
				c0.643-0.643,1.684-0.643,2.326,0l6.553,6.553c0.644,0.643,0.644,1.684,0,2.327C466.324,115.44,465.904,115.601,465.483,115.601z
				"/>
		</g>
		<g>
			<path fill="#0072CD" d="M458.93,115.601c-0.421,0-0.842-0.161-1.163-0.482c-0.643-0.643-0.643-1.684,0-2.327l6.553-6.553
				c0.643-0.643,1.684-0.643,2.326,0c0.644,0.643,0.644,1.684,0,2.327l-6.553,6.553C459.772,115.44,459.351,115.601,458.93,115.601z
				"/>
		</g>
	</g>
	<g>
		<g>
			<path fill="#0072CD" d="M277.54,132.416c-0.421,0-0.842-0.161-1.163-0.482l-6.554-6.553c-0.643-0.642-0.643-1.684,0-2.327
				c0.643-0.643,1.684-0.643,2.327,0l6.554,6.553c0.643,0.642,0.643,1.684,0,2.327C278.383,132.255,277.961,132.416,277.54,132.416z
				"/>
		</g>
		<g>
			<path fill="#0072CD" d="M270.987,132.416c-0.421,0-0.842-0.161-1.164-0.482c-0.643-0.643-0.643-1.685,0-2.327l6.554-6.553
				c0.643-0.643,1.684-0.643,2.327,0c0.643,0.643,0.643,1.685,0,2.327l-6.554,6.553
				C271.829,132.255,271.408,132.416,270.987,132.416z"/>
		</g>
	</g>
	<g>
		<g>
			<path fill="#0072CD" d="M166.07,224.722c-0.421,0-0.842-0.161-1.163-0.482l-6.554-6.553c-0.643-0.642-0.643-1.684,0-2.327
				s1.684-0.643,2.327,0l6.554,6.553c0.643,0.642,0.643,1.684,0,2.327C166.912,224.562,166.49,224.722,166.07,224.722z"/>
		</g>
		<g>
			<path fill="#0072CD" d="M159.516,224.722c-0.421,0-0.842-0.161-1.164-0.482c-0.643-0.643-0.643-1.685,0-2.327l6.554-6.553
				c0.643-0.643,1.684-0.643,2.327,0c0.643,0.643,0.643,1.685,0,2.327l-6.554,6.553
				C160.358,224.562,159.937,224.722,159.516,224.722z"/>
		</g>
	</g>
	<g>
		<g>
			<path fill="#0072CD" d="M104.11,326.123c-0.421,0-0.842-0.161-1.163-0.482l-6.554-6.553c-0.643-0.642-0.643-1.684,0-2.327
				c0.643-0.643,1.684-0.643,2.327,0l6.554,6.553c0.643,0.644,0.643,1.685,0,2.327C104.952,325.961,104.531,326.123,104.11,326.123z
				"/>
		</g>
		<g>
			<path fill="#0072CD" d="M97.557,326.123c-0.421,0-0.842-0.161-1.164-0.482c-0.643-0.643-0.643-1.684,0-2.327l6.554-6.553
				c0.643-0.643,1.684-0.643,2.327,0c0.643,0.644,0.643,1.686,0,2.327l-6.554,6.553C98.399,325.961,97.978,326.123,97.557,326.123z"
				/>
		</g>
	</g>
	<g>
		<g>
			<g>
				<g>
					<path fill="#92D0EF" d="M111.233,378.039v4.307c0,2.378,1.883,4.307,4.207,4.307h165.108c2.323,0,4.207-1.929,4.207-4.307
						v-4.307H111.233z"/>
				</g>
			</g>
		</g>
		<g>
			<g>
				<g>
					<path fill="#0072CD" d="M280.549,388.296H115.44c-3.227,0-5.852-2.67-5.852-5.951v-4.307c0-0.907,0.736-1.646,1.645-1.646
						h173.522c0.909,0,1.646,0.738,1.646,1.646v4.307C286.401,385.626,283.775,388.296,280.549,388.296z M112.879,379.684v2.661
						c0,1.466,1.149,2.661,2.562,2.661h165.108c1.412,0,2.561-1.195,2.561-2.661v-2.661H112.879z"/>
				</g>
			</g>
		</g>
		<g>
			<g>
				<g>
					<path fill="#FFFFFF" d="M276.728,378.039v-91.091c0-5.068-4.013-9.175-8.964-9.175H128.224c-4.951,0-8.964,4.106-8.964,9.175
						v91.091H276.728z"/>
				</g>
			</g>
		</g>
		<g>
			<g>
				<g>
					<path fill="#0072CD" d="M276.728,379.684H119.26c-0.908,0-1.645-0.735-1.645-1.646v-91.091c0-5.968,4.759-10.82,10.609-10.82
						h139.541c5.85,0,10.609,4.853,10.609,10.82v91.091C278.374,378.949,277.637,379.684,276.728,379.684z M120.906,376.393h154.177
						v-89.445c0-4.152-3.283-7.53-7.318-7.53H128.224c-4.036,0-7.318,3.378-7.318,7.53V376.393z"/>
				</g>
			</g>
		</g>
		<g>
			<g>
				<g>
					<rect x="127.081" y="286.465" fill="#92D0EF" width="141.827" height="84.529"/>
				</g>
			</g>
		</g>
		<g>
			<g>
				<g>
					<ellipse fill="#FFFFFF" cx="197.994" cy="282.163" rx="2.313" ry="2.365"/>
				</g>
			</g>
		</g>
		<g>
			<g>
				<g>
					<g>
						<rect x="127.081" y="286.465" fill="#D6EAFA" width="141.827" height="7.096"/>
					</g>
				</g>
			</g>
		</g>
		<g>
			<polygon fill-rule="evenodd" clip-rule="evenodd" fill="#54AAE3" points="246.162,370.995 246.157,349.248 233.182,349.228 
				233.189,370.995 			"/>
		</g>
		<g>
			<polygon fill-rule="evenodd" clip-rule="evenodd" fill="#FFFFFF" points="229.48,370.995 229.49,341.795 216.51,341.783 
				216.506,370.995 			"/>
		</g>
		<g>
			<polygon fill-rule="evenodd" clip-rule="evenodd" fill="#54AAE3" points="212.792,370.995 212.826,324.493 199.851,324.477 
				199.82,370.995 			"/>
		</g>
		<g>
			<polygon fill-rule="evenodd" clip-rule="evenodd" fill="#FFFFFF" points="183.174,330.695 183.151,370.995 196.127,370.995 
				196.144,330.695 			"/>
		</g>
		<g>
			<polygon fill-rule="evenodd" clip-rule="evenodd" fill="#54AAE3" points="179.454,370.995 179.464,348.316 166.49,348.293 
				166.482,370.995 			"/>
		</g>
		<g>
			<polygon fill-rule="evenodd" clip-rule="evenodd" fill="#FFFFFF" points="162.778,370.995 162.793,341.442 149.817,341.419 
				149.803,370.995 			"/>
		</g>
		<g>
			<polygon fill-rule="evenodd" clip-rule="evenodd" fill="#54AAE3" points="146.101,370.995 146.12,330.187 133.148,330.171 
				133.126,370.995 			"/>
		</g>
		<g>
			<path fill="#0072CD" d="M246.162,372.64h-12.974c-0.909,0-1.646-0.738-1.646-1.646l-0.006-21.765
				c0-0.438,0.173-0.856,0.483-1.165c0.309-0.309,0.726-0.482,1.163-0.482c0,0,0.001,0,0.002,0l12.975,0.02
				c0.908,0,1.643,0.736,1.643,1.646l0.005,21.747c0,0.436-0.174,0.854-0.482,1.163S246.598,372.64,246.162,372.64z
				 M234.833,369.349h9.684l-0.005-18.459l-9.684-0.014L234.833,369.349z"/>
		</g>
		<g>
			<path fill="#0072CD" d="M212.792,372.64H199.82c-0.436,0-0.855-0.174-1.164-0.482c-0.309-0.31-0.481-0.729-0.481-1.165
				l0.031-46.516c0-0.438,0.174-0.855,0.483-1.164s0.727-0.481,1.163-0.481h0.002l12.975,0.016c0.908,0.002,1.644,0.739,1.643,1.647
				l-0.034,46.5C214.437,371.904,213.7,372.64,212.792,372.64z M201.466,369.349h9.682l0.032-43.213l-9.685-0.011L201.466,369.349z"
				/>
		</g>
		<g>
			<path fill="#0072CD" d="M179.454,372.64h-12.973c-0.436,0-0.854-0.174-1.163-0.482c-0.31-0.309-0.482-0.729-0.482-1.165
				l0.009-22.701c0-0.436,0.174-0.856,0.482-1.165c0.309-0.307,0.728-0.479,1.163-0.479c0,0,0.002,0,0.003,0l12.974,0.022
				c0.908,0,1.642,0.737,1.642,1.646l-0.01,22.679C181.1,371.904,180.363,372.64,179.454,372.64z M168.128,369.349h9.682
				l0.008-19.392l-9.683-0.016L168.128,369.349z"/>
		</g>
		<g>
			<path fill="#0072CD" d="M146.101,372.64h-12.975c-0.437,0-0.855-0.174-1.164-0.482c-0.309-0.31-0.481-0.729-0.481-1.165
				l0.022-40.821c0-0.438,0.174-0.854,0.483-1.163s0.726-0.482,1.163-0.482c0,0,0,0,0.001,0l12.972,0.017
				c0.909,0,1.645,0.735,1.644,1.645l-0.019,40.808C147.745,371.904,147.01,372.64,146.101,372.64z M134.772,369.349h9.685
				l0.018-37.52l-9.681-0.01L134.772,369.349z"/>
		</g>
		<g>
			<polygon fill-rule="evenodd" clip-rule="evenodd" fill="#FFFFFF" points="262.81,370.995 262.863,310.989 249.886,310.976 
				249.832,370.995 			"/>
		</g>
		<g>
			<path fill="#0072CD" d="M229.48,372.64h-12.975c-0.436,0-0.855-0.174-1.163-0.482c-0.309-0.309-0.482-0.728-0.482-1.163
				l0.005-29.212c0-0.438,0.174-0.856,0.483-1.165c0.309-0.309,0.727-0.48,1.163-0.48c0,0,0.001,0,0.001,0l12.979,0.013
				c0.909,0.001,1.644,0.739,1.644,1.646l-0.01,29.198C231.125,371.902,230.389,372.64,229.48,372.64z M218.151,369.349h9.685
				l0.008-25.908l-9.688-0.014L218.151,369.349z"/>
		</g>
		<g>
			<path fill="#0072CD" d="M196.127,372.64h-12.976c-0.436,0-0.855-0.174-1.164-0.482c-0.309-0.31-0.481-0.729-0.481-1.165
				l0.022-40.298c0.001-0.909,0.737-1.646,1.646-1.646h12.97c0.437,0,0.855,0.174,1.164,0.482c0.309,0.309,0.482,0.729,0.482,1.165
				l-0.017,40.298C197.773,371.904,197.036,372.64,196.127,372.64z M184.797,369.349h9.686l0.015-37.009h-9.68L184.797,369.349z"/>
		</g>
		<g>
			<path fill="#0072CD" d="M162.778,372.64h-12.975c-0.437,0-0.855-0.174-1.164-0.482c-0.309-0.309-0.482-0.729-0.482-1.165
				l0.014-29.573c0-0.438,0.174-0.855,0.483-1.164s0.727-0.481,1.163-0.481c0,0,0.001,0,0.003,0l12.977,0.022
				c0.908,0.003,1.643,0.739,1.642,1.646l-0.015,29.552C164.423,371.904,163.687,372.64,162.778,372.64z M151.449,369.349h9.685
				l0.014-26.266l-9.686-0.016L151.449,369.349z"/>
		</g>
		<g>
			<path fill="#0072CD" d="M262.81,372.64h-12.978c-0.437,0-0.855-0.174-1.164-0.482c-0.309-0.31-0.481-0.729-0.481-1.166
				l0.054-60.019c0-0.436,0.174-0.855,0.483-1.164c0.309-0.307,0.727-0.479,1.163-0.479c0.001,0,0.001,0,0.001,0l12.978,0.013
				c0.909,0,1.645,0.738,1.644,1.646l-0.053,60.006C264.454,371.904,263.718,372.64,262.81,372.64z M251.479,369.349h9.687
				l0.05-56.718l-9.686-0.01L251.479,369.349z"/>
		</g>
		<g>
			<g>
				<g>
					<path fill="#0072CD" d="M268.908,372.64H127.081c-0.909,0-1.646-0.738-1.646-1.646v-84.529c0-0.907,0.737-1.646,1.646-1.646
						h141.827c0.908,0,1.645,0.738,1.645,1.646v84.529C270.553,371.902,269.816,372.64,268.908,372.64z M128.726,369.349h138.536
						v-81.238H128.726V369.349z"/>
				</g>
			</g>
		</g>
	</g>
	<g>
		<g>
			<rect x="58.479" y="386.638" fill="#0072CD" width="24.681" height="6.582"/>
		</g>
		<g>
			<rect x="547.161" y="386.638" fill="#0072CD" width="24.681" height="6.582"/>
		</g>
		<g>
			<rect x="97.557" y="386.638" fill="#0072CD" width="428.214" height="6.582"/>
		</g>
	</g>
	<g>
		<g>
			<g>
				<path fill="#54AAE3" d="M382.238,171.092h10.679l-59.875-59.403v-2.123c0-3.885-3.519-7.033-7.404-7.033
					c-3.882,0-7.404,3.148-7.404,7.033v3.296l-58.657,58.229h10.678l47.979-47.61v215.604l-45.592,50.566l14.955,0.035l30.638-33.74
					v33.981h14.809v-33.715l30.317,33.474l15.14-0.035l-45.457-50.377V122.309L382.238,171.092z"/>
			</g>
			<g>
				<path fill="#0072CD" d="M333.041,391.575h-14.809c-0.908,0-1.646-0.735-1.646-1.646v-29.72l-27.774,30.584
					c-0.313,0.345-0.786,0.515-1.222,0.54l-14.955-0.035c-0.649,0-1.236-0.384-1.5-0.977c-0.264-0.595-0.153-1.287,0.282-1.77
					l45.169-50.1v-211.02l-45.174,44.828c-0.308,0.305-0.725,0.477-1.159,0.477h-10.678c-0.667,0-1.267-0.402-1.521-1.019
					c-0.254-0.616-0.111-1.325,0.362-1.794l58.17-57.748v-2.61c0-4.704,4.146-8.679,9.05-8.679c4.907,0,9.05,3.975,9.05,8.679v1.438
					l59.389,58.92c0.474,0.47,0.616,1.179,0.363,1.795c-0.254,0.616-0.855,1.019-1.522,1.019h-10.679
					c-0.434,0-0.85-0.171-1.158-0.477l-46.393-46.003v212.386l45.033,49.906c0.437,0.482,0.546,1.177,0.282,1.771
					c-0.262,0.593-0.85,0.977-1.499,0.977l-15.141,0.035c0,0-0.002,0-0.004,0c-0.464,0-0.907-0.195-1.22-0.541l-27.452-30.31v29.446
					C334.687,390.839,333.95,391.575,333.041,391.575z M319.878,388.284h11.518v-32.069c0-0.68,0.42-1.288,1.054-1.534
					c0.634-0.242,1.356-0.074,1.813,0.431l29.825,32.929l10.719-0.022l-42.986-47.64c-0.272-0.302-0.424-0.693-0.424-1.102V122.309
					c0-0.665,0.4-1.263,1.013-1.519c0.615-0.255,1.32-0.117,1.793,0.351l48.713,48.306h6.008l-57.038-56.589
					c-0.312-0.31-0.488-0.729-0.488-1.168v-2.123c0-2.87-2.689-5.388-5.759-5.388c-3.065,0-5.759,2.518-5.759,5.388v3.296
					c0,0.438-0.174,0.858-0.485,1.167l-55.824,55.417h6.007l47.498-47.133c0.474-0.468,1.183-0.606,1.791-0.351
					c0.614,0.255,1.013,0.855,1.013,1.519v215.604c0,0.406-0.151,0.798-0.423,1.101l-43.123,47.83l10.536,0.022l30.147-33.197
					c0.458-0.503,1.179-0.675,1.813-0.427c0.633,0.244,1.051,0.854,1.051,1.532V388.284z"/>
			</g>
			<g>
				<g>
					<g>
						<g>
							<ellipse fill="#D6EAFA" cx="325.656" cy="117.363" rx="3.464" ry="3.579"/>
						</g>
					</g>
				</g>
			</g>
		</g>
		<g>
			<g>
				<rect x="203.246" y="148.653" fill="#FFFFFF" width="246.001" height="157.917"/>
			</g>
		</g>
		<g>
			<g>
				<path fill="#0072CD" d="M449.247,308.215H203.246c-0.909,0-1.646-0.737-1.646-1.646V148.653c0-0.908,0.737-1.645,1.646-1.645
					h246.001c0.908,0,1.646,0.737,1.646,1.645V306.57C450.893,307.478,450.156,308.215,449.247,308.215z M204.891,304.924h242.71
					V150.298h-242.71V304.924z"/>
			</g>
		</g>
		<g>
			<g>
				<g>
					<rect x="325.868" y="210.836" fill="#D6EAFA" width="111.013" height="85.312"/>
				</g>
			</g>
		</g>
		<g>
			<g>
				<g>
					<path fill="#0072CD" d="M436.881,297.793H325.868c-0.909,0-1.646-0.735-1.646-1.646v-85.312c0-0.909,0.736-1.646,1.646-1.646
						h111.013c0.908,0,1.646,0.737,1.646,1.646v85.312C438.527,297.058,437.789,297.793,436.881,297.793z M327.514,294.502h107.722
						v-82.021H327.514V294.502z"/>
				</g>
			</g>
		</g>
		<g>
			<g>
				<g>
					<rect x="333.236" y="207.511" fill="#FFFFFF" width="4.135" height="91.963"/>
				</g>
			</g>
		</g>
		<g>
			<g>
				<g>
					<rect x="346.434" y="207.511" fill="#FFFFFF" width="4.133" height="91.963"/>
				</g>
			</g>
		</g>
		<g>
			<g>
				<g>
					<rect x="359.631" y="207.511" fill="#FFFFFF" width="4.135" height="91.963"/>
				</g>
			</g>
		</g>
		<g>
			<g>
				<g>
					<rect x="372.829" y="207.511" fill="#FFFFFF" width="4.133" height="91.963"/>
				</g>
			</g>
		</g>
		<g>
			<g>
				<g>
					<rect x="386.029" y="207.511" fill="#FFFFFF" width="4.132" height="91.963"/>
				</g>
			</g>
		</g>
		<g>
			<g>
				<g>
					<rect x="399.227" y="207.511" fill="#FFFFFF" width="4.133" height="91.963"/>
				</g>
			</g>
		</g>
		<g>
			<g>
				<g>
					<rect x="412.425" y="207.511" fill="#FFFFFF" width="4.133" height="91.963"/>
				</g>
			</g>
		</g>
		<g>
			<g>
				<g>
					<rect x="425.622" y="207.511" fill="#FFFFFF" width="4.134" height="91.963"/>
				</g>
			</g>
		</g>
		<g>
			<g>
				<g>
					<rect x="321.24" y="217.734" fill="#FFFFFF" width="118.561" height="4.135"/>
				</g>
			</g>
		</g>
		<g>
			<g>
				<g>
					<rect x="321.24" y="231.069" fill="#FFFFFF" width="118.561" height="4.132"/>
				</g>
			</g>
		</g>
		<g>
			<g>
				<g>
					<rect x="321.24" y="244.404" fill="#FFFFFF" width="118.561" height="4.133"/>
				</g>
			</g>
		</g>
		<g>
			<g>
				<g>
					<rect x="321.24" y="257.739" fill="#FFFFFF" width="118.561" height="4.133"/>
				</g>
			</g>
		</g>
		<g>
			<g>
				<g>
					<rect x="321.24" y="271.076" fill="#FFFFFF" width="118.561" height="4.133"/>
				</g>
			</g>
		</g>
		<g>
			<g>
				<g>
					<rect x="321.24" y="284.409" fill="#FFFFFF" width="118.561" height="4.133"/>
				</g>
			</g>
		</g>
		<g>
			<g>
				<g>
					<path fill="#0072CD" d="M326.257,268.072c-0.69,0-1.334-0.438-1.562-1.129l-1.063-3.225c-0.139-0.415-0.104-0.866,0.093-1.256
						s0.538-0.685,0.953-0.822l47.775-15.773c0.303-0.1,0.624-0.108,0.929-0.03l39.297,10.211l23.129-12.076
						c0.809-0.42,1.8-0.108,2.221,0.697l1.571,3.008c0.202,0.387,0.241,0.838,0.111,1.254c-0.131,0.416-0.422,0.764-0.809,0.965
						l-24.852,12.977c-0.359,0.188-0.78,0.236-1.173,0.134l-39.74-10.327l-46.363,15.308
						C326.603,268.044,326.428,268.072,326.257,268.072z M327.273,264.25l0.032,0.098l45.263-14.943
						c0.301-0.097,0.623-0.11,0.931-0.03l39.592,10.291l22.83-11.922l-0.048-0.092l-22.232,11.608
						c-0.36,0.189-0.781,0.236-1.175,0.134l-39.439-10.248L327.273,264.25z"/>
				</g>
			</g>
		</g>
		<g>
			<g>
				<g>
					<circle fill="#54AAE3" cx="413.085" cy="259.099" r="4.752"/>
				</g>
			</g>
		</g>
		<g>
			<g>
				<g>
					<circle fill="#54AAE3" cx="439.036" cy="246.819" r="4.965"/>
				</g>
			</g>
		</g>
		<g>
			<g>
				<g>
					<circle fill="#54AAE3" cx="373.027" cy="249.197" r="4.752"/>
				</g>
			</g>
		</g>
		<g>
			<g>
				<g>
					<circle fill="#54AAE3" cx="326.178" cy="264.586" r="4.753"/>
				</g>
			</g>
		</g>
		<g>
			<g>
				<g>
					<g>
						<g>
							<g>
								<g>
									<g>
										<path fill="#0072CD" d="M348.03,201.465h-7.43c-0.909,0-1.646-0.737-1.646-1.646v-9.96c0-0.909,0.736-1.646,1.646-1.646
											h7.43c0.908,0,1.646,0.737,1.646,1.646v9.96C349.675,200.728,348.938,201.465,348.03,201.465z M342.245,198.174h4.139
											v-6.67h-4.139V198.174z"/>
									</g>
								</g>
							</g>
						</g>
					</g>
				</g>
				<g>
					<g>
						<g>
							<g>
								<g>
									<g>
										<g>
											<rect x="355.456" y="178.932" fill="#54AAE3" width="7.429" height="20.887"/>
										</g>
									</g>
								</g>
							</g>
						</g>
					</g>
				</g>
				<g>
					<g>
						<g>
							<g>
								<g>
									<g>
										<g>
											<rect x="370.314" y="186.054" fill="#D6EAFA" width="7.428" height="13.766"/>
										</g>
									</g>
								</g>
							</g>
						</g>
					</g>
				</g>
				<g>
					<g>
						<g>
							<g>
								<g>
									<g>
										<path fill="#0072CD" d="M392.6,201.465h-7.43c-0.909,0-1.646-0.737-1.646-1.646v-28.482c0-0.909,0.736-1.646,1.646-1.646
											h7.43c0.908,0,1.646,0.737,1.646,1.646v28.482C394.245,200.728,393.508,201.465,392.6,201.465z M386.816,198.174h4.139
											v-25.192h-4.139V198.174z"/>
									</g>
								</g>
							</g>
						</g>
					</g>
				</g>
				<g>
					<g>
						<g>
							<g>
								<g>
									<g>
										<g>
											<rect x="400.027" y="167.039" fill="#54AAE3" width="7.431" height="32.781"/>
										</g>
									</g>
								</g>
							</g>
						</g>
					</g>
				</g>
				<g>
					<g>
						<g>
							<g>
								<g>
									<g>
										<g>
											<rect x="414.884" y="159.268" fill="#D6EAFA" width="7.428" height="40.551"/>
										</g>
									</g>
								</g>
							</g>
						</g>
					</g>
				</g>
			</g>
		</g>
		<g>
			<g>
				<g>
					<g>
						<g>
							<g>
								<path fill="#D6EAFA" d="M262.912,196.921h33.312c-1.082,16.322-14.628,29.243-31.223,29.243
									c-17.301,0-31.328-14.026-31.328-31.329c0-16.602,12.915-30.147,29.239-31.224V196.921z"/>
							</g>
						</g>
					</g>
				</g>
				<g>
					<g>
						<g>
							<g>
								<path fill="#0072CD" d="M267.091,193.174c-0.306,0-0.612-0.085-0.879-0.255c-0.478-0.301-0.767-0.826-0.767-1.391v-25.864
									c0-0.456,0.189-0.893,0.524-1.204c0.334-0.312,0.776-0.467,1.239-0.437c10.306,0.734,19.524,6.565,24.658,15.598
									c0.227,0.397,0.276,0.871,0.139,1.307c-0.137,0.436-0.45,0.795-0.863,0.992l-23.345,11.094
									C267.573,193.121,267.331,193.174,267.091,193.174z M268.736,167.488v21.436l19.343-9.192
									C283.681,173.02,276.642,168.565,268.736,167.488z"/>
							</g>
						</g>
					</g>
				</g>
				<g>
					<g>
						<g>
							<g>
								<path fill="#54AAE3" d="M294.167,192.743h-19.903l17.985-8.542C293.322,186.936,293.962,189.798,294.167,192.743
									L294.167,192.743z"/>
							</g>
						</g>
					</g>
				</g>
			</g>
		</g>
		<g>
			<g>
				<g>
					<g>
						<g>
							<g>
								<path fill="#0072CD" d="M223.657,233.369L223.657,233.369c-2.281,0-4.457-1.087-5.82-2.907
									c-2.406-3.219-1.749-7.78,1.451-10.18l7.957-6.143c1.286-0.966,2.793-1.469,4.375-1.469c2.241,0,4.382,1.051,5.75,2.817
									c0.032,0.035,0.062,0.072,0.088,0.106c2.387,3.199,1.729,7.758-1.465,10.164l-7.959,6.146
									C226.745,232.867,225.239,233.369,223.657,233.369z M231.619,215.961c-0.864,0-1.688,0.275-2.381,0.796l-7.957,6.144
									c-1.771,1.327-2.129,3.823-0.818,5.578c1.285,1.717,3.864,2.087,5.578,0.804l7.956-6.143
									c1.739-1.311,2.118-3.751,0.883-5.497c-0.025-0.029-0.05-0.06-0.075-0.091C234.048,216.54,232.886,215.961,231.619,215.961z
									"/>
							</g>
						</g>
					</g>
				</g>
			</g>
			<g>
				<g>
					<g>
						<path fill="#FFFFFF" d="M298.459,169.942c-6.723-8.998-16.571-14.86-27.673-16.451c-1.144-0.173-2.287-0.273-3.421-0.349
							c-9.87-0.599-19.708,2.343-27.693,8.323c-8.988,6.744-14.806,16.549-16.396,27.65c-1.33,9.294,0.414,18.5,5.054,26.604
							c0.85,1.526,1.831,3.008,2.888,4.435c1.101,1.46,2.299,2.865,3.563,4.184c2.462,2.539,5.219,4.738,8.215,6.591
							c4.87,2.952,10.219,4.859,15.917,5.664c1.112,0.164,2.267,0.284,3.399,0.36c21.648,1.319,41.018-14.468,44.069-35.962
							C307.991,189.944,305.17,178.919,298.459,169.942z M299.221,199.967c-2.549,17.791-18.564,30.843-36.475,29.743
							c-0.937-0.032-1.875-0.151-2.8-0.272c-8.792-1.274-16.691-5.795-22.411-12.943l-0.523-0.675
							c-5.534-7.441-7.865-16.56-6.558-25.69c1.296-9.173,6.111-17.29,13.564-22.846c6.602-4.957,14.729-7.42,22.911-6.919
							c0.937,0.055,1.895,0.164,2.833,0.285c9.184,1.317,17.312,6.156,22.901,13.629
							C298.187,181.687,300.518,190.805,299.221,199.967z"/>
					</g>
				</g>
			</g>
			<g>
				<g>
					<g>
						<path fill="#0072CD" d="M264.845,238.673c-0.876,0-1.755-0.026-2.64-0.081c-1.17-0.07-2.361-0.191-3.539-0.361
							c-5.912-0.843-11.47-2.831-16.516-5.908c-3.12-1.903-5.996-4.206-8.548-6.844c-1.33-1.37-2.578-2.833-3.707-4.348
							c-1.097-1.464-2.106-3.005-3.001-4.58c-4.818-8.44-6.63-18.011-5.24-27.676c1.646-11.516,7.692-21.716,17.025-28.719
							c8.232-6.166,18.55-9.285,28.779-8.659c1.184,0.072,2.383,0.195,3.565,0.366c11.544,1.66,21.757,7.729,28.756,17.091
							c6.966,9.333,9.891,20.793,8.238,32.27C304.974,222.572,286.413,238.673,264.845,238.673z M264.827,154.708
							c-8.63,0-17.217,2.87-24.174,8.082c-8.629,6.475-14.22,15.905-15.742,26.554c-1.285,8.934,0.389,17.779,4.843,25.58
							c0.828,1.458,1.762,2.882,2.777,4.238c1.046,1.404,2.201,2.758,3.434,4.029c2.361,2.44,5.017,4.566,7.898,6.324
							c4.663,2.843,9.8,4.681,15.27,5.461c1.089,0.157,2.188,0.268,3.268,0.333c21.045,1.264,39.431-14.009,42.36-34.551
							c1.527-10.61-1.178-21.205-7.617-29.834c-6.472-8.655-15.916-14.268-26.59-15.803c-1.094-0.158-2.202-0.271-3.295-0.338
							C266.446,154.732,265.637,154.708,264.827,154.708z M264.853,231.426L264.853,231.426c-0.731,0-1.465-0.022-2.201-0.067
							c-0.982-0.059-1.977-0.16-2.951-0.3c-9.201-1.312-17.526-6.118-23.442-13.531l-0.552-0.717
							c-5.814-7.792-8.254-17.341-6.886-26.905c1.371-9.607,6.415-18.112,14.202-23.947c6.858-5.145,15.476-7.756,24.012-7.227
							c0.964,0.058,1.96,0.158,2.96,0.299c9.617,1.383,18.131,6.445,23.98,14.256c5.798,7.776,8.241,17.335,6.88,26.919
							C298.307,218.004,282.828,231.426,264.853,231.426z M264.839,161.955c-7.089,0-14.136,2.357-19.841,6.636
							c-7.084,5.308-11.672,13.042-12.919,21.78c-1.245,8.698,0.976,17.382,6.251,24.453l0.52,0.676
							c5.372,6.731,12.948,11.109,21.316,12.303c0.887,0.127,1.79,0.218,2.685,0.272c17.221,1.059,32.335-11.489,34.746-28.333
							c1.238-8.717-0.984-17.413-6.258-24.485c-5.32-7.104-13.066-11.711-21.808-12.968c-0.908-0.128-1.815-0.22-2.694-0.272
							C266.169,161.975,265.503,161.955,264.839,161.955z"/>
					</g>
				</g>
			</g>
			<g>
				<g>
					<g>
						
							<rect x="192.964" y="213.935" transform="matrix(0.5984 0.8012 -0.8012 0.5984 274.9701 -64.5968)" fill="#54AAE3" width="17.922" height="56.139"/>
					</g>
				</g>
			</g>
			<g>
				<g>
					<path fill="#54AAE3" d="M160.731,240.951h32.271c2.545,0,4.608,2.063,4.608,4.608l0,0c0,2.545-2.063,4.608-4.608,4.608h-32.271
						c-2.545,0-4.608-2.063-4.608-4.608l0,0C156.123,243.014,158.186,240.951,160.731,240.951z"/>
				</g>
				<g>
					<path fill="#54AAE3" d="M185.055,228.227h20.063c2.544,0,4.608,2.063,4.608,4.608l0,0c0,2.543-2.064,4.607-4.608,4.607h-20.063
						c-2.545,0-4.608-2.063-4.608-4.607l0,0C180.447,230.29,182.51,228.227,185.055,228.227z"/>
				</g>
				<g>
					<path fill="#54AAE3" d="M142.787,250.101h10.134c1.401,0,2.536,1.136,2.536,2.537l0,0c0,1.401-1.135,2.536-2.536,2.536h-10.134
						c-1.401,0-2.536-1.135-2.536-2.536l0,0C140.251,251.236,141.386,250.101,142.787,250.101z"/>
				</g>
				<g>
					<path fill="#54AAE3" d="M184.801,258.999h-36.085c-1.929,0-3.492,1.563-3.492,3.492c0,1.929,1.563,3.491,3.492,3.491h36.085
						V258.999z"/>
				</g>
				<g>
					<path fill="#54AAE3" d="M165.985,250.101h17.201c-1.271,0-2.426,0.549-3.258,1.382c-0.836,0.835-1.353,1.824-1.353,3.098
						c0,2.545,2.066,4.443,4.61,4.443h-17.201c1.27,0,2.422-0.337,3.258-1.165c0.832-0.833,1.349-1.932,1.349-3.204
						C170.591,252.106,168.529,250.101,165.985,250.101z"/>
				</g>
			</g>
			<g>
				<g>
					<path fill="#0072CD" d="M177.024,268.462h-28.309c-2.736,0-5.137-2.552-5.137-5.459c0-2.907,2.401-5.457,5.137-5.457h17.608
						c0.699,0,1.308-0.237,1.761-0.685c0.39-0.39,0.861-1.069,0.861-2.055c0-1.457-1.044-2.687-2.279-2.687h-5.937
						c-2.35,0-4.558-1.473-5.624-3.752c-1.097-2.346-0.763-4.932,0.895-6.917c1.288-1.542,3.252-2.426,5.389-2.426h23.157
						c-3.163-0.281-5.746-3.155-5.746-6.525c0-3.549,2.864-6.548,6.254-6.548h19.553l13.512-9.279c0.727-0.5,1.721-0.336,2.25,0.371
						l10.726,14.359c0.538,0.721,0.397,1.741-0.316,2.29l-38.468,29.574C187.951,266.618,182.522,268.462,177.024,268.462z
						 M148.715,260.837c-0.932,0-1.846,1.072-1.846,2.166c0,1.095,0.914,2.168,1.846,2.168h28.309c4.777,0,9.494-1.603,13.282-4.516
						l37.181-28.585l-8.808-11.792l-12.629,8.674c-0.274,0.188-0.599,0.289-0.931,0.289h-20.063c-1.551,0-2.963,1.552-2.963,3.257
						c0,1.705,1.413,3.257,2.963,3.257h8.002c0.719,0,1.354,0.467,1.57,1.153s-0.04,1.433-0.63,1.843l-4.697,3.268
						c-0.276,0.192-0.604,0.295-0.94,0.295h-26.97c-1.142,0-2.212,0.465-2.863,1.245c-1.179,1.411-0.701,2.857-0.44,3.414
						c0.528,1.127,1.565,1.856,2.643,1.856h5.937c3.071,0,5.57,2.682,5.57,5.977c0,1.649-0.65,3.207-1.831,4.387
						c-1.072,1.063-2.52,1.644-4.082,1.644H148.715z"/>
				</g>
				<g>
					<path fill="#0072CD" d="M152.921,256.478h-10.134c-2.423,0-4.182-1.608-4.182-3.824s1.759-3.824,4.182-3.824h10.134
						c2.423,0,4.182,1.608,4.182,3.824S155.344,256.478,152.921,256.478z M142.787,252.12c-0.406,0-0.891,0.092-0.891,0.534
						c0,0.441,0.484,0.533,0.891,0.533h10.134c0.406,0,0.891-0.092,0.891-0.533c0-0.441-0.484-0.534-0.891-0.534H142.787z"/>
				</g>
			</g>
		</g>
		<g>
			<g>
				<rect x="222.801" y="269.816" fill="#0072CD" width="34.553" height="3.29"/>
			</g>
			<g>
				<rect x="282.035" y="269.816" fill="#0072CD" width="23.035" height="3.29"/>
			</g>
			<g>
				<rect x="260.645" y="269.816" fill="#0072CD" width="16.454" height="3.29"/>
			</g>
			<g>
				<rect x="272.162" y="261.589" fill="#0072CD" width="32.908" height="3.29"/>
			</g>
			<g>
				<rect x="222.801" y="261.589" fill="#0072CD" width="24.681" height="3.29"/>
			</g>
			<g>
				<rect x="252.418" y="261.589" fill="#0072CD" width="14.809" height="3.29"/>
			</g>
			<g>
				<rect x="222.801" y="253.362" fill="#0072CD" width="34.553" height="3.291"/>
			</g>
			<g>
				<rect x="282.035" y="253.362" fill="#0072CD" width="23.035" height="3.291"/>
			</g>
			<g>
				<rect x="260.645" y="253.362" fill="#0072CD" width="16.454" height="3.291"/>
			</g>
			<g>
				<rect x="272.162" y="245.135" fill="#0072CD" width="32.908" height="3.291"/>
			</g>
			<g>
				<rect x="222.801" y="245.135" fill="#0072CD" width="24.681" height="3.291"/>
			</g>
			<g>
				<rect x="252.418" y="245.135" fill="#0072CD" width="14.809" height="3.291"/>
			</g>
		</g>
		<g>
			<rect x="222.801" y="286.269" fill="#0072CD" width="34.553" height="3.291"/>
		</g>
		<g>
			<rect x="282.035" y="286.269" fill="#0072CD" width="23.035" height="3.291"/>
		</g>
		<g>
			<rect x="260.645" y="286.269" fill="#0072CD" width="16.454" height="3.291"/>
		</g>
		<g>
			<rect x="272.162" y="278.042" fill="#0072CD" width="32.908" height="3.291"/>
		</g>
		<g>
			<rect x="222.801" y="278.042" fill="#0072CD" width="24.681" height="3.291"/>
		</g>
		<g>
			<rect x="252.418" y="278.042" fill="#0072CD" width="14.809" height="3.291"/>
		</g>
		<g>
			<rect x="190.287" y="303.28" fill="#0072CD" width="271.917" height="6.581"/>
		</g>
		<g>
			<rect x="190.287" y="145.362" fill="#0072CD" width="271.917" height="6.582"/>
		</g>
	</g>
	<g>
		<path fill="#0072CD" d="M184.956,176.029h-6.479c-3.262,0-4.615-3.51-5.81-6.607c-0.732-1.899-1.735-4.501-2.74-4.501
			c-1.022,0-1.978,2.363-2.747,4.262c-1.198,2.96-2.556,6.316-5.795,6.316c-3.237,0-4.603-3.33-5.809-6.266
			c-0.772-1.881-1.733-4.223-2.762-4.223c-1.013,0-2.031,2.582-2.774,4.468c-1.21,3.071-2.582,6.552-5.834,6.552h-8.612
			c-0.909,0-1.646-0.737-1.646-1.646s0.737-1.646,1.646-1.646h8.612c1.012,0,2.03-2.582,2.773-4.467
			c1.21-3.071,2.582-6.553,5.835-6.553c3.236,0,4.602,3.329,5.807,6.265c0.772,1.881,1.734,4.224,2.764,4.224
			c1.021,0,1.977-2.362,2.746-4.26c1.198-2.961,2.557-6.317,5.797-6.317c3.262,0,4.616,3.511,5.811,6.608
			c0.731,1.899,1.735,4.5,2.739,4.5h6.479c0.909,0,1.646,0.737,1.646,1.646S185.865,176.029,184.956,176.029z"/>
	</g>
	<g>
		<path fill="#0072CD" d="M520.616,273.106h-6.479c-3.262,0-4.615-3.509-5.809-6.607c-0.731-1.898-1.735-4.5-2.74-4.5
			c-1.021,0-1.978,2.363-2.747,4.262c-1.197,2.96-2.556,6.314-5.795,6.314c-3.237,0-4.604-3.329-5.811-6.265
			c-0.771-1.882-1.731-4.224-2.76-4.224c-1.015,0-2.031,2.583-2.775,4.468c-1.21,3.07-2.582,6.551-5.834,6.551h-8.613
			c-0.907,0-1.646-0.735-1.646-1.646c0-0.907,0.738-1.645,1.646-1.645h8.613c1.012,0,2.03-2.581,2.773-4.468
			c1.21-3.07,2.582-6.552,5.836-6.552c3.236,0,4.602,3.329,5.807,6.266c0.771,1.881,1.732,4.224,2.764,4.224
			c1.021,0,1.977-2.362,2.745-4.26c1.198-2.962,2.558-6.317,5.797-6.317c3.262,0,4.615,3.511,5.811,6.607
			c0.732,1.899,1.735,4.5,2.738,4.5h6.479c0.909,0,1.646,0.737,1.646,1.645C522.262,272.371,521.526,273.106,520.616,273.106z"/>
	</g>
</g>
<g>
	<g>
		<g>
			<circle fill="#D6EAFA" cx="-301.638" cy="75.853" r="134.841"/>
		</g>
		<g>
			<path fill="#EAF5FE" d="M-301.637,190.519c-63.227,0-114.666-51.439-114.666-114.666c0-63.226,51.439-114.665,114.666-114.665
				c63.227,0,114.665,51.438,114.665,114.665C-186.972,139.08-238.41,190.519-301.637,190.519z M-301.637-34.812
				c-61.021,0-110.666,49.644-110.666,110.665c0,61.021,49.645,110.666,110.666,110.666c61.02,0,110.665-49.645,110.665-110.666
				C-190.972,14.833-240.617-34.812-301.637-34.812z"/>
		</g>
		<g>
			<path fill="#D6EAFA" d="M-408.293,153.888h56.565c5.368,0,9.719,4.352,9.719,9.719v1.223c0,5.367-4.351,9.719-9.719,9.719
				h-56.565c-5.367,0-9.719-4.352-9.719-9.719v-1.223C-418.012,158.24-413.66,153.888-408.293,153.888z"/>
		</g>
		<g>
			<path fill="#D6EAFA" d="M-429.648,194.398h110.037c3.759,0,6.806,3.047,6.806,6.805l0,0c0,3.76-3.047,6.805-6.805,6.805h-110.038
				c-3.759,0-6.805-3.045-6.805-6.805l0,0C-436.452,197.445-433.406,194.398-429.648,194.398z"/>
		</g>
		<g>
			<path fill="#D6EAFA" d="M-241.906,208.007h12.512c3.697,0,6.695,2.998,6.695,6.695l0,0c0,3.697-2.998,6.695-6.695,6.695h-12.512
				c-3.697,0-6.695-2.998-6.695-6.695l0,0C-248.601,211.005-245.603,208.007-241.906,208.007z"/>
		</g>
		<g>
			<path fill="#D6EAFA" d="M-248.121,168.402h60.932c6.066,0,10.982,4.916,10.982,10.982l0,0c0,6.064-4.916,10.982-10.982,10.982
				h-60.932c-6.066,0-10.982-4.918-10.982-10.982l0,0C-259.103,173.318-254.187,168.402-248.121,168.402z"/>
		</g>
		<g>
			<path fill="#D6EAFA" d="M-398.142,174.398h38.559c-2.849,0-5.438,1.232-7.304,3.098c-1.874,1.875-3.032,4.088-3.032,6.943
				c0,5.705,4.631,9.959,10.336,9.959h-38.559c2.848,0,5.43-0.756,7.303-2.613c1.866-1.865,3.023-4.324,3.023-7.182
				C-387.816,178.89-392.438,174.398-398.142,174.398z"/>
		</g>
		<g>
			<path fill="#D6EAFA" d="M-246.982,56.438h99.404c10.248,0,18.555,8.308,18.555,18.555l0,0c0,10.246-8.307,18.555-18.555,18.555
				h-99.404c-10.248,0-18.555-8.309-18.555-18.555l0,0C-265.537,64.746-257.23,56.438-246.982,56.438z"/>
		</g>
		<g>
			<path fill="#D6EAFA" d="M-282.379,129.595h147.285c6.643,0,12.025,5.385,12.025,12.025l0,0c0,6.643-5.383,12.025-12.025,12.025
				h-147.285c-6.643,0-12.027-5.383-12.027-12.025l0,0C-294.406,134.98-289.021,129.595-282.379,129.595z"/>
		</g>
		<g>
			<path fill="#D6EAFA" d="M-221.654,93.548h69.258c-5.117,0-9.768,2.031-13.119,5.414c-3.365,3.398-5.445,7.4-5.445,12.582
				c0,10.348,8.316,18.051,18.564,18.051h-69.258c5.115,0,9.752-1.461,13.117-4.828c3.352-3.385,5.43-7.688,5.43-12.869
				C-203.107,101.537-211.408,93.548-221.654,93.548z"/>
		</g>
		<g>
			<path fill="#D6EAFA" d="M-330.067,40.304h-116.481c-10.88,0-19.7-8.819-19.7-19.699l0,0c0-10.88,8.82-19.7,19.7-19.7h116.481
				c10.88,0,19.699,8.82,19.699,19.7l0,0C-310.367,31.484-319.187,40.304-330.067,40.304z"/>
		</g>
		<g>
			<path fill="#D6EAFA" d="M-281.551,154.359h-168.326c-15.723,0-28.468-12.746-28.468-28.469l0,0
				c0-15.721,12.745-28.467,28.468-28.467h168.326c15.723,0,28.467,12.746,28.467,28.467v0.002
				C-253.084,141.613-265.828,154.359-281.551,154.359z"/>
		</g>
		<g>
			<path fill="#D6EAFA" d="M-186.304-4.955h-92.932c-8.68,0-15.717-7.037-15.717-15.717l0,0c0-8.681,7.037-15.717,15.717-15.717
				h92.932c8.68,0,15.717,7.036,15.717,15.717l0,0C-170.588-11.992-177.625-4.955-186.304-4.955z"/>
		</g>
		<g>
			<path fill="#D6EAFA" d="M-310.222-47.001c1.902,0,3.758,0.144,5.567,0.405c-0.804-6.512-6.344-11.557-13.073-11.557h-70.635
				c-7.281,0-13.184,5.903-13.184,13.185c0,7.282,5.902,13.185,13.184,13.185h47.397C-333.56-40.959-322.039-47.001-310.222-47.001z
				"/>
		</g>
		<g>
			<path fill="#D6EAFA" d="M-214.892-58.987h-22.068c-4.723,0-8.553-3.829-8.553-8.554l0,0c0-4.724,3.83-8.553,8.553-8.553h22.068
				c4.725,0,8.555,3.829,8.555,8.553l0,0C-206.338-62.816-210.168-58.987-214.892-58.987z"/>
		</g>
	</g>
	<g>
		<g>
			<rect x="-264.972" y="60.398" fill-rule="evenodd" clip-rule="evenodd" fill="#92D0EF" width="26" height="87"/>
		</g>
		<g>
			<path fill="#0072CD" d="M-238.972,148.398h-26c-0.553,0-1-0.447-1-1v-87c0-0.552,0.447-1,1-1h26c0.553,0,1,0.448,1,1v87
				C-237.972,147.951-238.42,148.398-238.972,148.398z M-263.972,146.398h24v-85h-24V146.398z"/>
		</g>
		<g>
			<circle fill-rule="evenodd" clip-rule="evenodd" fill="#54AAE3" cx="-251.972" cy="72.648" r="6.672"/>
		</g>
		<g>
			<path fill="#0072CD" d="M-251.972,80.32c-4.23,0-7.672-3.441-7.672-7.671c0-4.23,3.441-7.672,7.672-7.672
				s7.672,3.441,7.672,7.672C-244.301,76.878-247.742,80.32-251.972,80.32z M-251.972,66.977c-3.127,0-5.672,2.544-5.672,5.672
				s2.545,5.671,5.672,5.671c3.129,0,5.672-2.544,5.672-5.671S-248.844,66.977-251.972,66.977z"/>
		</g>
	</g>
	<g>
		<g>
			<rect x="-238.972" y="60.398" fill-rule="evenodd" clip-rule="evenodd" fill="#54AAE3" width="26" height="87"/>
		</g>
		<g>
			<path fill="#0072CD" d="M-212.972,148.398h-26c-0.553,0-1-0.447-1-1v-87c0-0.552,0.447-1,1-1h26c0.553,0,1,0.448,1,1v87
				C-211.972,147.951-212.42,148.398-212.972,148.398z M-237.972,146.398h24v-85h-24V146.398z"/>
		</g>
		<g>
			<circle fill-rule="evenodd" clip-rule="evenodd" fill="#92D0EF" cx="-225.972" cy="72.648" r="6.672"/>
		</g>
		<g>
			<path fill="#0072CD" d="M-225.972,80.32c-4.23,0-7.672-3.441-7.672-7.671c0-4.23,3.441-7.672,7.672-7.672
				s7.672,3.441,7.672,7.672C-218.301,76.878-221.742,80.32-225.972,80.32z M-225.972,66.977c-3.127,0-5.672,2.544-5.672,5.672
				s2.545,5.671,5.672,5.671c3.129,0,5.672-2.544,5.672-5.671S-222.844,66.977-225.972,66.977z"/>
		</g>
	</g>
	<g>
		<g>
			<rect x="-212.972" y="60.398" fill-rule="evenodd" clip-rule="evenodd" fill="#EAF5FE" width="26" height="87"/>
		</g>
		<g>
			<path fill="#0072CD" d="M-186.972,148.398h-26c-0.553,0-1-0.447-1-1v-87c0-0.552,0.447-1,1-1h26c0.553,0,1,0.448,1,1v87
				C-185.972,147.951-186.42,148.398-186.972,148.398z M-211.972,146.398h24v-85h-24V146.398z"/>
		</g>
		<g>
			<circle fill-rule="evenodd" clip-rule="evenodd" fill="#92D0EF" cx="-199.972" cy="72.648" r="6.672"/>
		</g>
		<g>
			<path fill="#0072CD" d="M-199.972,80.32c-4.23,0-7.672-3.441-7.672-7.671c0-4.23,3.441-7.672,7.672-7.672
				s7.672,3.441,7.672,7.672C-192.301,76.878-195.742,80.32-199.972,80.32z M-199.972,66.977c-3.127,0-5.672,2.544-5.672,5.672
				s2.545,5.671,5.672,5.671c3.129,0,5.672-2.544,5.672-5.671S-196.844,66.977-199.972,66.977z"/>
		</g>
	</g>
	<g>
		<g>
			<rect x="-456.972" y="147.398" fill="#0072CD" width="15" height="4"/>
		</g>
		<g>
			<rect x="-159.972" y="147.398" fill="#0072CD" width="15" height="4"/>
		</g>
		<g>
			<rect x="-433.472" y="147.398" fill="#0072CD" width="260.5" height="4"/>
		</g>
	</g>
	<g>
		<path fill="#0072CD" d="M-243.744,27.997c-2.313,0-4.195-1.882-4.195-4.196s1.883-4.196,4.195-4.196
			c2.314,0,4.197,1.882,4.197,4.196S-241.429,27.997-243.744,27.997z M-243.744,21.604c-1.211,0-2.195,0.985-2.195,2.196
			s0.984,2.196,2.195,2.196c1.213,0,2.197-0.985,2.197-2.196S-242.531,21.604-243.744,21.604z"/>
	</g>
	<g>
		<path fill="#0072CD" d="M-176.207,83.541c-2.313,0-4.195-1.882-4.195-4.195c0-2.314,1.883-4.197,4.195-4.197
			c2.314,0,4.197,1.883,4.197,4.197C-172.01,81.659-173.892,83.541-176.207,83.541z M-176.207,77.148
			c-1.211,0-2.195,0.986-2.195,2.197s0.984,2.195,2.195,2.195s2.197-0.984,2.197-2.195S-174.996,77.148-176.207,77.148z"/>
	</g>
	<g>
		<path fill="#0072CD" d="M-420.003,110.416c-2.314,0-4.196-1.883-4.196-4.197c0-2.313,1.882-4.195,4.196-4.195
			c2.313,0,4.196,1.882,4.196,4.195C-415.807,108.533-417.69,110.416-420.003,110.416z M-420.003,104.023
			c-1.211,0-2.196,0.984-2.196,2.195s0.985,2.197,2.196,2.197s2.196-0.986,2.196-2.197S-418.792,104.023-420.003,104.023z"/>
	</g>
	<g>
		<path fill="#0072CD" d="M-361.097,9.845c-2.313,0-4.196-1.882-4.196-4.196s1.883-4.196,4.196-4.196s4.196,1.882,4.196,4.196
			S-358.783,9.845-361.097,9.845z M-361.097,3.452c-1.211,0-2.196,0.985-2.196,2.196s0.985,2.196,2.196,2.196
			s2.196-0.985,2.196-2.196S-359.886,3.452-361.097,3.452z"/>
	</g>
	<g>
		<path fill="#0072CD" d="M-399.598,28.434c-2.313,0-4.196-1.882-4.196-4.196s1.883-4.196,4.196-4.196s4.196,1.882,4.196,4.196
			S-397.284,28.434-399.598,28.434z M-399.598,22.041c-1.211,0-2.196,0.985-2.196,2.196s0.985,2.196,2.196,2.196
			s2.196-0.985,2.196-2.196S-398.387,22.041-399.598,22.041z"/>
	</g>
	<g>
		<path fill="#0072CD" d="M-414.303,125.306h-2c-0.553,0-1-0.448-1-1c0-0.553,0.447-1,1-1h2c0.553,0,1,0.447,1,1
			C-413.303,124.858-413.75,125.306-414.303,125.306z M-420.303,125.306h-2c-0.552,0-1-0.448-1-1c0-0.553,0.448-1,1-1h2
			c0.552,0,1,0.447,1,1C-419.303,124.858-419.751,125.306-420.303,125.306z M-426.303,125.306h-2c-0.552,0-1-0.448-1-1
			c0-0.553,0.448-1,1-1h2c0.552,0,1,0.447,1,1C-425.303,124.858-425.751,125.306-426.303,125.306z M-432.303,125.306h-2
			c-0.552,0-1-0.448-1-1c0-0.553,0.448-1,1-1h2c0.552,0,1,0.447,1,1C-431.303,124.858-431.751,125.306-432.303,125.306z
			 M-438.303,125.306h-2c-0.552,0-1-0.448-1-1c0-0.553,0.448-1,1-1h2c0.552,0,1,0.447,1,1
			C-437.303,124.858-437.751,125.306-438.303,125.306z M-444.303,125.306h-2c-0.552,0-1-0.448-1-1c0-0.553,0.448-1,1-1h2
			c0.552,0,1,0.447,1,1C-443.303,124.858-443.751,125.306-444.303,125.306z"/>
	</g>
	<g>
		<path fill="#0072CD" d="M-377.416,56.486h-2c-0.553,0-1-0.448-1-1s0.447-1,1-1h2c0.553,0,1,0.448,1,1
			S-376.864,56.486-377.416,56.486z M-383.416,56.486h-2c-0.553,0-1-0.448-1-1s0.447-1,1-1h2c0.553,0,1,0.448,1,1
			S-382.864,56.486-383.416,56.486z M-389.416,56.486h-2c-0.553,0-1-0.448-1-1s0.447-1,1-1h2c0.553,0,1,0.448,1,1
			S-388.864,56.486-389.416,56.486z M-395.416,56.486h-2c-0.553,0-1-0.448-1-1s0.447-1,1-1h2c0.553,0,1,0.448,1,1
			S-394.864,56.486-395.416,56.486z"/>
	</g>
	<g>
		<path fill="#0072CD" d="M-355.864,21.604h-2c-0.553,0-1-0.448-1-1s0.447-1,1-1h2c0.553,0,1,0.448,1,1
			S-355.311,21.604-355.864,21.604z M-361.864,21.604h-2c-0.553,0-1-0.448-1-1s0.447-1,1-1h2c0.553,0,1,0.448,1,1
			S-361.311,21.604-361.864,21.604z M-367.864,21.604h-2c-0.553,0-1-0.448-1-1s0.447-1,1-1h2c0.553,0,1,0.448,1,1
			S-367.311,21.604-367.864,21.604z M-373.864,21.604h-2c-0.553,0-1-0.448-1-1s0.447-1,1-1h2c0.553,0,1,0.448,1,1
			S-373.311,21.604-373.864,21.604z M-379.864,21.604h-2c-0.553,0-1-0.448-1-1s0.447-1,1-1h2c0.553,0,1,0.448,1,1
			S-379.311,21.604-379.864,21.604z"/>
	</g>
	<g>
		<path fill="#0072CD" d="M-245.365,1.178h-2c-0.553,0-1-0.448-1-1s0.447-1,1-1h2c0.553,0,1,0.448,1,1S-244.812,1.178-245.365,1.178
			z M-251.365,1.178h-2c-0.553,0-1-0.448-1-1s0.447-1,1-1h2c0.553,0,1,0.448,1,1S-250.812,1.178-251.365,1.178z M-257.365,1.178h-2
			c-0.553,0-1-0.448-1-1s0.447-1,1-1h2c0.553,0,1,0.448,1,1S-256.812,1.178-257.365,1.178z M-263.365,1.178h-2c-0.553,0-1-0.448-1-1
			s0.447-1,1-1h2c0.553,0,1,0.448,1,1S-262.812,1.178-263.365,1.178z M-269.365,1.178h-2c-0.553,0-1-0.448-1-1s0.447-1,1-1h2
			c0.553,0,1,0.448,1,1S-268.812,1.178-269.365,1.178z"/>
	</g>
	<g>
		<path fill="#0072CD" d="M-162.972,139.537h-2c-0.553,0-1-0.447-1-1c0-0.552,0.447-1,1-1h2c0.553,0,1,0.448,1,1
			C-161.972,139.089-162.42,139.537-162.972,139.537z M-168.972,139.537h-2c-0.553,0-1-0.447-1-1c0-0.552,0.447-1,1-1h2
			c0.553,0,1,0.448,1,1C-167.972,139.089-168.42,139.537-168.972,139.537z M-174.972,139.537h-2c-0.553,0-1-0.447-1-1
			c0-0.552,0.447-1,1-1h2c0.553,0,1,0.448,1,1C-173.972,139.089-174.42,139.537-174.972,139.537z M-180.972,139.537h-0.564
			c-0.553,0-1-0.447-1-1c0-0.552,0.447-1,1-1h0.564c0.553,0,1,0.448,1,1C-179.972,139.089-180.42,139.537-180.972,139.537z"/>
	</g>
	<g>
		<g>
			<path fill="#0072CD" d="M-416.02,140.177c-0.256,0-0.512-0.098-0.707-0.293l-3.983-3.982c-0.391-0.391-0.391-1.023,0-1.414
				s1.023-0.391,1.414,0l3.983,3.982c0.391,0.39,0.391,1.023,0,1.414C-415.508,140.08-415.764,140.177-416.02,140.177z"/>
		</g>
		<g>
			<path fill="#0072CD" d="M-420.003,140.177c-0.256,0-0.512-0.098-0.707-0.293c-0.391-0.391-0.391-1.024,0-1.414l3.983-3.982
				c0.391-0.391,1.023-0.391,1.414,0s0.391,1.023,0,1.414l-3.983,3.982C-419.491,140.08-419.747,140.177-420.003,140.177z"/>
		</g>
	</g>
	<g>
		<g>
			<path fill="#0072CD" d="M-329.519,0.027c-0.256,0-0.512-0.098-0.707-0.293l-3.982-3.982c-0.391-0.391-0.391-1.023,0-1.414
				s1.023-0.391,1.414,0l3.982,3.982c0.391,0.391,0.391,1.023,0,1.414C-329.007-0.07-329.263,0.027-329.519,0.027z"/>
		</g>
		<g>
			<path fill="#0072CD" d="M-333.501,0.027c-0.256,0-0.512-0.098-0.707-0.293c-0.391-0.391-0.391-1.023,0-1.414l3.982-3.982
				c0.391-0.391,1.023-0.391,1.414,0s0.391,1.023,0,1.414l-3.982,3.982C-332.99-0.07-333.245,0.027-333.501,0.027z"/>
		</g>
	</g>
	<g>
		<g>
			<path fill="#0072CD" d="M-270.154-9.894c-0.256,0-0.512-0.098-0.707-0.293l-3.982-3.983c-0.391-0.391-0.391-1.024,0-1.414
				c0.391-0.391,1.023-0.391,1.414,0l3.982,3.983c0.391,0.391,0.391,1.024,0,1.414C-269.642-9.991-269.898-9.894-270.154-9.894z"/>
		</g>
		<g>
			<path fill="#0072CD" d="M-274.136-9.894c-0.256,0-0.512-0.098-0.707-0.293c-0.391-0.39-0.391-1.023,0-1.414l3.982-3.983
				c0.391-0.391,1.023-0.391,1.414,0c0.391,0.39,0.391,1.023,0,1.414l-3.982,3.983C-273.625-9.991-273.881-9.894-274.136-9.894z"/>
		</g>
	</g>
	<g>
		<g>
			<path fill="#0072CD" d="M-217.127,50.529c-0.256,0-0.512-0.098-0.707-0.293l-3.982-3.982c-0.391-0.391-0.391-1.023,0-1.414
				s1.023-0.391,1.414,0l3.982,3.982c0.391,0.391,0.391,1.023,0,1.414C-216.615,50.432-216.871,50.529-217.127,50.529z"/>
		</g>
		<g>
			<path fill="#0072CD" d="M-221.109,50.529c-0.256,0-0.512-0.098-0.707-0.293c-0.391-0.391-0.391-1.023,0-1.414l3.982-3.982
				c0.391-0.391,1.023-0.391,1.414,0s0.391,1.023,0,1.414l-3.982,3.982C-220.597,50.432-220.853,50.529-221.109,50.529z"/>
		</g>
	</g>
	<g>
		<g>
			<path fill="#0072CD" d="M-176.207,127.666c-0.256,0-0.512-0.098-0.707-0.293l-3.982-3.984c-0.391-0.391-0.391-1.023,0-1.414
				s1.023-0.391,1.414,0l3.982,3.984c0.391,0.391,0.391,1.023,0,1.414C-175.695,127.568-175.951,127.666-176.207,127.666z"/>
		</g>
		<g>
			<path fill="#0072CD" d="M-180.189,127.666c-0.256,0-0.512-0.098-0.707-0.293c-0.391-0.391-0.391-1.023,0-1.414l3.982-3.984
				c0.391-0.391,1.023-0.391,1.414,0s0.391,1.023,0,1.414l-3.982,3.984C-179.677,127.568-179.933,127.666-180.189,127.666z"/>
		</g>
	</g>
	<g>
		<g>
			<path fill="#0072CD" d="M-381.972,42.988c-0.256,0-0.512-0.098-0.707-0.293l-3.982-3.982c-0.391-0.391-0.391-1.023,0-1.414
				s1.023-0.391,1.414,0l3.982,3.982c0.391,0.391,0.391,1.023,0,1.414C-381.46,42.891-381.716,42.988-381.972,42.988z"/>
		</g>
		<g>
			<path fill="#0072CD" d="M-385.954,42.988c-0.256,0-0.512-0.098-0.707-0.293c-0.391-0.391-0.391-1.023,0-1.414l3.982-3.982
				c0.391-0.391,1.023-0.391,1.414,0s0.391,1.023,0,1.414l-3.982,3.982C-385.443,42.891-385.698,42.988-385.954,42.988z"/>
		</g>
	</g>
	<g>
		<g>
			<g>
				<g>
					<g>
						<path fill="#FFFFFF" d="M-290.601,138.103c0-5.32,0-13.035,0-13.035h-10.371h-10.371c0,0,0,7.715,0,13.035
							c0,5.322-14.103,9.629-14.103,9.629h24.473h24.475C-276.498,147.732-290.601,143.425-290.601,138.103z"/>
					</g>
				</g>
			</g>
		</g>
		<g>
			<g>
				<g>
					<g>
						<path fill="#EBF3FE" d="M-290.601,136.4c0-4.156,0-9.957,0-9.957h-20.742c0,0,0,5.801,0,9.957H-290.601z"/>
					</g>
				</g>
			</g>
		</g>
		<g>
			<g>
				<g>
					<g>
						<path fill="#0072CD" d="M-276.498,148.732h-48.948c-0.495,0-0.916-0.363-0.989-0.853s0.224-0.96,0.697-1.104
							c5.179-1.583,13.395-5.338,13.395-8.672v-13.035c0-0.553,0.447-1,1-1h20.742c0.553,0,1,0.447,1,1v13.035
							c0,3.334,8.217,7.089,13.395,8.672c0.475,0.145,0.771,0.615,0.697,1.104C-275.582,148.369-276.004,148.732-276.498,148.732z
							 M-319.899,146.732h37.854c-4.283-1.867-9.557-4.918-9.557-8.629v-12.035h-18.742v12.035
							C-310.343,141.814-315.615,144.865-319.899,146.732z"/>
					</g>
				</g>
			</g>
		</g>
		<g>
			<g>
				<g>
					<g>
						<path fill="#92D0EF" d="M-235.98,36.014h-129.984c-2.254,0-4.081,1.87-4.081,4.177v82.485h138.147V40.19
							C-231.898,37.884-233.726,36.014-235.98,36.014z"/>
					</g>
				</g>
			</g>
		</g>
		<g>
			<g>
				<g>
					<g>
						<path fill="#0072CD" d="M-231.898,123.675h-138.147c-0.553,0-1-0.448-1-1V40.19c0-2.854,2.279-5.177,5.081-5.177h129.984
							c2.803,0,5.082,2.322,5.082,5.177v82.485C-230.898,123.227-231.345,123.675-231.898,123.675z M-369.045,121.675h136.147V40.19
							c0-1.751-1.383-3.177-3.082-3.177h-129.984c-1.699,0-3.081,1.425-3.081,3.177V121.675z"/>
					</g>
				</g>
			</g>
		</g>
		<g>
			<g>
				<g>
					<g>
						<rect x="-363.412" y="42.154" fill="#FFFFFF" width="125.047" height="74.332"/>
					</g>
				</g>
			</g>
		</g>
		<g>
			<g>
				<g>
					<g>
						<path fill="#54AAE3" d="M-370.045,121.861v5.354c0,2.307,1.827,4.176,4.081,4.176h129.984c2.254,0,4.082-1.869,4.082-4.176
							v-5.354H-370.045z"/>
					</g>
				</g>
			</g>
		</g>
		<g>
			<g>
				<g>
					<g>
						<path fill="#0072CD" d="M-235.98,132.39h-129.984c-2.802,0-5.081-2.322-5.081-5.176v-5.354c0-0.553,0.447-1,1-1h138.147
							c0.553,0,1,0.447,1,1v5.354C-230.898,130.068-233.177,132.39-235.98,132.39z M-369.045,122.861v4.354
							c0,1.751,1.382,3.176,3.081,3.176h129.984c1.699,0,3.082-1.425,3.082-3.176v-4.354H-369.045z"/>
					</g>
				</g>
			</g>
		</g>
		<g>
			<g>
				<g>
					<g>
						<rect x="-363.412" y="42.154" fill="#EAF5FE" width="125.075" height="6.784"/>
					</g>
				</g>
			</g>
		</g>
		<g>
			<g>
				<g>
					<g>
						<rect x="-363.412" y="111.66" fill="#EAF5FE" width="125.075" height="4.826"/>
					</g>
				</g>
			</g>
		</g>
		<g>
			<g>
				<g>
					<g>
						<path fill="#0072CD" d="M-238.365,117.486h-125.047c-0.553,0-1-0.447-1-1V42.154c0-0.552,0.447-1,1-1h125.047
							c0.553,0,1,0.448,1,1v74.332C-237.365,117.039-237.812,117.486-238.365,117.486z M-362.412,115.486h123.047V43.154h-123.047
							V115.486z"/>
					</g>
				</g>
			</g>
		</g>
	</g>
	<g>
		<g>
			<rect x="-381.972" y="114.398" fill-rule="evenodd" clip-rule="evenodd" fill="#FFFFFF" width="12" height="9"/>
		</g>
		<path fill-rule="evenodd" clip-rule="evenodd" fill="#54AAE3" d="M-369.131,135.267c-0.006,1.828-0.01,2.848-0.01,2.932
			c0,5.379,4.36,9.74,9.74,9.74s9.74-4.361,9.74-9.74c0-0.084,0-1.33,0-3.004L-369.131,135.267z"/>
		<g>
			<path fill-rule="evenodd" clip-rule="evenodd" fill="#54AAE3" d="M-344.952,99.482c0-7.98-6.469-14.449-14.448-14.449
				c-7.98,0-14.449,6.469-14.449,14.449h-0.008l0.013,0.191c0.007,0.521,0.041,1.033,0.102,1.539c0,0,2.087,26.439,2.087,26.547
				c0,6.768,5.487,12.254,12.256,12.254s12.255-5.486,12.255-12.254c0-0.098,2.072-26.434,2.072-26.434
				C-344.996,100.722-344.952,100.107-344.952,99.482z"/>
		</g>
		<path fill-rule="evenodd" clip-rule="evenodd" fill="#54AAE3" d="M-383.279,135.267l-19.471-0.072c0,1.674,0,2.92,0,3.004
			c0,5.379,4.361,9.74,9.74,9.74c5.38,0,9.741-4.361,9.741-9.74C-383.268,138.115-383.273,137.095-383.279,135.267z"/>
		<g>
			<path fill-rule="evenodd" clip-rule="evenodd" fill="#54AAE3" d="M-407.457,99.482c0-7.98,6.469-14.449,14.449-14.449
				c7.979,0,14.448,6.469,14.448,14.449h0.008l-0.012,0.191c-0.008,0.521-0.042,1.033-0.103,1.539c0,0-2.087,26.439-2.087,26.547
				c0,6.768-5.487,12.254-12.255,12.254c-6.769,0-12.256-5.486-12.256-12.254c0-0.098-2.072-26.434-2.072-26.434
				C-407.413,100.722-407.457,100.107-407.457,99.482z"/>
		</g>
		<g>
			<path fill="#0072CD" d="M-359.401,148.939c-5.922,0-10.74-4.818-10.74-10.74l0.01-2.936l2,0.007l-0.01,2.929
				c0,4.818,3.921,8.74,8.74,8.74s8.74-3.922,8.74-8.74v-3.004h2v3.004C-348.66,144.121-353.479,148.939-359.401,148.939z"/>
		</g>
		<g>
			<path fill-rule="evenodd" clip-rule="evenodd" fill="#FFFFFF" d="M-346.522,118.082v3.008c0,5.379-5.768,9.74-12.879,9.74
				c-7.11,0-12.878-4.361-12.878-9.74c0-0.088,0.006-1.482,0.012-3.309l0.295,0.006c1.262,4.369,6.415,7.639,12.571,7.639
				c6.02,0,11.078-3.125,12.483-7.35L-346.522,118.082z"/>
		</g>
		<g>
			<path fill-rule="evenodd" clip-rule="evenodd" fill="#FFFFFF" d="M-380.211,118.082v3.008c0,5.379-5.768,9.74-12.878,9.74
				c-7.111,0-12.879-4.361-12.879-9.74c0-0.088,0.006-1.482,0.013-3.309l0.295,0.006c1.261,4.369,6.414,7.639,12.571,7.639
				c6.019,0,11.077-3.125,12.482-7.35L-380.211,118.082z"/>
		</g>
		<g>
			<circle fill-rule="evenodd" clip-rule="evenodd" fill="#FFFFFF" cx="-359.401" cy="99.482" r="14.449"/>
		</g>
		<g>
			<path fill-rule="evenodd" clip-rule="evenodd" fill="#92D0EF" d="M-359.401,108.931c-5.21,0-9.449-4.238-9.449-9.449
				c0-5.209,4.239-9.449,9.449-9.449s9.448,4.24,9.448,9.449C-349.952,104.693-354.191,108.931-359.401,108.931z"/>
		</g>
		<g>
			<path fill="#0072CD" d="M-359.401,141.013c-7.31,0-13.256-5.945-13.256-13.254c-0.024-0.352-1.374-17.473-2.084-26.468
				c-0.061-0.501-0.098-1.055-0.104-1.604l-0.011-0.139c-0.004-0.065-0.002-0.131,0.007-0.195c0.069-8.459,6.973-15.32,15.448-15.32
				c8.519,0,15.448,6.932,15.448,15.449c0,0.637-0.043,1.299-0.129,1.971c-0.7,8.914-2.041,25.969-2.066,26.363
				C-346.146,135.068-352.092,141.013-359.401,141.013z M-372.852,99.542l0.005,0.066c0.008,0.532,0.04,1.015,0.097,1.486
				c2.094,26.518,2.094,26.613,2.094,26.665c0,6.205,5.05,11.254,11.256,11.254s11.255-5.049,11.255-11.254
				c0-0.052,0-0.137,2.075-26.512c0.08-0.636,0.118-1.213,0.118-1.766c0-7.416-6.033-13.449-13.448-13.449
				c-7.416,0-13.449,6.033-13.449,13.449C-372.85,99.502-372.851,99.522-372.852,99.542z"/>
		</g>
		<g>
			<path fill="#0072CD" d="M-393.009,148.939c-5.922,0-10.74-4.818-10.74-10.74v-3.004h2v3.004c0,4.818,3.921,8.74,8.74,8.74
				c4.82,0,8.741-3.922,8.741-8.74l-0.011-2.929l2-0.007l0.011,2.936C-382.268,144.121-387.086,148.939-393.009,148.939z"/>
		</g>
		<g>
			<circle fill-rule="evenodd" clip-rule="evenodd" fill="#FFFFFF" cx="-393.009" cy="99.482" r="14.449"/>
		</g>
		<g>
			<path fill-rule="evenodd" clip-rule="evenodd" fill="#92D0EF" d="M-393.008,108.931c-5.21,0-9.449-4.238-9.449-9.449
				c0-5.209,4.239-9.449,9.449-9.449s9.448,4.24,9.448,9.449C-383.56,104.693-387.798,108.931-393.008,108.931z"/>
		</g>
		<g>
			<path fill="#0072CD" d="M-359.401,114.931c-8.519,0-15.449-6.93-15.449-15.449c0-8.518,6.931-15.449,15.449-15.449
				s15.448,6.932,15.448,15.449C-343.952,108.001-350.882,114.931-359.401,114.931z M-359.401,86.033
				c-7.416,0-13.449,6.033-13.449,13.449s6.033,13.449,13.449,13.449c7.415,0,13.448-6.033,13.448-13.449
				S-351.986,86.033-359.401,86.033z"/>
		</g>
		<g>
			<path fill="#0072CD" d="M-359.401,110.222c-5.923,0-10.741-4.817-10.741-10.74c0-5.922,4.818-10.74,10.741-10.74
				c5.922,0,10.74,4.818,10.74,10.74C-348.66,105.405-353.479,110.222-359.401,110.222z M-359.401,90.742
				c-4.82,0-8.741,3.921-8.741,8.74c0,4.82,3.921,8.74,8.741,8.74c4.819,0,8.74-3.92,8.74-8.74
				C-350.66,94.663-354.581,90.742-359.401,90.742z"/>
		</g>
		<g>
			<path fill="#0072CD" d="M-393.009,110.222c-5.922,0-10.74-4.817-10.74-10.74c0-5.922,4.818-10.74,10.74-10.74
				c5.923,0,10.741,4.818,10.741,10.74C-382.268,105.405-387.086,110.222-393.009,110.222z M-393.009,90.742
				c-4.819,0-8.74,3.921-8.74,8.74c0,4.82,3.921,8.74,8.74,8.74c4.82,0,8.741-3.92,8.741-8.74
				C-384.268,94.663-388.189,90.742-393.009,90.742z"/>
		</g>
		<g>
			<path fill="#0072CD" d="M-393.008,114.931c-8.519,0-15.449-6.93-15.449-15.449c0-8.518,6.931-15.449,15.449-15.449
				s15.448,6.932,15.448,15.449C-377.56,108.001-384.49,114.931-393.008,114.931z M-393.008,86.033
				c-7.416,0-13.449,6.033-13.449,13.449s6.033,13.449,13.449,13.449c7.415,0,13.448-6.033,13.448-13.449
				S-385.593,86.033-393.008,86.033z"/>
		</g>
		<g>
			<path fill="#0072CD" d="M-393.008,141.013c-7.31,0-13.256-5.945-13.256-13.254c-0.023-0.338-1.364-17.393-2.069-26.354
				c-0.081-0.624-0.124-1.286-0.124-1.923c0-8.518,6.931-15.449,15.449-15.449c8.477,0,15.381,6.863,15.447,15.325
				c0.009,0.062,0.011,0.123,0.007,0.186l-0.012,0.191c-0.007,0.507-0.043,1.06-0.107,1.597c-0.706,8.955-2.056,26.076-2.082,26.482
				C-379.753,135.068-385.699,141.013-393.008,141.013z M-393.008,86.033c-7.416,0-13.449,6.033-13.449,13.449
				c0,0.553,0.038,1.13,0.113,1.718c2.08,26.423,2.08,26.508,2.08,26.56c0,6.205,5.05,11.254,11.256,11.254
				s11.255-5.049,11.255-11.254c0-0.052,0-0.147,2.09-26.625c0.061-0.51,0.093-0.992,0.1-1.476l0.006-0.108
				c-0.001-0.021-0.002-0.045-0.002-0.068C-379.56,92.066-385.593,86.033-393.008,86.033z"/>
		</g>
		<g>
			<rect x="-379.669" y="112.931" fill="#0072CD" width="6.975" height="2"/>
		</g>
		<g>
			<rect x="-380.085" y="121.917" fill="#0072CD" width="7.807" height="2"/>
		</g>
		<g>
			<path fill="#0072CD" d="M-376.182,121.699c-1.186,0-2.149-0.964-2.149-2.148c0-1.186,0.964-2.15,2.149-2.15
				s2.149,0.965,2.149,2.15C-374.032,120.735-374.996,121.699-376.182,121.699z M-376.182,119.4c-0.082,0-0.149,0.067-0.149,0.15
				c0,0.164,0.299,0.164,0.299,0C-376.032,119.467-376.1,119.4-376.182,119.4z"/>
		</g>
	</g>
	<g>
		<g>
			<defs>
				<circle id="SVGID_1_" cx="-300.876" cy="83.573" r="28.087"/>
			</defs>
			<clipPath id="SVGID_2_">
				<use xlink:href="#SVGID_1_"  overflow="visible"/>
			</clipPath>
			<g clip-path="url(#SVGID_2_)">
				<g>
					<path fill="#54AAE3" d="M-286.06,109.205h-29.631V72.755c0-7.832,6.35-14.181,14.181-14.181h1.271
						c7.832,0,14.18,6.35,14.18,14.181V109.205z"/>
				</g>
				<g>
					<path fill="#0072CD" d="M-286.06,110.205h-29.631c-0.553,0-1-0.448-1-1V72.755c0-8.371,6.81-15.181,15.181-15.181h1.271
						c8.371,0,15.18,6.81,15.18,15.181v36.449C-285.06,109.756-285.508,110.205-286.06,110.205z M-314.692,108.205h27.631V72.755
						c0-7.269-5.912-13.181-13.18-13.181h-1.271c-7.268,0-13.181,5.913-13.181,13.181V108.205z"/>
				</g>
				<g>
					<path fill="#92D0EF" d="M-280.508,122.896v-18.85c0-8.434-5.949-13.924-14.387-13.924h-13.5c-8.438,0-12.85,5.49-12.85,13.924
						v18.85H-280.508z"/>
				</g>
				<g>
					<path fill="#0072CD" d="M-279.508,122.882h-2v-19.27c0-7.588-5.297-12.49-13.494-12.49h-14.118v-2h14.118
						c9.268,0,15.494,5.822,15.494,14.49V122.882z"/>
				</g>
				<g>
					<path fill="#0072CD" d="M-300.681,103.359c-0.35,0-0.674-0.182-0.856-0.48l-7.15-11.793l1.711-1.037l6.282,10.36l6.182-10.517
						l1.725,1.014l-7.031,11.961c-0.178,0.303-0.504,0.49-0.855,0.492C-300.677,103.359-300.679,103.359-300.681,103.359z"/>
				</g>
				<g>
					<rect x="-301.741" y="106.064" fill="#0072CD" width="2" height="6.094"/>
				</g>
				<g>
					<rect x="-301.741" y="118.162" fill="#0072CD" width="2" height="4.734"/>
				</g>
				<g>
					<rect x="-290.529" y="111.886" fill="#0072CD" width="2" height="11.01"/>
				</g>
				<g>
					<g>
						<path fill="#FFFFFF" d="M-289.638,73.541c0-6.207-5.031-11.237-11.236-11.237l0,0c-6.207,0-11.238,5.031-11.238,11.237v1.498
							c0,6.205,5.031,11.236,11.236,11.236l0,0c6.207,0,11.238-5.031,11.238-11.236V73.541z"/>
					</g>
					<g>
						<path fill="#0072CD" d="M-300.877,87.275c-6.747,0-12.236-5.488-12.236-12.236v-1.498c0-6.747,5.489-12.237,12.238-12.237
							c6.746,0,12.236,5.489,12.236,12.237v1.498C-288.638,81.786-294.129,87.275-300.877,87.275z M-300.875,63.304
							c-5.645,0-10.238,4.592-10.238,10.237v1.498c0,5.645,4.592,10.236,10.236,10.236c5.645,0,10.238-4.592,10.238-10.236v-1.498
							C-290.638,67.896-295.23,63.304-300.875,63.304z"/>
					</g>
				</g>
				<g>
					<path fill="#0072CD" d="M-292.965,114.679c-0.471,0-0.947-0.047-1.412-0.14l0.389-1.962c0.338,0.066,0.682,0.102,1.023,0.102
						c2.838,0,5.146-2.309,5.146-5.146c0-1.486-0.643-2.898-1.762-3.877l1.316-1.506c1.555,1.358,2.445,3.32,2.445,5.383
						C-285.818,111.472-289.023,114.679-292.965,114.679z"/>
				</g>
				<g>
					<path fill="#0072CD" d="M-307.844,114.679c-3.94,0-7.146-3.207-7.146-7.146c0-2.063,0.891-4.025,2.444-5.383l1.316,1.506
						c-1.119,0.978-1.761,2.391-1.761,3.877c0,2.838,2.309,5.146,5.146,5.146c0.341,0,0.685-0.035,1.023-0.102l0.389,1.962
						C-306.899,114.632-307.373,114.679-307.844,114.679z"/>
				</g>
				<g>
					<path fill="#54AAE3" d="M-306.602,61.843c0,0,2.261,11.479,19.43,11.479C-287.172,73.322-288.232,56.058-306.602,61.843z"/>
				</g>
				<g>
					<path fill="#0072CD" d="M-287.687,74.322c-17.33,0-19.871-11.477-19.894-11.593l1.958-0.404
						c0.087,0.408,2.31,9.997,17.936,9.997V74.322z"/>
				</g>
			</g>
		</g>
		<g>
			<defs>
				<circle id="SVGID_3_" cx="-300.875" cy="0.178" r="20.864"/>
			</defs>
			<clipPath id="SVGID_4_">
				<use xlink:href="#SVGID_3_"  overflow="visible"/>
			</clipPath>
			<g clip-path="url(#SVGID_4_)">
				<g>
					<path fill="#FFFFFF" d="M-288.394,14.132V-6.445c0-6.598-5.348-11.947-11.947-11.947h-1.069
						c-6.599,0-11.947,5.35-11.947,11.947v20.577H-288.394z"/>
				</g>
				<g>
					<path fill="#0072CD" d="M-288.394,15.132h-24.963c-0.553,0-1-0.448-1-1V-6.445c0-7.139,5.809-12.947,12.947-12.947h1.069
						c7.139,0,12.947,5.808,12.947,12.947v20.577C-287.394,14.684-287.842,15.132-288.394,15.132z M-312.358,13.132h22.963V-6.445
						c0-6.036-4.91-10.947-10.947-10.947h-1.069c-6.036,0-10.947,4.911-10.947,10.947V13.132z"/>
				</g>
				<g>
					<g>
						<circle fill="#FFFFFF" cx="-311.841" cy="6.115" r="5.174"/>
					</g>
					<g>
						<path fill="#0072CD" d="M-311.841,12.29c-3.404,0-6.174-2.77-6.174-6.175c0-3.404,2.77-6.174,6.174-6.174
							c0.78,0,1.544,0.145,2.269,0.431l-0.734,1.86c-0.49-0.193-1.006-0.292-1.534-0.292c-2.302,0-4.174,1.873-4.174,4.174
							c0,2.302,1.872,4.175,4.174,4.175c0.769,0,1.521-0.211,2.174-0.611l1.043,1.706C-309.591,11.977-310.703,12.29-311.841,12.29z
							"/>
					</g>
				</g>
				<g>
					<g>
						<circle fill="#FFFFFF" cx="-289.445" cy="6.115" r="5.174"/>
					</g>
					<g>
						<path fill="#0072CD" d="M-289.445,12.29c-1.137,0-2.25-0.313-3.217-0.905l1.043-1.706c0.652,0.399,1.404,0.611,2.174,0.611
							c2.303,0,4.174-1.873,4.174-4.175c0-2.301-1.871-4.174-4.174-4.174c-0.527,0-1.045,0.098-1.535,0.292l-0.734-1.86
							c0.725-0.286,1.488-0.431,2.27-0.431c3.404,0,6.174,2.77,6.174,6.174C-283.271,9.52-286.041,12.29-289.445,12.29z"/>
					</g>
				</g>
				<g>
					<path fill="#54AAE3" d="M-285.746,29.388V15.386c0-6.266-4.42-10.344-10.688-10.344h-10.027c-6.268,0-9.545,4.078-9.545,10.344
						v14.002H-285.746z"/>
				</g>
				<g>
					<path fill="#0072CD" d="M-284.746,29.377h-2V15.063c0-5.48-3.834-9.021-9.766-9.021h-10.488v-2h10.488
						c7.037,0,11.766,4.429,11.766,11.021V29.377z"/>
				</g>
				<g>
					<path fill="#0072CD" d="M-300.732,15.132c-0.35,0-0.673-0.183-0.855-0.481l-5.312-8.76l1.711-1.037l4.442,7.328l4.375-7.44
						l1.725,1.014l-5.223,8.884c-0.18,0.303-0.504,0.491-0.855,0.493C-300.726,15.132-300.73,15.132-300.732,15.132z"/>
				</g>
				<g>
					<rect x="-301.776" y="16.884" fill="#0072CD" width="2" height="4.527"/>
				</g>
				<g>
					<rect x="-301.776" y="25.871" fill="#0072CD" width="2" height="3.517"/>
				</g>
				<g>
					<rect x="-293.447" y="21.209" fill="#0072CD" width="2" height="8.179"/>
				</g>
				<g>
					<g>
						<path fill="#FFFFFF" d="M-292.529-7.275c0-4.61-3.736-8.347-8.346-8.347l0,0c-4.611,0-8.348,3.737-8.348,8.347v1.113
							c0,4.609,3.737,8.347,8.346,8.347l0,0c4.611,0,8.348-3.737,8.348-8.348V-7.275z"/>
					</g>
					<g>
						<path fill="#0072CD" d="M-300.877,3.185c-5.153,0-9.346-4.193-9.346-9.347v-1.113c0-5.154,4.193-9.347,9.348-9.347
							c5.152,0,9.346,4.193,9.346,9.347v1.112C-291.529-1.009-295.722,3.185-300.877,3.185z M-300.875-14.622
							c-4.052,0-7.348,3.296-7.348,7.347v1.113c0,4.051,3.296,7.347,7.346,7.347c4.053,0,7.348-3.296,7.348-7.348v-1.112
							C-293.529-11.326-296.824-14.622-300.875-14.622z"/>
					</g>
				</g>
				<g>
					<g>
						<path fill="#FFFFFF" d="M-291.533-7.797c-0.826-4.415-4.688-7.76-9.342-7.76c-4.656,0-8.518,3.345-9.343,7.76H-291.533z"/>
					</g>
					<g>
						<path fill="#0072CD" d="M-291.533-6.797h-18.685c-0.298,0-0.579-0.132-0.77-0.361c-0.189-0.229-0.269-0.53-0.214-0.822
							c0.93-4.969,5.271-8.576,10.327-8.576c5.053,0,9.395,3.607,10.324,8.576c0.055,0.292-0.023,0.594-0.213,0.822
							C-290.955-6.929-291.236-6.797-291.533-6.797z M-308.925-8.797h16.099c-1.158-3.4-4.371-5.76-8.049-5.76
							C-304.554-14.557-307.767-12.197-308.925-8.797z"/>
					</g>
				</g>
				<g>
					<path fill="#0072CD" d="M-295,23.54c-0.371,0-0.742-0.037-1.1-0.108l0.393-1.961c0.229,0.046,0.467,0.069,0.707,0.069
						c1.967,0,3.566-1.6,3.566-3.565c0-1.028-0.445-2.008-1.221-2.687l1.318-1.505c1.209,1.059,1.902,2.587,1.902,4.192
						C-289.433,21.043-291.929,23.54-295,23.54z"/>
				</g>
				<g>
					<path fill="#0072CD" d="M-306.052,23.54c-3.069,0-5.566-2.497-5.566-5.565c0-1.604,0.694-3.133,1.903-4.192l1.318,1.505
						c-0.776,0.679-1.222,1.659-1.222,2.687c0,1.966,1.6,3.565,3.566,3.565c0.24,0,0.479-0.023,0.708-0.069l0.393,1.961
						C-305.31,23.503-305.68,23.54-306.052,23.54z"/>
				</g>
			</g>
		</g>
		<g>
			<defs>
				<circle id="SVGID_5_" cx="-332.803" cy="33.431" r="23.06"/>
			</defs>
			<clipPath id="SVGID_6_">
				<use xlink:href="#SVGID_5_"  overflow="visible"/>
			</clipPath>
			<g clip-path="url(#SVGID_6_)">
				<g>
					<path fill="#54AAE3" d="M-317.014,59.553V44.941c0-6.539-4.612-10.795-11.153-10.795h-10.465
						c-6.541,0-9.961,4.256-9.961,10.795v14.611H-317.014z"/>
				</g>
				<g>
					<path fill="#0072CD" d="M-316.014,59.542h-2V44.604c0-5.745-4.018-9.457-10.235-9.457h-10.944v-2h10.944
						c7.318,0,12.235,4.604,12.235,11.457V59.542z"/>
				</g>
				<g>
					<path fill="#0072CD" d="M-332.654,44.633c-0.35,0-0.674-0.183-0.855-0.481l-5.543-9.143l1.711-1.037l4.675,7.71l4.602-7.828
						l1.725,1.014l-5.451,9.271c-0.179,0.303-0.504,0.491-0.855,0.493C-332.649,44.633-332.652,44.633-332.654,44.633z"/>
				</g>
				<g>
					<rect x="-333.699" y="46.505" fill="#0072CD" width="2" height="4.724"/>
				</g>
				<g>
					<rect x="-333.699" y="55.883" fill="#0072CD" width="2" height="3.67"/>
				</g>
				<g>
					<rect x="-325.008" y="51.019" fill="#0072CD" width="2" height="8.534"/>
				</g>
				<g>
					<g>
						<path fill="#FFFFFF" d="M-338.082,31.047v7.363l5.455-4.163l5.311,4.163v-7.363l-0.182-0.248l0,0
							c-1.723,4.449-8.028,4.416-9.705-0.05l-0.049-0.13L-338.082,31.047z"/>
					</g>
					<g>
						<path fill="#0072CD" d="M-338.082,39.41c-0.151,0-0.303-0.034-0.443-0.104c-0.341-0.169-0.557-0.516-0.557-0.896v-7.363
							c0-0.375,0.209-0.717,0.542-0.889l0.83-0.428c0.255-0.131,0.551-0.147,0.817-0.044c0.267,0.103,0.477,0.314,0.577,0.581
							l0.049,0.13c0.753,2.006,2.521,2.72,3.927,2.72c1.389,0,3.145-0.704,3.909-2.679c0.132-0.341,0.439-0.583,0.802-0.63
							c0.363-0.052,0.722,0.105,0.938,0.4l0.182,0.248c0.126,0.171,0.193,0.378,0.193,0.591v7.363c0,0.383-0.219,0.732-0.563,0.899
							c-0.343,0.167-0.753,0.124-1.055-0.112l-4.701-3.686l-4.841,3.694C-337.654,39.341-337.867,39.41-338.082,39.41z
							 M-337.082,32.92v3.469l2.308-1.761C-335.668,34.251-336.457,33.667-337.082,32.92z M-330.311,34.792l1.994,1.563v-2.693
							C-328.9,34.162-329.573,34.545-330.311,34.792z"/>
					</g>
				</g>
				<g>
					<g>
						<path fill="#FFFFFF" d="M-322.68,22.704c0-5.591-4.532-10.123-10.123-10.123l0,0c-5.592,0-10.124,4.532-10.124,10.124v1.35
							c0,5.591,4.532,10.123,10.123,10.123l0,0c5.592,0,10.124-4.533,10.124-10.124V22.704z"/>
					</g>
					<g>
						<path fill="#0072CD" d="M-332.804,35.178c-6.133,0-11.123-4.99-11.123-11.123v-1.35c0-6.134,4.99-11.124,11.124-11.124
							c6.133,0,11.123,4.99,11.123,11.123v1.35C-321.68,30.188-326.67,35.178-332.804,35.178z M-332.803,13.581
							c-5.031,0-9.124,4.093-9.124,9.124v1.35c0,5.03,4.093,9.123,9.123,9.123c5.031,0,9.124-4.093,9.124-9.124v-1.35
							C-323.68,17.674-327.773,13.581-332.803,13.581z"/>
					</g>
				</g>
			</g>
		</g>
		<g>
			<defs>
				<circle id="SVGID_7_" cx="-268.948" cy="33.431" r="23.06"/>
			</defs>
			<clipPath id="SVGID_8_">
				<use xlink:href="#SVGID_7_"  overflow="visible"/>
			</clipPath>
			<g clip-path="url(#SVGID_8_)">
				<g>
					<path fill="#92D0EF" d="M-253.443,60.587V46.238c0-6.421-4.529-10.601-10.951-10.601h-10.277c-6.424,0-9.781,4.18-9.781,10.601
						v14.349H-253.443z"/>
				</g>
				<g>
					<path fill="#0072CD" d="M-252.443,60.576h-2v-14.67c0-5.63-3.938-9.269-10.033-9.269h-10.746v-2h10.746
						c7.197,0,12.033,4.528,12.033,11.269V60.576z"/>
				</g>
				<g>
					<path fill="#0072CD" d="M-268.801,45.953c-0.35,0-0.674-0.183-0.855-0.481l-5.443-8.978l1.711-1.037l4.574,7.545l4.504-7.661
						l1.725,1.014l-5.352,9.104c-0.18,0.303-0.504,0.491-0.855,0.493C-268.795,45.953-268.799,45.953-268.801,45.953z"/>
				</g>
				<g>
					<rect x="-269.845" y="47.773" fill="#0072CD" width="2" height="4.639"/>
				</g>
				<g>
					<rect x="-269.845" y="56.982" fill="#0072CD" width="2" height="3.604"/>
				</g>
				<g>
					<rect x="-261.31" y="52.206" fill="#0072CD" width="2" height="8.381"/>
				</g>
				<g>
					<g>
						<path fill="#FFFFFF" d="M-274.131,32.594v7.23l5.355-4.088l5.215,4.088v-7.23l-0.178-0.243l0,0
							c-1.691,4.368-7.885,4.337-9.531-0.049l-0.047-0.128L-274.131,32.594z"/>
					</g>
					<g>
						<path fill="#0072CD" d="M-274.131,40.824c-0.152,0-0.303-0.034-0.443-0.104c-0.342-0.169-0.557-0.516-0.557-0.896v-7.23
							c0-0.375,0.209-0.717,0.541-0.889l0.814-0.42c0.254-0.132,0.553-0.146,0.818-0.044c0.268,0.103,0.477,0.315,0.576,0.583
							l0.049,0.128c0.734,1.959,2.465,2.657,3.838,2.657c1.357,0,3.074-0.688,3.822-2.62c0.133-0.34,0.439-0.582,0.801-0.63
							c0.363-0.048,0.723,0.105,0.938,0.399l0.18,0.243c0.125,0.172,0.193,0.379,0.193,0.592v7.23c0,0.383-0.219,0.731-0.563,0.899
							c-0.342,0.167-0.752,0.124-1.055-0.112L-268.783,37l-4.742,3.619C-273.703,40.755-273.916,40.824-274.131,40.824z
							 M-273.131,34.484v3.319l2.211-1.688C-271.773,35.75-272.527,35.193-273.131,34.484z M-266.463,36.278l1.902,1.492v-2.569
							C-265.119,35.674-265.761,36.039-266.463,36.278z"/>
					</g>
				</g>
				<g>
					<g>
						<path fill="#FFFFFF" d="M-259.799,25.342c0-5.053-4.096-9.148-9.148-9.148l0,0c-5.055,0-9.15,4.096-9.15,9.149v1.22
							c0,5.053,4.096,9.148,9.148,9.148l0,0c5.055,0,9.15-4.096,9.15-9.148V25.342z"/>
					</g>
					<g>
						<path fill="#0072CD" d="M-268.949,36.711c-5.596,0-10.148-4.553-10.148-10.148v-1.22c0-5.596,4.553-10.149,10.15-10.149
							c5.596,0,10.148,4.553,10.148,10.148v1.221C-258.799,32.158-263.351,36.711-268.949,36.711z M-268.947,17.193
							c-4.494,0-8.15,3.656-8.15,8.149v1.22c0,4.493,3.656,8.148,8.148,8.148c4.494,0,8.15-3.655,8.15-8.148v-1.221
							C-260.799,20.849-264.455,17.193-268.947,17.193z"/>
					</g>
				</g>
				<g>
					<g>
						<path fill="#54AAE3" d="M-264.787,23.606h-5.057c-2.367,0-4.287-1.92-4.287-4.288v-0.087c0-2.368,1.92-4.288,4.287-4.288
							h12.076v1.645C-257.767,20.464-260.91,23.606-264.787,23.606z"/>
					</g>
					<g>
						<path fill="#0072CD" d="M-264.787,24.606h-5.057c-2.916,0-5.287-2.372-5.287-5.288c0-3.003,2.371-5.375,5.287-5.375h12.076
							c0.553,0,1,0.448,1,1v1.645C-256.767,21.009-260.365,24.606-264.787,24.606z M-269.844,15.943
							c-1.813,0-3.287,1.475-3.287,3.288c0,1.9,1.475,3.375,3.287,3.375h5.057c3.32,0,6.02-2.7,6.02-6.019v-0.645H-269.844z"/>
					</g>
				</g>
			</g>
		</g>
	</g>
	<g>
		<g>
			<g>
				<g>
					<g>
						<g>
							<path fill="#0072CD" d="M-267.135,114.345c-1.221,0-2.381-0.387-3.359-1.12l-6.543-5.051
								c-2.453-1.849-2.959-5.364-1.119-7.829c0.021-0.029,0.045-0.058,0.07-0.084c1.055-1.36,2.703-2.17,4.43-2.17
								c1.221,0,2.383,0.389,3.361,1.123l6.539,5.049c2.457,1.842,2.963,5.357,1.115,7.83
								C-263.699,113.507-265.377,114.345-267.135,114.345z M-276.599,101.603c-1.129,1.582-0.789,3.801,0.775,4.98l6.541,5.05
								c0.617,0.463,1.365,0.712,2.148,0.712c1.148,0,2.199-0.525,2.885-1.44c1.195-1.599,0.871-3.86-0.717-5.05l-6.541-5.05
								c-0.617-0.464-1.363-0.714-2.148-0.714c-1.146,0-2.199,0.525-2.885,1.441C-276.558,101.558-276.578,101.582-276.599,101.603z
								"/>
						</g>
					</g>
				</g>
			</g>
		</g>
		<g>
			<g>
				<g>
					<path fill="#FFFFFF" d="M-334.865,88.183c2.497,17.6,18.357,30.525,36.083,29.445c0.928-0.063,1.873-0.16,2.783-0.295
						c4.664-0.66,9.045-2.221,13.031-4.639c2.453-1.516,4.711-3.318,6.727-5.396c1.035-1.078,2.016-2.23,2.916-3.426
						c0.865-1.168,1.668-2.381,2.365-3.629c3.799-6.637,5.227-14.176,4.139-21.783c-1.303-9.09-6.066-17.119-13.426-22.64
						c-6.539-4.897-14.594-7.306-22.675-6.815c-0.928,0.063-1.863,0.144-2.801,0.286c-9.09,1.302-17.153,6.102-22.657,13.469
						C-333.876,70.11-336.186,79.138-334.865,88.183z M-323.635,66.311c4.576-6.119,11.23-10.08,18.75-11.159
						c0.767-0.099,1.552-0.188,2.319-0.232c6.699-0.41,13.353,1.606,18.759,5.665c6.102,4.549,10.043,11.194,11.105,18.705
						c1.07,7.477-0.838,14.941-5.369,21.035l-0.43,0.553c-4.682,5.852-11.15,9.553-18.348,10.598
						c-0.758,0.098-1.525,0.195-2.293,0.223c-14.665,0.9-27.778-9.785-29.865-24.354C-330.067,79.841-328.157,72.376-323.635,66.311
						z"/>
				</g>
			</g>
		</g>
		<g>
			<g>
				<g>
					<path fill="#0072CD" d="M-300.857,118.689c-17.49,0-32.539-13.055-35.007-30.367c-1.339-9.304,1.032-18.596,6.679-26.163
						c5.677-7.591,13.958-12.513,23.318-13.858c0.953-0.137,1.926-0.237,2.89-0.296c8.308-0.506,16.662,2.023,23.333,7.021
						c7.568,5.677,12.471,13.948,13.807,23.287c1.127,7.836-0.344,15.596-4.252,22.441c-0.719,1.266-1.537,2.516-2.434,3.713
						c-0.914,1.227-1.926,2.414-3.004,3.525c-2.07,2.139-4.402,4.006-6.93,5.547c-4.096,2.496-8.602,4.108-13.395,4.791
						c-0.936,0.136-1.9,0.234-2.865,0.293C-299.435,118.667-300.148,118.689-300.857,118.689z M-300.847,49.938
						c-0.668,0-1.338,0.021-2.007,0.062c-0.91,0.056-1.828,0.15-2.728,0.28c-8.832,1.27-16.646,5.914-22.001,13.076
						c-5.327,7.139-7.564,15.906-6.301,24.683c2.422,16.996,17.714,29.646,35.042,28.588c0.912-0.055,1.822-0.148,2.707-0.276
						c4.523-0.646,8.775-2.165,12.637-4.519c2.383-1.453,4.58-3.213,6.533-5.232c1.02-1.05,1.975-2.17,2.84-3.33
						c0.846-1.131,1.619-2.311,2.297-3.506c3.688-6.457,5.074-13.775,4.01-21.166c-1.26-8.813-5.887-16.615-13.025-21.972
						C-286.601,52.313-293.705,49.938-300.847,49.938z M-300.861,112.753c-0.002,0-0.002,0-0.004,0
						c-14.546,0-27.072-10.861-29.134-25.262c-1.101-7.758,0.876-15.494,5.565-21.784c4.735-6.324,11.626-10.421,19.404-11.538
						c0.795-0.113,1.602-0.195,2.399-0.244c6.906-0.42,13.878,1.686,19.429,5.85c6.303,4.721,10.385,11.603,11.494,19.378
						c1.107,7.739-0.869,15.466-5.561,21.757l-0.447,0.58c-4.797,6.014-11.535,9.904-18.98,10.966
						c-0.799,0.113-1.604,0.194-2.391,0.241C-299.679,112.736-300.271,112.753-300.861,112.753z M-300.855,55.873
						c-0.55,0-1.101,0.017-1.653,0.05c-0.745,0.045-1.497,0.122-2.238,0.228c-7.248,1.041-13.672,4.86-18.085,10.755
						c-4.371,5.862-6.214,13.073-5.188,20.303c1.922,13.422,13.596,23.545,27.156,23.545c0,0,0,0,0.002,0
						c0.549,0,1.1-0.016,1.654-0.051c0.736-0.043,1.484-0.119,2.229-0.225c6.939-0.99,13.223-4.62,17.691-10.221l0.426-0.553
						c4.365-5.853,6.205-13.055,5.174-20.268c-1.033-7.246-4.838-13.66-10.713-18.061
						C-289.131,57.827-294.974,55.873-300.855,55.873z"/>
				</g>
			</g>
		</g>
		<g>
			<g>
				<g>
					
						<rect x="-256.68" y="98.78" transform="matrix(-0.5985 0.8011 -0.8011 -0.5985 -301.0136 394.3939)" fill="#92D0EF" width="14.676" height="45.966"/>
				</g>
			</g>
		</g>
		<g>
			<g>
				<path fill="#92D0EF" d="M-215.613,120.9h-26.424c-2.084,0-3.773,1.689-3.773,3.773l0,0c0,2.084,1.689,3.773,3.773,3.773h26.424
					c2.084,0,3.773-1.689,3.773-3.773l0,0C-211.84,122.589-213.529,120.9-215.613,120.9z"/>
			</g>
			<g>
				<path fill="#92D0EF" d="M-235.529,110.482h-16.428c-2.084,0-3.773,1.689-3.773,3.773l0,0c0,2.082,1.689,3.771,3.773,3.771
					h16.428c2.084,0,3.773-1.689,3.773-3.771l0,0C-231.756,112.171-233.445,110.482-235.529,110.482z"/>
			</g>
			<g>
				<path fill="#92D0EF" d="M-200.922,128.392h-8.297c-1.146,0-2.078,0.93-2.078,2.076l0,0c0,1.146,0.932,2.076,2.078,2.076h8.297
					c1.146,0,2.076-0.93,2.076-2.076l0,0C-198.845,129.322-199.775,128.392-200.922,128.392z"/>
			</g>
			<g>
				<path fill="#92D0EF" d="M-235.322,135.677h29.547c1.58,0,2.859,1.279,2.859,2.859c0,1.578-1.279,2.859-2.859,2.859h-29.547
					V135.677z"/>
			</g>
			<g>
				<path fill="#92D0EF" d="M-219.914,128.392h-14.084c1.039,0,1.984,0.449,2.666,1.131c0.686,0.686,1.107,1.494,1.107,2.537
					c0,2.084-1.691,3.637-3.773,3.637h14.084c-1.041,0-1.984-0.275-2.668-0.955c-0.682-0.682-1.105-1.578-1.105-2.623
					C-223.687,130.033-221.998,128.392-219.914,128.392z"/>
			</g>
		</g>
		<g>
			<g>
				<path fill="#0072CD" d="M-205.775,143.078h-23.178c-4.426,0-8.797-1.484-12.307-4.182l-31.496-24.215
					c-0.434-0.333-0.52-0.953-0.191-1.391l8.783-11.758c0.318-0.43,0.924-0.53,1.367-0.227l11.15,7.66h16.117
					c2.588,0,4.773,2.296,4.773,5.014c0,2.719-2.186,5.014-4.773,5.014h-3.363l0.971,0.676h21.768c1.648,0,3.158,0.68,4.146,1.862
					c1.27,1.52,1.525,3.498,0.686,5.294c-0.816,1.745-2.5,2.873-4.291,2.873h-4.859c-1.221,0-2.215,1.143-2.215,2.547
					c0,0.926,0.441,1.561,0.813,1.931c0.432,0.429,1.016,0.657,1.682,0.657h14.418c2.057,0,3.859,1.928,3.859,4.123
					S-203.719,143.078-205.775,143.078z M-270.754,113.697l30.713,23.613c3.162,2.43,7.1,3.768,11.088,3.768h23.178
					c0.955,0,1.859-1.03,1.859-2.121s-0.904-2.123-1.859-2.123h-14.418c-1.188,0-2.285-0.439-3.094-1.239
					c-0.904-0.903-1.4-2.091-1.4-3.349c0-2.508,1.891-4.547,4.215-4.547h4.859c1.018,0,1.99-0.676,2.479-1.721
					c0.242-0.516,0.686-1.855-0.408-3.164c-0.607-0.727-1.559-1.145-2.611-1.145h-22.082c-0.203,0-0.402-0.063-0.57-0.179
					l-3.846-2.676c-0.359-0.249-0.514-0.703-0.383-1.12s0.518-0.701,0.953-0.701h6.553c1.477,0,2.773-1.408,2.773-3.014
					s-1.297-3.014-2.773-3.014h-16.428c-0.201,0-0.398-0.062-0.566-0.176l-10.615-7.291L-270.754,113.697z"/>
			</g>
			<g>
				<path fill="#0072CD" d="M-200.922,133.267h-8.297c-1.783,0-3.078-1.172-3.078-2.785s1.295-2.783,3.078-2.783h8.297
					c1.783,0,3.076,1.17,3.076,2.783S-199.138,133.267-200.922,133.267z M-209.219,129.699c-0.324,0-1.078,0.076-1.078,0.783
					c0,0.709,0.754,0.785,1.078,0.785h8.297c0.324,0,1.076-0.076,1.076-0.785c0-0.707-0.752-0.783-1.076-0.783H-209.219z"/>
			</g>
		</g>
	</g>
	<g>
		<path fill="#0072CD" d="M-201.972,34.398h-3.938c-1.982,0-2.805-2.134-3.531-4.016c-0.445-1.154-1.055-2.735-1.664-2.735
			c-0.621,0-1.203,1.437-1.67,2.59c-0.729,1.799-1.555,3.838-3.521,3.838c-1.969,0-2.799-2.023-3.531-3.809
			c-0.469-1.144-1.053-2.566-1.678-2.566c-0.617,0-1.234,1.57-1.686,2.716c-0.736,1.866-1.57,3.981-3.547,3.981h-5.234
			c-0.553,0-1-0.448-1-1s0.447-1,1-1h5.234c0.615,0,1.234-1.569,1.686-2.715c0.734-1.867,1.568-3.982,3.547-3.982
			c1.965,0,2.795,2.022,3.527,3.807c0.471,1.144,1.055,2.568,1.682,2.568c0.619,0,1.201-1.436,1.668-2.589
			c0.729-1.8,1.555-3.84,3.523-3.84c1.982,0,2.805,2.133,3.531,4.015c0.445,1.155,1.055,2.736,1.664,2.736h3.938
			c0.553,0,1,0.448,1,1S-201.42,34.398-201.972,34.398z"/>
	</g>
	<g>
		<path fill="#0072CD" d="M-380.972,77.398h-3.938c-1.982,0-2.806-2.133-3.531-4.016c-0.445-1.154-1.055-2.735-1.664-2.735
			c-0.622,0-1.203,1.437-1.67,2.59c-0.729,1.799-1.555,3.838-3.522,3.838s-2.798-2.023-3.53-3.809
			c-0.47-1.143-1.054-2.566-1.679-2.566c-0.616,0-1.234,1.57-1.686,2.716c-0.735,1.865-1.569,3.98-3.546,3.98h-5.234
			c-0.553,0-1-0.447-1-1c0-0.552,0.447-1,1-1h5.234c0.615,0,1.233-1.568,1.685-2.714c0.735-1.867,1.569-3.982,3.547-3.982
			c1.966,0,2.796,2.022,3.528,3.807c0.47,1.144,1.054,2.567,1.681,2.567c0.62,0,1.201-1.436,1.668-2.588
			c0.729-1.8,1.555-3.84,3.524-3.84c1.982,0,2.805,2.133,3.53,4.015c0.445,1.155,1.055,2.735,1.665,2.735h3.938c0.553,0,1,0.448,1,1
			C-379.972,76.951-380.419,77.398-380.972,77.398z"/>
	</g>
</g>
</svg>
