<?xml version="1.0" encoding="utf-8"?>
<!-- Generator: Adobe Illustrator 16.0.0, SVG Export Plug-In . SVG Version: 6.00 Build 0)  -->
<!DOCTYPE svg PUBLIC "-//W3C//DTD SVG 1.1//EN" "http://www.w3.org/Graphics/SVG/1.1/DTD/svg11.dtd">
<svg version="1.1" id="layer_1" xmlns="http://www.w3.org/2000/svg" xmlns:xlink="http://www.w3.org/1999/xlink" x="0px" y="0px"
	 width="443.222px" height="354.846px" viewBox="102.265 90.427 443.222 354.846"
	 enable-background="new 102.265 90.427 443.222 354.846" xml:space="preserve">
<g>
	<g>
		<path fill="#0072CD" d="M131.415,326.311c-3.287,0-5.961-2.673-5.961-5.961s2.674-5.961,5.961-5.961s5.961,2.673,5.961,5.961
			S134.702,326.311,131.415,326.311z M131.415,317.23c-1.72,0-3.12,1.399-3.12,3.12s1.4,3.12,3.12,3.12c1.72,0,3.12-1.399,3.12-3.12
			S133.135,317.23,131.415,317.23z"/>
	</g>
	<g>
		<g>
			<path fill="#0072CD" d="M141.556,365.775c-0.363,0-0.727-0.138-1.004-0.416l-5.657-5.658c-0.555-0.555-0.555-1.456,0-2.01
				c0.555-0.555,1.454-0.555,2.008,0l5.658,5.659c0.555,0.556,0.555,1.454,0,2.009C142.283,365.637,141.92,365.775,141.556,365.775z
				"/>
		</g>
		<g>
			<path fill="#0072CD" d="M135.899,365.775c-0.363,0-0.727-0.138-1.004-0.416c-0.555-0.555-0.555-1.453,0-2.009l5.657-5.659
				c0.555-0.555,1.454-0.555,2.009,0c0.555,0.554,0.555,1.455,0,2.01l-5.658,5.658C136.626,365.637,136.262,365.775,135.899,365.775
				z"/>
		</g>
	</g>
	<g>
		<g>
			<circle fill="#D6EAFA" cx="323.143" cy="271.667" r="160.837"/>
		</g>
		<g>
			<path fill="#EAF5FE" d="M323.144,408.441c-75.416,0-136.772-61.357-136.772-136.773c0-75.416,61.356-136.771,136.772-136.771
				s136.772,61.355,136.772,136.771C459.916,347.083,398.56,408.441,323.144,408.441z M323.144,139.668
				c-72.786,0-132.001,59.215-132.001,132c0,72.786,59.216,132.002,132.001,132.002c72.786,0,132.001-59.216,132.001-132.002
				C455.145,198.883,395.93,139.668,323.144,139.668z"/>
		</g>
		<g>
			<path fill="#D6EAFA" d="M195.925,364.748h67.471c6.403,0,11.592,5.19,11.592,11.593v1.458c0,6.402-5.189,11.593-11.592,11.593
				h-67.471c-6.402,0-11.593-5.19-11.593-11.593v-1.458C184.333,369.938,189.523,364.748,195.925,364.748z"/>
		</g>
		<g>
			<path fill="#D6EAFA" d="M170.454,413.067h131.251c4.483,0,8.118,3.635,8.118,8.117l0,0c0,4.483-3.635,8.116-8.117,8.116H170.454
				c-4.483,0-8.117-3.633-8.117-8.116l0,0C162.336,416.702,165.97,413.067,170.454,413.067z"/>
		</g>
		<g>
			<path fill="#D6EAFA" d="M394.389,429.3h14.927c4.41,0,7.986,3.576,7.986,7.985l0,0c0,4.411-3.576,7.987-7.986,7.987h-14.927
				c-4.409,0-7.983-3.576-7.983-7.987l0,0C386.405,432.876,389.979,429.3,394.389,429.3z"/>
		</g>
		<g>
			<path fill="#D6EAFA" d="M386.976,382.058h72.682c7.233,0,13.099,5.865,13.099,13.1l0,0c0,7.234-5.865,13.1-13.099,13.1h-72.682
				c-7.232,0-13.1-5.865-13.1-13.1l0,0C373.876,387.923,379.743,382.058,386.976,382.058z"/>
		</g>
		<g>
			<path fill="#D6EAFA" d="M208.034,389.211h45.992c-3.398,0-6.487,1.47-8.712,3.694c-2.235,2.236-3.617,4.876-3.617,8.282
				c0,6.805,5.524,11.879,12.329,11.879h-45.992c3.397,0,6.477-0.901,8.711-3.116c2.226-2.225,3.605-5.16,3.605-8.567
				C220.35,394.57,214.837,389.211,208.034,389.211z"/>
		</g>
		<g>
			<path fill="#D6EAFA" d="M388.334,248.51h118.57c12.222,0,22.133,9.909,22.133,22.132l0,0c0,12.223-9.911,22.131-22.133,22.131
				h-118.57c-12.221,0-22.129-9.908-22.129-22.131l0,0C366.205,258.419,376.113,248.51,388.334,248.51z"/>
		</g>
		<g>
			<path fill="#D6EAFA" d="M346.113,335.771h175.683c7.922,0,14.344,6.422,14.344,14.344l0,0c0,7.923-6.422,14.344-14.345,14.344
				H346.113c-7.92,0-14.344-6.421-14.344-14.344l0,0C331.77,342.193,338.193,335.771,346.113,335.771z"/>
		</g>
		<g>
			<path fill="#D6EAFA" d="M418.546,292.773h82.609c-6.102,0-11.651,2.423-15.648,6.46c-4.014,4.054-6.493,8.827-6.493,15.008
				c0,12.342,9.921,21.53,22.142,21.53h-82.609c6.1,0,11.635-1.742,15.648-5.76c3.995-4.036,6.477-9.169,6.477-15.35
				C440.671,302.301,430.767,292.773,418.546,292.773z"/>
		</g>
		<g>
			<path fill="#D6EAFA" d="M289.233,229.265H150.295c-12.977,0-23.499-10.52-23.499-23.497l0,0
				c0-12.978,10.521-23.499,23.499-23.499h138.938c12.977,0,23.497,10.521,23.497,23.499l0,0
				C312.73,218.745,302.21,229.265,289.233,229.265z"/>
		</g>
		<g>
			<path fill="#D6EAFA" d="M347.104,365.308H146.325c-18.754,0-33.956-15.202-33.956-33.957l0,0
				c0-18.752,15.202-33.954,33.956-33.954h200.776c18.753,0,33.958,15.202,33.958,33.954v0.002
				C381.06,350.106,365.854,365.308,347.104,365.308z"/>
		</g>
		<g>
			<path fill="#D6EAFA" d="M460.711,175.28H349.864c-10.355,0-18.747-8.394-18.747-18.747l0,0c0-10.354,8.392-18.747,18.747-18.747
				h110.847c10.355,0,18.746,8.393,18.746,18.747l0,0C479.457,166.886,471.066,175.28,460.711,175.28z"/>
		</g>
		<g>
			<path fill="#D6EAFA" d="M312.903,125.128c2.27,0,4.482,0.171,6.641,0.484c-0.959-7.768-7.566-13.785-15.593-13.785h-84.253
				c-8.685,0-15.725,7.042-15.725,15.728c0,8.685,7.04,15.726,15.725,15.726h56.536
				C285.066,132.334,298.808,125.128,312.903,125.128z"/>
		</g>
		<g>
			<path fill="#D6EAFA" d="M426.613,110.831H400.29c-5.635,0-10.201-4.567-10.201-10.203l0,0c0-5.634,4.566-10.201,10.201-10.201
				h26.323c5.636,0,10.201,4.567,10.201,10.201l0,0C436.814,106.264,432.249,110.831,426.613,110.831z"/>
		</g>
	</g>
	<g>
		<g>
			<g>
				<rect x="357.561" y="355.146" fill="#FFFFFF" width="156.924" height="20.595"/>
			</g>
		</g>
		<g>
			<g>
				<path fill="#0072CD" d="M514.484,377.161H357.561c-0.785,0-1.421-0.637-1.421-1.42v-20.595c0-0.784,0.636-1.421,1.421-1.421
					h156.924c0.785,0,1.422,0.637,1.422,1.421v20.595C515.906,376.524,515.27,377.161,514.484,377.161z M358.98,374.32h154.084
					v-17.754H358.98V374.32z"/>
			</g>
		</g>
		<g>
			<g>
				<rect x="361.206" y="354.381" fill="#0072CD" width="2.842" height="12.501"/>
			</g>
			<g>
				<rect x="366.972" y="354.381" fill="#0072CD" width="2.841" height="7.144"/>
			</g>
			<g>
				<rect x="371.298" y="354.381" fill="#0072CD" width="2.841" height="12.501"/>
			</g>
			<g>
				<rect x="377.065" y="354.381" fill="#0072CD" width="2.842" height="7.144"/>
			</g>
			<g>
				<rect x="382.831" y="354.381" fill="#0072CD" width="2.841" height="12.501"/>
			</g>
			<g>
				<rect x="387.156" y="354.381" fill="#0072CD" width="2.841" height="7.144"/>
			</g>
			<g>
				<rect x="392.925" y="354.381" fill="#0072CD" width="2.842" height="12.501"/>
			</g>
			<g>
				<rect x="398.691" y="354.381" fill="#0072CD" width="2.841" height="7.144"/>
			</g>
			<g>
				<rect x="403.017" y="354.381" fill="#0072CD" width="2.841" height="12.501"/>
			</g>
			<g>
				<rect x="408.785" y="354.381" fill="#0072CD" width="2.841" height="7.144"/>
			</g>
			<g>
				<rect x="413.11" y="354.381" fill="#0072CD" width="2.841" height="12.501"/>
			</g>
			<g>
				<rect x="418.876" y="354.381" fill="#0072CD" width="2.841" height="7.144"/>
			</g>
			<g>
				<rect x="424.644" y="354.381" fill="#0072CD" width="2.842" height="12.501"/>
			</g>
			<g>
				<rect x="428.967" y="354.381" fill="#0072CD" width="2.842" height="7.144"/>
			</g>
			<g>
				<rect x="434.735" y="354.381" fill="#0072CD" width="2.841" height="12.501"/>
			</g>
			<g>
				<rect x="440.503" y="354.381" fill="#0072CD" width="2.841" height="7.144"/>
			</g>
			<g>
				<rect x="444.826" y="354.381" fill="#0072CD" width="2.842" height="12.501"/>
			</g>
			<g>
				<rect x="450.595" y="354.381" fill="#0072CD" width="2.841" height="7.144"/>
			</g>
			<g>
				<rect x="456.36" y="354.381" fill="#0072CD" width="2.842" height="12.501"/>
			</g>
			<g>
				<rect x="460.686" y="354.381" fill="#0072CD" width="2.842" height="7.144"/>
			</g>
			<g>
				<rect x="466.453" y="354.381" fill="#0072CD" width="2.842" height="12.501"/>
			</g>
			<g>
				<rect x="470.78" y="354.381" fill="#0072CD" width="2.841" height="7.144"/>
			</g>
			<g>
				<rect x="476.545" y="354.381" fill="#0072CD" width="2.842" height="12.501"/>
			</g>
			<g>
				<rect x="482.313" y="354.381" fill="#0072CD" width="2.842" height="7.144"/>
			</g>
			<g>
				<rect x="486.64" y="354.381" fill="#0072CD" width="2.841" height="12.501"/>
			</g>
			<g>
				<rect x="492.404" y="354.381" fill="#0072CD" width="2.842" height="7.144"/>
			</g>
			<g>
				<rect x="498.173" y="354.381" fill="#0072CD" width="2.842" height="12.501"/>
			</g>
			<g>
				<rect x="502.498" y="354.381" fill="#0072CD" width="2.842" height="7.144"/>
			</g>
			<g>
				<rect x="508.264" y="354.381" fill="#0072CD" width="2.841" height="12.501"/>
			</g>
		</g>
	</g>
	<g>
		<g>
			<rect x="102.265" y="374.034" fill="#0072CD" width="21.31" height="5.682"/>
		</g>
		<g>
			<rect x="524.179" y="374.034" fill="#0072CD" width="21.309" height="5.682"/>
		</g>
		<g>
			<rect x="138.728" y="374.034" fill="#0072CD" width="378.349" height="5.682"/>
		</g>
	</g>
	<g>
		<path fill="#0072CD" d="M434.927,234.655c-3.288,0-5.962-2.674-5.962-5.961c0-3.287,2.674-5.961,5.962-5.961
			c3.284,0,5.96,2.674,5.96,5.961C440.887,231.981,438.211,234.655,434.927,234.655z M434.927,225.574
			c-1.721,0-3.121,1.399-3.121,3.12s1.4,3.12,3.121,3.12c1.72,0,3.119-1.4,3.119-3.12S436.646,225.574,434.927,225.574z"/>
	</g>
	<g>
		<path fill="#0072CD" d="M304.243,166.907c-3.286,0-5.96-2.674-5.96-5.961s2.674-5.961,5.96-5.961c3.287,0,5.961,2.674,5.961,5.961
			S307.53,166.907,304.243,166.907z M304.243,157.825c-1.72,0-3.12,1.399-3.12,3.12c0,1.72,1.4,3.12,3.12,3.12
			c1.721,0,3.12-1.4,3.12-3.12C307.363,159.225,305.964,157.825,304.243,157.825z"/>
	</g>
	<g>
		<path fill="#0072CD" d="M196.259,216.467c-3.287,0-5.961-2.674-5.961-5.961s2.675-5.961,5.961-5.961
			c3.286,0,5.961,2.674,5.961,5.961S199.544,216.467,196.259,216.467z M196.259,207.386c-1.721,0-3.12,1.399-3.12,3.12
			c0,1.72,1.399,3.12,3.12,3.12c1.72,0,3.12-1.4,3.12-3.12C199.378,208.786,197.979,207.386,196.259,207.386z"/>
	</g>
	<g>
		<path fill="#0072CD" d="M371.863,173.134h-2.842c-0.785,0-1.42-0.636-1.42-1.42c0-0.785,0.635-1.421,1.42-1.421h2.842
			c0.785,0,1.42,0.636,1.42,1.421C373.283,172.498,372.648,173.134,371.863,173.134z M363.34,173.134h-2.841
			c-0.786,0-1.421-0.636-1.421-1.42c0-0.785,0.635-1.421,1.421-1.421h2.841c0.785,0,1.421,0.636,1.421,1.421
			C364.761,172.498,364.125,173.134,363.34,173.134z M354.816,173.134h-2.841c-0.786,0-1.421-0.636-1.421-1.42
			c0-0.785,0.635-1.421,1.421-1.421h2.841c0.784,0,1.421,0.636,1.421,1.421C356.237,172.498,355.601,173.134,354.816,173.134z
			 M346.293,173.134h-2.842c-0.784,0-1.421-0.636-1.421-1.42c0-0.785,0.637-1.421,1.421-1.421h2.842
			c0.785,0,1.421,0.636,1.421,1.421C347.714,172.498,347.078,173.134,346.293,173.134z M337.769,173.134h-2.84
			c-0.786,0-1.421-0.636-1.421-1.42c0-0.785,0.635-1.421,1.421-1.421h2.84c0.786,0,1.421,0.636,1.421,1.421
			C339.189,172.498,338.555,173.134,337.769,173.134z M329.246,173.134h-1.421c-0.785,0-1.42-0.636-1.42-1.42
			c0-0.785,0.635-1.421,1.42-1.421h1.421c0.785,0,1.421,0.636,1.421,1.421C330.667,172.498,330.031,173.134,329.246,173.134z"/>
	</g>
	<g>
		<g>
			<path fill="#0072CD" d="M449.076,208.293c-0.363,0-0.727-0.139-1.004-0.416l-5.658-5.658c-0.554-0.555-0.554-1.454,0-2.008
				c0.556-0.555,1.454-0.555,2.009,0l5.658,5.657c0.556,0.556,0.556,1.454,0,2.009C449.805,208.154,449.439,208.293,449.076,208.293
				z"/>
		</g>
		<g>
			<path fill="#0072CD" d="M443.419,208.293c-0.363,0-0.727-0.139-1.005-0.416c-0.554-0.556-0.554-1.454,0-2.009l5.658-5.657
				c0.556-0.555,1.454-0.555,2.009,0c0.556,0.555,0.556,1.454,0,2.008l-5.658,5.658
				C444.146,208.154,443.783,208.293,443.419,208.293z"/>
		</g>
	</g>
	<g>
		<g>
			<path fill="#0072CD" d="M375.548,195.129c-0.363,0-0.727-0.139-1.004-0.416l-5.657-5.658c-0.556-0.555-0.556-1.454,0-2.009
				c0.554-0.555,1.454-0.555,2.008,0l5.657,5.658c0.556,0.555,0.556,1.454,0,2.009C376.275,194.99,375.911,195.129,375.548,195.129z
				"/>
		</g>
		<g>
			<path fill="#0072CD" d="M369.891,195.129c-0.363,0-0.727-0.139-1.004-0.416c-0.556-0.555-0.556-1.454,0-2.009l5.657-5.658
				c0.555-0.555,1.453-0.555,2.008,0c0.556,0.555,0.556,1.454,0,2.009l-5.657,5.658C370.617,194.99,370.254,195.129,369.891,195.129
				z"/>
		</g>
	</g>
	<g>
		<g>
			<path fill="#0072CD" d="M272.065,214.755c-0.364,0-0.728-0.139-1.004-0.416l-5.659-5.657c-0.555-0.554-0.555-1.454,0-2.009
				c0.555-0.555,1.454-0.555,2.009,0l5.659,5.658c0.555,0.554,0.555,1.454,0,2.009C272.792,214.617,272.429,214.755,272.065,214.755
				z"/>
		</g>
		<g>
			<path fill="#0072CD" d="M266.407,214.755c-0.364,0-0.727-0.139-1.004-0.416c-0.555-0.555-0.555-1.455,0-2.009l5.659-5.658
				c0.554-0.555,1.454-0.555,2.009,0c0.555,0.555,0.555,1.455,0,2.009l-5.659,5.657C267.133,214.617,266.77,214.755,266.407,214.755
				z"/>
		</g>
	</g>
	<g>
		<g>
			<path fill="#0072CD" d="M248.437,172.609c-0.363,0-0.727-0.138-1.004-0.416l-5.658-5.659c-0.555-0.555-0.555-1.454,0-2.009
				c0.556-0.554,1.454-0.554,2.009,0l5.657,5.659c0.555,0.555,0.555,1.455,0,2.009C249.164,172.471,248.8,172.609,248.437,172.609z"
				/>
		</g>
		<g>
			<path fill="#0072CD" d="M242.78,172.609c-0.363,0-0.728-0.138-1.005-0.416c-0.555-0.554-0.555-1.454,0-2.009l5.658-5.659
				c0.555-0.554,1.454-0.554,2.008,0c0.555,0.555,0.555,1.455,0,2.009l-5.657,5.659C243.507,172.471,243.143,172.609,242.78,172.609
				z"/>
		</g>
	</g>
	<g>
		<g>
			<path fill="#0072CD" d="M486.562,315.239c-0.363,0-0.728-0.139-1.004-0.416l-5.658-5.657c-0.555-0.555-0.555-1.454,0-2.009
				s1.455-0.555,2.009,0l5.658,5.657c0.554,0.556,0.554,1.454,0,2.009C487.288,315.1,486.925,315.239,486.562,315.239z"/>
		</g>
		<g>
			<path fill="#0072CD" d="M480.904,315.239c-0.363,0-0.727-0.139-1.005-0.416c-0.555-0.555-0.555-1.453,0-2.009l5.658-5.657
				c0.555-0.555,1.454-0.555,2.009,0c0.554,0.555,0.554,1.454,0,2.009l-5.658,5.657C481.631,315.1,481.268,315.239,480.904,315.239z
				"/>
		</g>
	</g>
	<g>
		<g>
			<g>
				<g>
					<g>
						<g>
							<path fill="#54AAE3" d="M414.556,364.917V249.349c0-6.43-5.058-11.641-11.298-11.641H227.409
								c-6.239,0-11.297,5.211-11.297,11.641v115.569H414.556z"/>
						</g>
					</g>
				</g>
			</g>
			<g>
				<g>
					<path fill="#54AAE3" d="M395.943,306.679h54.396c5.607,0,10.151,4.547,10.151,10.154l0,0c0,5.607-4.544,10.154-10.151,10.154
						h-54.396c-5.607,0-10.151-4.547-10.151-10.154l0,0C385.792,311.226,390.336,306.679,395.943,306.679z"/>
				</g>
				<g>
					<path fill="#54AAE3" d="M400.957,266.823h29.575c5.607,0,10.151,4.545,10.151,10.152l0,0c0,5.607-4.544,10.153-10.151,10.153
						h-29.575c-5.607,0-10.154-4.546-10.154-10.153l0,0C390.803,271.368,395.35,266.823,400.957,266.823z"/>
				</g>
				<g>
					<path fill="#54AAE3" d="M382.845,345.071h80.594c3.635,0,6.581,3.322,6.581,7.423l0,0c0,4.099-2.946,7.422-6.581,7.422h-80.594
						c-3.634,0-6.581-3.323-6.581-7.422l0,0C376.264,348.393,379.211,345.071,382.845,345.071z"/>
				</g>
				<g>
					<path fill="#54AAE3" d="M441.622,247.956h29.163c3.632,0,6.578,2.947,6.578,6.582l0,0c0,3.635-2.946,6.582-6.578,6.582h-29.163
						c-3.636,0-6.579-2.947-6.579-6.582l0,0C435.043,250.903,437.986,247.956,441.622,247.956z"/>
				</g>
				<g>
					<path fill="#54AAE3" d="M404.073,326.04h39.144c-2.891,0-5.521,1.194-7.414,3.004c-1.902,1.815-3.076,3.961-3.076,6.729
						c0,5.529,4.7,9.652,10.49,9.652h-39.144c2.891,0,5.514-0.734,7.416-2.534c1.893-1.807,3.069-4.191,3.069-6.96
						C414.559,330.393,409.866,326.04,404.073,326.04z"/>
				</g>
			</g>
		</g>
		<g>
			<g>
				<g>
					<g>
						<rect x="224.896" y="248.135" fill="#FFFFFF" width="180.875" height="107.799"/>
					</g>
				</g>
			</g>
		</g>
		<g>
			<g>
				<g>
					<g>
						<path fill="#0072CD" d="M405.771,357.355H224.896c-0.786,0-1.421-0.636-1.421-1.421V248.135c0-0.784,0.635-1.42,1.421-1.42
							h180.875c0.784,0,1.421,0.636,1.421,1.42v107.799C407.192,356.719,406.556,357.355,405.771,357.355z M226.317,354.514h178.034
							V249.555H226.317V354.514z"/>
					</g>
				</g>
			</g>
		</g>
		<g>
			<g>
				<g>
					<g>
						<ellipse fill="#FFFFFF" cx="315.176" cy="242.804" rx="2.95" ry="3.02"/>
					</g>
				</g>
			</g>
		</g>
		<g>
			<g>
				<g>
					<g>
						<ellipse fill="#0072CD" cx="320.147" cy="242.804" rx="1.296" ry="1.327"/>
					</g>
				</g>
			</g>
		</g>
		<g>
			<g>
				<g>
					<g>
						<path fill="#FFFFFF" d="M204.686,364.917v5.491c0,3.034,2.403,5.492,5.365,5.492h210.564c2.963,0,5.366-2.458,5.366-5.492
							v-5.491H204.686z"/>
					</g>
				</g>
			</g>
		</g>
		<g>
			<g>
				<g>
					<g>
						<path fill="#0072CD" d="M420.615,377.322H210.051c-3.742,0-6.785-3.101-6.785-6.913v-5.491c0-0.785,0.635-1.42,1.42-1.42
							h221.295c0.785,0,1.421,0.635,1.421,1.42v5.491C427.402,374.221,424.358,377.322,420.615,377.322z M206.107,366.339v4.069
							c0,2.245,1.769,4.072,3.944,4.072h210.564c2.176,0,3.946-1.827,3.946-4.072v-4.069H206.107z"/>
					</g>
				</g>
			</g>
		</g>
		<g>
			<g>
				<path fill="#0072CD" d="M414.556,366.446H215.941c-0.785,0-1.42-0.637-1.42-1.421V248.748c0-7.337,4.867-12.461,11.835-12.461
					h177.957c6.977,0,11.664,5.008,11.664,12.461v15.548h14.556c6.381,0,11.572,5.207,11.572,11.606s-5.191,11.605-11.572,11.605
					h-14.556v17.53h34.363c6.354,0,11.366,4.933,11.47,11.249c0,0.022,0,0.045,0,0.068c0,0.011,0,0.021,0,0.032
					c0,0.008,0,0.017,0,0.023c-0.039,6.536-5.186,11.839-11.47,11.839h-8.491c-1.928,0-3.587,0.648-4.8,1.873
					c-1.74,1.758-2.569,2.995-2.569,5.264c0,4.62,3.594,7.847,8.737,7.847h20.222c4.581,0,8.002,4.782,8.002,9.06
					c0,4.276-3.421,9.06-8.002,9.06h-47.462v3.672C415.977,365.809,415.342,366.446,414.556,366.446z M217.362,363.605h195.773
					v-3.673c0-0.785,0.636-1.421,1.421-1.421h48.883c2.857,0,5.16-3.401,5.16-6.218c0-2.815-2.303-6.219-5.16-6.219h-20.222
					c-6.708,0-11.578-4.493-11.578-10.688c0-3.542,1.604-5.456,3.391-7.263c1.756-1.776,4.115-2.715,6.819-2.715h8.491
					c4.646,0,8.602-4.122,8.628-8.998c-0.026-4.776-3.818-8.531-8.628-8.531h-35.784c-0.785,0-1.421-0.637-1.421-1.421v-20.371
					c0-0.784,0.636-1.421,1.421-1.421h15.977c4.816,0,8.731-3.931,8.731-8.765c0-4.832-3.915-8.766-8.731-8.766h-15.977
					c-0.785,0-1.421-0.635-1.421-1.42v-16.969c0-5.844-3.462-9.62-8.822-9.62H226.356c-5.381,0-8.994,3.866-8.994,9.62V363.605z"/>
			</g>
			<g>
				<path fill="#0072CD" d="M470.785,262.046h-29.163c-4.381,0-7.894-3.217-8.107-7.369c-0.006-0.056-0.01-0.114-0.01-0.172v-0.23
					c0-0.069,0.007-0.138,0.015-0.205c0.255-4.241,3.82-7.597,8.103-7.597h29.163c4.486,0,7.999,3.421,7.999,7.787
					S475.271,262.046,470.785,262.046z M441.622,249.314c-2.858,0-5.225,2.289-5.275,5.102c0.048,2.663,2.366,4.788,5.275,4.788
					h29.163c2.892,0,5.158-2.172,5.158-4.944c0-2.773-2.267-4.946-5.158-4.946H441.622z"/>
			</g>
		</g>
		<g>
			<path fill="#0072CD" d="M473.121,295.149h-30.556c-0.786,0-1.421-0.636-1.421-1.421s0.635-1.421,1.421-1.421h30.556
				c0.785,0,1.421,0.636,1.421,1.421S473.906,295.149,473.121,295.149z"/>
		</g>
		<g>
			<path fill="#0072CD" d="M478.212,333.344h-10.185c-0.785,0-1.421-0.637-1.421-1.422s0.636-1.42,1.421-1.42h10.185
				c0.785,0,1.422,0.635,1.422,1.42S478.997,333.344,478.212,333.344z"/>
		</g>
		<g>
			<path fill="#0072CD" d="M473.121,278.665h-10.186c-0.785,0-1.42-0.635-1.42-1.421c0-0.785,0.635-1.42,1.42-1.42h10.186
				c0.785,0,1.421,0.635,1.421,1.42C474.542,278.03,473.906,278.665,473.121,278.665z"/>
		</g>
	</g>
	<g>
		<g>
			<path fill="#EAF5FE" d="M375.681,275.735c-0.207-1.662-1.723-3.238-3.371-3.534l-6.484-1.123
				c-1.664-0.299-3.435-1.821-3.976-3.433l-2.613-6.423c-0.719-1.5-0.541-3.848,0.47-5.203l3.855-5.366
				c0.969-1.354,0.949-3.572-0.066-4.882l-3.49-4.14c-1.154-1.214-3.305-1.623-4.82-0.881l-5.931,2.913
				c-1.519,0.719-3.827,0.504-5.143-0.505c0,0-1.01-0.783-2.904-1.961c-1.876-1.156-3.03-1.713-3.03-1.713
				c-1.476-0.76-2.707-2.716-2.722-4.39l-0.022-6.633c-0.033-1.653-1.349-3.437-2.951-3.909l-5.235-1.285
				c-1.627-0.316-3.615,0.623-4.413,2.101l-1.003,1.9l-1.208,2.303l-0.86,1.63c-0.798,1.476-2.814,2.707-4.487,2.723l-2.552,0.164
				l-1.15,0.086l-3.214,0.247c-1.68,0.23-3.833-0.685-4.83-2.053l-3.887-5.297c-0.996-1.365-3.099-2.023-4.668-1.462l-5.013,2.029
				c-1.537,0.719-2.58,2.654-2.35,4.295l0.937,6.54c0.229,1.68-0.683,3.832-2.052,4.808l-5.312,4.51
				c-1.197,1.156-3.467,1.681-5.067,1.172l-6.288-2.016c-1.601-0.505-3.7,0.178-4.691,1.53c0,0-0.481,0.652-1.477,2.279
				c-1.019,1.665-1.386,2.336-1.386,2.336c-0.775,1.478-0.468,3.684,0.691,4.861l4.6,4.75c1.157,1.2,1.699,3.507,1.211,5.087
				l-1.698,6.786c-0.295,1.627-1.818,3.394-3.409,3.935l-6.26,2.073c-1.589,0.524-2.842,2.319-2.807,3.972l0.384,5.437
				c0.208,1.658,1.722,3.234,3.367,3.531l6.49,1.122c1.662,0.298,3.432,1.825,3.973,3.431l2.614,6.429
				c0.737,1.501,0.538,3.849-0.429,5.204l-3.876,5.384c-0.988,1.335-0.95,3.554,0.088,4.865l3.45,4.138
				c1.154,1.216,3.302,1.623,4.82,0.882l5.931-2.918c1.498-0.738,3.806-0.501,5.143,0.505c0,0,1.049,0.788,2.905,1.965
				c1.875,1.157,3.045,1.75,3.045,1.75c1.48,0.721,2.712,2.68,2.727,4.373l0.021,6.612c0.014,1.653,1.33,3.438,2.931,3.909
				l5.236,1.285c1.626,0.317,3.616-0.627,4.413-2.1l3.09-5.833c0.778-1.479,2.794-2.691,4.468-2.724l6.919-0.498
				c1.679-0.229,3.836,0.685,4.829,2.05l3.887,5.297c0.992,1.368,3.097,2.028,4.67,1.466l5.03-2.066
				c1.518-0.682,2.558-2.614,2.331-4.277l-0.939-6.52c-0.226-1.679,0.686-3.835,2.054-4.808l5.313-4.513
				c1.216-1.154,3.504-1.694,5.086-1.167l6.29,1.993c1.581,0.526,3.68-0.178,4.67-1.515c0,0,0.482-0.646,1.498-2.271
				c1.035-1.664,1.364-2.358,1.364-2.358c0.777-1.456,0.467-3.663-0.688-4.878l-4.584-4.713c-1.173-1.219-1.717-3.509-1.21-5.089
				l1.677-6.767c0.297-1.644,1.82-3.411,3.409-3.952l6.28-2.073c1.569-0.542,2.86-2.318,2.787-4.012L375.681,275.735z
				 M344.521,300.999c-10.014,16.116-31.188,21.046-47.323,11.033c-16.095-10.015-21.064-31.173-11.032-47.304
				c5.708-9.206,15.052-14.738,25.025-15.975c1.13-0.145,2.3-0.209,3.446-0.201c1.073-0.051,2.123-0.022,3.169,0.083
				c1.166,0.053,2.291,0.176,3.454,0.382c4.201,0.715,8.341,2.262,12.209,4.659C349.584,263.688,354.533,284.867,344.521,300.999z"
				/>
		</g>
		<g>
			<g>
				<g>
					<g>
						<g>
							<g>
								<g>
									<path fill-rule="evenodd" clip-rule="evenodd" fill="#FFFFFF" d="M316.384,204.452c-0.026-4.335,1.621-8.29,4.335-11.251
										h1.396c-1.102,1.933-1.628,4.195-1.727,6.404c-0.141,3.124,1.498,6.695,3.675,8.872c2.274,2.275,5.654,3.673,8.872,3.673
										c3.399,0,6.416-1.42,8.871-3.673c2.463-2.261,3.529-5.626,3.673-8.872c0.098-2.122-0.63-4.448-1.786-6.404h1.398
										c2.669,2.915,4.308,6.791,4.334,11.053c0.038,6.691-3.904,12.472-9.609,15.105l0.239,107.37
										c5.735,2.563,9.747,8.296,9.788,14.986c0.025,4.074-1.429,7.813-3.856,10.707h-1.611c0.815-1.739,1.223-3.685,1.31-5.589
										c0.139-3.127-1.499-6.697-3.677-8.872c-2.275-2.275-5.654-3.675-8.87-3.675c-3.399,0-6.418,1.422-8.87,3.675
										c-2.465,2.261-3.532,5.627-3.677,8.872c-0.08,1.835,0.453,3.821,1.347,5.589h-1.277c-2.387-2.844-3.835-6.503-3.858-10.508
										c-0.04-6.691,3.904-12.473,9.607-15.104l-0.238-107.371C320.437,216.876,316.424,211.143,316.384,204.452z"/>
								</g>
							</g>
						</g>
					</g>
				</g>
				<g>
					<g>
						<g>
							<g>
								<g>
									<path fill="#0072CD" d="M345.987,353.842h-1.611c-0.485,0-0.938-0.248-1.199-0.657c-0.261-0.412-0.294-0.929-0.086-1.366
										c0.686-1.464,1.09-3.209,1.174-5.051c0.116-2.563-1.224-5.77-3.26-7.803c-2.01-2.011-5.025-3.26-7.866-3.26
										c-2.822,0-5.558,1.142-7.91,3.302c-2.6,2.385-3.131,5.966-3.218,7.887c-0.063,1.431,0.323,3.079,1.089,4.67
										c0.18,0.237,0.287,0.535,0.287,0.857c0,0.786-0.636,1.421-1.421,1.421c-0.007,0-0.019-0.001-0.027,0h-1.277
										c-0.421,0-0.819-0.187-1.089-0.508c-2.678-3.19-4.165-7.244-4.19-11.414c-0.04-6.71,3.701-12.89,9.604-15.993
										l-0.232-105.593c-5.938-3.032-9.75-9.165-9.791-15.874c-0.027-4.535,1.644-8.875,4.709-12.218
										c0.269-0.294,0.649-0.462,1.047-0.462h1.396c0.507,0,0.974,0.269,1.228,0.707c0.256,0.438,0.258,0.978,0.008,1.417
										c-0.913,1.6-1.445,3.593-1.542,5.763c-0.115,2.562,1.226,5.771,3.259,7.805c2.009,2.009,5.024,3.257,7.868,3.257
										c2.822,0,5.558-1.141,7.908-3.299c2.6-2.385,3.133-5.966,3.219-7.89c0.077-1.727-0.503-3.774-1.593-5.617
										c-0.258-0.438-0.264-0.983-0.009-1.426c0.253-0.443,0.722-0.717,1.232-0.717h1.398c0.396,0,0.776,0.167,1.046,0.46
										c3.011,3.285,4.681,7.547,4.708,12.004c0.039,6.712-3.704,12.892-9.608,15.995l0.236,105.592
										c5.937,3.034,9.749,9.165,9.791,15.874c0.025,4.248-1.462,8.377-4.187,11.629
										C346.806,353.656,346.409,353.842,345.987,353.842z M333.139,332.866c3.567,0,7.353,1.566,9.875,4.091
										c2.597,2.595,4.239,6.589,4.09,9.938c-0.02,0.449-0.057,0.893-0.109,1.33c0.946-2.019,1.443-4.241,1.43-6.502
										c-0.036-5.908-3.549-11.284-8.948-13.698c-0.51-0.228-0.841-0.734-0.841-1.293l-0.238-107.37
										c-0.003-0.556,0.318-1.06,0.824-1.293c5.371-2.479,8.819-7.899,8.784-13.807c-0.012-1.939-0.395-3.835-1.11-5.597
										c0.018,0.339,0.02,0.674,0.006,1.003c-0.183,4.077-1.65,7.576-4.134,9.855c-2.886,2.647-6.285,4.047-9.831,4.047
										c-3.571,0-7.354-1.566-9.876-4.089c-2.598-2.596-4.24-6.591-4.09-9.94c0.019-0.418,0.051-0.831,0.097-1.24
										c-0.839,1.917-1.275,4.003-1.262,6.143c0.036,5.909,3.547,11.286,8.946,13.698c0.511,0.228,0.842,0.734,0.842,1.294
										l0.237,107.371c0,0.555-0.321,1.061-0.826,1.293c-5.369,2.479-8.816,7.896-8.781,13.806
										c0.011,1.769,0.335,3.514,0.942,5.153c0.002-0.098,0.004-0.194,0.008-0.289c0.183-4.074,1.649-7.575,4.135-9.854
										C326.191,334.265,329.593,332.866,333.139,332.866z"/>
								</g>
							</g>
						</g>
					</g>
				</g>
				<g>
					<path fill="#0072CD" d="M333.113,300.929c-0.785,0-1.42-0.636-1.42-1.42v-50.288c0-0.785,0.635-1.421,1.42-1.421
						s1.421,0.636,1.421,1.421v50.288C334.534,300.293,333.898,300.929,333.113,300.929z"/>
				</g>
			</g>
			<g>
				<g id="XMLID_1545_">
					<g id="XMLID_1548_">
						<g>
							<g>
								<g>
									<path fill-rule="evenodd" clip-rule="evenodd" fill="#FFFFFF" d="M309.036,198.057c-0.299-0.756-9.392-15.023-9.392-15.023
										s-8.703,13.842-9.271,15.023H309.036z"/>
								</g>
							</g>
						</g>
					</g>
					<g id="XMLID_1547_">
						<g>
							<g>
								<g>
									<path fill="#0072CD" d="M309.036,199.478h-18.664c-0.489,0-0.944-0.251-1.203-0.666c-0.26-0.413-0.289-0.932-0.078-1.372
										c0.587-1.217,8.455-13.739,9.35-15.162c0.259-0.412,0.711-0.663,1.198-0.665c0.002,0,0.003,0,0.005,0
										c0.485,0,0.936,0.248,1.198,0.657c3.423,5.371,9.212,14.496,9.516,15.265c0.172,0.438,0.117,0.933-0.147,1.321
										C309.945,199.245,309.505,199.478,309.036,199.478z M292.855,196.636h13.687c-1.606-2.604-4.511-7.202-6.89-10.944
										C297.309,189.431,294.449,194.019,292.855,196.636z"/>
								</g>
							</g>
						</g>
					</g>
					<g id="XMLID_1546_">
						<g>
							<g>
								<g>
									<polygon fill-rule="evenodd" clip-rule="evenodd" fill="#0072CD" points="295.191,190.26 304.14,190.232 299.644,183.034 
																			"/>
								</g>
							</g>
						</g>
					</g>
				</g>
				<g id="XMLID_1544_">
					<g>
						<g>
							<g>
								<polygon fill-rule="evenodd" clip-rule="evenodd" fill="#92D0EF" points="308.837,198.589 290.316,198.646 290.358,341.571 
									308.837,341.571 								"/>
							</g>
						</g>
					</g>
				</g>
				<g id="XMLID_1543_">
					<g>
						<g>
							<g>
								<path fill="#0072CD" d="M308.837,342.993h-18.479c-0.784,0-1.421-0.638-1.421-1.419l-0.042-142.927
									c0-0.783,0.632-1.419,1.416-1.422l18.521-0.057c0.001,0,0.002,0,0.004,0c0.375,0,0.736,0.149,1.003,0.415
									c0.268,0.267,0.417,0.629,0.417,1.006v142.981C310.257,342.355,309.622,342.993,308.837,342.993z M291.778,340.151h15.638
									V200.014l-15.679,0.049L291.778,340.151z"/>
							</g>
						</g>
					</g>
				</g>
				<g id="XMLID_1539_">
					<g>
						<g>
							<g>
								<polygon fill-rule="evenodd" clip-rule="evenodd" fill="#92D0EF" points="302.758,198.589 296.397,198.646 296.411,341.571 
									302.758,341.571 								"/>
							</g>
						</g>
					</g>
				</g>
				<g id="XMLID_1538_">
					<g>
						<g>
							<g>
								<path fill="#0072CD" d="M302.758,342.993h-6.347c-0.786,0-1.421-0.638-1.421-1.422l-0.014-142.924
									c0-0.78,0.628-1.414,1.408-1.421l6.361-0.057c0.375-0.012,0.744,0.145,1.013,0.412c0.269,0.267,0.42,0.63,0.42,1.009
									v142.981C304.178,342.355,303.542,342.993,302.758,342.993z M297.832,340.151h3.506V200.022l-3.52,0.032L297.832,340.151z"
									/>
							</g>
						</g>
					</g>
				</g>
				<g>
					<g>
						<g>
							<path fill-rule="evenodd" clip-rule="evenodd" fill="#54AAE3" d="M290.292,341.571v7.169c0,2.024,1.657,3.682,3.682,3.682
								h11.381c2.025,0,3.682-1.657,3.682-3.682v-7.169H290.292z"/>
						</g>
					</g>
				</g>
				<g>
					<g>
						<g>
							<path fill="#0072CD" d="M305.356,353.842h-11.381c-2.813,0-5.103-2.289-5.103-5.103v-7.169c0-0.783,0.636-1.42,1.42-1.42
								h18.746c0.785,0,1.42,0.637,1.42,1.42v7.169C310.458,351.553,308.169,353.842,305.356,353.842z M291.713,342.993v5.747
								c0,1.247,1.014,2.261,2.261,2.261h11.381c1.248,0,2.261-1.014,2.261-2.261v-5.747H291.713z"/>
						</g>
					</g>
				</g>
			</g>
		</g>
		<g>
			<path fill="#EAF5FE" d="M363.12,303.024c-0.484-0.504-0.854-1.194-1.096-1.938h-17.563c-10.036,16.045-31.16,20.94-47.265,10.946
				c-4.601-2.862-8.289-6.64-10.98-10.946h-16.179l1.39,3.419c0.737,1.501,0.538,3.849-0.429,5.204l-3.876,5.384
				c-0.988,1.335-0.95,3.554,0.088,4.865l3.45,4.138c1.154,1.216,3.302,1.623,4.82,0.882l5.931-2.918
				c1.498-0.738,3.806-0.501,5.143,0.505c0,0,1.049,0.788,2.905,1.965c1.875,1.157,3.045,1.75,3.045,1.75
				c1.48,0.721,2.712,2.68,2.727,4.373l0.021,6.612c0.014,1.653,1.33,3.438,2.931,3.909l5.236,1.285
				c1.626,0.317,3.616-0.627,4.413-2.1l3.09-5.833c0.778-1.479,2.794-2.691,4.468-2.724l6.919-0.498
				c1.679-0.229,3.836,0.685,4.829,2.05l3.887,5.297c0.992,1.368,3.097,2.028,4.67,1.466l5.03-2.066
				c1.518-0.682,2.558-2.614,2.331-4.277l-0.939-6.52c-0.226-1.679,0.686-3.835,2.054-4.808l5.313-4.513
				c1.216-1.154,3.504-1.694,5.086-1.168l6.29,1.994c1.581,0.526,3.68-0.178,4.67-1.513c0,0,0.482-0.648,1.498-2.273
				c1.035-1.664,1.364-2.358,1.364-2.358c0.777-1.456,0.467-3.663-0.688-4.878L363.12,303.024z"/>
		</g>
		<g id="XMLID_1549_">
			<g id="XMLID_1555_">
				<path fill="#0072CD" d="M304.07,343.94c-0.312,0-0.621-0.028-0.923-0.087l-5.303-1.301c-2.259-0.66-3.994-2.972-4.014-5.277
					l-0.021-6.621c-0.01-1.131-0.928-2.61-1.927-3.098c-0.071-0.035-1.267-0.645-3.17-1.817c-1.896-1.204-2.967-2.005-3.011-2.04
					c-0.914-0.686-2.658-0.86-3.662-0.365l-5.932,2.918c-2.056,1.004-4.898,0.485-6.476-1.178l-3.513-4.208
					c-1.445-1.824-1.497-4.781-0.137-6.618l3.865-5.37c0.664-0.93,0.812-2.719,0.306-3.746l-2.655-6.521
					c-0.406-1.198-1.751-2.36-2.907-2.567l-6.48-1.121c-2.263-0.409-4.252-2.495-4.535-4.754l-0.392-5.514
					c-0.051-2.355,1.61-4.705,3.779-5.421l6.258-2.071c1.078-0.368,2.254-1.723,2.457-2.841l1.719-6.877
					c0.361-1.174-0.057-2.928-0.855-3.755l-4.599-4.749c-1.585-1.612-1.997-4.474-0.929-6.51c0.013-0.021,0.388-0.71,1.432-2.417
					c1.017-1.661,1.526-2.354,1.547-2.382c1.341-1.828,4.095-2.726,6.262-2.041l6.294,2.018c1.093,0.346,2.832-0.053,3.646-0.841
					l5.38-4.569c1.038-0.746,1.723-2.363,1.563-3.534l-0.935-6.53c-0.318-2.269,1.068-4.808,3.155-5.784l0.563-0.23
					c0.729-0.292,1.555,0.057,1.85,0.785c0.294,0.728-0.057,1.556-0.784,1.85l-0.494,0.2c-0.9,0.423-1.623,1.736-1.476,2.78
					l0.937,6.537c0.304,2.232-0.828,4.878-2.633,6.166l-5.217,4.435c-1.516,1.469-4.305,2.115-6.417,1.444l-6.292-2.017
					c-1.018-0.32-2.479,0.153-3.112,1.017c-0.007,0.008-0.473,0.646-1.412,2.181c-0.974,1.594-1.339,2.254-1.352,2.278
					c-0.481,0.916-0.268,2.444,0.458,3.182l4.608,4.757c1.511,1.566,2.189,4.417,1.547,6.495l-1.677,6.709
					c-0.372,2.064-2.24,4.227-4.328,4.937l-6.271,2.077c-0.982,0.323-1.856,1.561-1.834,2.593l0.38,5.367
					c0.124,0.964,1.157,2.044,2.203,2.232l6.48,1.121c2.189,0.394,4.368,2.273,5.076,4.377l2.585,6.346
					c0.92,1.865,0.68,4.786-0.588,6.565l-3.88,5.389c-0.613,0.829-0.583,2.354,0.049,3.154l3.428,4.108
					c0.674,0.707,2.157,0.978,3.104,0.516l5.927-2.916c1.955-0.962,4.862-0.682,6.624,0.645c0.009,0.007,1.034,0.773,2.811,1.899
					c1.777,1.098,2.916,1.679,2.929,1.684c1.937,0.943,3.485,3.419,3.503,5.626l0.021,6.622c0.008,1.038,0.919,2.26,1.911,2.551
					l5.175,1.268c0.951,0.178,2.326-0.476,2.825-1.396l3.083-5.823c1.005-1.905,3.508-3.436,5.696-3.479l6.844-0.495
					c2.12-0.283,4.772,0.836,6.079,2.633l3.885,5.291c0.621,0.858,2.067,1.318,3.044,0.969l4.972-2.042
					c0.889-0.398,1.604-1.729,1.463-2.77l-0.938-6.512c-0.302-2.236,0.833-4.883,2.636-6.168l5.217-4.437
					c1.542-1.468,4.403-2.118,6.459-1.431l6.265,1.984c0.997,0.331,2.468-0.148,3.1-1.006c0.006-0.007,0.477-0.644,1.438-2.179
					c0.957-1.544,1.284-2.213,1.288-2.22c0.519-0.974,0.296-2.514-0.437-3.286l-4.572-4.7c-1.532-1.591-2.209-4.448-1.546-6.513
					l1.651-6.674c0.371-2.077,2.241-4.245,4.331-4.957l6.293-2.075c1.002-0.348,1.858-1.566,1.814-2.603l-0.383-5.358
					c-0.123-0.967-1.157-2.047-2.206-2.236l-6.476-1.12c-2.189-0.393-4.37-2.275-5.078-4.378l-2.583-6.344
					c-0.921-1.916-0.651-4.842,0.644-6.585l3.843-5.347c0.61-0.853,0.594-2.371-0.036-3.183l-3.454-4.094
					c-0.68-0.714-2.161-0.985-3.107-0.521l-5.932,2.912c-2.01,0.953-4.914,0.663-6.632-0.652c-0.014-0.011-0.992-0.765-2.792-1.883
					c-0.427-0.263-0.823-0.499-1.173-0.701c-0.68-0.394-0.91-1.263-0.516-1.941c0.392-0.68,1.262-0.912,1.939-0.518
					c0.369,0.214,0.787,0.461,1.245,0.743c1.942,1.208,2.988,2.015,3.03,2.049c0.877,0.67,2.625,0.835,3.662,0.344l5.916-2.904
					c2.05-1.004,4.894-0.487,6.476,1.177l3.545,4.203c1.441,1.853,1.482,4.744,0.137,6.624l-3.856,5.368
					c-0.691,0.925-0.847,2.708-0.341,3.76l2.646,6.503c0.407,1.198,1.754,2.362,2.91,2.568l6.479,1.121
					c2.264,0.409,4.253,2.498,4.536,4.758l0.391,5.473c0.101,2.318-1.546,4.695-3.739,5.456l-6.299,2.077
					c-1.1,0.375-2.253,1.71-2.458,2.857l-1.696,6.855c-0.374,1.174,0.045,2.923,0.855,3.763l4.578,4.707
					c1.589,1.673,1.989,4.539,0.92,6.537c-0.005,0.02-0.363,0.756-1.408,2.438c-1.037,1.66-1.546,2.345-1.567,2.372
					c-1.362,1.843-4.112,2.726-6.258,2.012l-6.268-1.985c-1.09-0.36-2.835,0.04-3.681,0.842l-5.372,4.564
					c-1.019,0.733-1.721,2.384-1.565,3.538l0.938,6.506c0.316,2.306-1.072,4.839-3.154,5.775l-5.075,2.086
					c-2.226,0.795-4.992-0.067-6.356-1.945l-3.885-5.292c-0.691-0.952-2.314-1.637-3.491-1.483l-7.007,0.508
					c-1.241,0.027-2.784,0.963-3.314,1.968l-3.091,5.836C308.139,342.776,306.061,343.94,304.07,343.94z"/>
			</g>
			<g id="XMLID_1553_">
				<path fill="#0072CD" d="M308.692,235.815c-0.735,0-1.358-0.566-1.415-1.312c-0.06-0.782,0.526-1.465,1.308-1.524l6.597-0.472
					c1.226-0.014,2.775-0.958,3.329-1.981l3.064-5.821c0.877-1.625,2.762-2.789,4.692-2.907c0.811-0.044,1.459,0.547,1.507,1.331
					c0.048,0.783-0.55,1.457-1.332,1.504c-0.96,0.059-1.95,0.651-2.36,1.41l-3.064,5.822c-1.046,1.935-3.56,3.459-5.729,3.48
					l-6.487,0.466C308.766,235.814,308.729,235.815,308.692,235.815z"/>
			</g>
			<g id="XMLID_1552_">
				<path fill="#0072CD" d="M326.238,251.691c-0.15,0-0.3-0.024-0.45-0.075c-1.563-0.522-3.166-0.926-4.768-1.197
					c-1.098-0.196-2.167-0.314-3.278-0.365c-1.062-0.104-2.029-0.13-3.039-0.083c-1.188-0.006-2.291,0.057-3.331,0.19
					c-0.67,0.083-1.331,0.185-1.985,0.307c-0.784,0.146-1.514-0.365-1.658-1.135c-0.143-0.771,0.365-1.514,1.136-1.657
					c0.713-0.133,1.429-0.243,2.151-0.332c1.159-0.15,2.39-0.224,3.63-0.212c1.073-0.053,2.176-0.023,3.302,0.09
					c1.155,0.05,2.347,0.182,3.56,0.398c1.733,0.295,3.48,0.733,5.182,1.303c0.743,0.249,1.146,1.055,0.896,1.798
					C327.387,251.315,326.832,251.691,326.238,251.691z"/>
			</g>
			<g id="XMLID_1550_">
				<path fill="#0072CD" d="M315.287,318.618c-6.446,0-12.968-1.735-18.838-5.379c-16.749-10.421-21.901-32.518-11.49-49.262
					c1.266-2.042,2.741-3.962,4.381-5.702c0.537-0.569,1.438-0.597,2.008-0.058c0.571,0.538,0.598,1.437,0.059,2.007
					c-1.509,1.601-2.866,3.368-4.034,5.253c-9.586,15.413-4.842,35.757,10.576,45.348c15.436,9.58,35.787,4.837,45.365-10.577
					c7.954-12.818,6.224-29.351-4.213-40.203c-0.544-0.566-0.523-1.465,0.039-2.009c0.569-0.544,1.465-0.525,2.009,0.04
					c11.337,11.79,13.218,29.749,4.578,43.672C338.966,312.629,327.259,318.616,315.287,318.618z"/>
			</g>
		</g>
	</g>
	<g>
		<g>
			<polygon fill="#54AAE3" points="196.98,263.057 183.266,249.45 190.301,242.415 204.015,256.022 			"/>
		</g>
		<g>
			<path fill="#54AAE3" d="M247.917,314.097l-45.366-45.365l7.034-7.034l45.365,45.366
				C252.606,309.409,250.261,311.754,247.917,314.097z"/>
		</g>
		<g>
			<path fill="#0072CD" d="M196.98,264.478c-0.363,0-0.725-0.138-1-0.413l-13.714-13.606c-0.269-0.267-0.419-0.627-0.42-1.006
				c-0.001-0.377,0.148-0.74,0.416-1.007l7.035-7.035c0.555-0.553,1.452-0.553,2.005-0.004l13.713,13.607
				c0.27,0.266,0.419,0.628,0.421,1.005c0.001,0.378-0.149,0.74-0.417,1.007l-7.035,7.035
				C197.707,264.338,197.343,264.478,196.98,264.478z M185.279,249.446l11.696,11.605l5.026-5.026l-11.696-11.604L185.279,249.446z"
				/>
		</g>
		<g>
			<path fill="#0072CD" d="M247.917,315.518c-0.364,0-0.727-0.139-1.004-0.416l-45.366-45.365c-0.555-0.556-0.555-1.455,0-2.01
				l7.034-7.033c0.554-0.555,1.454-0.555,2.008,0l45.366,45.366c0.555,0.555,0.555,1.454,0,2.008l-7.033,7.036
				C248.644,315.379,248.28,315.518,247.917,315.518z M204.56,268.732l43.357,43.356l5.024-5.024l-43.356-43.357L204.56,268.732z"/>
		</g>
		<g>
			<path fill="#EAF5FE" d="M242.24,308.42l-45.365-45.365l7.033-7.034l45.366,45.365C246.929,303.731,244.584,306.077,242.24,308.42
				z"/>
		</g>
		<g>
			<path fill="#0072CD" d="M242.24,309.841c-0.363,0-0.727-0.139-1.004-0.416l-45.366-45.366c-0.555-0.554-0.555-1.453,0-2.008
				l7.033-7.033c0.555-0.555,1.454-0.555,2.009,0l45.366,45.366c0.555,0.555,0.555,1.453,0,2.009l-7.033,7.033
				C242.967,309.703,242.603,309.841,242.24,309.841z M198.883,263.056l43.356,43.357l5.025-5.025l-43.357-43.357L198.883,263.056z"
				/>
		</g>
		<g>
			<polygon fill="#FFFFFF" points="174.855,251.67 172.687,256.062 167.841,256.767 171.348,260.184 170.521,265.012 
				174.855,262.734 179.192,265.012 178.362,260.184 181.87,256.767 177.023,256.062 			"/>
		</g>
		<g>
			<polygon fill="#FFFFFF" points="187.222,233.184 190.229,234.413 190.923,237.591 193.022,235.113 196.259,235.437 
				194.548,232.671 195.857,229.695 192.697,230.466 190.272,228.304 190.031,231.544 			"/>
		</g>
		<g>
			<polygon fill="#FFFFFF" points="175.002,238.063 176.008,241.021 174.138,243.525 177.263,243.484 179.066,246.033 
				179.993,243.052 182.974,242.124 180.424,240.322 180.464,237.199 177.963,239.067 			"/>
		</g>
		<g>
			<polygon fill="#FFFFFF" points="205.603,243.052 203.359,244.747 200.692,243.861 201.611,246.517 199.943,248.781 
				202.755,248.73 204.391,251.015 205.21,248.325 207.891,247.473 205.584,245.864 			"/>
		</g>
		<g>
			<polygon fill="#FFFFFF" points="188.014,264.143 185.772,265.838 183.1,264.951 184.022,267.608 182.352,269.872 185.167,269.82 
				186.802,272.108 187.621,269.417 190.303,268.566 187.996,266.957 			"/>
		</g>
		<g>
			<polygon fill="#FFFFFF" points="168.54,243.705 166.297,245.4 163.629,244.514 164.549,247.172 162.88,249.437 165.692,249.382 
				167.328,251.67 168.147,248.98 170.829,248.127 168.522,246.519 			"/>
		</g>
		<g>
			<polygon fill="#FFFFFF" points="208.016,234.43 205.709,234.696 204.18,232.947 203.719,235.225 201.584,236.14 203.608,237.279 
				203.817,239.591 205.527,238.02 207.793,238.536 206.825,236.425 			"/>
		</g>
		<g>
			<polygon fill="#FFFFFF" points="182.337,228.773 180.03,229.042 178.501,227.292 178.041,229.572 175.905,230.484 
				177.931,231.625 178.141,233.939 179.848,232.365 182.115,232.881 181.146,230.771 			"/>
		</g>
		<g>
			<path fill="#0072CD" d="M179.192,266.433c-0.226,0-0.453-0.054-0.66-0.163l-3.676-1.932l-3.672,1.932
				c-0.477,0.252-1.057,0.211-1.497-0.108c-0.438-0.316-0.657-0.855-0.565-1.389l0.701-4.092l-2.973-2.896
				c-0.388-0.378-0.526-0.942-0.36-1.457c0.168-0.514,0.612-0.889,1.147-0.967l4.106-0.597l1.838-3.723
				c0.477-0.97,2.069-0.97,2.547,0l1.838,3.723l4.106,0.597c0.536,0.079,0.979,0.453,1.147,0.967
				c0.167,0.515,0.028,1.079-0.359,1.457l-2.973,2.896l0.704,4.091c0.091,0.533-0.128,1.071-0.564,1.39
				C179.78,266.341,179.486,266.433,179.192,266.433z M174.855,261.313c0.227,0,0.454,0.054,0.66,0.164l1.789,0.939l-0.342-1.99
				c-0.079-0.461,0.074-0.932,0.408-1.258l1.447-1.409l-1.998-0.291c-0.463-0.067-0.863-0.358-1.069-0.776l-0.895-1.813
				l-0.895,1.813c-0.207,0.418-0.606,0.709-1.069,0.776l-1.998,0.291l1.447,1.409c0.334,0.327,0.487,0.796,0.408,1.257l-0.34,1.991
				l1.786-0.939C174.401,261.367,174.628,261.313,174.855,261.313z"/>
		</g>
		<g>
			<path fill="#0072CD" d="M190.923,239.012c-0.113,0-0.229-0.014-0.343-0.042c-0.524-0.13-0.929-0.547-1.044-1.075L189,235.446
				l-2.315-0.947c-0.501-0.205-0.842-0.676-0.88-1.215c-0.039-0.54,0.234-1.054,0.701-1.327l2.164-1.263l0.186-2.496
				c0.04-0.54,0.382-1.009,0.884-1.211c0.502-0.203,1.075-0.104,1.479,0.257l1.867,1.666l2.435-0.595
				c0.527-0.125,1.077,0.054,1.426,0.468c0.347,0.414,0.429,0.99,0.211,1.485l-1.008,2.292l1.317,2.131
				c0.285,0.46,0.283,1.041-0.004,1.5c-0.286,0.458-0.817,0.713-1.345,0.662l-2.493-0.25l-1.617,1.909
				C191.733,238.833,191.335,239.012,190.923,239.012z M190.424,232.958l0.342,0.139c0.433,0.178,0.752,0.556,0.851,1.012
				l0.081,0.369l0.24-0.284c0.303-0.356,0.762-0.544,1.226-0.496l0.374,0.038l-0.197-0.318c-0.245-0.398-0.28-0.891-0.091-1.319
				l0.149-0.341l-0.363,0.089c-0.458,0.11-0.934-0.008-1.283-0.321l-0.276-0.246l-0.028,0.37c-0.035,0.466-0.296,0.886-0.7,1.122
				L190.424,232.958z"/>
		</g>
		<g>
			<path fill="#0072CD" d="M179.066,247.454c-0.457,0-0.891-0.221-1.16-0.601l-1.37-1.938l-2.379,0.03
				c-0.594-0.017-1.039-0.294-1.283-0.775c-0.246-0.483-0.197-1.063,0.127-1.495l1.421-1.906l-0.764-2.249
				c-0.175-0.512-0.043-1.079,0.34-1.462c0.381-0.381,0.946-0.518,1.461-0.34l2.253,0.764l1.901-1.421
				c0.438-0.322,1.014-0.371,1.496-0.127c0.481,0.245,0.782,0.744,0.775,1.284l-0.031,2.376l1.939,1.372
				c0.441,0.312,0.667,0.847,0.583,1.381c-0.083,0.534-0.463,0.974-0.98,1.134l-2.269,0.707l-0.705,2.269
				c-0.161,0.516-0.601,0.896-1.135,0.981C179.214,247.448,179.139,247.454,179.066,247.454z M177.263,242.064
				c0.461,0,0.894,0.224,1.16,0.601l0.14,0.198l0.072-0.232c0.139-0.446,0.489-0.795,0.935-0.934l0.233-0.074l-0.2-0.142
				c-0.381-0.27-0.606-0.71-0.6-1.177l0.003-0.243l-0.193,0.146c-0.375,0.28-0.868,0.356-1.307,0.207l-0.232-0.079l0.078,0.23
				c0.151,0.443,0.073,0.932-0.207,1.307L177,242.068l0.246-0.004C177.251,242.064,177.258,242.064,177.263,242.064z"/>
		</g>
		<g>
			<path fill="#0072CD" d="M204.391,252.436c-0.454,0-0.885-0.217-1.156-0.594l-1.2-1.678l-2.066,0.038c-0.01,0-0.018,0-0.026,0
				c-0.53,0-1.019-0.295-1.263-0.768c-0.249-0.48-0.203-1.06,0.118-1.495l1.225-1.663l-0.674-1.952
				c-0.176-0.511-0.047-1.077,0.333-1.462c0.378-0.384,0.945-0.52,1.458-0.35l1.958,0.651l1.648-1.245
				c0.432-0.326,1.011-0.38,1.493-0.136c0.484,0.243,0.788,0.739,0.784,1.279l-0.014,2.065l1.694,1.181
				c0.444,0.309,0.673,0.844,0.591,1.378c-0.081,0.535-0.458,0.978-0.974,1.141l-1.969,0.625l-0.603,1.977
				c-0.158,0.518-0.596,0.9-1.128,0.987C204.543,252.429,204.466,252.436,204.391,252.436z M202.79,247.31
				c0.423,0.01,0.82,0.208,1.082,0.541c0.141-0.398,0.453-0.714,0.848-0.859c-0.336-0.257-0.54-0.65-0.556-1.073
				c-0.351,0.239-0.788,0.31-1.191,0.195C203.094,246.521,203.025,246.958,202.79,247.31z"/>
		</g>
		<g>
			<path fill="#0072CD" d="M186.802,273.528c-0.454,0-0.886-0.218-1.155-0.595l-1.201-1.679l-2.067,0.038
				c-0.579-0.043-1.041-0.288-1.29-0.769c-0.248-0.479-0.201-1.06,0.12-1.495l1.227-1.661l-0.677-1.951
				c-0.178-0.511-0.05-1.078,0.331-1.464c0.381-0.385,0.947-0.521,1.459-0.351l1.963,0.653l1.645-1.245
				c0.433-0.327,1.012-0.378,1.494-0.137c0.483,0.243,0.787,0.739,0.784,1.279l-0.014,2.066l1.696,1.182
				c0.444,0.31,0.673,0.845,0.591,1.379c-0.081,0.534-0.458,0.978-0.974,1.141l-1.97,0.626l-0.601,1.975
				c-0.158,0.518-0.595,0.901-1.129,0.99C186.955,273.521,186.879,273.528,186.802,273.528z M185.202,268.4
				c0.423,0.01,0.82,0.208,1.081,0.54c0.142-0.396,0.454-0.712,0.849-0.856c-0.336-0.258-0.54-0.651-0.555-1.074
				c-0.348,0.239-0.782,0.313-1.191,0.195C185.504,267.611,185.438,268.048,185.202,268.4z"/>
		</g>
		<g>
			<path fill="#0072CD" d="M167.328,253.09c-0.454,0-0.887-0.218-1.156-0.594l-1.2-1.679l-2.064,0.04c-0.01,0-0.02,0-0.028,0
				c-0.53,0-1.017-0.296-1.262-0.768c-0.249-0.48-0.203-1.061,0.119-1.496l1.226-1.663l-0.676-1.952
				c-0.177-0.511-0.047-1.079,0.332-1.463c0.381-0.384,0.944-0.519,1.459-0.35l1.958,0.651l1.648-1.245
				c0.43-0.327,1.011-0.378,1.492-0.137c0.484,0.243,0.787,0.738,0.784,1.279l-0.014,2.066l1.696,1.182
				c0.443,0.31,0.673,0.844,0.591,1.379c-0.081,0.535-0.458,0.977-0.974,1.141l-1.97,0.625l-0.602,1.976
				c-0.158,0.518-0.596,0.9-1.128,0.988C167.48,253.084,167.404,253.09,167.328,253.09z M165.729,247.962
				c0.423,0.011,0.818,0.209,1.08,0.542c0.141-0.397,0.452-0.712,0.849-0.858c-0.336-0.257-0.54-0.652-0.555-1.075
				c-0.349,0.241-0.785,0.313-1.192,0.197C166.031,247.173,165.966,247.611,165.729,247.962z"/>
		</g>
		<g>
			<path fill="#0072CD" d="M203.817,241.011c-0.172,0-0.345-0.031-0.512-0.096c-0.503-0.194-0.855-0.658-0.903-1.196l-0.142-1.567
				l-1.374-0.772c-0.472-0.265-0.75-0.775-0.723-1.315c0.029-0.54,0.362-1.016,0.858-1.229l1.452-0.623l0.312-1.548
				c0.108-0.53,0.506-0.953,1.027-1.091c0.526-0.137,1.08,0.031,1.435,0.438l1.037,1.188l1.566-0.18
				c0.535-0.07,1.063,0.186,1.355,0.64c0.293,0.454,0.304,1.035,0.026,1.499l-0.807,1.354l0.658,1.432
				c0.225,0.491,0.153,1.068-0.189,1.488c-0.341,0.42-0.899,0.606-1.417,0.489l-1.54-0.35l-1.16,1.065
				C204.513,240.881,204.167,241.011,203.817,241.011z M204.642,236.305c0.117,0.126,0.212,0.271,0.279,0.431
				c0.155-0.074,0.323-0.118,0.495-0.132c-0.021-0.17-0.013-0.344,0.028-0.512c-0.169-0.032-0.332-0.094-0.479-0.186
				C204.883,236.058,204.773,236.193,204.642,236.305z"/>
		</g>
		<g>
			<path fill="#0072CD" d="M178.141,235.359c-0.172,0-0.346-0.031-0.511-0.095c-0.505-0.195-0.856-0.659-0.904-1.197l-0.142-1.57
				l-1.375-0.774c-0.472-0.266-0.752-0.776-0.721-1.315c0.029-0.54,0.362-1.017,0.859-1.229l1.449-0.619l0.313-1.549
				c0.107-0.53,0.506-0.953,1.028-1.09c0.524-0.141,1.079,0.031,1.435,0.438l1.038,1.188l1.564-0.182
				c0.534-0.07,1.063,0.185,1.357,0.639c0.292,0.454,0.303,1.035,0.027,1.5l-0.809,1.355l0.658,1.433
				c0.225,0.491,0.152,1.068-0.188,1.488c-0.342,0.42-0.899,0.608-1.418,0.489l-1.539-0.35l-1.158,1.067
				C178.835,235.229,178.492,235.359,178.141,235.359z M178.964,230.65c0.118,0.126,0.212,0.271,0.279,0.431
				c0.156-0.073,0.323-0.118,0.494-0.131c-0.021-0.17-0.012-0.344,0.028-0.512c-0.17-0.032-0.331-0.094-0.478-0.184
				C179.204,230.404,179.095,230.538,178.964,230.65z"/>
		</g>
	</g>
	<g>
		<g>
			<g>
				<path fill="#FFFFFF" d="M176.406,282.863h-0.485c-16.874,0.169-30.504,14.519-30.504,32.216c0,6.018,1.49,11.707,4.352,16.45
					c7.185,11.915,11.205,28.18,11.205,28.18h14.947h0.485h14.948c0,0,4.019-16.265,11.205-28.18
					c2.862-4.743,4.352-10.433,4.352-16.45C206.912,297.381,193.281,283.032,176.406,282.863z"/>
			</g>
			<g>
				<path fill="#0072CD" d="M191.354,361.127h-31.493l-0.266-1.079c-0.041-0.161-4.056-16.2-11.042-27.786
					c-2.981-4.939-4.556-10.882-4.556-17.184c0-18.371,14.315-33.459,31.91-33.637h0.5c17.61,0.178,31.926,15.266,31.926,33.637
					c0,6.302-1.576,12.244-4.556,17.184c-6.987,11.586-11.002,27.625-11.043,27.786l-0.266,1.079H191.354z M162.073,358.287h28.183
					c1.035-3.869,4.858-17.163,11.087-27.491c2.713-4.496,4.147-9.932,4.147-15.717c0-16.82-13.053-30.634-29.098-30.795h-0.472
					c-16.03,0.161-29.083,13.975-29.083,30.795c0,5.785,1.435,11.221,4.148,15.717C157.214,341.124,161.038,354.417,162.073,358.287
					z"/>
			</g>
			<g id="XMLID_543_">
				<g id="XMLID_544_">
					<g>
						<g>
							<polygon fill="#EAF5FE" points="160.157,357.398 160.157,368.35 163.534,374.232 176.108,374.232 188.681,374.232 
								192.059,368.35 192.059,357.398 							"/>
						</g>
					</g>
				</g>
			</g>
			<g id="XMLID_541_">
				<g id="XMLID_542_">
					<g>
						<g>
							<path fill="#0072CD" d="M189.503,375.653h-26.792l-3.975-6.924v-12.752h34.743v12.752L189.503,375.653z M164.356,372.811
								h23.502l2.779-4.839v-9.154h-29.061v9.154L164.356,372.811z"/>
						</g>
					</g>
				</g>
			</g>
			<g>
				<rect x="158.141" y="359.524" fill="#0072CD" width="35.933" height="2.842"/>
			</g>
			<g>
				<rect x="158.141" y="363.438" fill="#0072CD" width="35.933" height="2.841"/>
			</g>
			<g>
				<rect x="158.141" y="367.352" fill="#0072CD" width="35.933" height="2.841"/>
			</g>
			<g>
				<g>
					<rect x="178.737" y="346.2" fill="#0072CD" width="2.841" height="11.198"/>
				</g>
				<g>
					<rect x="170.75" y="346.2" fill="#0072CD" width="2.841" height="11.198"/>
				</g>
			</g>
		</g>
		<g>
			<path fill-rule="evenodd" clip-rule="evenodd" fill="#D6EAFA" d="M176.164,292.46c-2.648-2.586-10.656-0.948-10.656,4.78
				c-5.379,0-10.125,7.153-6.396,13.026c-5.095,2.872-5.655,12.185,0.44,15.387c0,7.357,8.37,12.216,16.611,7.888
				c8.243,4.328,16.611-0.53,16.611-7.888c6.096-3.202,5.535-12.515,0.441-15.387c3.728-5.873-1.017-13.026-6.396-13.026
				C186.819,291.512,178.813,289.875,176.164,292.46z"/>
		</g>
		<g>
			<path fill="#0072CD" d="M182.476,336.592C182.475,336.592,182.475,336.592,182.476,336.592c-2.132,0-4.252-0.49-6.312-1.463
				c-2.06,0.973-4.18,1.463-6.311,1.463c-6.272,0-11.248-4.376-11.689-10.104c-2.748-1.773-4.395-4.864-4.447-8.431
				c-0.049-3.306,1.309-6.389,3.542-8.23c-1.303-2.839-1.184-6.096,0.383-8.944c1.453-2.643,3.937-4.481,6.567-4.946
				c0.724-3.838,4.61-6.087,8.379-6.087c1.372,0,2.602,0.297,3.576,0.852c0.974-0.555,2.204-0.852,3.577-0.852
				c3.769,0,7.655,2.249,8.379,6.087c2.63,0.465,5.115,2.304,6.568,4.945c1.566,2.85,1.687,6.104,0.382,8.945
				c2.234,1.842,3.591,4.926,3.542,8.231c-0.053,3.566-1.7,6.656-4.448,8.428c-0.206,2.697-1.407,5.165-3.435,7.017
				C188.548,335.498,185.616,336.592,182.476,336.592z M176.164,331.937l0.66,0.348c1.855,0.973,3.756,1.466,5.651,1.466h0.001
				c2.431,0,4.681-0.832,6.335-2.344c1.64-1.498,2.543-3.542,2.543-5.753v-0.859l0.76-0.399c2.248-1.179,3.614-3.565,3.656-6.379
				c0.042-2.818-1.234-5.374-3.252-6.511l-1.304-0.735l0.802-1.264c1.42-2.237,1.486-4.882,0.18-7.257
				c-1.199-2.179-3.31-3.588-5.377-3.588h-1.42v-1.421c0-3.315-3.471-4.55-5.659-4.55c-1.113,0-2.08,0.294-2.585,0.786l-0.992,0.969
				l-0.992-0.97c-0.505-0.491-1.471-0.785-2.584-0.785c-2.188,0-5.659,1.234-5.659,4.55v1.421h-1.42
				c-2.067,0-4.178,1.409-5.377,3.59c-1.304,2.373-1.239,5.018,0.182,7.254l0.802,1.265l-1.304,0.735
				c-2.018,1.137-3.294,3.692-3.252,6.51c0.041,2.814,1.408,5.201,3.655,6.38l0.76,0.399v0.859c0,4.54,3.901,8.097,8.88,8.097
				c1.895,0,3.795-0.493,5.65-1.466L176.164,331.937z"/>
		</g>
		<g id="XMLID_528_">
			<g id="XMLID_536_">
				<g id="XMLID_537_">
					<g>
						<g>
							<path fill="#FFFFFF" d="M185.182,312.156c-0.03-0.248-0.258-0.484-0.503-0.529l-0.97-0.166
								c-0.249-0.044-0.512-0.273-0.594-0.514l-0.39-0.959c-0.108-0.226-0.081-0.575,0.069-0.778l0.577-0.803
								c0.145-0.2,0.142-0.534-0.011-0.73l-0.521-0.616c-0.173-0.184-0.495-0.244-0.721-0.134l-0.886,0.437
								c-0.227,0.107-0.572,0.074-0.769-0.075l-0.886-0.55c-0.221-0.113-0.405-0.405-0.407-0.656l-0.002-0.99
								c-0.006-0.247-0.202-0.515-0.441-0.584l-0.784-0.193c-0.243-0.047-0.54,0.093-0.659,0.314l-0.149,0.284l-0.181,0.344
								l-0.129,0.244c-0.119,0.221-0.42,0.404-0.67,0.406l-1.034,0.075c-0.251,0.034-0.573-0.103-0.721-0.307l-0.581-0.792
								c-0.149-0.204-0.464-0.303-0.698-0.218l-0.75,0.303c-0.23,0.107-0.386,0.396-0.351,0.641l0.14,0.978
								c0.033,0.252-0.103,0.573-0.306,0.72l-0.795,0.674c-0.179,0.173-0.518,0.251-0.757,0.175l-0.939-0.301
								c-0.239-0.075-0.552,0.026-0.701,0.229c0,0-0.072,0.097-0.221,0.34c-0.153,0.25-0.208,0.35-0.208,0.35
								c-0.115,0.22-0.069,0.551,0.104,0.727l0.688,0.709c0.173,0.179,0.253,0.524,0.182,0.761l-0.254,1.014
								c-0.044,0.244-0.271,0.508-0.509,0.589l-0.936,0.311c-0.237,0.077-0.424,0.347-0.419,0.594l0.057,0.811
								c0.032,0.249,0.258,0.484,0.504,0.53l0.97,0.165c0.248,0.045,0.513,0.273,0.593,0.514l0.392,0.96
								c0.109,0.225,0.081,0.576-0.065,0.778l-0.579,0.805c-0.147,0.199-0.143,0.531,0.013,0.727l0.516,0.619
								c0.172,0.181,0.494,0.242,0.721,0.133l0.886-0.437c0.225-0.111,0.568-0.075,0.769,0.074l0.889,0.555
								c0.221,0.109,0.405,0.401,0.408,0.654l0.003,0.989c0.002,0.246,0.198,0.513,0.438,0.583l0.783,0.192
								c0.243,0.047,0.541-0.094,0.659-0.313l0.462-0.873c0.116-0.22,0.417-0.4,0.667-0.406l1.035-0.073
								c0.249-0.034,0.572,0.101,0.721,0.306l0.58,0.791c0.15,0.204,0.464,0.304,0.698,0.219l0.753-0.309
								c0.226-0.101,0.382-0.391,0.348-0.64l-0.14-0.974c-0.035-0.251,0.102-0.574,0.307-0.72l0.794-0.674
								c0.182-0.172,0.524-0.253,0.76-0.174l0.939,0.299c0.237,0.078,0.55-0.027,0.698-0.228c0,0,0.072-0.097,0.225-0.34
								c0.154-0.247,0.204-0.353,0.204-0.353c0.116-0.218,0.069-0.546-0.103-0.729l-0.686-0.702
								c-0.175-0.183-0.256-0.525-0.18-0.762l0.25-1.011c0.044-0.246,0.272-0.511,0.511-0.591l0.938-0.31
								c0.234-0.082,0.427-0.347,0.417-0.601L185.182,312.156z M180.525,315.932c-1.495,2.407-4.66,3.145-7.071,1.649
								c-2.406-1.498-3.149-4.66-1.65-7.069c0.854-1.377,2.25-2.203,3.741-2.388c0.169-0.022,0.344-0.032,0.515-0.031
								c0.161-0.008,0.317-0.002,0.475,0.013c0.173,0.008,0.341,0.025,0.516,0.057c0.627,0.107,1.245,0.339,1.824,0.696
								C181.282,310.357,182.022,313.521,180.525,315.932z"/>
						</g>
					</g>
				</g>
			</g>
			<g id="XMLID_530_">
				<g id="XMLID_531_">
					<g>
						<g>
							<path fill="#FFFFFF" d="M178.095,310.118c-0.344-0.218-0.711-0.365-1.085-0.455c-0.502-0.122-1.014-0.132-1.504-0.04
								c-0.979,0.179-1.884,0.753-2.451,1.669c-1.069,1.718-0.54,3.97,1.182,5.038c1.717,1.068,3.971,0.544,5.043-1.178
								C180.343,313.436,179.813,311.18,178.095,310.118z M177.284,313.914c-0.384,0.617-1.198,0.814-1.813,0.429
								c-0.623-0.389-0.809-1.2-0.426-1.819c0.103-0.166,0.239-0.309,0.395-0.405c0.415-0.274,0.967-0.294,1.422-0.015
								c0.032,0.015,0.058,0.036,0.083,0.061C177.493,312.561,177.649,313.325,177.284,313.914z"/>
						</g>
					</g>
				</g>
			</g>
		</g>
		<g>
			<g>
				<path fill="#0072CD" d="M167.422,303.954c-1.856,0-3.335-1.402-3.335-3.129v-3.43h2.841v3.43c0,0.117,0.178,0.288,0.457,0.288
					c0.315,0,0.493-0.171,0.493-0.288v-1.474h2.841v1.474C170.718,302.551,169.24,303.954,167.422,303.954z"/>
			</g>
			<g>
				<path fill="#0072CD" d="M162.614,314.233c-0.82,0-1.635-0.291-2.272-0.87l-2.667-2.427l1.912-2.101l2.666,2.426
					c0.193,0.175,0.552,0.173,0.742,0c0.065-0.061,0.111-0.116,0.111-0.182c0-0.064-0.046-0.121-0.086-0.156l-1.146-1.041
					l1.912-2.104l1.147,1.043c0.645,0.589,1.014,1.412,1.014,2.262c0,0.848-0.37,1.67-1.014,2.256
					C164.277,313.935,163.444,314.233,162.614,314.233z"/>
			</g>
			<g>
				<path fill="#0072CD" d="M160.747,326.765l-1.911-2.101l2.666-2.428c0.039-0.034,0.086-0.092,0.086-0.154
					c0-0.064-0.045-0.121-0.084-0.156c-0.217-0.199-0.579-0.196-0.769-0.024l-1.147,1.042l-1.913-2.101l1.148-1.044
					c1.279-1.165,3.285-1.165,4.564-0.002c0.67,0.611,1.041,1.434,1.042,2.281c0,0.85-0.371,1.673-1.016,2.261L160.747,326.765z"/>
			</g>
		</g>
		<g>
			<g>
				<path fill="#0072CD" d="M184.892,303.954c-1.854,0-3.333-1.402-3.333-3.129v-1.474h2.841v1.474c0,0.117,0.177,0.288,0.455,0.288
					c0.316,0,0.494-0.171,0.494-0.288v-3.43h2.841v3.43C188.19,302.551,186.711,303.954,184.892,303.954z"/>
			</g>
			<g>
				<path fill="#0072CD" d="M189.652,314.235c-0.821,0-1.642-0.29-2.282-0.872c-0.67-0.609-1.041-1.432-1.041-2.279
					c0-0.85,0.369-1.673,1.013-2.26l1.148-1.045l1.912,2.104l-1.147,1.042c-0.039,0.034-0.084,0.091-0.084,0.155
					c0,0.065,0.046,0.121,0.084,0.156c0.219,0.198,0.58,0.197,0.769,0.025l2.666-2.426l1.912,2.101l-2.666,2.427
					C191.296,313.945,190.473,314.235,189.652,314.235z"/>
			</g>
			<g>
				<path fill="#0072CD" d="M191.53,326.765l-2.667-2.426c-0.645-0.588-1.014-1.411-1.014-2.261c0-0.848,0.37-1.67,1.014-2.256
					c1.306-1.188,3.311-1.188,4.591-0.025l1.147,1.046l-1.912,2.101l-1.147-1.045c-0.191-0.172-0.549-0.173-0.74,0.003
					c-0.065,0.06-0.111,0.115-0.111,0.181c0,0.064,0.046,0.121,0.086,0.155l2.665,2.427L191.53,326.765z"/>
			</g>
		</g>
		<g>
			<rect x="174.743" y="292.46" fill="#0072CD" width="2.841" height="6.581"/>
		</g>
		<g>
			<rect x="174.743" y="326.952" fill="#0072CD" width="2.841" height="6.58"/>
		</g>
	</g>
	<g>
		<g>
			<g>
				<path fill="#0072CD" d="M201.978,181.544c-0.441,0-0.875-0.205-1.153-0.589c-0.286-0.396-0.566-0.795-0.839-1.198
					c-0.441-0.649-0.271-1.533,0.377-1.973c0.65-0.44,1.534-0.272,1.973,0.378c0.259,0.381,0.523,0.757,0.792,1.13
					c0.458,0.636,0.316,1.524-0.32,1.983C202.557,181.457,202.267,181.544,201.978,181.544z"/>
			</g>
			<g>
				<path fill="#0072CD" d="M238.185,200.034c-0.514,0-1.024-0.008-1.533-0.025c-0.784-0.026-1.4-0.682-1.373-1.466
					c0.023-0.786,0.743-1.404,1.465-1.375c0.935,0.03,1.882,0.03,2.817,0.002c0.762-0.03,1.44,0.591,1.465,1.376
					c0.023,0.784-0.592,1.439-1.376,1.464C239.163,200.026,238.676,200.034,238.185,200.034z M245.395,199.455
					c-0.685,0-1.287-0.496-1.401-1.193c-0.125-0.774,0.401-1.504,1.176-1.63c0.928-0.15,1.857-0.333,2.763-0.542
					c0.763-0.174,1.526,0.302,1.704,1.065c0.176,0.765-0.301,1.527-1.065,1.704c-0.966,0.223-1.958,0.417-2.947,0.578
					C245.546,199.449,245.469,199.455,245.395,199.455z M230.913,199.445c-0.076,0-0.152-0.007-0.23-0.019
					c-0.985-0.161-1.974-0.356-2.944-0.581c-0.764-0.177-1.24-0.941-1.063-1.706c0.179-0.763,0.943-1.238,1.705-1.063
					c0.911,0.211,1.838,0.394,2.761,0.546c0.774,0.125,1.3,0.856,1.173,1.631C232.199,198.95,231.597,199.445,230.913,199.445z
					 M253.821,197.222c-0.575,0-1.117-0.353-1.331-0.924c-0.274-0.735,0.099-1.554,0.834-1.828c0.882-0.331,1.751-0.688,2.605-1.072
					c0.716-0.322,1.555-0.002,1.878,0.713c0.322,0.716,0.002,1.557-0.713,1.879c-0.913,0.41-1.848,0.795-2.777,1.142
					C254.154,197.193,253.986,197.222,253.821,197.222z M222.493,197.202c-0.166,0-0.334-0.03-0.5-0.091
					c-0.931-0.35-1.864-0.735-2.772-1.146c-0.715-0.323-1.032-1.165-0.709-1.879c0.323-0.714,1.163-1.033,1.879-0.709
					c0.852,0.385,1.727,0.747,2.601,1.074c0.734,0.275,1.106,1.094,0.831,1.829C223.61,196.85,223.067,197.202,222.493,197.202z
					 M261.649,193.386c-0.476,0-0.942-0.239-1.209-0.674c-0.412-0.667-0.206-1.543,0.462-1.955c0.799-0.493,1.587-1.017,2.346-1.558
					c0.639-0.454,1.526-0.306,1.981,0.333s0.307,1.526-0.333,1.981c-0.808,0.577-1.65,1.136-2.501,1.661
					C262.162,193.318,261.903,193.386,261.649,193.386z M214.674,193.357c-0.255,0-0.514-0.069-0.748-0.214
					c-0.847-0.526-1.688-1.085-2.497-1.663c-0.638-0.456-0.787-1.343-0.331-1.982c0.455-0.638,1.346-0.786,1.981-0.331
					c0.764,0.544,1.546,1.065,2.345,1.561c0.666,0.414,0.871,1.289,0.458,1.955C215.614,193.119,215.15,193.357,214.674,193.357z
					 M268.581,188.104c-0.381,0-0.762-0.152-1.041-0.453c-0.534-0.575-0.501-1.474,0.073-2.008c0.688-0.639,1.357-1.3,2.002-1.982
					c0.542-0.57,1.441-0.592,2.009-0.055c0.57,0.539,0.594,1.439,0.056,2.008c-0.684,0.723-1.401,1.433-2.132,2.112
					C269.274,187.979,268.927,188.104,268.581,188.104z M207.751,188.068c-0.347,0-0.694-0.125-0.967-0.38
					c-0.729-0.677-1.444-1.388-2.131-2.114c-0.538-0.571-0.512-1.47,0.058-2.008c0.571-0.539,1.469-0.513,2.009,0.058
					c0.642,0.682,1.315,1.35,1.998,1.984c0.574,0.534,0.607,1.433,0.073,2.007C208.511,187.916,208.131,188.068,207.751,188.068z"/>
			</g>
			<g>
				<path fill="#0072CD" d="M274.392,181.544c-0.289,0-0.578-0.087-0.829-0.27c-0.637-0.459-0.78-1.347-0.321-1.983
					c0.27-0.373,0.533-0.749,0.792-1.13c0.441-0.65,1.324-0.818,1.973-0.378s0.818,1.324,0.377,1.973
					c-0.273,0.403-0.553,0.803-0.839,1.198C275.267,181.339,274.833,181.544,274.392,181.544z"/>
			</g>
		</g>
		<g>
			<g>
				<rect x="198.875" y="176.672" fill="#FFFFFF" width="4.573" height="4.575"/>
			</g>
			<g>
				<path fill="#0072CD" d="M203.448,182.667h-4.573c-0.786,0-1.421-0.636-1.421-1.42v-4.575c0-0.785,0.635-1.421,1.421-1.421h4.573
					c0.786,0,1.421,0.636,1.421,1.421v4.575C204.87,182.031,204.234,182.667,203.448,182.667z M200.295,179.826h1.732v-1.733h-1.732
					V179.826z"/>
			</g>
		</g>
		<g>
			<g>
				<rect x="235.898" y="196.325" fill="#FFFFFF" width="4.574" height="4.574"/>
			</g>
			<g>
				<path fill="#0072CD" d="M240.473,202.32h-4.574c-0.785,0-1.42-0.636-1.42-1.421v-4.574c0-0.784,0.636-1.421,1.42-1.421h4.574
					c0.785,0,1.42,0.637,1.42,1.421v4.574C241.893,201.684,241.258,202.32,240.473,202.32z M237.319,199.479h1.733v-1.733h-1.733
					V199.479z"/>
			</g>
		</g>
		<g>
			<g>
				<rect x="272.921" y="176.672" fill="#FFFFFF" width="4.574" height="4.575"/>
			</g>
			<g>
				<path fill="#0072CD" d="M277.495,182.667h-4.574c-0.785,0-1.42-0.636-1.42-1.42v-4.575c0-0.785,0.636-1.421,1.42-1.421h4.574
					c0.786,0,1.421,0.636,1.421,1.421v4.575C278.916,182.031,278.28,182.667,277.495,182.667z M274.342,179.826h1.732v-1.733h-1.732
					V179.826z"/>
			</g>
		</g>
		<g>
			<g>
				<path fill="#92D0EF" d="M248.351,215.721c-0.643-4.18-6.584-11.506-9.09-14.3v14.024c0.422,0.288,0.714,0.748,0.714,1.3
					c0,0.903-0.729,1.634-1.632,1.634c-0.902,0-1.634-0.731-1.634-1.634c0-0.544,0.283-0.998,0.696-1.286v-14.126
					c-2.322,2.55-9.471,10.755-9.471,15.205c0,5.308,4.417,9.392,4.417,9.392h11.584
					C243.934,225.929,249.166,221.029,248.351,215.721z"/>
			</g>
			<g>
				<path fill="#0072CD" d="M243.934,227.35H232.35c-0.358,0-0.702-0.135-0.964-0.378c-0.2-0.184-4.874-4.573-4.874-10.435
					c0-4.661,6.167-12.126,9.841-16.162c0.396-0.435,1.014-0.578,1.564-0.368c0.176,0.068,0.333,0.17,0.466,0.295
					c0.11-0.086,0.233-0.156,0.369-0.208c0.548-0.21,1.171-0.059,1.565,0.378c0.881,0.98,8.622,9.736,9.437,15.032
					c0.917,5.981-4.613,11.24-4.85,11.461C244.641,227.212,244.295,227.35,243.934,227.35z M232.946,224.508h10.391
					c1.099-1.174,4.181-4.85,3.61-8.571c-0.4-2.592-3.423-7.061-6.267-10.629v9.516c0.46,0.534,0.715,1.205,0.715,1.921
					c0,1.684-1.369,3.055-3.054,3.055c-1.684,0-3.055-1.371-3.055-3.055c0-0.707,0.247-1.368,0.697-1.899v-9.721
					c-4.1,4.929-6.63,9.236-6.63,11.413C229.354,220.288,231.96,223.448,232.946,224.508z M238.34,216.527
					c-0.039,0.035-0.081,0.066-0.124,0.096c-0.058,0.042-0.089,0.082-0.089,0.121c0,0.237,0.426,0.239,0.426,0
					c0-0.054-0.06-0.103-0.096-0.127C238.417,216.589,238.378,216.559,238.34,216.527z"/>
			</g>
		</g>
	</g>
	<g>
		<g>
			<path fill="#D6EAFA" d="M393.763,200.35c-0.072,0.064-0.147,0.126-0.219,0.195L371.702,222.3
				c-1.546,1.54-1.551,4.041-0.012,5.586c1.538,1.542,4.038,1.549,5.58,0.014l21.848-21.755c0.07-0.072,0.133-0.144,0.197-0.22
				c-1.069-0.74-2.081-1.582-3.033-2.535C395.336,202.439,394.501,201.419,393.763,200.35z"/>
		</g>
		<g>
			<path fill="#0072CD" d="M374.49,230.468c-0.003,0-0.003,0-0.003,0c-1.437,0-2.787-0.561-3.803-1.579
				c-1.013-1.017-1.567-2.367-1.565-3.802c0.003-1.435,0.563-2.783,1.581-3.794l21.842-21.754c0.086-0.085,0.17-0.157,0.253-0.228
				c0.303-0.262,0.735-0.4,1.129-0.351c0.4,0.051,0.779,0.252,1.01,0.584c0.708,1.029,1.502,1.986,2.355,2.844
				c0.868,0.87,1.82,1.667,2.834,2.369c0.329,0.228,0.546,0.583,0.6,0.978c0.052,0.395-0.063,0.795-0.32,1.102
				c-0.086,0.105-0.176,0.204-0.272,0.304l-21.854,21.766C377.263,229.914,375.92,230.468,374.49,230.468z M393.594,202.502
				l-20.888,20.804c-0.479,0.478-0.745,1.112-0.745,1.788c-0.003,0.675,0.26,1.311,0.734,1.789c0.48,0.48,1.116,0.744,1.792,0.744
				h0.003c0.672,0,1.305-0.261,1.779-0.733l20.893-20.805c-0.661-0.531-1.29-1.098-1.884-1.694
				C394.688,203.801,394.124,203.168,393.594,202.502z"/>
		</g>
		<g>
			<path fill="#FFFFFF" d="M383.963,206.552l-9.345,9.316c-1.243,1.24-1.243,3.254-0.003,4.496l4.64,4.638
				c1.237,1.239,3.246,1.24,4.487,0.002l9.344-9.315c1.246-1.239,1.246-3.253,0.006-4.495l-4.64-4.638
				C387.212,205.317,385.207,205.317,383.963,206.552z"/>
		</g>
		<g>
			<path fill="#0072CD" d="M381.5,227.353L381.5,227.353c-1.229,0-2.382-0.479-3.249-1.346l-4.641-4.638
				c-0.867-0.87-1.345-2.024-1.345-3.254c0-1.229,0.479-2.384,1.351-3.252l9.346-9.315c1.739-1.732,4.761-1.729,6.495,0.005
				l4.639,4.638c0.868,0.869,1.346,2.025,1.346,3.255c0,1.229-0.482,2.383-1.354,3.25l-9.342,9.314
				C383.877,226.876,382.723,227.353,381.5,227.353z M386.207,207.046c-0.468,0-0.91,0.182-1.242,0.512l-9.342,9.315
				c-0.334,0.331-0.517,0.772-0.517,1.243c0,0.469,0.183,0.911,0.514,1.243l4.64,4.638c0.329,0.332,0.771,0.514,1.24,0.514l0,0
				c0.468,0,0.907-0.182,1.239-0.513l9.345-9.315c0.334-0.332,0.517-0.772,0.517-1.241c0-0.47-0.183-0.911-0.513-1.243l-4.64-4.638
				C387.117,207.229,386.677,207.046,386.207,207.046z"/>
		</g>
		<g id="XMLID_549_">
			<g>
				<g>
					<g>
						<path fill="#54AAE3" d="M401.403,173.123l-1.828-2.785l-5.878,3.864l1.831,2.783c-1.984,1.903-3.494,4.165-4.493,6.615
							l-3.266-0.675l-1.423,6.889l3.266,0.674c-0.044,2.081,0.25,4.186,0.899,6.224c0.165,0.527,0.357,1.053,0.574,1.57
							c0.008,0.02,0.019,0.042,0.027,0.061l-2.789,1.829l3.863,5.877l2.788-1.832c0.497,0.521,1.023,1.009,1.567,1.465
							c1.534,1.281,3.238,2.294,5.047,3.03l-0.675,3.266l6.885,1.423l0.674-3.262c2.647,0.055,5.321-0.436,7.858-1.502l1.828,2.785
							l5.879-3.862l-1.831-2.786c1.983-1.902,3.495-4.16,4.495-6.615l3.263,0.676l1.427-6.885l-3.27-0.679
							c0.058-2.646-0.43-5.321-1.5-7.854l2.788-1.832l-3.862-5.873l-2.784,1.83c-0.504-0.523-1.025-1.015-1.569-1.468
							c-1.534-1.277-3.24-2.291-5.047-3.027l0.674-3.265l-6.887-1.422l-0.674,3.263C406.615,171.567,403.94,172.058,401.403,173.123
							z M417.971,179.948c1.05,0.875,1.992,1.918,2.78,3.122c4.314,6.562,2.492,15.382-4.07,19.695
							c-5.365,3.524-12.225,2.953-16.916-0.953c-1.049-0.874-1.993-1.919-2.78-3.122c-0.455-0.692-0.841-1.405-1.16-2.143
							c-0.229-0.513-0.421-1.039-0.579-1.569c-1.768-5.872,0.425-12.444,5.813-15.985
							C406.418,175.471,413.278,176.043,417.971,179.948z"/>
					</g>
				</g>
			</g>
		</g>
		<g id="XMLID_546_">
			<g id="XMLID_548_">
				<path fill="#0072CD" d="M407.8,214.822c-0.094,0-0.191-0.009-0.286-0.029l-6.884-1.424c-0.768-0.159-1.263-0.91-1.104-1.677
					l0.441-2.143c-1.557-0.74-3.01-1.67-4.334-2.776c-0.285-0.239-0.566-0.486-0.838-0.738l-1.828,1.201
					c-0.654,0.431-1.534,0.249-1.968-0.407l-3.862-5.876c-0.208-0.315-0.279-0.7-0.204-1.069c0.077-0.369,0.297-0.693,0.612-0.899
					l1.828-1.198c-0.077-0.215-0.149-0.43-0.216-0.646c-0.569-1.786-0.891-3.629-0.957-5.493l-2.143-0.442
					c-0.368-0.077-0.691-0.296-0.898-0.611c-0.208-0.314-0.28-0.699-0.206-1.068l1.426-6.889c0.159-0.769,0.908-1.267,1.679-1.104
					l2.144,0.442c0.901-1.899,2.078-3.63,3.509-5.17l-1.198-1.823c-0.209-0.315-0.283-0.699-0.205-1.068
					c0.075-0.369,0.297-0.693,0.61-0.899l5.879-3.864c0.313-0.208,0.702-0.281,1.066-0.205c0.368,0.076,0.692,0.296,0.901,0.611
					l1.198,1.826c1.98-0.704,4.039-1.098,6.141-1.172l0.44-2.14c0.161-0.769,0.917-1.263,1.679-1.104l6.889,1.422
					c0.37,0.077,0.691,0.296,0.9,0.611c0.207,0.314,0.279,0.698,0.204,1.067l-0.444,2.143c1.561,0.742,3.014,1.671,4.334,2.771
					c0.281,0.235,0.562,0.482,0.839,0.742l1.825-1.199c0.655-0.431,1.538-0.248,1.967,0.406l3.862,5.874
					c0.206,0.315,0.28,0.699,0.203,1.068c-0.075,0.369-0.296,0.693-0.611,0.9l-1.828,1.2c0.707,1.981,1.102,4.039,1.174,6.141
					l2.146,0.445c0.768,0.16,1.26,0.911,1.102,1.678l-1.427,6.885c-0.074,0.369-0.297,0.693-0.609,0.9
					c-0.314,0.207-0.697,0.283-1.069,0.203l-2.137-0.442c-0.9,1.896-2.08,3.628-3.516,5.169l1.203,1.827
					c0.204,0.314,0.279,0.699,0.201,1.068c-0.074,0.369-0.296,0.692-0.61,0.9l-5.878,3.862c-0.653,0.43-1.535,0.248-1.968-0.407
					l-1.198-1.826c-1.979,0.704-4.037,1.097-6.142,1.174l-0.44,2.138c-0.077,0.369-0.297,0.693-0.614,0.899
					C408.346,214.742,408.074,214.822,407.8,214.822z M402.594,210.874l4.104,0.849l0.386-1.871c0.139-0.67,0.721-1.158,1.42-1.132
					l0.364,0.004c2.386,0,4.711-0.469,6.911-1.395c0.63-0.264,1.362-0.043,1.739,0.529l1.049,1.598l3.505-2.302l-1.052-1.598
					c-0.378-0.572-0.291-1.332,0.203-1.806c1.819-1.743,3.221-3.804,4.164-6.125c0.258-0.633,0.924-0.998,1.604-0.855l1.87,0.387
					l0.853-4.104l-1.879-0.389c-0.672-0.14-1.146-0.738-1.132-1.422c0.055-2.511-0.411-4.957-1.391-7.27
					c-0.267-0.632-0.044-1.365,0.53-1.741l1.601-1.051l-2.3-3.5l-1.599,1.049c-0.568,0.376-1.329,0.293-1.804-0.201
					c-0.476-0.496-0.965-0.954-1.456-1.362c-1.398-1.167-2.972-2.109-4.672-2.803c-0.635-0.258-0.993-0.933-0.855-1.602l0.386-1.874
					l-4.104-0.848l-0.389,1.872c-0.139,0.67-0.701,1.146-1.42,1.133l-0.371-0.004c-2.382,0-4.704,0.469-6.903,1.394
					c-0.63,0.265-1.363,0.044-1.74-0.529l-1.05-1.598l-3.501,2.303l1.049,1.595c0.378,0.573,0.292,1.332-0.202,1.807
					c-1.812,1.738-3.213,3.799-4.162,6.125c-0.256,0.632-0.927,0.993-1.601,0.855l-1.875-0.387l-0.85,4.107l1.872,0.386
					c0.672,0.139,1.149,0.737,1.136,1.422c-0.042,1.955,0.237,3.894,0.832,5.763c0.153,0.489,0.333,0.975,0.532,1.452
					c0.264,0.632,0.067,1.422-0.505,1.798l-1.6,1.047l2.303,3.502l1.6-1.052c0.572-0.374,1.333-0.29,1.808,0.207
					c0.448,0.469,0.937,0.925,1.45,1.355c1.404,1.171,2.975,2.115,4.673,2.804c0.632,0.258,0.993,0.932,0.854,1.603L402.594,210.874
					z"/>
			</g>
			<g id="XMLID_547_">
				<path fill="#0072CD" d="M408.883,206.524c-3.662,0-7.224-1.285-10.025-3.62c-1.186-0.984-2.215-2.141-3.063-3.435
					c-0.497-0.761-0.927-1.555-1.273-2.358c-0.245-0.549-0.46-1.133-0.636-1.726c-1.98-6.574,0.646-13.804,6.394-17.578
					c2.561-1.682,5.523-2.571,8.573-2.571c3.662,0,7.225,1.286,10.026,3.621c1.188,0.989,2.217,2.143,3.063,3.435
					c2.292,3.488,3.091,7.665,2.245,11.756c-0.847,4.093-3.232,7.61-6.726,9.904C414.899,205.634,411.934,206.524,408.883,206.524z
					 M408.852,178.077c-2.492,0-4.92,0.728-7.016,2.104c-4.699,3.089-6.852,9.005-5.231,14.387c0.145,0.483,0.319,0.953,0.52,1.403
					c0.288,0.666,0.638,1.314,1.048,1.94c0.693,1.059,1.534,2.004,2.502,2.809c2.295,1.91,5.211,2.962,8.209,2.962
					c2.493,0,4.921-0.728,7.019-2.105c2.857-1.877,4.811-4.755,5.503-8.104c0.692-3.349,0.038-6.766-1.84-9.623
					c-0.692-1.058-1.534-2.003-2.503-2.811C414.766,179.129,411.851,178.077,408.852,178.077z"/>
			</g>
		</g>
		<g>
			
				<rect x="377.845" y="217.842" transform="matrix(0.707 0.7072 -0.7072 0.707 266.5696 -204.8543)" fill="#0072CD" width="5.306" height="2.84"/>
		</g>
		<g>
			
				<rect x="380.972" y="214.714" transform="matrix(0.7072 0.7071 -0.7071 0.7072 265.1636 -207.9514)" fill="#0072CD" width="5.306" height="2.841"/>
		</g>
		<g>
			
				<rect x="384.723" y="210.962" transform="matrix(0.7072 0.7071 -0.7071 0.7072 263.6095 -211.7035)" fill="#0072CD" width="5.307" height="2.841"/>
		</g>
	</g>
	<g>
		<path fill="#0072CD" d="M535.544,280.274h-5.594c-2.815,0-3.986-3.031-5.018-5.704c-0.632-1.641-1.497-3.886-2.363-3.886
			c-0.884,0-1.708,2.041-2.372,3.68c-1.035,2.556-2.209,5.453-5.006,5.453c-2.792,0-3.973-2.875-5.013-5.411
			c-0.669-1.624-1.499-3.646-2.387-3.646c-0.873,0-1.753,2.232-2.394,3.858c-1.044,2.652-2.229,5.656-5.036,5.656h-7.436
			c-0.786,0-1.422-0.635-1.422-1.421c0-0.784,0.636-1.421,1.422-1.421h7.436c0.874,0,1.75-2.227,2.391-3.856
			c1.047-2.651,2.231-5.657,5.039-5.657c2.795,0,3.974,2.874,5.014,5.408c0.666,1.626,1.496,3.648,2.386,3.648
			c0.883,0,1.707-2.04,2.37-3.678c1.035-2.557,2.209-5.455,5.008-5.455c2.817,0,3.984,3.032,5.014,5.703
			c0.633,1.642,1.499,3.887,2.367,3.887h5.594c0.784,0,1.42,0.637,1.42,1.421C536.964,279.639,536.328,280.274,535.544,280.274z"/>
	</g>
	<g>
		<path fill="#0072CD" d="M370.756,155.263h-5.594c-2.815,0-3.986-3.031-5.017-5.705c-0.632-1.64-1.497-3.885-2.363-3.885
			c-0.886,0-1.71,2.041-2.373,3.68c-1.034,2.556-2.208,5.453-5.005,5.453c-2.794,0-3.973-2.874-5.013-5.411
			c-0.669-1.624-1.499-3.645-2.387-3.645c-0.874,0-1.754,2.229-2.395,3.857c-1.043,2.651-2.228,5.656-5.035,5.656h-7.437
			c-0.785,0-1.421-0.636-1.421-1.42c0-0.785,0.636-1.42,1.421-1.42h7.437c0.873,0,1.75-2.229,2.392-3.857
			c1.046-2.652,2.23-5.657,5.038-5.657c2.794,0,3.973,2.873,5.014,5.408c0.666,1.625,1.496,3.648,2.386,3.648
			c0.883,0,1.706-2.039,2.369-3.678c1.036-2.557,2.209-5.455,5.009-5.455c2.816,0,3.984,3.03,5.014,5.704
			c0.633,1.641,1.499,3.887,2.366,3.887h5.594c0.785,0,1.421,0.636,1.421,1.42C372.177,154.626,371.541,155.263,370.756,155.263z"/>
	</g>
	<g>
		<path fill="#0072CD" d="M147.724,352.724h-5.593c-2.817,0-3.985-3.031-5.017-5.704c-0.632-1.641-1.499-3.887-2.364-3.887
			c-0.883,0-1.708,2.041-2.373,3.681c-1.035,2.555-2.207,5.452-5.003,5.452c-2.795,0-3.975-2.875-5.016-5.41
			c-0.667-1.625-1.497-3.646-2.384-3.646c-0.875,0-1.753,2.229-2.395,3.856c-1.044,2.652-2.229,5.657-5.037,5.657h-7.436
			c-0.784,0-1.42-0.636-1.42-1.421s0.636-1.42,1.42-1.42h7.436c0.874,0,1.752-2.229,2.393-3.857c1.045-2.652,2.23-5.656,5.039-5.656
			c2.793,0,3.973,2.872,5.012,5.407c0.667,1.625,1.498,3.648,2.388,3.648c0.881,0,1.706-2.039,2.369-3.679
			c1.036-2.557,2.208-5.454,5.007-5.454c2.816,0,3.984,3.031,5.015,5.703c0.632,1.642,1.499,3.888,2.366,3.888h5.593
			c0.785,0,1.421,0.635,1.421,1.42S148.509,352.724,147.724,352.724z"/>
	</g>
	<g>
		<path fill="#0072CD" d="M187.5,196.46h-5.593c-2.817,0-3.986-3.032-5.017-5.706c-0.632-1.64-1.498-3.885-2.364-3.885
			c-0.883,0-1.709,2.041-2.372,3.68c-1.035,2.555-2.208,5.452-5.004,5.452c-2.795,0-3.974-2.875-5.015-5.41
			c-0.667-1.625-1.497-3.646-2.385-3.646c-0.875,0-1.753,2.23-2.395,3.858c-1.045,2.651-2.229,5.656-5.037,5.656h-7.436
			c-0.785,0-1.42-0.636-1.42-1.42s0.636-1.421,1.42-1.421h7.436c0.874,0,1.752-2.229,2.393-3.856
			c1.045-2.652,2.229-5.657,5.038-5.657c2.793,0,3.973,2.872,5.013,5.408c0.667,1.625,1.497,3.647,2.387,3.647
			c0.881,0,1.707-2.039,2.37-3.678c1.035-2.557,2.208-5.455,5.006-5.455c2.816,0,3.984,3.03,5.015,5.704
			c0.633,1.641,1.498,3.887,2.366,3.887h5.593c0.785,0,1.42,0.637,1.42,1.421S188.286,196.46,187.5,196.46z"/>
	</g>
</g>
</svg>
